<svg width="108" height="110" viewBox="0 0 108 110" fill="none" xmlns="http://www.w3.org/2000/svg">
<path d="M14.3796 18.4824C8.33847 25.3396 4.34527 33.1105 2.39999 41.7949C0.16472 51.7754 0.606129 61.7443 3.72422 71.7016C5.97745 78.9002 9.86672 85.479 15.392 91.438" stroke="#E3D8DF" stroke-width="0.769898"/>
<path d="M15.3921 91.438C19.878 96.409 25.1262 100.288 31.1365 103.075" stroke="#FDC8A2" stroke-width="0.769898"/>
<path d="M31.1365 103.075C33.2101 104.207 35.3863 105.127 37.6652 105.835" stroke="#918892" stroke-width="0.769898"/>
<path d="M37.6653 105.835C50.2557 110.062 62.6485 109.618 74.8437 104.503" stroke="#FDC8A4" stroke-width="0.769898"/>
<path d="M74.8435 104.503C77.0788 103.641 79.196 102.55 81.1952 101.231" stroke="#918892" stroke-width="0.769898"/>
<path d="M81.1951 101.231C86.7435 97.8565 91.5784 93.6284 95.6999 88.5471" stroke="#FDC8A2" stroke-width="0.769898"/>
<path d="M95.7001 88.547C103.253 78.7462 107.182 67.7097 107.487 55.4375C107.554 52.8378 107.444 50.2754 107.156 47.7501C106.222 39.5507 103.624 32.1122 99.361 25.4346C93.5688 16.3626 85.685 9.59266 75.7097 5.12468C73.3179 4.05452 70.9068 3.1871 68.4765 2.52242C65.1737 1.61908 61.9388 1.06861 58.772 0.871001C41.131 -0.229954 26.3336 5.64052 14.3796 18.4824" stroke="#B9B8CB" stroke-width="0.769898"/>
<path d="M95.7 88.5472C93.4904 86.8329 90.7008 84.9466 87.3312 82.8884C84.7572 81.3178 82.3102 80.1668 79.9902 79.4354" stroke="#B8816F" stroke-width="0.769898"/>
<path d="M79.9902 79.4353C78.0398 78.5961 76.0522 78.0328 74.0273 77.7454" stroke="#4C425F" stroke-width="0.769898"/>
<path d="M74.0272 77.7453C72.7363 77.5246 71.6123 77.1628 70.655 76.6598" stroke="#B8B7CB" stroke-width="0.769898"/>
<path d="M70.6552 76.6597C69.8442 76.3569 69.1462 76.0002 68.5611 75.5895C67.8322 75.0763 67.4242 74.486 67.3369 73.8188C67.2112 72.8641 67.0238 70.3709 66.7749 66.3392" stroke="#B897A2" stroke-width="0.769898"/>
<path d="M66.7749 66.3394C66.7749 66.0392 66.866 65.7145 67.0482 65.3655" stroke="#B47C8A" stroke-width="0.769898"/>
<path d="M67.0481 65.3655C68.8702 65.6607 70.6268 65.6158 72.3181 65.2308C74.6893 64.6893 76.4845 63.3446 77.7035 61.1966C78.227 60.2778 78.295 59.3206 77.9075 58.3248" stroke="#463E5B" stroke-width="0.769898"/>
<path d="M77.9077 58.3247C78.6545 57.7165 79.4616 57.4278 80.329 57.4586C80.7884 57.474 81.3684 57.5459 82.069 57.6742C82.8851 57.8205 83.4625 57.8962 83.8013 57.9013C86.2727 57.9347 88.0024 56.7606 88.9904 54.379C89.1239 54.0582 89.2676 53.4397 89.4215 52.5236C89.5524 51.7537 89.718 51.148 89.9181 50.7066C90.3647 49.7288 90.9665 48.8486 91.7235 48.0658C92.3728 47.3986 92.9913 46.7031 93.579 45.9794C95.0726 44.1419 95.3677 42.257 94.4644 40.3245C94.141 39.6316 93.6342 39.0401 92.9438 38.5499C92.2945 38.0905 91.5952 37.7107 90.8459 37.4105C90.0041 37.0691 89.3458 36.6701 88.8711 36.2133C88.1448 35.5152 88.0319 34.7492 88.5323 33.9151C88.812 33.4481 88.9558 33.2068 88.9635 33.1914C89.4331 32.2624 89.6987 31.6901 89.7603 31.4745C90.2838 29.6371 90.0593 28.0947 89.0866 26.8474C88.4451 26.0237 87.3634 25.2935 85.8415 24.6571C84.6174 24.1438 83.3368 23.7845 81.9997 23.5792C80.619 23.3662 79.7811 23.1673 79.486 22.9826C78.1053 22.1177 77.7127 20.9064 78.3081 19.3486C78.5929 18.6018 78.7469 17.8987 78.77 17.2391" stroke="#4A405D" stroke-width="0.769898"/>
<path d="M78.7701 17.2391C79.0139 15.9251 78.5635 14.7433 77.4189 13.6937C75.6738 12.0949 73.6913 11.2121 71.4714 11.0453C67.0933 10.7168 63.757 12.3836 61.4627 16.0457C61.3344 16.2536 61.2407 16.2382 61.1817 15.9996C60.7968 14.4238 60.1475 12.9764 59.2339 11.6573C58.2356 10.2125 56.9909 9.34379 55.4999 9.05123C53.9036 8.73814 52.2714 8.78947 50.6033 9.20522C49.138 9.56964 47.7945 10.0919 46.5729 10.7719C45.2564 11.5033 44.1413 12.458 43.2277 13.636C42.8658 14.1056 42.7542 14.6279 42.8928 15.2027C43.2213 16.586 42.7324 17.4957 41.4261 17.932C40.7486 18.1578 40.0506 18.2708 39.332 18.2708C37.7563 18.2682 36.1844 18.3349 34.6164 18.4709C32.9893 18.6121 31.5381 19.0894 30.2626 19.9029C27.627 21.5788 26.8417 23.8577 27.9067 26.7396C27.9632 26.8962 28.1172 27.2016 28.3687 27.6558C28.538 27.9612 28.6728 28.2794 28.7729 28.6105C28.9268 29.1186 28.8794 29.6011 28.6304 30.0579C28.13 30.9664 27.3755 31.4976 26.3669 31.6516C26.2797 31.6644 25.4969 31.6041 24.0187 31.4707C22.6252 31.3449 21.387 31.6503 20.304 32.3868C19.4237 32.9822 18.6577 33.9138 18.0058 35.1816C17.3668 36.4262 17.0011 37.6606 16.9087 38.8848C16.5187 44.0867 18.5114 47.8156 22.887 50.0714C23.4849 50.3794 24.4717 50.7309 25.8473 51.1262C27.0149 51.4623 28.0055 51.8165 28.8191 52.1886C29.2887 52.4042 29.6685 52.7481 29.9585 53.2203C30.1484 53.5231 30.2767 53.9979 30.3435 54.6446C30.5719 56.8311 31.3264 58.8226 32.607 60.619C33.5616 61.9612 34.7126 62.8325 36.0599 63.2328C38.5852 63.9847 41.4082 64.2683 44.5288 64.0836" stroke="#4C415E" stroke-width="0.769898"/>
<path d="M44.5288 64.0836L46.084 65.6388" stroke="#B898A4" stroke-width="0.769898"/>
<path d="M46.0839 65.6387C46.1352 66.9039 46.1301 68.7965 46.0685 71.3167C46.0326 72.8257 45.4231 73.9215 44.24 74.6041" stroke="#B897A2" stroke-width="0.769898"/>
<path d="M44.2402 74.6041C41.8766 74.5169 40.3368 74.5438 39.6208 74.685C36.7286 75.2573 34.5793 75.546 33.1729 75.5511C31.3714 75.5563 29.9599 75.4279 28.9385 75.1662C24.024 73.9061 19.9897 71.6529 16.8357 68.4065C10.8176 62.2114 8.36809 54.5881 9.48701 45.5367C10.0465 40.9917 11.2308 36.6174 13.0401 32.4137C13.7997 30.6481 14.3836 29.1481 14.7916 27.9137C15.8002 24.8597 15.6629 21.716 14.3797 18.4824" stroke="#9D92AC" stroke-width="0.769898"/>
<path d="M79.9902 79.4354L81.1951 101.231" stroke="#905236" stroke-width="0.769898"/>
<path d="M74.8435 104.503C75.0462 100.179 74.9461 95.847 74.5432 91.5073" stroke="#905237" stroke-width="0.769898"/>
<path d="M76.1907 57.6356C74.52 57.7716 73.8143 58.675 74.0735 60.3457C74.2326 61.3722 74.7587 61.947 75.6518 62.0702C76.165 62.1421 76.6167 62.0163 77.0068 61.693C77.3943 61.3722 77.6676 60.95 77.8267 60.4265C78.0731 59.6181 77.8806 58.9547 77.2493 58.4363" stroke="#89828B" stroke-width="0.769898"/>
<path d="M67.0483 65.3656L66.6672 65.1654" stroke="#86494D" stroke-width="0.769898"/>
<path d="M77.9078 58.3247C77.6691 58.2785 77.4497 58.3157 77.2495 58.4364" stroke="#1C0D1F" stroke-width="0.769898"/>
<path d="M77.2495 58.4363L76.1909 57.6356" stroke="#8D848D" stroke-width="0.769898"/>
<path d="M76.1909 57.6356C76.522 57.3456 76.4951 57.1583 76.1101 57.0736" stroke="#1C0D1F" stroke-width="0.769898"/>
<path d="M76.11 57.0737L74.7742 52.7892C74.7403 52.6772 74.7488 52.5563 74.7983 52.4488C74.8479 52.3413 74.935 52.2543 75.0437 52.204C76.8119 51.3879 77.7653 49.9316 77.9038 47.8349C78.027 45.9846 77.4727 44.514 76.2409 43.4234C75.5813 42.8382 74.855 42.5174 74.062 42.461C73.2896 42.4045 72.4684 42.5405 71.5984 42.869C71.5671 42.8807 71.5337 42.8857 71.5006 42.8839C71.4674 42.882 71.4353 42.8733 71.4064 42.8583C71.3775 42.8433 71.3525 42.8224 71.3331 42.797C71.3138 42.7716 71.3005 42.7423 71.2943 42.7112L71.0171 41.2638" stroke="#8E6768" stroke-width="0.769898"/>
<path d="M71.0171 41.2637C71.1556 40.7992 71.0607 40.4155 70.7322 40.1127C70.6449 40.0306 70.3986 39.9087 69.9931 39.747C69.7904 39.6674 69.5389 39.5481 69.2386 39.389C67.6115 38.5344 65.7587 38.1789 63.6799 38.3227" stroke="#8F6061" stroke-width="0.769898"/>
<path d="M63.68 38.3227C62.4405 38.3843 61.949 37.8556 62.2056 36.7367C62.3416 36.149 62.6843 35.8949 63.2334 35.9745L67.6065 36.602C67.7143 36.6173 67.7297 36.5917 67.6527 36.525C66.8058 35.7807 66.136 34.9133 65.6432 33.9227C65.3892 33.4146 65.239 32.7653 65.1928 31.9749C65.1415 31.1228 65.0786 30.4505 65.0042 29.9577C64.627 27.4658 63.3682 25.5744 61.2279 24.2836C60.4734 23.8268 59.6791 23.7459 58.845 24.0411C58.4524 24.1771 57.7787 24.5299 56.824 25.0997C54.6375 26.3982 52.1059 27.1219 49.229 27.2708" stroke="#8E6768" stroke-width="0.769898"/>
<path d="M69.5349 24.5454C70.1329 26.0647 71.1401 27.0835 72.5568 27.6019C73.9066 28.0946 75.7865 28.6657 78.1963 29.3149C79.8182 29.7512 81.0346 30.5108 81.8456 31.5938C82.8259 32.9078 82.8272 34.2102 81.8494 35.5011C81.5748 35.8681 81.2964 36.2312 81.0141 36.5905C80.6779 37.0216 80.4431 37.4078 80.3096 37.7492C79.6501 39.4327 79.9773 40.9006 81.2913 42.153C81.5376 42.3865 81.7635 42.6124 81.9688 42.8305C82.1895 43.064 82.4256 43.2809 82.6771 43.4811C82.8413 43.6119 82.926 43.5991 82.9311 43.4426C82.9337 43.3528 82.8606 43.2527 82.7117 43.1423C82.1189 42.7086 81.6069 42.1543 81.1758 41.4793C80.719 40.7633 80.4777 40.0704 80.4521 39.4006C80.4187 38.546 80.6728 37.744 81.2143 36.9947C81.6634 36.3762 82.0984 35.7474 82.5192 35.1084C82.9709 34.4232 83.0081 33.593 82.6309 32.6178C82.0483 31.1011 81.0115 30.013 79.5205 29.3534C78.8455 29.0532 78.1501 28.8068 77.4341 28.6143C75.7916 28.1729 74.1658 27.675 72.5568 27.1207C71.7689 26.8487 71.0811 26.1186 70.4934 24.9304" stroke="#392B40" stroke-width="0.769898"/>
<path d="M78.7701 17.2391C78.3774 17.7447 78.1413 18.2952 78.0617 18.8906C78.0463 19.0189 78.0027 19.1344 77.9309 19.237C77.5049 19.8504 77.3599 20.5292 77.4959 21.2734C77.5086 21.3416 77.5071 21.4088 77.4914 21.4673C77.4758 21.5258 77.4467 21.5733 77.4073 21.6044C77.1892 21.779 77.0801 21.5326 77.0801 20.8653C77.0801 20.6421 77.0301 20.6305 76.93 20.8307C76.5399 21.6006 76.4642 22.4988 76.7029 23.5253C76.7401 23.6847 76.7197 23.8525 76.6451 23.9988C76.155 24.9715 75.5647 25.7465 74.8744 26.3239C74.8227 26.3673 74.7654 26.3995 74.7068 26.4181C74.6482 26.4368 74.5897 26.4414 74.5356 26.4317L73.5925 26.2585C73.5736 26.2546 73.5541 26.2548 73.5354 26.2591C73.5166 26.2633 73.4989 26.2716 73.4836 26.2833C73.4683 26.295 73.4556 26.3098 73.4465 26.3267C73.4374 26.3437 73.4321 26.3625 73.4308 26.3817C73.4231 26.5254 73.3615 26.5703 73.246 26.5164C73.1254 26.4599 73.0484 26.4253 73.0151 26.4125C72.6635 26.2841 72.4094 25.9441 72.2529 25.3924C72.2284 25.3042 72.1854 25.2222 72.1267 25.1519C72.0681 25.0816 71.995 25.0246 71.9124 24.9845C71.8298 24.9445 71.7396 24.9224 71.6476 24.9197C71.5557 24.917 71.4641 24.9338 71.379 24.9689C71.2302 25.0305 70.9351 25.0177 70.4937 24.9304" stroke="#231023" stroke-width="0.769898"/>
<path d="M70.4937 24.9303C69.154 22.8567 67.3204 21.3567 64.9927 20.4303C64.9491 20.4149 64.9081 20.4098 64.8696 20.4149C64.6925 20.4406 64.7015 20.5009 64.8965 20.5958C66.793 21.512 68.3392 22.8285 69.5351 24.5454" stroke="#3B2C42" stroke-width="0.769898"/>
<path d="M69.5351 24.5455C68.9628 24.7816 68.3802 24.8368 67.7874 24.711C67.6586 24.6838 67.5322 24.7003 67.4332 24.7572C66.7891 25.1268 66.2476 25.6131 65.8088 26.2162C65.7762 26.2626 65.7297 26.2966 65.6775 26.3121C65.6253 26.3276 65.5708 26.3237 65.5239 26.3009C65.2544 26.1649 65.0453 25.966 64.8964 25.7042C64.8691 25.6561 64.8283 25.617 64.779 25.5917C64.7298 25.5664 64.6743 25.556 64.6193 25.5618C64.0085 25.6259 63.4798 25.309 63.0333 24.6109C62.8531 24.3271 62.5684 24.1253 62.2403 24.0489C61.7835 23.9437 61.2907 23.7679 60.7621 23.5216C60.1 23.2136 59.4468 23.2226 58.8027 23.5485C58.0251 23.9437 57.2539 24.3505 56.4891 24.7688C55.5576 25.2795 54.7941 25.6401 54.1987 25.8505C53.2466 26.1918 52.4215 26.3907 51.7235 26.4472C50.6636 26.5318 49.8321 26.8064 49.229 27.271" stroke="#231023" stroke-width="0.769898"/>
<path d="M49.2291 27.2709C48.3103 27.5968 47.5212 28.1088 46.8616 28.8068C46.5306 29.1558 46.4266 29.5626 46.5498 30.0271C46.6884 30.5558 46.8449 31.0793 47.0194 31.5977C47.2633 32.3137 47.4005 32.8372 47.4313 33.1683C47.6136 35.0084 46.7423 36.3364 44.8175 37.1525C42.8594 37.984 41.5814 38.5139 40.9834 38.7424C40.924 38.7655 40.8704 38.7997 40.826 38.8427C40.7816 38.8858 40.7474 38.9368 40.7255 38.9926C40.3149 40.0242 40.1661 41.1342 40.279 42.3224C40.2843 42.3788 40.2767 42.4357 40.2567 42.4888C40.2368 42.5418 40.205 42.5896 40.1638 42.6286C40.1227 42.6675 40.0731 42.6966 40.0191 42.7136C39.965 42.7305 39.9078 42.735 39.8517 42.7266C36.4564 42.1876 34.5561 43.6017 34.1506 46.9687C33.8657 49.3451 34.6895 51.225 36.622 52.6082C36.6987 52.6626 36.7546 52.7438 36.781 52.8397C36.8074 52.9356 36.8029 53.0408 36.7683 53.1395L35.4633 56.9504C35.4509 56.9867 35.4481 57.0254 35.4549 57.0632C35.4618 57.1011 35.4782 57.1369 35.5027 57.1679C35.5272 57.1988 35.5592 57.2239 35.5958 57.241C35.6325 57.2581 35.6729 57.2667 35.7135 57.2661C36.1344 57.261 36.3936 57.0403 36.4911 56.604C36.7554 55.4209 37.1096 54.2661 37.5536 53.1395C37.5736 53.0866 37.6083 53.0396 37.6542 53.0031C37.7001 52.9667 37.7556 52.942 37.8153 52.9316L39.5091 52.6313C39.5412 52.6257 39.5741 52.6263 39.6058 52.6332C39.6374 52.6402 39.6671 52.6532 39.6931 52.6716C39.7191 52.69 39.7407 52.7134 39.7568 52.7402C39.7728 52.767 39.7828 52.7968 39.7863 52.8276C40.32 57.1057 41.9009 60.8577 44.5288 64.0836" stroke="#91686A" stroke-width="0.769898"/>
<path d="M74.0273 77.7454C74.5226 82.3596 74.6946 86.9469 74.5432 91.5073" stroke="#918891" stroke-width="0.769898"/>
<path d="M74.543 91.5073C73.1803 93.2704 71.8933 94.5843 70.6819 95.4492C67.8436 97.4714 64.6716 98.7212 61.166 99.1986C58.728 99.5322 56.1681 99.5412 53.4863 99.2255C50.6864 98.8945 48.029 98.1489 45.514 96.989C42.3805 95.5416 39.8539 93.2524 37.9343 90.1215" stroke="#FDC7A3" stroke-width="0.769898"/>
<path d="M37.9343 90.1215L38.3924 77.5375" stroke="#918891" stroke-width="0.769898"/>
<path d="M44.2401 74.6042L43.0698 75.455" stroke="#E2B7B6" stroke-width="0.769898"/>
<path d="M43.0697 75.4551C41.3888 75.9221 39.8297 76.6163 38.3926 77.5376" stroke="#E2D8DF" stroke-width="0.769898"/>
<path d="M38.3925 77.5375C36.2855 78.0328 34.3402 78.8617 32.5566 80.0243" stroke="#766273" stroke-width="0.769898"/>
<path d="M32.557 80.0243C32.2926 79.9473 32.0565 79.9717 31.8487 80.0975C26.5877 83.3336 21.1022 87.1138 15.3921 91.4381" stroke="#E2A283" stroke-width="0.769898"/>
<path d="M70.6553 76.66C71.5227 79.8935 71.6818 83.1335 71.1326 86.3799C70.971 87.3372 70.7285 88.1109 70.4051 88.7012C70.0099 89.4274 69.4902 90.069 68.846 90.6259C67.1959 92.0502 65.3212 93.0652 63.2219 93.6709C59.7317 94.6769 56.1876 94.9001 52.5897 94.3407C50.1439 93.9609 48.0344 93.0716 46.2611 91.673C45.0164 90.6901 44.1079 89.5481 43.5356 88.2469C42.9557 86.933 42.6451 85.4599 42.6041 83.8277C42.5219 80.5454 42.6772 77.7545 43.0699 75.4551" stroke="#FDDDD4" stroke-width="0.769898"/>
<path d="M66.7748 66.3394C64.9297 69.2136 62.7354 71.3463 60.1922 72.7372C58.2341 73.8074 56.2593 74.0576 54.2679 73.4879C52.7922 73.067 51.2781 72.0738 49.7255 70.5084C48.3704 69.1456 47.2477 67.6828 46.3571 66.1199C46.2365 65.9095 46.3007 65.8081 46.5496 65.8158" stroke="#F9A194" stroke-width="0.769898"/>
<path d="M63.6802 38.3228C63.5108 38.7514 63.1887 38.922 62.7139 38.8348C62.6603 38.825 62.6068 38.8019 62.5565 38.7668C62.5063 38.7318 62.4604 38.6856 62.4214 38.6308C62.0056 38.0405 61.4949 37.8044 60.8893 37.9225C59.9757 38.1021 59.1506 38.7283 58.4141 39.801" stroke="#FDB8A8" stroke-width="0.769898"/>
<path d="M58.4137 39.8009C57.5334 43.4836 57.8799 47.0559 59.453 50.5179" stroke="#EE9583" stroke-width="0.769898"/>
<path d="M59.4533 50.518C58.9734 51.6934 58.129 52.4479 56.9203 52.7815C56.1992 52.9791 56.203 53.1588 56.9319 53.3204C57.4939 53.4488 58.1534 53.5142 58.9105 53.5168C59.6855 53.5193 60.3322 53.4128 60.8506 53.1973C62.4469 52.5377 62.9011 51.2392 62.2134 49.3016C61.9875 48.6703 61.9388 48.0685 62.0671 47.4962C62.2211 46.7981 62.2993 46.4388 62.3019 46.4183C62.4097 45.5124 62.5162 44.6052 62.6214 43.6967C62.6419 43.5222 62.7651 43.4581 62.991 43.5042" stroke="#FBA696" stroke-width="0.769898"/>
<path d="M62.9908 43.504C62.9677 45.0541 63.6709 45.8484 65.1003 45.8869C65.1615 45.8881 65.2219 45.876 65.2772 45.8513C65.3325 45.8267 65.3812 45.7902 65.4198 45.7444C65.9254 45.1388 66.0883 44.4241 65.9087 43.6003" stroke="#A8786F" stroke-width="0.769898"/>
<path d="M65.9089 43.6004L67.1446 43.4888" stroke="#F4A092" stroke-width="0.769898"/>
<path d="M67.1445 43.4888L69.0192 45.2095C69.1937 45.3712 69.2245 45.3506 69.1116 45.1479L68.5727 44.1778" stroke="#A8786F" stroke-width="0.769898"/>
<path d="M68.5728 44.1779C68.9141 42.7972 69.7289 41.8258 71.0172 41.2638" stroke="#FDB8A8" stroke-width="0.769898"/>
<path d="M76.11 57.0737C76.0048 57.3406 75.8123 57.2777 75.5326 56.8851C75.4017 56.7003 75.2901 56.4642 75.1977 56.1768L74.116 52.847C74.098 52.7906 74.0664 52.7387 74.0237 52.6953C73.981 52.6519 73.9283 52.6182 73.8696 52.5968C72.9997 52.2631 72.4902 52.5044 72.3414 53.3205C71.5022 57.9424 69.6108 61.8907 66.6672 65.1654" stroke="#8A6566" stroke-width="0.769898"/>
<path d="M66.667 65.1654C66.4129 65.3322 66.1627 65.5311 65.9163 65.7621C65.6135 66.0444 65.3723 66.2484 65.1926 66.3741C58.8769 70.801 52.6626 70.615 46.5496 65.816" stroke="#F8A396" stroke-width="0.769898"/>
<path d="M46.5498 65.8158C46.4189 65.7054 46.2636 65.6464 46.084 65.6387" stroke="#FDBEAD" stroke-width="0.769898"/>
<path d="M68.5727 44.1778C67.2151 42.2428 65.3917 41.6063 63.1025 42.2685" stroke="#A87168" stroke-width="0.769898"/>
<path d="M63.1026 42.2684C61.7758 42.7766 60.9533 43.6799 60.635 44.9785C60.5504 45.3224 60.4066 45.8639 60.2039 46.603C60.0499 47.1599 60.0114 47.7334 60.0884 48.3237C60.0977 48.3891 60.0934 48.4532 60.0758 48.5094C60.0582 48.5656 60.028 48.6118 59.9883 48.6432C59.8369 48.7612 59.656 48.7856 59.4456 48.7163" stroke="#FB9F8F" stroke-width="0.769898"/>
<path d="M59.4456 48.7163C58.6577 45.8318 58.3138 42.86 58.4139 39.8009" stroke="#EE8E7C" stroke-width="0.769898"/>
<path d="M37.9347 90.1215L37.6653 105.835" stroke="#905237" stroke-width="0.769898"/>
<path d="M31.1365 103.075L32.5569 80.0243" stroke="#905236" stroke-width="0.769898"/>
<path d="M67.1446 43.4888C66.5261 42.7368 66.1142 42.774 65.9089 43.6004" stroke="#9F5852" stroke-width="0.769898"/>
<path d="M62.9907 43.5041C63.2345 43.0884 63.2717 42.6765 63.1024 42.2684" stroke="#A65F56" stroke-width="0.769898"/>
<path d="M59.4456 48.7163C59.4918 49.1705 59.5957 49.612 59.7574 50.0405C59.919 50.4614 59.8177 50.6205 59.4533 50.5179" stroke="#EC7C6A" stroke-width="0.769898"/>
<path d="M98.7758 52.9624C98.7758 52.838 98.7513 52.7149 98.7037 52.6C98.6561 52.4851 98.5864 52.3807 98.4984 52.2927C98.4105 52.2048 98.3061 52.1351 98.1912 52.0875C98.0763 52.0399 97.9532 52.0154 97.8288 52.0154C97.5777 52.0154 97.3368 52.1152 97.1592 52.2927C96.9816 52.4703 96.8818 52.7112 96.8818 52.9624C96.8818 53.2135 96.9816 53.4544 97.1592 53.632C97.3368 53.8096 97.5777 53.9093 97.8288 53.9093C97.9532 53.9093 98.0763 53.8849 98.1912 53.8373C98.3061 53.7897 98.4105 53.7199 98.4984 53.632C98.5864 53.544 98.6561 53.4396 98.7037 53.3248C98.7513 53.2099 98.7758 53.0867 98.7758 52.9624Z" stroke="#948DAA" stroke-width="0.769898"/>
<path d="M95.9158 57.3047C95.9158 57.1611 95.8875 57.0189 95.8325 56.8863C95.7776 56.7537 95.6971 56.6331 95.5955 56.5316C95.494 56.4301 95.3735 56.3496 95.2409 56.2946C95.1082 56.2397 94.9661 56.2114 94.8225 56.2114C94.5326 56.2114 94.2545 56.3266 94.0495 56.5316C93.8444 56.7366 93.7292 57.0147 93.7292 57.3047C93.7292 57.5946 93.8444 57.8727 94.0495 58.0777C94.2545 58.2827 94.5326 58.3979 94.8225 58.3979C94.9661 58.3979 95.1082 58.3697 95.2409 58.3147C95.3735 58.2598 95.494 58.1792 95.5955 58.0777C95.6971 57.9762 95.7776 57.8557 95.8325 57.7231C95.8875 57.5904 95.9158 57.4482 95.9158 57.3047Z" stroke="#948DAA" stroke-width="0.769898"/>
<path d="M28.0607 61.3542C28.0607 61.0918 27.9564 60.8402 27.7709 60.6546C27.5854 60.4691 27.3337 60.3649 27.0713 60.3649C26.809 60.3649 26.5573 60.4691 26.3718 60.6546C26.1863 60.8402 26.082 61.0918 26.082 61.3542C26.082 61.4841 26.1076 61.6128 26.1573 61.7328C26.2071 61.8528 26.2799 61.9619 26.3718 62.0537C26.4637 62.1456 26.5727 62.2185 26.6928 62.2682C26.8128 62.3179 26.9414 62.3435 27.0713 62.3435C27.2013 62.3435 27.3299 62.3179 27.4499 62.2682C27.57 62.2185 27.679 62.1456 27.7709 62.0537C27.8628 61.9619 27.9356 61.8528 27.9854 61.7328C28.0351 61.6128 28.0607 61.4841 28.0607 61.3542Z" stroke="#9088A8" stroke-width="0.769898"/>
<path d="M92.5165 62.1702C92.5165 61.8731 92.3985 61.5882 92.1884 61.3781C91.9783 61.1681 91.6934 61.05 91.3963 61.05C91.0992 61.05 90.8143 61.1681 90.6042 61.3781C90.3941 61.5882 90.2761 61.8731 90.2761 62.1702C90.2761 62.4673 90.3941 62.7523 90.6042 62.9623C90.8143 63.1724 91.0992 63.2905 91.3963 63.2905C91.6934 63.2905 91.9783 63.1724 92.1884 62.9623C92.3985 62.7523 92.5165 62.4673 92.5165 62.1702Z" stroke="#948BA6" stroke-width="0.769898"/>
<path d="M23.1665 64.8517C23.1419 64.7407 23.0913 64.6365 23.0175 64.5452C22.9438 64.4539 22.8484 64.3773 22.7367 64.3197C22.6251 64.262 22.4994 64.2246 22.3669 64.2093C22.2344 64.1941 22.0976 64.2015 21.9643 64.2311C21.831 64.2606 21.7039 64.3117 21.5903 64.3815C21.4766 64.4513 21.3785 64.5384 21.3017 64.6378C21.2249 64.7372 21.1708 64.847 21.1425 64.9609C21.1143 65.0748 21.1124 65.1906 21.137 65.3017C21.1617 65.4127 21.2123 65.5168 21.286 65.6081C21.3598 65.6994 21.4552 65.7761 21.5668 65.8337C21.6784 65.8913 21.8041 65.9288 21.9367 65.944C22.0692 65.9592 22.206 65.9518 22.3392 65.9223C22.4725 65.8928 22.5996 65.8416 22.7133 65.7718C22.827 65.7021 22.925 65.615 23.0019 65.5156C23.0787 65.4161 23.1328 65.3063 23.161 65.1924C23.1893 65.0785 23.1911 64.9628 23.1665 64.8517Z" stroke="#9088A8" stroke-width="0.769898"/>
<path d="M31.7415 65.7593C31.721 65.4578 31.5722 65.1775 31.3279 64.98C31.0836 64.7825 30.7638 64.6839 30.4389 64.7061C30.114 64.7282 29.8105 64.8692 29.5953 65.0981C29.3801 65.3269 29.2707 65.6249 29.2913 65.9264C29.3118 66.2279 29.4606 66.5082 29.7049 66.7058C29.9492 66.9033 30.269 67.0018 30.5939 66.9797C30.9188 66.9575 31.2223 66.8165 31.4375 66.5876C31.6527 66.3588 31.7621 66.0608 31.7415 65.7593Z" stroke="#948BA6" stroke-width="0.769898"/>
<path d="M88.4609 65.6765C88.3671 65.5712 88.2502 65.4882 88.117 65.4324C87.9838 65.3765 87.8369 65.3488 87.6846 65.3509C87.5323 65.353 87.3777 65.3849 87.2295 65.4446C87.0813 65.5044 86.9425 65.5909 86.8209 65.6991C86.5755 65.9178 86.4154 66.2121 86.3758 66.5171C86.3362 66.8221 86.4204 67.1129 86.6099 67.3256C86.7037 67.4309 86.8206 67.5138 86.9538 67.5697C87.087 67.6255 87.2339 67.6532 87.3862 67.6511C87.5385 67.649 87.6931 67.6172 87.8413 67.5574C87.9895 67.4977 88.1283 67.4112 88.2499 67.3029C88.4953 67.0842 88.6554 66.79 88.695 66.485C88.7346 66.18 88.6504 65.8891 88.4609 65.6765Z" stroke="#948DAA" stroke-width="0.769898"/>
<path d="M84.5165 70.1723C84.5033 70.0121 84.456 69.8563 84.3774 69.7137C84.2987 69.5712 84.1901 69.4447 84.0579 69.3415C83.9257 69.2383 83.7724 69.1604 83.6067 69.1123C83.4411 69.0642 83.2664 69.0468 83.0926 69.0611C82.7415 69.09 82.4154 69.2462 82.186 69.4954C81.9566 69.7446 81.8427 70.0664 81.8693 70.39C81.8824 70.5502 81.9297 70.706 82.0084 70.8486C82.0871 70.9911 82.1957 71.1176 82.3279 71.2208C82.4601 71.324 82.6134 71.4018 82.779 71.4499C82.9447 71.4981 83.1194 71.5155 83.2932 71.5012C83.6442 71.4723 83.9703 71.3161 84.1998 71.0669C84.4292 70.8177 84.5431 70.4959 84.5165 70.1723Z" stroke="#9088A8" stroke-width="0.769898"/>
<path d="M79.5078 72.627C79.4834 72.3781 79.3457 72.1505 79.1251 71.9944C78.9045 71.8384 78.6191 71.7665 78.3315 71.7947C78.1891 71.8087 78.0505 71.8468 77.9236 71.9068C77.7967 71.9669 77.684 72.0478 77.5918 72.1448C77.4997 72.2418 77.43 72.3531 77.3867 72.4724C77.3433 72.5916 77.3273 72.7164 77.3393 72.8396C77.3638 73.0886 77.5014 73.3161 77.722 73.4722C77.9426 73.6283 78.2281 73.7001 78.5156 73.6719C78.658 73.658 78.7966 73.6199 78.9235 73.5598C79.0504 73.4998 79.1632 73.4189 79.2553 73.3219C79.3474 73.2248 79.4172 73.1135 79.4605 72.9943C79.5038 72.8751 79.5199 72.7503 79.5078 72.627Z" stroke="#988EAA" stroke-width="0.769898"/>
<path d="M52.4704 16.0187C52.9144 16.6834 53.2275 17.3994 53.4097 18.1667C53.4456 18.313 53.5033 18.4298 53.5829 18.5171C53.8601 18.825 54.0153 18.7583 54.0487 18.3169C54.0589 18.1834 54.0448 18.0397 54.0063 17.8857C53.6573 16.5359 52.9606 15.4593 51.9161 14.656C51.6338 14.4404 51.3245 14.3853 50.9883 14.4905C50.86 14.5316 50.8575 14.5854 50.9806 14.6522C51.5863 14.9832 52.0829 15.4387 52.4704 16.0187Z" stroke="#1F0E21" stroke-width="0.769898"/>
<path d="M69.1462 18.3054C70.4447 19.1421 71.6984 20.0403 72.9071 21.0001C72.9815 21.0591 73.0444 21.0861 73.0958 21.0809C73.2087 21.0655 73.2151 20.9937 73.115 20.8654C72.1783 19.6489 71.0414 18.6699 69.7043 17.9282C69.5812 17.8615 69.4528 17.8268 69.3194 17.8243C68.6829 17.8089 68.6252 17.9693 69.1462 18.3054Z" stroke="#3B2C42" stroke-width="0.769898"/>
<path d="M51.3849 22.5707C48.177 22.5091 44.9896 22.7349 41.8228 23.2482C38.3839 23.8051 36.6144 25.7003 36.5143 28.9339C36.4938 29.6063 36.6439 30.3082 36.9647 31.0396C37.1906 31.5528 37.4908 32.2188 37.8655 33.0375C38.4147 34.2385 38.1735 35.2971 37.1418 36.2133C36.6311 36.6675 35.6213 37.422 34.1123 38.4768C33.9224 38.6077 33.8223 38.745 33.812 38.8887C33.8017 39.0478 33.8569 39.0632 33.9775 38.9349C34.4754 38.4139 35.049 37.9879 35.6982 37.6568C36.7427 37.1205 37.5806 36.3596 38.212 35.3741C38.7252 34.5734 38.8035 33.7252 38.4468 32.8296C38.1748 32.1444 37.9233 31.4528 37.6923 30.7547C36.8839 28.3013 37.315 26.3714 38.9857 24.9651C39.6632 24.3954 40.6282 23.9912 41.8805 23.7525C43.3254 23.4779 44.7843 23.2982 46.2574 23.2135C47.9922 23.116 49.7258 22.9852 51.4581 22.8209C51.5299 22.8158 51.5902 22.7965 51.639 22.7632C51.8161 22.6425 51.7314 22.5784 51.3849 22.5707Z" stroke="#36233B" stroke-width="0.769898"/>
<path d="M19.4599 40.6853C19.5388 40.6979 19.6234 40.6692 19.7091 40.6009C19.7948 40.5325 19.8798 40.4258 19.9593 40.2868C20.0387 40.1479 20.1111 39.9794 20.1722 39.791C20.2333 39.6026 20.2821 39.398 20.3156 39.1888C20.3832 38.7664 20.3848 38.3512 20.32 38.0345C20.2553 37.7177 20.1294 37.5255 19.9701 37.5C19.8912 37.4873 19.8065 37.516 19.7209 37.5844C19.6352 37.6528 19.5502 37.7595 19.4707 37.8984C19.3913 38.0374 19.3189 38.2059 19.2578 38.3943C19.1966 38.5827 19.1479 38.7873 19.1144 38.9964C19.0468 39.4188 19.0452 39.834 19.11 40.1508C19.1747 40.4675 19.3006 40.6598 19.4599 40.6853Z" stroke="#49384C" stroke-width="0.769898"/>
<path d="M35.8635 62.1141C36.3756 62.1526 36.8842 61.9573 37.2774 61.5714C37.6706 61.1854 37.9161 60.6402 37.9601 60.0558C38.004 59.4715 37.8427 58.8958 37.5117 58.4553C37.1806 58.0149 36.707 57.7458 36.1949 57.7073C35.6828 57.6688 35.1743 57.864 34.7811 58.25C34.3879 58.636 34.1423 59.1811 34.0984 59.7655C34.0545 60.3499 34.2158 60.9256 34.5468 61.366C34.8778 61.8065 35.3515 62.0755 35.8635 62.1141Z" stroke="#90858F" stroke-width="0.769898"/>
<path d="M48.1782 35.1622C48.3706 35.2752 48.5759 35.2944 48.7941 35.22C53.2543 33.6725 57.8327 33.2169 62.5291 33.8534C62.5915 33.8618 62.6536 33.8559 62.7096 33.8364C62.7655 33.8168 62.8133 33.7843 62.8486 33.7418C63.0179 33.539 62.9679 33.4261 62.6984 33.403C62.5316 33.3876 62.4187 33.3735 62.3597 33.3607C57.5119 32.2803 52.7898 32.7666 48.1936 34.8196C47.9651 34.9223 47.96 35.0365 48.1782 35.1622Z" stroke="#F2B8AB" stroke-width="0.769898"/>
<path d="M50.3878 36.8368C47.724 36.7521 45.2205 37.4309 42.8774 38.8731C42.1589 39.3145 41.9382 40.0806 42.2153 41.1713C42.2233 41.2008 42.2383 41.228 42.2591 41.2505C42.2798 41.2729 42.3057 41.2898 42.3343 41.2998C42.363 41.3097 42.3935 41.3123 42.4231 41.3073C42.4527 41.3024 42.4805 41.29 42.504 41.2714C44.6649 39.5827 47.1696 38.723 50.0182 38.6922C50.0362 38.6922 50.162 38.7025 50.3955 38.723C50.9935 38.7743 51.1795 38.3021 50.9537 37.3064C50.9247 37.1765 50.8535 37.0598 50.751 36.9748C50.6486 36.8898 50.5208 36.8413 50.3878 36.8368Z" stroke="#8F6C6A" stroke-width="0.769898"/>
<path d="M46.2612 44.0007C45.8634 44.9682 45.9455 45.6714 46.5076 46.1103C47.0029 46.4978 47.5713 46.5953 48.2129 46.4028C48.9725 46.1719 49.2753 45.5085 49.1214 44.4126" stroke="#99746D" stroke-width="0.769898"/>
<path d="M49.1213 44.4126C49.6551 44.7488 50.0119 45.2479 50.1915 45.9101" stroke="#DD907B" stroke-width="0.769898"/>
<path d="M50.1914 45.9102C50.2094 46.1412 50.2735 46.3452 50.3839 46.5223C50.3956 46.5423 50.4122 46.559 50.432 46.5709C50.4519 46.5828 50.4743 46.5894 50.4971 46.5902C50.52 46.591 50.5424 46.5858 50.5624 46.5753C50.5823 46.5647 50.5991 46.5491 50.611 46.53C50.8137 46.2195 50.8022 45.8846 50.5764 45.5253" stroke="#C77E71" stroke-width="0.769898"/>
<path d="M50.5765 45.5252L49.7142 43.8121C49.6192 43.6248 49.6693 43.5465 49.8643 43.5773C51.1141 43.7801 51.9174 44.1778 52.2741 44.7707C52.5333 45.1967 52.6462 45.162 52.6129 44.6667C52.5564 43.7891 52.2651 43.0795 51.739 42.538C51.3027 42.0889 50.6458 41.8284 49.7681 41.7565C48.5183 41.6564 47.3814 41.7578 46.3574 42.0606C44.7432 42.538 43.6461 43.6133 43.0661 45.2865C43.0071 45.4559 42.9814 45.6214 42.9891 45.7831C43.0122 46.4016 43.2612 46.3721 43.7359 45.6946C44.2389 44.9709 45.0807 44.4062 46.2612 44.0008" stroke="#DD907B" stroke-width="0.769898"/>
<path d="M50.5764 45.5251C50.2582 45.4507 50.1299 45.579 50.1915 45.9101" stroke="#A84F3C" stroke-width="0.769898"/>
<path d="M49.1212 44.4128C48.8851 43.3272 48.178 42.9115 47.0001 43.1655C46.5664 43.2579 46.32 43.5364 46.261 44.0009" stroke="#7A4539" stroke-width="0.769898"/>
<path d="M37.2878 49.7826C38.7455 50.4678 39.7117 50.2009 40.1865 48.9819C40.4252 48.3685 40.4739 47.7398 40.3328 47.0957C40.1429 46.2205 39.7579 45.6547 39.1779 45.398C38.6159 45.1491 38.0334 45.2197 37.4303 45.6097C36.7887 46.0229 36.4102 46.6658 36.2947 47.5383C36.1433 48.6547 36.4743 49.4028 37.2878 49.7826Z" stroke="#FBA696" stroke-width="0.769898"/>
<path d="M73.8196 45.5829C72.8752 44.9516 72.2644 45.1594 71.9872 46.2065C71.8101 46.866 71.7254 47.5371 71.7331 48.2198C71.7537 49.6595 72.4094 50.0829 73.7002 49.4901C74.56 49.0975 74.9565 48.4161 74.8897 47.446C74.8333 46.6453 74.4766 46.0243 73.8196 45.5829Z" stroke="#FCAB9A" stroke-width="0.769898"/>
<path d="M64.889 53.1048C66.8625 54.4265 68.6563 54.5227 70.2706 53.3935C70.9558 52.9111 71.3754 52.3285 71.5294 51.6459C71.7347 50.722 71.3882 49.9726 70.49 49.3977C69.715 48.905 68.8142 48.5958 67.7876 48.47C66.7021 48.3391 65.8141 48.5316 65.1238 49.0475C64.1768 49.7558 63.8689 50.7823 64.1999 52.127C64.3026 52.5428 64.5323 52.8687 64.889 53.1048Z" stroke="#FCA496" stroke-width="0.769898"/>
<path d="M42.6078 54.7409C43.8114 55.5775 44.9803 55.8021 46.1147 55.4145C47.1669 55.0553 47.956 54.3367 48.4821 53.2588C49.0441 52.1066 48.7926 51.1313 47.7276 50.3332C46.9834 49.7763 46.139 49.5287 45.1946 49.5903C44.0346 49.6647 42.985 50.1125 42.0457 50.9337C41.2451 51.6343 41.0731 52.4774 41.5299 53.4628C41.7737 53.9838 42.133 54.4098 42.6078 54.7409Z" stroke="#FBA393" stroke-width="0.769898"/>
<path d="M54.01 60.2224C56.4095 61.4234 58.759 61.2643 61.0584 59.745C62.2569 58.9521 63.1756 58.0038 63.8147 56.9003" stroke="#F4A092" stroke-width="0.769898"/>
<path d="M63.8147 56.9005C64.659 55.6225 64.4473 55.1336 63.1795 55.4338C62.6996 55.5467 62.4545 55.6045 62.4443 55.6071C58.3792 56.4052 54.377 56.6772 50.4377 56.4232C49.9681 56.3924 49.8577 56.5758 50.1067 56.9736C51.0459 58.4749 52.3471 59.5579 54.01 60.2226" stroke="#FDDED6" stroke-width="0.769898"/>
<path d="M63.8147 56.9003C61.3613 60.1672 58.093 61.2746 54.01 60.2224" stroke="#F4BFB9" stroke-width="0.769898"/>
<path d="M55.3456 82.2967C55.3458 82.2446 55.3253 82.1946 55.2886 82.1577C55.2519 82.1207 55.2021 82.0999 55.15 82.0997L54.842 82.0986C54.8163 82.0985 54.7907 82.1035 54.7669 82.1133C54.743 82.1231 54.7213 82.1375 54.703 82.1556C54.6847 82.1738 54.6702 82.1954 54.6602 82.2192C54.6503 82.2429 54.6451 82.2685 54.645 82.2943L54.6223 88.8076C54.6221 88.8596 54.6427 88.9096 54.6793 88.9466C54.716 88.9835 54.7659 89.0043 54.8179 89.0045L55.1259 89.0056C55.1517 89.0057 55.1772 89.0007 55.2011 88.9909C55.2249 88.9811 55.2466 88.9668 55.2649 88.9486C55.2832 88.9304 55.2978 88.9088 55.3077 88.8851C55.3177 88.8613 55.3228 88.8358 55.3229 88.81L55.3456 82.2967Z" stroke="#FCA998" stroke-width="0.769898"/>
<path d="M95.7002 88.547C93.4906 86.8327 90.701 84.9464 87.3314 82.8882C84.7574 81.3177 82.3104 80.1667 79.9904 79.4353C78.04 78.5961 76.0524 78.0328 74.0276 77.7453C72.7367 77.5246 71.6127 77.1628 70.6554 76.6598C69.8445 76.3569 69.1464 76.0002 68.5613 75.5896C67.8325 75.0763 67.4244 74.4861 67.3372 73.8188C67.2114 72.8642 67.0241 70.371 66.7751 66.3393C66.7751 66.039 66.8662 65.7144 67.0484 65.3654C68.8705 65.6605 70.6272 65.6156 72.3184 65.2306C74.6897 64.6891 76.4848 63.3444 77.7038 61.1964C78.2274 60.2776 78.2954 59.3204 77.9079 58.3246C78.6547 57.7164 79.4618 57.4277 80.3292 57.4585C80.7886 57.4739 81.3685 57.5458 82.0692 57.6741C82.8852 57.8204 83.4627 57.8961 83.8014 57.9012C86.2728 57.9346 88.0025 56.7605 88.9905 54.3789C89.124 54.0581 89.2677 53.4396 89.4217 52.5235C89.5526 51.7536 89.7181 51.1479 89.9183 50.7065C90.3648 49.7287 90.9666 48.8485 91.7237 48.0657C92.373 47.3985 92.9915 46.703 93.5791 45.9793C95.0727 44.1418 95.3679 42.2569 94.4645 40.3244C94.1412 39.6315 93.6343 39.04 92.944 38.5498C92.2947 38.0904 91.5954 37.7106 90.846 37.4104C90.0042 37.069 89.346 36.67 88.8712 36.2132C88.1449 35.5151 88.032 34.7491 88.5325 33.915C88.8122 33.448 88.9559 33.2067 88.9636 33.1913C89.4332 32.2623 89.6988 31.69 89.7604 31.4745C90.284 29.637 90.0594 28.0946 89.0868 26.8474C88.4452 26.0236 87.3635 25.2934 85.8417 24.657C84.6175 24.1437 83.3369 23.7844 81.9999 23.5791C80.6192 23.3661 79.7813 23.1673 79.4861 22.9825C78.1055 22.1176 77.7128 20.9063 78.3082 19.3486C78.5931 18.6018 78.7471 17.8986 78.7701 17.239C79.014 15.9251 78.5636 14.7433 77.419 13.6937C75.6739 12.0948 73.6914 11.212 71.4715 11.0452C67.0934 10.7167 63.7571 12.3835 61.4628 16.0457C61.3345 16.2536 61.2408 16.2382 61.1818 15.9995C60.7969 14.4238 60.1476 12.9764 59.234 11.6573C58.2357 10.2124 56.991 9.34373 55.5 9.05117C53.9037 8.73808 52.2715 8.78941 50.6034 9.20516C49.138 9.56958 47.7946 10.0918 46.573 10.7719C45.2565 11.5033 44.1414 12.458 43.2278 13.6359C42.8659 14.1055 42.7543 14.6278 42.8929 15.2026C43.2214 16.5859 42.7325 17.4957 41.4262 17.9319C40.7487 18.1578 40.0507 18.2707 39.3321 18.2707C37.7564 18.2681 36.1845 18.3348 34.6165 18.4709C32.9894 18.612 31.5382 19.0894 30.2627 19.9029C27.6271 21.5787 26.8418 23.8576 27.9068 26.7396C27.9633 26.8961 28.1173 27.2015 28.3688 27.6558C28.5381 27.9612 28.6729 28.2794 28.773 28.6104C28.9269 29.1186 28.8795 29.601 28.6305 30.0578C28.1301 30.9663 27.3756 31.4976 26.367 31.6515C26.2798 31.6644 25.497 31.604 24.0188 31.4706C22.6253 31.3448 21.3871 31.6502 20.3041 32.3868C19.4238 32.9822 18.6578 33.9137 18.0059 35.1815C17.3669 36.4262 17.0012 37.6606 16.9088 38.8847C16.5187 44.0867 18.5115 47.8155 22.8871 50.0713C23.485 50.3793 24.4718 50.7309 25.8473 51.1261C27.015 51.4623 28.0056 51.8164 28.8192 52.1886C29.2888 52.4041 29.6686 52.748 29.9586 53.2202C30.1485 53.523 30.2768 53.9978 30.3435 54.6445C30.572 56.831 31.3265 58.8225 32.6071 60.619C33.5617 61.9611 34.7127 62.8324 36.06 63.2327C38.5853 63.9847 41.4083 64.2683 44.5289 64.0835L46.0841 65.6387C46.1354 66.9039 46.1303 68.7965 46.0687 71.3167C46.0328 72.8257 45.4233 73.9215 44.2402 74.6041C41.8766 74.5169 40.3368 74.5438 39.6208 74.685C36.7286 75.2573 34.5793 75.546 33.1729 75.5511C31.3714 75.5563 29.9599 75.4279 28.9385 75.1662C24.024 73.9061 19.9897 71.6529 16.8357 68.4065C10.8176 62.2114 8.36809 54.5881 9.48701 45.5367C10.0465 40.9917 11.2308 36.6174 13.0401 32.4137C13.7997 30.6481 14.3836 29.1481 14.7916 27.9137C15.8002 24.8597 15.6629 21.716 14.3797 18.4824C26.3337 5.64052 41.1311 -0.229954 58.772 0.871001C61.9389 1.06861 65.1737 1.61908 68.4766 2.52242C70.9069 3.1871 73.318 4.05452 75.7098 5.12468C85.6851 9.59266 93.5689 16.3626 99.3611 25.4346C103.624 32.1122 106.222 39.5507 107.156 47.7501C107.444 50.2754 107.554 52.8378 107.487 55.4375C107.182 67.7097 103.253 78.7462 95.7002 88.547ZM98.776 52.9623C98.776 52.838 98.7515 52.7148 98.7039 52.5999C98.6563 52.485 98.5865 52.3806 98.4986 52.2927C98.4107 52.2048 98.3063 52.135 98.1914 52.0874C98.0765 52.0398 97.9533 52.0153 97.829 52.0153C97.5778 52.0153 97.337 52.1151 97.1594 52.2927C96.9818 52.4703 96.882 52.7112 96.882 52.9623C96.882 53.2135 96.9818 53.4543 97.1594 53.6319C97.337 53.8095 97.5778 53.9093 97.829 53.9093C97.9533 53.9093 98.0765 53.8848 98.1914 53.8372C98.3063 53.7896 98.4107 53.7199 98.4986 53.6319C98.5865 53.544 98.6563 53.4396 98.7039 53.3247C98.7515 53.2098 98.776 53.0867 98.776 52.9623ZM95.9158 57.3045C95.9158 57.161 95.8875 57.0188 95.8326 56.8862C95.7776 56.7535 95.6971 56.633 95.5956 56.5315C95.494 56.43 95.3735 56.3494 95.2409 56.2945C95.1083 56.2396 94.9661 56.2113 94.8225 56.2113C94.5326 56.2113 94.2545 56.3265 94.0495 56.5315C93.8444 56.7365 93.7293 57.0146 93.7293 57.3045C93.7293 57.5945 93.8444 57.8725 94.0495 58.0776C94.2545 58.2826 94.5326 58.3978 94.8225 58.3978C94.9661 58.3978 95.1083 58.3695 95.2409 58.3146C95.3735 58.2596 95.494 58.1791 95.5956 58.0776C95.6971 57.9761 95.7776 57.8555 95.8326 57.7229C95.8875 57.5903 95.9158 57.4481 95.9158 57.3045ZM28.0608 61.3542C28.0608 61.0918 27.9566 60.8402 27.771 60.6546C27.5855 60.4691 27.3339 60.3649 27.0715 60.3649C26.8091 60.3649 26.5575 60.4691 26.3719 60.6546C26.1864 60.8402 26.0822 61.0918 26.0822 61.3542C26.0822 61.4841 26.1078 61.6128 26.1575 61.7328C26.2072 61.8528 26.2801 61.9619 26.3719 62.0537C26.4638 62.1456 26.5729 62.2185 26.6929 62.2682C26.8129 62.3179 26.9416 62.3435 27.0715 62.3435C27.2014 62.3435 27.3301 62.3179 27.4501 62.2682C27.5701 62.2185 27.6792 62.1456 27.771 62.0537C27.8629 61.9619 27.9358 61.8528 27.9855 61.7328C28.0352 61.6128 28.0608 61.4841 28.0608 61.3542ZM92.5167 62.1703C92.5167 61.8732 92.3987 61.5883 92.1886 61.3782C91.9785 61.1681 91.6936 61.0501 91.3965 61.0501C91.0994 61.0501 90.8145 61.1681 90.6044 61.3782C90.3943 61.5883 90.2763 61.8732 90.2763 62.1703C90.2763 62.4674 90.3943 62.7523 90.6044 62.9624C90.8145 63.1725 91.0994 63.2905 91.3965 63.2905C91.6936 63.2905 91.9785 63.1725 92.1886 62.9624C92.3987 62.7523 92.5167 62.4674 92.5167 62.1703ZM23.1666 64.8517C23.1419 64.7407 23.0913 64.6365 23.0176 64.5452C22.9438 64.4539 22.8484 64.3773 22.7368 64.3196C22.6252 64.262 22.4995 64.2245 22.367 64.2093C22.2344 64.1941 22.0976 64.2015 21.9644 64.231C21.8311 64.2606 21.704 64.3117 21.5903 64.3815C21.4766 64.4513 21.3786 64.5384 21.3017 64.6378C21.2249 64.7372 21.1709 64.847 21.1426 64.9609C21.1144 65.0748 21.1125 65.1906 21.1371 65.3016C21.1617 65.4127 21.2123 65.5168 21.2861 65.6081C21.3598 65.6994 21.4552 65.776 21.5669 65.8337C21.6785 65.8913 21.8042 65.9288 21.9367 65.944C22.0692 65.9592 22.206 65.9518 22.3393 65.9223C22.4726 65.8927 22.5997 65.8416 22.7134 65.7718C22.8271 65.702 22.9251 65.6149 23.0019 65.5155C23.0787 65.4161 23.1328 65.3063 23.1611 65.1924C23.1893 65.0785 23.1912 64.9627 23.1666 64.8517ZM31.7419 65.7592C31.7214 65.4577 31.5726 65.1773 31.3283 64.9798C31.084 64.7823 30.7642 64.6838 30.4393 64.7059C30.1144 64.7281 29.8109 64.8691 29.5957 65.0979C29.3805 65.3268 29.2711 65.6247 29.2916 65.9262C29.3122 66.2277 29.461 66.5081 29.7053 66.7056C29.9496 66.9031 30.2693 67.0016 30.5943 66.9795C30.9192 66.9573 31.2227 66.8163 31.4379 66.5875C31.6531 66.3586 31.7625 66.0607 31.7419 65.7592ZM88.4609 65.6764C88.3671 65.5711 88.2503 65.4881 88.1171 65.4323C87.9839 65.3764 87.8369 65.3488 87.6847 65.3509C87.5324 65.353 87.3777 65.3848 87.2295 65.4446C87.0813 65.5043 86.9425 65.5908 86.821 65.6991C86.5755 65.9178 86.4154 66.212 86.3758 66.517C86.3362 66.822 86.4205 67.1129 86.6099 67.3255C86.7038 67.4308 86.8206 67.5138 86.9538 67.5696C87.087 67.6255 87.2339 67.6531 87.3862 67.651C87.5385 67.6489 87.6932 67.6171 87.8413 67.5574C87.9895 67.4976 88.1284 67.4111 88.2499 67.3029C88.4953 67.0842 88.6555 66.79 88.6951 66.4849C88.7346 66.1799 88.6504 65.8891 88.4609 65.6764ZM84.5168 70.1723C84.5036 70.0121 84.4564 69.8563 84.3777 69.7137C84.299 69.5712 84.1904 69.4447 84.0582 69.3415C83.926 69.2384 83.7727 69.1605 83.607 69.1124C83.4414 69.0643 83.2667 69.0468 83.0929 69.0611C82.7419 69.09 82.4158 69.2462 82.1863 69.4954C81.9569 69.7446 81.843 70.0664 81.8696 70.39C81.8828 70.5502 81.9301 70.706 82.0087 70.8486C82.0874 70.9911 82.196 71.1176 82.3282 71.2208C82.4604 71.324 82.6137 71.4019 82.7794 71.45C82.945 71.4981 83.1197 71.5155 83.2935 71.5012C83.6446 71.4723 83.9707 71.3161 84.2001 71.0669C84.4295 70.8177 84.5434 70.4959 84.5168 70.1723ZM79.5079 72.627C79.4835 72.378 79.3458 72.1505 79.1253 71.9944C78.9047 71.8383 78.6192 71.7665 78.3317 71.7947C78.1893 71.8086 78.0507 71.8467 77.9237 71.9068C77.7968 71.9669 77.6841 72.0477 77.5919 72.1448C77.4998 72.2418 77.4301 72.3531 77.3868 72.4723C77.3435 72.5915 77.3274 72.7163 77.3395 72.8396C77.3639 73.0885 77.5015 73.3161 77.7221 73.4722C77.9427 73.6283 78.2282 73.7001 78.5157 73.6719C78.6581 73.6579 78.7967 73.6199 78.9236 73.5598C79.0506 73.4997 79.1633 73.4189 79.2554 73.3218C79.3476 73.2248 79.4173 73.1135 79.4606 72.9943C79.5039 72.875 79.52 72.7502 79.5079 72.627Z" fill="#737198"/>
<path d="M78.7701 17.2391C78.3774 17.7447 78.1413 18.2951 78.0617 18.8905C78.0463 19.0188 78.0027 19.1343 77.9309 19.237C77.5048 19.8503 77.3599 20.5291 77.4959 21.2734C77.5086 21.3416 77.5071 21.4088 77.4914 21.4673C77.4758 21.5258 77.4467 21.5733 77.4073 21.6044C77.1892 21.7789 77.0801 21.5326 77.0801 20.8653C77.0801 20.642 77.0301 20.6305 76.93 20.8307C76.5399 21.6006 76.4642 22.4988 76.7029 23.5253C76.7401 23.6847 76.7197 23.8524 76.6451 23.9988C76.155 24.9714 75.5647 25.7465 74.8744 26.3239C74.8227 26.3672 74.7654 26.3994 74.7068 26.4181C74.6482 26.4367 74.5897 26.4414 74.5356 26.4317L73.5925 26.2585C73.5736 26.2546 73.5541 26.2547 73.5354 26.259C73.5166 26.2633 73.4989 26.2716 73.4836 26.2832C73.4683 26.2949 73.4556 26.3097 73.4465 26.3267C73.4374 26.3437 73.4321 26.3624 73.4308 26.3816C73.4231 26.5254 73.3615 26.5703 73.246 26.5164C73.1254 26.4599 73.0484 26.4253 73.0151 26.4124C72.6635 26.2841 72.4094 25.9441 72.2529 25.3923C72.2284 25.3041 72.1854 25.2222 72.1267 25.1519C72.068 25.0816 71.995 25.0245 71.9124 24.9845C71.8298 24.9445 71.7396 24.9224 71.6476 24.9197C71.5557 24.917 71.4641 24.9338 71.379 24.9689C71.2302 25.0305 70.9351 25.0176 70.4936 24.9304C69.154 22.8568 67.3204 21.3568 64.9927 20.4303C64.9491 20.4149 64.908 20.4098 64.8695 20.4149C64.6925 20.4406 64.7014 20.5009 64.8965 20.5958C66.793 21.512 68.3392 22.8286 69.5351 24.5454C68.9628 24.7815 68.3803 24.8367 67.7875 24.711C67.6586 24.6838 67.5323 24.7002 67.4333 24.7571C66.7892 25.1267 66.2477 25.613 65.8088 26.2161C65.7763 26.2625 65.7297 26.2965 65.6775 26.312C65.6253 26.3276 65.5709 26.3236 65.5239 26.3008C65.2545 26.1648 65.0453 25.9659 64.8965 25.7041C64.8691 25.656 64.8283 25.617 64.7791 25.5917C64.7299 25.5664 64.6744 25.556 64.6193 25.5617C64.0085 25.6259 63.4799 25.3089 63.0333 24.6109C62.8532 24.3271 62.5684 24.1252 62.2403 24.0489C61.7835 23.9436 61.2908 23.7678 60.7621 23.5215C60.1 23.2135 59.4469 23.2225 58.8027 23.5484C58.0251 23.9436 57.254 24.3504 56.4892 24.7687C55.5576 25.2794 54.7941 25.64 54.1987 25.8504C53.2466 26.1917 52.4216 26.3906 51.7235 26.4471C50.6636 26.5318 49.8321 26.8064 49.2291 27.2709C48.3103 27.5968 47.5212 28.1088 46.8616 28.8068C46.5306 29.1558 46.4266 29.5626 46.5498 30.0271C46.6884 30.5558 46.8449 31.0793 47.0194 31.5977C47.2632 32.3137 47.4005 32.8372 47.4313 33.1683C47.6135 35.0084 46.7423 36.3364 44.8175 37.1525C42.8594 37.984 41.5814 38.514 40.9834 38.7424C40.924 38.7655 40.8704 38.7997 40.826 38.8427C40.7816 38.8858 40.7474 38.9368 40.7255 38.9926C40.3149 40.0242 40.1661 41.1342 40.279 42.3224C40.2843 42.3788 40.2767 42.4357 40.2567 42.4888C40.2368 42.5418 40.205 42.5896 40.1638 42.6286C40.1227 42.6675 40.0731 42.6966 40.0191 42.7136C39.965 42.7306 39.9078 42.735 39.8517 42.7266C36.4564 42.1876 34.5561 43.6017 34.1506 46.9687C33.8657 49.3451 34.6895 51.225 36.622 52.6082C36.6987 52.6626 36.7546 52.7438 36.781 52.8397C36.8074 52.9356 36.8029 53.0408 36.7683 53.1395L35.4633 56.9504C35.4509 56.9867 35.4481 57.0254 35.4549 57.0632C35.4618 57.1011 35.4782 57.1369 35.5027 57.1679C35.5272 57.1988 35.5592 57.2239 35.5959 57.241C35.6325 57.2581 35.6729 57.2667 35.7135 57.2661C36.1344 57.261 36.3936 57.0403 36.4911 56.604C36.7554 55.4209 37.1096 54.2661 37.5536 53.1395C37.5736 53.0866 37.6083 53.0396 37.6542 53.0031C37.7001 52.9667 37.7556 52.942 37.8153 52.9316L39.5091 52.6313C39.5412 52.6257 39.5741 52.6263 39.6058 52.6332C39.6374 52.6402 39.6671 52.6532 39.6931 52.6716C39.7191 52.69 39.7407 52.7134 39.7568 52.7402C39.7728 52.767 39.7828 52.7968 39.7863 52.8276C40.32 57.1057 41.9009 60.8577 44.5288 64.0836C41.4082 64.2683 38.5852 63.9847 36.0599 63.2328C34.7126 62.8325 33.5616 61.9612 32.607 60.619C31.3264 58.8226 30.5719 56.8311 30.3435 54.6446C30.2767 53.9979 30.1484 53.5231 29.9585 53.2203C29.6685 52.7481 29.2887 52.4042 28.8191 52.1886C28.0055 51.8165 27.0149 51.4623 25.8473 51.1262C24.4717 50.7309 23.4849 50.3794 22.887 50.0714C18.5114 47.8156 16.5187 44.0867 16.9087 38.8848C17.0011 37.6606 17.3668 36.4262 18.0058 35.1816C18.6577 33.9138 19.4237 32.9822 20.304 32.3868C21.387 31.6503 22.6252 31.3449 24.0187 31.4707C25.4969 31.6041 26.2797 31.6644 26.3669 31.6516C27.3755 31.4976 28.13 30.9664 28.6304 30.0579C28.8794 29.6011 28.9268 29.1186 28.7729 28.6105C28.6728 28.2794 28.538 27.9612 28.3687 27.6558C28.1172 27.2016 27.9632 26.8962 27.9067 26.7396C26.8417 23.8577 27.627 21.5788 30.2626 19.9029C31.5381 19.0894 32.9893 18.6121 34.6164 18.4709C36.1844 18.3349 37.7563 18.2682 39.332 18.2708C40.0506 18.2708 40.7486 18.1578 41.4261 17.932C42.7324 17.4957 43.2213 16.586 42.8928 15.2027C42.7542 14.6279 42.8658 14.1056 43.2277 13.636C44.1413 12.458 45.2564 11.5033 46.5729 10.7719C47.7945 10.0919 49.138 9.56964 50.6033 9.20522C52.2714 8.78947 53.9036 8.73814 55.4999 9.05123C56.9909 9.34379 58.2356 10.2125 59.2339 11.6573C60.1475 12.9764 60.7968 14.4238 61.1817 15.9996C61.2407 16.2382 61.3344 16.2536 61.4627 16.0457C63.757 12.3836 67.0933 10.7168 71.4714 11.0453C73.6913 11.2121 75.6738 12.0949 77.4189 13.6937C78.5635 14.7433 79.0139 15.9251 78.7701 17.2391ZM52.4703 16.0188C52.9143 16.6835 53.2274 17.3995 53.4096 18.1668C53.4455 18.3131 53.5033 18.4299 53.5828 18.5171C53.86 18.8251 54.0153 18.7584 54.0486 18.317C54.0589 18.1835 54.0448 18.0398 54.0063 17.8858C53.6573 16.5359 52.9605 15.4593 51.916 14.6561C51.6337 14.4405 51.3245 14.3853 50.9883 14.4906C50.86 14.5316 50.8574 14.5855 50.9806 14.6522C51.5862 14.9833 52.0828 15.4388 52.4703 16.0188ZM69.1463 18.3054C70.4449 19.142 71.6985 20.0402 72.9073 21C72.9817 21.0591 73.0446 21.086 73.0959 21.0809C73.2088 21.0655 73.2152 20.9936 73.1151 20.8653C72.1784 19.6489 71.0416 18.6698 69.7045 17.9282C69.5813 17.8614 69.453 17.8268 69.3195 17.8242C68.6831 17.8088 68.6254 17.9692 69.1463 18.3054ZM51.3848 22.5706C48.1769 22.509 44.9895 22.7349 41.8226 23.2482C38.3838 23.805 36.6143 25.7003 36.5142 28.9339C36.4937 29.6062 36.6438 30.3081 36.9646 31.0395C37.1904 31.5528 37.4907 32.2187 37.8654 33.0374C38.4146 34.2384 38.1733 35.2971 37.1417 36.2132C36.631 36.6675 35.6211 37.422 34.1121 38.4767C33.9222 38.6076 33.8221 38.7449 33.8118 38.8886C33.8016 39.0477 33.8568 39.0631 33.9774 38.9348C34.4752 38.4139 35.0488 37.9879 35.6981 37.6568C36.7426 37.1204 37.5805 36.3595 38.2118 35.374C38.7251 34.5734 38.8034 33.7252 38.4466 32.8295C38.1746 32.1443 37.9231 31.4527 37.6921 30.7547C36.8837 28.3013 37.3149 26.3714 38.9856 24.965C39.6631 24.3953 40.628 23.9911 41.8804 23.7524C43.3252 23.4778 44.7842 23.2982 46.2573 23.2135C47.9921 23.116 49.7256 22.9851 51.4579 22.8209C51.5298 22.8157 51.5901 22.7965 51.6388 22.7631C51.8159 22.6425 51.7312 22.5783 51.3848 22.5706ZM19.4599 40.6853C19.5388 40.6979 19.6235 40.6693 19.7092 40.6009C19.7948 40.5325 19.8798 40.4258 19.9593 40.2868C20.0387 40.1479 20.1111 39.9794 20.1722 39.791C20.2334 39.6026 20.2821 39.398 20.3156 39.1889C20.3832 38.7665 20.3848 38.3512 20.3201 38.0345C20.2553 37.7178 20.1294 37.5255 19.9701 37.5C19.8912 37.4874 19.8066 37.5161 19.7209 37.5844C19.6352 37.6528 19.5502 37.7595 19.4707 37.8985C19.3913 38.0374 19.3189 38.2059 19.2578 38.3943C19.1967 38.5827 19.148 38.7873 19.1145 38.9965C19.0468 39.4188 19.0452 39.8341 19.11 40.1508C19.1748 40.4675 19.3006 40.6598 19.4599 40.6853ZM35.8635 62.1141C36.3756 62.1526 36.8841 61.9574 37.2773 61.5714C37.6705 61.1854 37.916 60.6402 37.96 60.0559C38.0039 59.4715 37.8426 58.8958 37.5116 58.4553C37.1806 58.0149 36.7069 57.7458 36.1948 57.7073C35.6827 57.6688 35.1742 57.8641 34.781 58.25C34.3878 58.636 34.1423 59.1812 34.0983 59.7655C34.0544 60.3499 34.2157 60.9256 34.5467 61.3661C34.8777 61.8065 35.3514 62.0756 35.8635 62.1141Z" fill="#251124"/>
<path d="M52.4704 16.0187C52.0829 15.4387 51.5863 14.9832 50.9806 14.6522C50.8575 14.5854 50.86 14.5316 50.9883 14.4905C51.3245 14.3853 51.6338 14.4404 51.9161 14.656C52.9606 15.4593 53.6573 16.5359 54.0063 17.8857C54.0448 18.0397 54.0589 18.1834 54.0487 18.3169C54.0153 18.7583 53.8601 18.825 53.5829 18.5171C53.5033 18.4298 53.4456 18.313 53.4097 18.1667C53.2275 17.3994 52.9144 16.6834 52.4704 16.0187Z" fill="#180B1D"/>
<path d="M78.77 17.2391C78.7469 17.8987 78.5929 18.6018 78.3081 19.3486C77.7127 20.9064 78.1053 22.1177 79.486 22.9826C79.7811 23.1673 80.619 23.3662 81.9997 23.5792C83.3368 23.7845 84.6174 24.1438 85.8415 24.6571C87.3633 25.2935 88.445 26.0237 89.0866 26.8474C90.0593 28.0947 90.2838 29.6371 89.7603 31.4745C89.6987 31.6901 89.4331 32.2624 88.9634 33.1914C88.9557 33.2068 88.812 33.4481 88.5323 33.9151C88.0319 34.7492 88.1448 35.5152 88.8711 36.2133C89.3458 36.6701 90.0041 37.0691 90.8458 37.4105C91.5952 37.7107 92.2945 38.0905 92.9438 38.5499C93.6342 39.0401 94.141 39.6316 94.4644 40.3245C95.3677 42.257 95.0726 44.1419 93.579 45.9794C92.9913 46.7031 92.3728 47.3986 91.7235 48.0658C90.9665 48.8486 90.3647 49.7288 89.9181 50.7066C89.7179 51.148 89.5524 51.7537 89.4215 52.5236C89.2676 53.4397 89.1238 54.0582 88.9904 54.379C88.0024 56.7606 86.2726 57.9347 83.8013 57.9013C83.4625 57.8962 82.8851 57.8205 82.069 57.6742C81.3684 57.5459 80.7884 57.474 80.329 57.4586C79.4616 57.4278 78.6545 57.7165 77.9077 58.3247C77.669 58.2786 77.4496 58.3158 77.2494 58.4364L76.1908 57.6357C76.5219 57.3457 76.4949 57.1583 76.11 57.0737L74.7742 52.7892C74.7403 52.6772 74.7489 52.5563 74.7984 52.4488C74.8479 52.3413 74.935 52.2544 75.0437 52.204C76.8119 51.388 77.7653 49.9316 77.9039 47.8349C78.027 45.9846 77.4727 44.514 76.2409 43.4234C75.5813 42.8382 74.8551 42.5174 74.0621 42.461C73.2896 42.4045 72.4684 42.5405 71.5984 42.869C71.5671 42.8807 71.5337 42.8857 71.5006 42.8839C71.4674 42.882 71.4353 42.8733 71.4064 42.8583C71.3775 42.8433 71.3525 42.8224 71.3331 42.797C71.3138 42.7716 71.3005 42.7423 71.2943 42.7112L71.0171 41.2638C71.1557 40.7993 71.0607 40.4156 70.7323 40.1128C70.645 40.0307 70.3986 39.9088 69.9932 39.7471C69.7904 39.6675 69.5389 39.5482 69.2387 39.3891C67.6116 38.5345 65.7587 38.1791 63.68 38.3228C62.4405 38.3844 61.949 37.8557 62.2056 36.7368C62.3416 36.1491 62.6843 35.895 63.2334 35.9746L67.6065 36.6021C67.7143 36.6175 67.7297 36.5918 67.6527 36.5251C66.8058 35.7808 66.136 34.9134 65.6432 33.9228C65.3892 33.4147 65.239 32.7654 65.1928 31.975C65.1415 31.123 65.0786 30.4506 65.0042 29.9578C64.627 27.4659 63.3682 25.5746 61.2279 24.2837C60.4734 23.8269 59.6791 23.7461 58.845 24.0412C58.4524 24.1772 57.7787 24.5301 56.824 25.0998C54.6375 26.3984 52.1059 27.1221 49.229 27.2709C49.8321 26.8064 50.6636 26.5318 51.7235 26.4471C52.4215 26.3907 53.2466 26.1918 54.1987 25.8504C54.7941 25.64 55.5576 25.2794 56.4891 24.7687C57.2539 24.3504 58.0251 23.9436 58.8027 23.5484C59.4468 23.2225 60.1 23.2135 60.7621 23.5215C61.2907 23.7679 61.7835 23.9437 62.2403 24.0489C62.5684 24.1253 62.8531 24.3271 63.0333 24.6109C63.4798 25.3089 64.0085 25.6259 64.6193 25.5617C64.6743 25.556 64.7298 25.5664 64.779 25.5917C64.8283 25.617 64.8691 25.6561 64.8964 25.7042C65.0453 25.9659 65.2544 26.1648 65.5239 26.3008C65.5708 26.3236 65.6253 26.3276 65.6775 26.3121C65.7297 26.2966 65.7762 26.2626 65.8088 26.2162C66.2476 25.6131 66.7891 25.1267 67.4332 24.7572C67.5322 24.7003 67.6586 24.6838 67.7874 24.711C68.3802 24.8367 68.9628 24.7816 69.5351 24.5455C70.133 26.0647 71.1403 27.0836 72.5569 27.602C73.9068 28.0947 75.7866 28.6657 78.1964 29.315C79.8183 29.7513 81.0348 30.5109 81.8457 31.5939C82.8261 32.9078 82.8274 34.2103 81.8496 35.5011C81.575 35.8681 81.2965 36.2312 81.0142 36.5905C80.6781 37.0217 80.4432 37.4079 80.3098 37.7492C79.6502 39.4327 79.9774 40.9007 81.2914 42.153C81.5378 42.3866 81.7636 42.6124 81.9689 42.8305C82.1896 43.0641 82.4257 43.2809 82.6772 43.4811C82.8415 43.612 82.9262 43.5992 82.9313 43.4426C82.9339 43.3528 82.8607 43.2527 82.7119 43.1424C82.119 42.7086 81.6071 42.1543 81.1759 41.4794C80.7191 40.7634 80.4779 40.0705 80.4522 39.4007C80.4189 38.5461 80.6729 37.7441 81.2144 36.9947C81.6635 36.3762 82.0985 35.7475 82.5194 35.1085C82.9711 34.4233 83.0083 33.593 82.631 32.6178C82.0485 31.1011 81.0117 30.013 79.5206 29.3535C78.8457 29.0532 78.1502 28.8069 77.4342 28.6144C75.7918 28.173 74.166 27.6751 72.5569 27.1208C71.7691 26.8487 71.0813 26.1186 70.4936 24.9304C70.935 25.0177 71.2301 25.0305 71.379 24.9689C71.4641 24.9338 71.5556 24.917 71.6476 24.9197C71.7395 24.9224 71.8298 24.9445 71.9123 24.9845C71.9949 25.0246 72.068 25.0816 72.1267 25.1519C72.1854 25.2222 72.2284 25.3042 72.2528 25.3924C72.4094 25.9441 72.6634 26.2841 73.015 26.4125C73.0484 26.4253 73.1254 26.4599 73.246 26.5164C73.3615 26.5703 73.423 26.5254 73.4307 26.3817C73.432 26.3625 73.4374 26.3437 73.4465 26.3267C73.4556 26.3098 73.4682 26.295 73.4835 26.2833C73.4989 26.2716 73.5165 26.2633 73.5353 26.2591C73.5541 26.2548 73.5736 26.2546 73.5924 26.2585L74.5356 26.4317C74.5896 26.4414 74.6481 26.4368 74.7068 26.4181C74.7654 26.3995 74.8226 26.3673 74.8743 26.3239C75.5646 25.7465 76.1549 24.9715 76.6451 23.9988C76.7196 23.8525 76.7401 23.6847 76.7028 23.5253C76.4641 22.4988 76.5399 21.6006 76.9299 20.8307C77.03 20.6305 77.0801 20.6421 77.0801 20.8653C77.0801 21.5326 77.1891 21.779 77.4073 21.6044C77.4466 21.5733 77.4757 21.5258 77.4914 21.4673C77.507 21.4088 77.5086 21.3416 77.4958 21.2734C77.3598 20.5292 77.5048 19.8504 77.9308 19.237C78.0027 19.1344 78.0463 19.0189 78.0617 18.8906C78.1412 18.2952 78.3773 17.7447 78.77 17.2391Z" fill="#200E21"/>
<path d="M69.1462 18.3054C68.6252 17.9693 68.6829 17.8089 69.3194 17.8243C69.4528 17.8268 69.5812 17.8615 69.7043 17.9282C71.0414 18.6699 72.1783 19.6489 73.115 20.8654C73.2151 20.9937 73.2087 21.0655 73.0958 21.0809C73.0444 21.0861 72.9815 21.0591 72.9071 21.0001C71.6984 20.0403 70.4447 19.1421 69.1462 18.3054Z" fill="#51475F"/>
<path d="M14.3796 18.4824C15.6628 21.716 15.8001 24.8597 14.7915 27.9137C14.3835 29.1481 13.7996 30.6481 13.04 32.4137C11.2307 36.6174 10.0464 40.9917 9.48691 45.5367C8.36799 54.5881 10.8175 62.2114 16.8356 68.4065C19.9896 71.6529 24.0239 73.9061 28.9384 75.1662C29.9598 75.4279 31.3713 75.5563 33.1728 75.5511C34.5792 75.546 36.7285 75.2573 39.6207 74.685C40.3367 74.5438 41.8765 74.5169 44.2401 74.6041L43.0699 75.4549C41.3889 75.922 39.8299 76.6161 38.3927 77.5375C36.2858 78.0328 34.3405 78.8617 32.5569 80.0242C32.2926 79.9472 32.0565 79.9716 31.8486 80.0974C26.5876 83.3335 21.1021 87.1137 15.392 91.438C9.86672 85.479 5.97745 78.9002 3.72422 71.7016C0.606129 61.7443 0.16472 51.7754 2.39999 41.7949C4.34527 33.1105 8.33847 25.3396 14.3796 18.4824Z" fill="#C7B2C0"/>
<path d="M70.4937 24.9303C71.0814 26.1185 71.7691 26.8487 72.557 27.1207C74.1661 27.675 75.7919 28.1729 77.4343 28.6143C78.1503 28.8068 78.8458 29.0531 79.5207 29.3534C81.0118 30.0129 82.0486 31.1011 82.6311 32.6178C83.0084 33.593 82.9712 34.4232 82.5195 35.1084C82.0986 35.7474 81.6636 36.3762 81.2145 36.9947C80.673 37.744 80.4189 38.546 80.4523 39.4006C80.478 40.0704 80.7192 40.7633 81.176 41.4793C81.6072 42.1542 82.1191 42.7086 82.712 43.1423C82.8608 43.2526 82.9339 43.3527 82.9314 43.4425C82.9262 43.5991 82.8416 43.6119 82.6773 43.481C82.4258 43.2809 82.1897 43.064 81.969 42.8305C81.7637 42.6123 81.5379 42.3865 81.2915 42.153C79.9775 40.9006 79.6503 39.4326 80.3099 37.7491C80.4433 37.4078 80.6781 37.0216 81.0143 36.5904C81.2966 36.2311 81.5751 35.868 81.8497 35.501C82.8274 34.2102 82.8262 32.9078 81.8458 31.5938C81.0349 30.5108 79.8184 29.7512 78.1965 29.3149C75.7867 28.6656 73.9069 28.0946 72.557 27.6019C71.1404 27.0835 70.1331 26.0647 69.5351 24.5454C68.3392 22.8285 66.793 21.512 64.8965 20.5958C64.7015 20.5009 64.6925 20.4406 64.8696 20.4149C64.9081 20.4098 64.9491 20.4149 64.9927 20.4303C67.3204 21.3567 69.154 22.8567 70.4937 24.9303Z" fill="#51475F"/>
<path d="M51.3849 22.5707C51.7314 22.5784 51.8161 22.6425 51.639 22.7632C51.5902 22.7965 51.5299 22.8158 51.4581 22.8209C49.7258 22.9852 47.9922 23.116 46.2574 23.2135C44.7843 23.2982 43.3254 23.4779 41.8805 23.7525C40.6282 23.9912 39.6632 24.3954 38.9857 24.9651C37.315 26.3714 36.8839 28.3013 37.6923 30.7547C37.9233 31.4528 38.1748 32.1444 38.4468 32.8296C38.8035 33.7252 38.7252 34.5734 38.212 35.3741C37.5806 36.3596 36.7427 37.1205 35.6982 37.6568C35.049 37.9879 34.4754 38.4139 33.9775 38.9349C33.8569 39.0632 33.8017 39.0478 33.812 38.8887C33.8223 38.745 33.9224 38.6077 34.1123 38.4768C35.6213 37.422 36.6311 36.6675 37.1418 36.2133C38.1735 35.2971 38.4147 34.2385 37.8655 33.0375C37.4908 32.2188 37.1906 31.5528 36.9647 31.0396C36.6439 30.3082 36.4938 29.6063 36.5143 28.9339C36.6144 25.7003 38.3839 23.8051 41.8228 23.2482C44.9896 22.7349 48.177 22.5091 51.3849 22.5707Z" fill="#473552"/>
<path d="M63.68 38.3227C63.5107 38.7512 63.1886 38.9219 62.7138 38.8347C62.6602 38.8248 62.6066 38.8017 62.5564 38.7667C62.5062 38.7317 62.4602 38.6854 62.4213 38.6306C62.0055 38.0404 61.4948 37.8043 60.8892 37.9223C59.9755 38.102 59.1505 38.7282 58.4139 39.8009C57.5337 43.4836 57.8801 47.0559 59.4533 50.5178C58.9734 51.6932 58.1291 52.4477 56.9203 52.7813C56.1992 52.979 56.2031 53.1586 56.9319 53.3203C57.4939 53.4486 58.1535 53.514 58.9105 53.5166C59.6856 53.5192 60.3323 53.4127 60.8507 53.1971C62.4469 52.5376 62.9012 51.239 62.2134 49.3014C61.9876 48.6701 61.9388 48.0683 62.0671 47.496C62.2211 46.798 62.2994 46.4387 62.3019 46.4182C62.4097 45.5122 62.5162 44.605 62.6214 43.6966C62.642 43.5221 62.7651 43.4579 62.991 43.5041C62.9679 45.0541 63.6711 45.8484 65.1005 45.8869C65.1617 45.8882 65.2221 45.876 65.2774 45.8514C65.3327 45.8267 65.3814 45.7902 65.42 45.7445C65.9256 45.1388 66.0885 44.4241 65.9089 43.6003L67.1446 43.4887L69.0193 45.2094C69.1938 45.3711 69.2246 45.3506 69.1117 45.1478L68.5727 44.1777C68.9141 42.7971 69.7289 41.8257 71.0172 41.2637L71.2943 42.7111C71.3006 42.7422 71.3138 42.7715 71.3332 42.7969C71.3525 42.8223 71.3775 42.8432 71.4064 42.8582C71.4354 42.8732 71.4675 42.8819 71.5006 42.8838C71.5338 42.8856 71.5672 42.8805 71.5984 42.8689C72.4684 42.5404 73.2897 42.4044 74.0621 42.4609C74.8551 42.5173 75.5814 42.8381 76.2409 43.4232C77.4728 44.5139 78.0271 45.9844 77.9039 47.8348C77.7653 49.9315 76.8119 51.3878 75.0437 52.2039C74.9351 52.2542 74.8479 52.3412 74.7984 52.4487C74.7489 52.5562 74.7403 52.6771 74.7743 52.7891L76.1101 57.0735C76.0048 57.3404 75.8124 57.2776 75.5326 56.8849C75.4017 56.7001 75.2901 56.464 75.1977 56.1766L74.116 52.8468C74.098 52.7904 74.0664 52.7385 74.0237 52.6951C73.981 52.6518 73.9283 52.6181 73.8696 52.5966C72.9997 52.263 72.4902 52.5042 72.3414 53.3203C71.5022 57.9422 69.6108 61.8905 66.6672 65.1652C66.4132 65.332 66.163 65.5309 65.9166 65.7618C65.6138 66.0441 65.3725 66.2482 65.1929 66.3739C58.8772 70.8008 52.6628 70.6148 46.5498 65.8157C46.4189 65.7054 46.2637 65.6464 46.084 65.6387L44.5288 64.0835C41.9009 60.8576 40.32 57.1056 39.7863 52.8275C39.7828 52.7967 39.7728 52.7669 39.7568 52.7401C39.7407 52.7133 39.7191 52.69 39.6931 52.6716C39.6671 52.6532 39.6374 52.6401 39.6058 52.6332C39.5741 52.6262 39.5412 52.6256 39.5091 52.6312L37.8153 52.9315C37.7556 52.9419 37.7001 52.9666 37.6542 53.003C37.6083 53.0395 37.5736 53.0865 37.5536 53.1394C37.1096 54.266 36.7554 55.4208 36.4911 56.6039C36.3936 57.0402 36.1344 57.2609 35.7135 57.266C35.6729 57.2666 35.6325 57.258 35.5958 57.2409C35.5592 57.2238 35.5272 57.1987 35.5027 57.1678C35.4782 57.1368 35.4618 57.101 35.4549 57.0631C35.4481 57.0253 35.4509 56.9866 35.4633 56.9504L36.7683 53.1394C36.8029 53.0407 36.8074 52.9355 36.781 52.8396C36.7546 52.7437 36.6987 52.6625 36.622 52.6081C34.6895 51.2249 33.8657 49.345 34.1506 46.9686C34.5561 43.6016 36.4564 42.1876 39.8517 42.7265C39.9078 42.7349 39.965 42.7305 40.0191 42.7135C40.0731 42.6965 40.1227 42.6675 40.1638 42.6285C40.205 42.5896 40.2368 42.5417 40.2567 42.4887C40.2767 42.4356 40.2843 42.3787 40.279 42.3223C40.1661 41.1341 40.3149 40.0242 40.7255 38.9925C40.7474 38.9368 40.7816 38.8857 40.826 38.8427C40.8704 38.7996 40.924 38.7654 40.9834 38.7423C41.5814 38.5139 42.8594 37.9839 44.8175 37.1524C46.7423 36.3363 47.6136 35.0083 47.4313 33.1682C47.4005 32.8372 47.2632 32.3136 47.0194 31.5976C46.8449 31.0792 46.6884 30.5557 46.5498 30.027C46.4266 29.5625 46.5306 29.1558 46.8616 28.8067C47.5212 28.1087 48.3103 27.5967 49.2291 27.2708C52.1059 27.1219 54.6376 26.3982 56.8241 25.0997C57.7788 24.5299 58.4524 24.1771 58.8451 24.0411C59.6791 23.7459 60.4734 23.8268 61.2279 24.2836C63.3682 25.5744 64.627 27.4658 65.0043 29.9577C65.0787 30.4505 65.1416 31.1228 65.1929 31.9749C65.2391 32.7653 65.3892 33.4146 65.6433 33.9227C66.136 34.9133 66.8058 35.7807 67.6527 36.525C67.7297 36.5917 67.7143 36.6173 67.6065 36.602L63.2335 35.9745C62.6843 35.8949 62.3417 36.149 62.2057 36.7367C61.9491 37.8556 62.4405 38.3843 63.68 38.3227ZM48.1781 35.1622C48.3706 35.2752 48.5759 35.2944 48.7941 35.22C53.2543 33.6725 57.8327 33.217 62.529 33.8534C62.5915 33.8618 62.6536 33.8559 62.7096 33.8364C62.7655 33.8168 62.8133 33.7843 62.8486 33.7418C63.0179 33.539 62.9679 33.4261 62.6984 33.403C62.5316 33.3876 62.4187 33.3735 62.3597 33.3607C57.5119 32.2803 52.7898 32.7666 48.1935 34.8196C47.9651 34.9223 47.96 35.0365 48.1781 35.1622ZM50.3878 36.8368C47.7239 36.7521 45.2205 37.4309 42.8774 38.8731C42.1588 39.3145 41.9381 40.0806 42.2153 41.1713C42.2232 41.2008 42.2383 41.228 42.259 41.2505C42.2798 41.2729 42.3057 41.2898 42.3343 41.2998C42.3629 41.3097 42.3934 41.3123 42.423 41.3073C42.4527 41.3024 42.4805 41.29 42.504 41.2714C44.6648 39.5827 47.1696 38.723 50.0182 38.6922C50.0362 38.6922 50.1619 38.7025 50.3955 38.723C50.9934 38.7744 51.1795 38.3022 50.9536 37.3064C50.9247 37.1765 50.8534 37.0599 50.751 36.9748C50.6486 36.8898 50.5208 36.8413 50.3878 36.8368ZM46.2611 44.0007C45.8633 44.9682 45.9454 45.6714 46.5075 46.1102C47.0028 46.4977 47.5712 46.5952 48.2128 46.4028C48.9724 46.1718 49.2752 45.5084 49.1213 44.4126C49.6551 44.7487 50.0118 45.2479 50.1914 45.91C50.2094 46.141 50.2736 46.345 50.3839 46.5221C50.3956 46.5421 50.4122 46.5588 50.4321 46.5707C50.4519 46.5826 50.4743 46.5892 50.4971 46.59C50.52 46.5908 50.5425 46.5856 50.5624 46.5751C50.5824 46.5645 50.5991 46.5489 50.611 46.5298C50.8138 46.2193 50.8022 45.8844 50.5764 45.5251L49.7141 43.812C49.6191 43.6247 49.6692 43.5464 49.8642 43.5772C51.114 43.78 51.9173 44.1777 52.274 44.7706C52.5332 45.1966 52.6461 45.1619 52.6128 44.6666C52.5563 43.789 52.265 43.0794 51.7389 42.5379C51.3026 42.0888 50.6457 41.8283 49.768 41.7564C48.5182 41.6563 47.3813 41.7577 46.3573 42.0605C44.7431 42.5379 43.646 43.6132 43.066 45.2864C43.007 45.4558 42.9813 45.6213 42.989 45.783C43.0121 46.4015 43.2611 46.372 43.7358 45.6944C44.2388 44.9707 45.0806 44.4061 46.2611 44.0007ZM37.2879 49.7826C38.7456 50.4678 39.7118 50.2009 40.1866 48.9819C40.4253 48.3686 40.474 47.7398 40.3329 47.0957C40.143 46.2206 39.758 45.6547 39.178 45.398C38.616 45.1491 38.0335 45.2197 37.4304 45.6097C36.7888 46.0229 36.4103 46.6658 36.2948 47.5383C36.1434 48.6547 36.4744 49.4028 37.2879 49.7826ZM73.8196 45.5828C72.8752 44.9515 72.2644 45.1594 71.9872 46.2064C71.8102 46.866 71.7255 47.5371 71.7332 48.2197C71.7537 49.6594 72.4094 50.0829 73.7003 49.49C74.56 49.0974 74.9565 48.416 74.8898 47.446C74.8333 46.6453 74.4766 46.0242 73.8196 45.5828ZM64.8888 53.1047C66.8623 54.4264 68.6561 54.5226 70.2704 53.3934C70.9556 52.911 71.3752 52.3284 71.5292 51.6458C71.7345 50.7219 71.388 49.9725 70.4898 49.3977C69.7148 48.9049 68.814 48.5957 67.7874 48.4699C66.7019 48.3391 65.8139 48.5315 65.1236 49.0474C64.1766 49.7557 63.8687 50.7822 64.1997 52.127C64.3024 52.5427 64.5321 52.8686 64.8888 53.1047ZM42.6079 54.7408C43.8115 55.5774 44.9805 55.8019 46.1148 55.4144C47.167 55.0551 47.9562 54.3366 48.4823 53.2587C49.0443 52.1064 48.7928 51.1312 47.7278 50.3331C46.9835 49.7762 46.1392 49.5285 45.1948 49.5901C44.0348 49.6646 42.9852 50.1124 42.0459 50.9336C41.2452 51.6342 41.0733 52.4772 41.5301 53.4627C41.7739 53.9837 42.1332 54.4097 42.6079 54.7408ZM54.0101 60.2224C56.4096 61.4235 58.7591 61.2644 61.0585 59.7451C62.257 58.9521 63.1758 58.0038 63.8148 56.9003C64.6591 55.6223 64.4474 55.1334 63.1796 55.4337C62.6997 55.5466 62.4546 55.6043 62.4444 55.6069C58.3793 56.405 54.3771 56.677 50.4378 56.423C49.9682 56.3922 49.8578 56.5757 50.1067 56.9735C51.046 58.4748 52.3471 59.5577 54.0101 60.2224Z" fill="#FCBFAF"/>
<path d="M48.1782 35.1622C47.96 35.0365 47.9651 34.9223 48.1936 34.8196C52.7898 32.7666 57.5119 32.2803 62.3597 33.3607C62.4187 33.3735 62.5316 33.3876 62.6984 33.403C62.9679 33.4261 63.0179 33.539 62.8486 33.7418C62.8133 33.7843 62.7655 33.8168 62.7096 33.8364C62.6536 33.8559 62.5915 33.8618 62.5291 33.8534C57.8327 33.2169 53.2543 33.6725 48.7941 35.22C48.5759 35.2944 48.3706 35.2752 48.1782 35.1622Z" fill="#E7B1A7"/>
<path d="M50.3878 36.8368C50.5208 36.8413 50.6486 36.8898 50.751 36.9748C50.8535 37.0598 50.9247 37.1765 50.9537 37.3064C51.1795 38.3021 50.9935 38.7743 50.3955 38.723C50.162 38.7025 50.0362 38.6922 50.0182 38.6922C47.1696 38.723 44.6649 39.5827 42.504 41.2714C42.4805 41.29 42.4527 41.3024 42.4231 41.3073C42.3935 41.3123 42.363 41.3097 42.3343 41.2998C42.3057 41.2898 42.2798 41.2729 42.2591 41.2505C42.2383 41.228 42.2233 41.2008 42.2153 41.1713C41.9382 40.0806 42.1589 39.3145 42.8774 38.8731C45.2205 37.4309 47.724 36.7521 50.3878 36.8368Z" fill="#221824"/>
<path d="M19.1143 38.9966C18.9734 39.8761 19.1281 40.6323 19.4598 40.6854C19.7915 40.7385 20.1746 40.0685 20.3155 39.1889C20.4563 38.3094 20.3017 37.5532 19.97 37.5001C19.6383 37.447 19.2552 38.117 19.1143 38.9966Z" fill="#6D5E73"/>
<path d="M63.68 38.3228C65.7587 38.1791 67.6116 38.5345 69.2387 39.3891C69.5389 39.5482 69.7904 39.6676 69.9932 39.7471C70.3986 39.9088 70.645 40.0307 70.7323 40.1128C71.0608 40.4156 71.1557 40.7993 71.0171 41.2638C69.7288 41.8258 68.914 42.7972 68.5727 44.1779C67.2151 42.2429 65.3917 41.6064 63.1026 42.2685C61.7758 42.7767 60.9533 43.68 60.635 44.9786C60.5504 45.3225 60.4066 45.864 60.2039 46.6031C60.0499 47.1599 60.0114 47.7335 60.0884 48.3238C60.0977 48.3892 60.0934 48.4533 60.0758 48.5095C60.0582 48.5657 60.028 48.6118 59.9883 48.6433C59.8369 48.7613 59.656 48.7857 59.4456 48.7164C58.6577 45.8319 58.3138 42.8601 58.4139 39.801C59.1504 38.7283 59.9755 38.1021 60.8891 37.9225C61.4948 37.8044 62.0055 38.0405 62.4212 38.6308C62.4602 38.6856 62.5061 38.7318 62.5564 38.7668C62.6066 38.8019 62.6601 38.825 62.7138 38.8348C63.1885 38.922 63.5106 38.7514 63.68 38.3228Z" fill="#FDB1A1"/>
<path d="M58.4137 39.8009C58.3136 42.86 58.6575 45.8318 59.4453 48.7163C59.4915 49.1706 59.5955 49.612 59.7571 50.0405C59.9188 50.4614 59.8175 50.6205 59.453 50.5179C57.8799 47.0559 57.5334 43.4836 58.4137 39.8009Z" fill="#DF6B57"/>
<path d="M50.5765 45.5252C50.2583 45.4508 50.1299 45.5791 50.1915 45.9101C50.0119 45.248 49.6552 44.7489 49.1214 44.4127C48.8853 43.3271 48.1782 42.9114 47.0003 43.1654C46.5666 43.2578 46.3202 43.5363 46.2612 44.0008C45.0807 44.4062 44.2389 44.9709 43.7359 45.6946C43.2612 46.3721 43.0122 46.4016 42.9891 45.7831C42.9814 45.6214 43.0071 45.4559 43.0661 45.2865C43.6461 43.6133 44.7432 42.538 46.3574 42.0606C47.3814 41.7578 48.5183 41.6564 49.7681 41.7565C50.6458 41.8284 51.3027 42.0889 51.739 42.538C52.2651 43.0795 52.5564 43.7891 52.6129 44.6667C52.6462 45.162 52.5333 45.1967 52.2741 44.7707C51.9174 44.1778 51.1141 43.7801 49.8643 43.5773C49.6693 43.5465 49.6192 43.6248 49.7142 43.8121L50.5765 45.5252Z" fill="#BE6146"/>
<path d="M68.5725 44.1778L69.1115 45.1479C69.2244 45.3506 69.1936 45.3712 69.0191 45.2095L67.1444 43.4888C66.5259 42.7368 66.114 42.774 65.9087 43.6004C66.0883 44.4242 65.9254 45.1389 65.4198 45.7446C65.3812 45.7903 65.3325 45.8268 65.2772 45.8514C65.2219 45.8761 65.1615 45.8882 65.1003 45.887C63.6709 45.8485 62.9677 45.0542 62.9908 43.5042C63.2346 43.0884 63.2718 42.6765 63.1024 42.2685C65.3916 41.6063 67.215 42.2428 68.5725 44.1778Z" fill="#53302E"/>
<path d="M63.1026 42.2684C63.272 42.6765 63.2348 43.0884 62.991 43.5041C62.7651 43.4579 62.6419 43.5221 62.6214 43.6966C62.5162 44.6051 62.4097 45.5123 62.3019 46.4182C62.2993 46.4387 62.2211 46.798 62.0671 47.496C61.9388 48.0683 61.9875 48.6701 62.2134 49.3015C62.9011 51.239 62.4469 52.5376 60.8506 53.1971C60.3322 53.4127 59.6855 53.5192 58.9105 53.5167C58.1534 53.5141 57.4939 53.4486 56.9319 53.3203C56.203 53.1587 56.1992 52.979 56.9203 52.7814C58.129 52.4478 58.9734 51.6933 59.4533 50.5179C59.8177 50.6205 59.9191 50.4614 59.7574 50.0406C59.5957 49.612 59.4918 49.1706 59.4456 48.7163C59.656 48.7856 59.8369 48.7612 59.9884 48.6432C60.028 48.6118 60.0582 48.5656 60.0758 48.5094C60.0934 48.4532 60.0977 48.3891 60.0884 48.3237C60.0114 47.7334 60.0499 47.1599 60.2039 46.603C60.4067 45.8639 60.5504 45.3224 60.6351 44.9785C60.9533 43.6799 61.7758 42.7766 63.1026 42.2684Z" fill="#F98D7D"/>
<path d="M67.1446 43.4888L65.9089 43.6004C66.1142 42.774 66.5261 42.7368 67.1446 43.4888Z" fill="#EB8075"/>
<path d="M49.1214 44.4128C49.2753 45.5086 48.9725 46.172 48.2129 46.403C47.5713 46.5954 47.0029 46.4979 46.5076 46.1104C45.9455 45.6716 45.8634 44.9684 46.2612 44.0009C46.3202 43.5364 46.5666 43.2579 47.0003 43.1655C48.1782 42.9115 48.8853 43.3272 49.1214 44.4128Z" fill="#36292B"/>
<path d="M37.2878 49.7826C36.4743 49.4028 36.1433 48.6547 36.2947 47.5383C36.4102 46.6658 36.7887 46.0229 37.4303 45.6097C38.0334 45.2197 38.6159 45.1491 39.1779 45.398C39.7579 45.6547 40.1429 46.2205 40.3328 47.0957C40.4739 47.7398 40.4252 48.3685 40.1865 48.9819C39.7117 50.2009 38.7455 50.4678 37.2878 49.7826Z" fill="#F98D7D"/>
<path d="M73.8196 45.5829C74.4766 46.0243 74.8333 46.6453 74.8897 47.446C74.9565 48.4161 74.56 49.0975 73.7002 49.4901C72.4094 50.0829 71.7537 49.6595 71.7331 48.2198C71.7254 47.5371 71.8101 46.866 71.9872 46.2065C72.2644 45.1594 72.8752 44.9516 73.8196 45.5829Z" fill="#FB9684"/>
<path d="M50.5764 45.5251C50.8023 45.8844 50.8138 46.2193 50.6111 46.5298C50.5992 46.549 50.5824 46.5646 50.5625 46.5751C50.5425 46.5857 50.52 46.5908 50.4972 46.5901C50.4744 46.5893 50.452 46.5826 50.4321 46.5707C50.4123 46.5588 50.3957 46.5421 50.384 46.5222C50.2736 46.3451 50.2095 46.141 50.1915 45.9101C50.1299 45.579 50.2582 45.4507 50.5764 45.5251Z" fill="#913C32"/>
<path d="M64.889 53.1048C64.5323 52.8687 64.3026 52.5428 64.1999 52.127C63.8689 50.7823 64.1768 49.7558 65.1238 49.0475C65.8141 48.5316 66.7021 48.3391 67.7876 48.47C68.8142 48.5958 69.715 48.905 70.49 49.3977C71.3882 49.9726 71.7347 50.722 71.5294 51.6459C71.3754 52.3285 70.9558 52.9111 70.2706 53.3935C68.6563 54.5227 66.8625 54.4265 64.889 53.1048Z" fill="#FB887C"/>
<path d="M42.6078 54.7409C42.133 54.4098 41.7737 53.9838 41.5299 53.4628C41.0731 52.4774 41.2451 51.6343 42.0457 50.9337C42.985 50.1125 44.0346 49.6647 45.1946 49.5903C46.139 49.5287 46.9834 49.7763 47.7276 50.3332C48.7926 51.1313 49.0441 52.1066 48.4821 53.2588C47.956 54.3367 47.1669 55.0553 46.1147 55.4145C44.9803 55.8021 43.8114 55.5775 42.6078 54.7409Z" fill="#FA8777"/>
<path d="M97.8288 53.9093C98.3518 53.9093 98.7758 53.4854 98.7758 52.9624C98.7758 52.4394 98.3518 52.0154 97.8288 52.0154C97.3058 52.0154 96.8818 52.4394 96.8818 52.9624C96.8818 53.4854 97.3058 53.9093 97.8288 53.9093Z" fill="#B5A9BC"/>
<path d="M76.11 57.0737C76.495 57.1584 76.5219 57.3458 76.1909 57.6357C74.5202 57.7718 73.8145 58.6751 74.0737 60.3458C74.2328 61.3723 74.7589 61.9472 75.652 62.0703C76.1652 62.1422 76.6169 62.0165 77.007 61.6931C77.3945 61.3723 77.6678 60.9502 77.8269 60.4266C78.0733 59.6182 77.8808 58.9548 77.2495 58.4364C77.4497 58.3158 77.6691 58.2786 77.9077 58.3248C78.2953 59.3205 78.2273 60.2778 77.7037 61.1965C76.4847 63.3445 74.6896 64.6893 72.3183 65.2308C70.6271 65.6157 68.8704 65.6606 67.0483 65.3655L66.6672 65.1654C69.6108 61.8907 71.5022 57.9424 72.3414 53.3205C72.4902 52.5044 72.9997 52.2631 73.8696 52.5968C73.9283 52.6182 73.981 52.6519 74.0237 52.6953C74.0664 52.7387 74.098 52.7906 74.116 52.847L75.1977 56.1768C75.2901 56.4642 75.4017 56.7003 75.5326 56.8851C75.8123 57.2777 76.0048 57.3406 76.11 57.0737Z" fill="#180B1D"/>
<path d="M63.8147 56.9005C61.3613 60.1674 58.0931 61.2748 54.01 60.2226C52.3471 59.5579 51.0459 58.4749 50.1067 56.9736C49.8577 56.5758 49.9681 56.3924 50.4377 56.4232C54.377 56.6772 58.3792 56.4052 62.4443 55.6071C62.4545 55.6045 62.6996 55.5467 63.1795 55.4338C64.4473 55.1336 64.659 55.6225 63.8147 56.9005Z" fill="#FDFDFD"/>
<path d="M94.8225 58.3979C95.4263 58.3979 95.9158 57.9085 95.9158 57.3047C95.9158 56.7009 95.4263 56.2114 94.8225 56.2114C94.2187 56.2114 93.7292 56.7009 93.7292 57.3047C93.7292 57.9085 94.2187 58.3979 94.8225 58.3979Z" fill="#B5A9BC"/>
<path d="M63.8147 56.9003C63.1756 58.0038 62.2569 58.9521 61.0584 59.745C58.759 61.2643 56.4095 61.4234 54.01 60.2224C58.093 61.2746 61.3613 60.1672 63.8147 56.9003Z" fill="#EB8075"/>
<path d="M34.0984 59.7656C34.0069 60.9825 34.7972 62.034 35.8635 62.1141C36.9299 62.1943 37.8686 61.2728 37.9601 60.0559C38.0516 58.839 37.2613 57.7875 36.1949 57.7074C35.1285 57.6272 34.1899 58.5487 34.0984 59.7656Z" fill="#FAF9F9"/>
<path d="M76.1907 57.6356L77.2493 58.4363C77.8806 58.9547 78.0731 59.6181 77.8267 60.4265C77.6676 60.95 77.3943 61.3722 77.0068 61.693C76.6167 62.0163 76.165 62.1421 75.6518 62.0702C74.7587 61.947 74.2326 61.3722 74.0735 60.3457C73.8143 58.675 74.52 57.7716 76.1907 57.6356Z" fill="#FAF9F9"/>
<path d="M27.0713 62.3435C27.6177 62.3435 28.0607 61.9006 28.0607 61.3542C28.0607 60.8078 27.6177 60.3649 27.0713 60.3649C26.525 60.3649 26.082 60.8078 26.082 61.3542C26.082 61.9006 26.525 62.3435 27.0713 62.3435Z" fill="#AC9FB8"/>
<path d="M91.3963 63.2905C92.015 63.2905 92.5165 62.7889 92.5165 62.1702C92.5165 61.5516 92.015 61.05 91.3963 61.05C90.7777 61.05 90.2761 61.5516 90.2761 62.1702C90.2761 62.7889 90.7777 63.2905 91.3963 63.2905Z" fill="#B4A4B3"/>
<path d="M22.3391 65.9223C22.8995 65.7981 23.2699 65.3188 23.1664 64.8517C23.0628 64.3847 22.5246 64.1069 21.9642 64.2311C21.4038 64.3553 21.0334 64.8346 21.1369 65.3017C21.2405 65.7687 21.7787 66.0465 22.3391 65.9223Z" fill="#AC9FB8"/>
<path d="M30.5943 66.9795C31.2709 66.9334 31.7847 66.387 31.7419 65.7592C31.6991 65.1314 31.1159 64.6598 30.4393 64.7059C29.7626 64.752 29.2488 65.2984 29.2916 65.9262C29.3344 66.5541 29.9176 67.0257 30.5943 66.9795Z" fill="#B4A4B3"/>
<path d="M66.6671 65.1654L67.0482 65.3656C66.866 65.7146 66.7748 66.0392 66.7748 66.3395C64.9297 69.2138 62.7354 71.3464 60.1922 72.7373C58.2341 73.8075 56.2593 74.0577 54.2679 73.488C52.7922 73.0671 51.2781 72.074 49.7255 70.5085C48.3704 69.1458 47.2477 67.683 46.3571 66.1201C46.2365 65.9096 46.3007 65.8083 46.5496 65.816C52.6626 70.615 58.877 70.801 65.1927 66.3741C65.3723 66.2484 65.6136 66.0444 65.9164 65.7621C66.1628 65.5311 66.413 65.3322 66.6671 65.1654Z" fill="#F4867C"/>
<path d="M88.2499 67.3029C88.761 66.8475 88.8555 66.1193 88.4609 65.6764C88.0664 65.2335 87.3321 65.2437 86.821 65.6991C86.3099 66.1545 86.2154 66.8827 86.61 67.3256C87.0046 67.7685 87.7388 67.7583 88.2499 67.3029Z" fill="#B5A9BC"/>
<path d="M46.084 65.6387C46.2637 65.6464 46.4189 65.7054 46.5498 65.8158C46.3009 65.8081 46.2367 65.9094 46.3573 66.1199C47.2478 67.6828 48.3706 69.1456 49.7256 70.5083C51.2783 72.0737 52.7924 73.0669 54.268 73.4878C56.2595 74.0575 58.2343 73.8073 60.1924 72.7371C62.7356 71.3462 64.9298 69.2136 66.775 66.3393C67.024 70.371 67.2113 72.8642 67.337 73.8188C67.4243 74.4861 67.8323 75.0763 68.5612 75.5896C69.1463 76.0002 69.8443 76.3569 70.6553 76.6598C71.5227 79.8933 71.6818 83.1333 71.1326 86.3797C70.971 87.337 70.7285 88.1107 70.4051 88.701C70.0099 89.4272 69.4902 90.0688 68.846 90.6257C67.1959 92.05 65.3212 93.065 63.2219 93.6707C59.7317 94.6767 56.1876 94.8999 52.5897 94.3405C50.1439 93.9607 48.0344 93.0714 46.2611 91.6728C45.0164 90.6899 44.1079 89.5479 43.5356 88.2467C42.9557 86.9328 42.6451 85.4597 42.6041 83.8275C42.5219 80.5452 42.6772 77.7543 43.0699 75.4549L44.2401 74.6041C45.4232 73.9215 46.0327 72.8257 46.0686 71.3167C46.1302 68.7965 46.1353 66.9039 46.084 65.6387ZM55.3457 82.2966C55.3459 82.2446 55.3254 82.1946 55.2887 82.1576C55.252 82.1207 55.2021 82.0998 55.1501 82.0997L54.8421 82.0986C54.8163 82.0985 54.7908 82.1035 54.7669 82.1133C54.7431 82.123 54.7214 82.1374 54.7031 82.1556C54.6848 82.1738 54.6702 82.1954 54.6603 82.2191C54.6503 82.2429 54.6452 82.2684 54.6451 82.2942L54.6224 88.8075C54.6222 88.8596 54.6427 88.9096 54.6794 88.9465C54.7161 88.9835 54.7659 89.0043 54.818 89.0045L55.126 89.0056C55.1517 89.0057 55.1773 89.0007 55.2011 88.9909C55.225 88.9811 55.2467 88.9667 55.265 88.9486C55.2833 88.9304 55.2978 88.9088 55.3078 88.885C55.3177 88.8612 55.3229 88.8357 55.323 88.81L55.3457 82.2966Z" fill="#FDBCAB"/>
<path d="M83.2935 71.5014C84.0245 71.4413 84.5722 70.8463 84.5168 70.1725C84.4614 69.4987 83.8239 69.0012 83.0929 69.0613C82.3619 69.1214 81.8142 69.7164 81.8696 70.3902C81.925 71.064 82.5625 71.5615 83.2935 71.5014Z" fill="#AC9FB8"/>
<path d="M78.5158 73.6719C79.1146 73.6132 79.5588 73.1454 79.508 72.627C79.4572 72.1086 78.9306 71.736 78.3318 71.7947C77.733 71.8534 77.2888 72.3212 77.3396 72.8396C77.3904 73.358 77.917 73.7307 78.5158 73.6719Z" fill="#BDABBB"/>
<path d="M43.0696 75.4551C42.6769 77.7545 42.5216 80.5454 42.6038 83.8277C42.6448 85.4599 42.9553 86.933 43.5353 88.2469C44.1076 89.5481 45.0161 90.6901 46.2608 91.673C48.0341 93.0716 50.1436 93.9609 52.5893 94.3407C56.1873 94.9001 59.7314 94.6769 63.2216 93.6709C65.3209 93.0652 67.1956 92.0502 68.8457 90.6259C69.4899 90.069 70.0096 89.4274 70.4048 88.7012C70.7281 88.1109 70.9707 87.3372 71.1323 86.3799C71.6815 83.1335 71.5224 79.8935 70.655 76.66C71.6122 77.163 72.7363 77.5248 74.0272 77.7455C74.5225 82.3598 74.6944 86.9471 74.543 91.5075C73.1803 93.2705 71.8933 94.5845 70.682 95.4493C67.8436 97.4716 64.6716 98.7214 61.166 99.1987C58.728 99.5324 56.1681 99.5413 53.4863 99.2257C50.6864 98.8946 48.029 98.1491 45.514 96.9891C42.3805 95.5417 39.8539 93.2525 37.9343 90.1216L38.3924 77.5376C39.8296 76.6163 41.3886 75.9221 43.0696 75.4551Z" fill="#FDFDFD"/>
<path d="M38.3928 77.5375L37.9347 90.1215L37.6652 105.835C35.3863 105.127 33.2101 104.207 31.1365 103.075L32.5569 80.0243C34.3405 78.8617 36.2858 78.0328 38.3928 77.5375Z" fill="#241225"/>
<path d="M79.9902 79.4353L81.1951 101.231C79.1959 102.55 77.0787 103.641 74.8434 104.503C75.0462 100.179 74.9461 95.847 74.5432 91.5073C74.6946 86.9469 74.5226 82.3596 74.0273 77.7454C76.0522 78.0328 78.0398 78.5961 79.9902 79.4353Z" fill="#241225"/>
<path d="M95.7 88.5472C91.5785 93.6285 86.7435 97.8565 81.1951 101.231L79.9902 79.4354C82.3102 80.1668 84.7572 81.3178 87.3312 82.8884C90.7008 84.9466 93.4904 86.8329 95.7 88.5472Z" fill="#FC9146"/>
<path d="M32.557 80.0243L31.1365 103.075C25.1262 100.288 19.878 96.409 15.3921 91.4381C21.1022 87.1138 26.5877 83.3336 31.8487 80.0975C32.0565 79.9717 32.2926 79.9473 32.557 80.0243Z" fill="#FC9146"/>
<path d="M55.15 82.0998L54.8421 82.0987C54.7336 82.0983 54.6454 82.1859 54.6451 82.2943L54.6223 88.8076C54.622 88.9161 54.7095 89.0043 54.818 89.0047L55.1259 89.0057C55.2344 89.0061 55.3226 88.9185 55.3229 88.8101L55.3457 82.2968C55.346 82.1884 55.2585 82.1002 55.15 82.0998Z" fill="#FB9684"/>
<path d="M37.9347 90.1215C39.8544 93.2524 42.3809 95.5416 45.5144 96.989C48.0294 98.1489 50.6868 98.8945 53.4867 99.2255C56.1685 99.5412 58.7284 99.5322 61.1664 99.1986C64.672 98.7212 67.844 97.4714 70.6824 95.4492C71.8937 94.5843 73.1807 93.2704 74.5434 91.5073C74.9463 95.847 75.0464 100.179 74.8437 104.503C62.6485 109.618 50.2557 110.062 37.6653 105.835L37.9347 90.1215Z" fill="#FC9149"/>
</svg>
