<svg width="32" height="32" viewBox="0 0 32 32" fill="none" xmlns="http://www.w3.org/2000/svg">
<rect width="32" height="32" rx="16" fill="#1E1E1E"/>
<g clip-path="url(#clip0_384_613)">
<path d="M16 16.1778C16 15.2819 16.3559 14.4228 16.9893 13.7893C17.6228 13.1559 18.4819 12.8 19.3778 12.8C20.2736 12.8 21.1328 13.1559 21.7662 13.7893C22.3997 14.4228 22.7556 15.2819 22.7556 16.1778C22.7556 17.0736 22.3997 17.9328 21.7662 18.5662C21.1328 19.1997 20.2736 19.5555 19.3778 19.5555C18.4819 19.5555 17.6228 19.1997 16.9893 18.5662C16.3559 17.9328 16 17.0736 16 16.1778V16.1778Z" fill="#1ABCFE"/>
<path d="M9.24445 22.9333C9.24445 22.0375 9.60032 21.1783 10.2338 20.5449C10.8672 19.9114 11.7264 19.5555 12.6222 19.5555H16V22.9333C16 23.8292 15.6441 24.6883 15.0107 25.3218C14.3772 25.9552 13.5181 26.3111 12.6222 26.3111C11.7264 26.3111 10.8672 25.9552 10.2338 25.3218C9.60032 24.6883 9.24445 23.8292 9.24445 22.9333V22.9333Z" fill="#0ACF83"/>
<path d="M16 6.04443V12.8H19.3778C20.2736 12.8 21.1328 12.4441 21.7662 11.8107C22.3997 11.1772 22.7556 10.3181 22.7556 9.42221C22.7556 8.52637 22.3997 7.66722 21.7662 7.03376C21.1328 6.40031 20.2736 6.04443 19.3778 6.04443H16Z" fill="#FF7262"/>
<path d="M9.24445 9.42221C9.24445 10.3181 9.60032 11.1772 10.2338 11.8107C10.8672 12.4441 11.7264 12.8 12.6222 12.8H16V6.04443H12.6222C11.7264 6.04443 10.8672 6.40031 10.2338 7.03376C9.60032 7.66722 9.24445 8.52637 9.24445 9.42221V9.42221Z" fill="#F24E1E"/>
<path d="M9.24445 16.1778C9.24445 17.0736 9.60032 17.9328 10.2338 18.5662C10.8672 19.1997 11.7264 19.5555 12.6222 19.5555H16V12.8H12.6222C11.7264 12.8 10.8672 13.1559 10.2338 13.7893C9.60032 14.4228 9.24445 15.2819 9.24445 16.1778V16.1778Z" fill="#A259FF"/>
</g>
<defs>
<clipPath id="clip0_384_613">
<rect width="13.5111" height="20.2667" fill="white" transform="translate(9.24445 6.04443)"/>
</clipPath>
</defs>
</svg>
