<svg width="109" height="110" viewBox="0 0 109 110" fill="none" xmlns="http://www.w3.org/2000/svg">
<path d="M15.7465 92.3319C20.2298 97.0231 25.247 100.757 30.798 103.534C37.9247 107.099 45.503 108.991 53.5331 109.212C56.0763 109.281 58.6362 109.157 61.2128 108.838C74.3113 107.222 85.3709 101.459 94.3916 91.5504" stroke="#F2ADAA" stroke-width="0.769898"/>
<path d="M94.3915 91.5503C94.6481 91.3014 94.8983 91.0345 95.1421 90.7497C100.519 84.4622 104.213 77.3611 106.225 69.4466C106.825 67.0804 107.278 64.559 107.584 61.8823C109.301 46.8898 105.708 33.4513 96.8051 21.5666C95.2524 19.4956 93.5612 17.5708 91.7315 15.7924C81.1659 5.52706 68.3997 0.512461 53.4329 0.748563C50.8127 0.789624 48.2592 1.01418 45.7724 1.42222C37.8527 2.71565 30.7273 5.5399 24.3962 9.89495C12.5654 18.0379 5.18592 29.1591 2.25775 43.2585C1.73678 45.7607 1.38906 48.3 1.21455 50.8766C0.868094 55.9939 1.14525 60.9636 2.04603 65.7857C3.93484 75.9022 8.50163 84.7509 15.7464 92.3318" stroke="#E2D8DF" stroke-width="0.769898"/>
<path d="M94.3916 91.5504L88.0015 87.8241" stroke="#D6868A" stroke-width="0.769898"/>
<path d="M88.0015 87.8241C87.4728 87.3647 86.8582 87.1774 86.1576 87.2621" stroke="#CA797F" stroke-width="0.769898"/>
<path d="M86.1575 87.2622C85.4723 87.3648 84.9641 87.1351 84.6331 86.5731" stroke="#D6868A" stroke-width="0.769898"/>
<path d="M84.6332 86.5729C84.0609 85.8056 83.2859 85.4579 82.3081 85.5297" stroke="#CA797F" stroke-width="0.769898"/>
<path d="M82.3079 85.5297C81.2506 85.2423 80.3832 84.7765 79.7057 84.1323" stroke="#D6868A" stroke-width="0.769898"/>
<path d="M79.7057 84.1325C80.3139 82.3489 81.4149 80.9669 83.0086 79.9866" stroke="#C2AEBD" stroke-width="0.769898"/>
<path d="M83.0088 79.9865C83.2423 80.2021 83.5464 80.2085 83.9211 80.0058C84.5319 79.6722 85.0695 79.1692 85.5341 78.4968C85.5854 78.4249 85.9562 77.7975 86.6466 76.6144C88.0683 74.1841 89.2206 71.7294 90.1034 69.2503C91.2762 65.9551 91.8408 62.5227 91.7972 58.9529C91.7792 57.5312 91.724 56.5046 91.6316 55.8733C91.4725 54.8109 91.1479 53.8241 90.6577 52.9131C90.514 52.6487 90.2651 52.5397 89.9109 52.5859" stroke="#9D91AC" stroke-width="0.769898"/>
<path d="M89.9107 52.5858C88.3042 49.8783 86.3268 47.4968 83.9786 45.4412C82.5389 44.1837 81.7126 43.4689 81.4996 43.297C80.6552 42.6169 79.7237 42.0318 78.7048 41.5416" stroke="#C2AEBD" stroke-width="0.769898"/>
<path d="M78.705 41.5417C78.7871 38.7445 77.4886 37.0969 74.8093 36.599" stroke="#E1B0AF" stroke-width="0.769898"/>
<path d="M74.8092 36.5989L75.5599 22.3404C75.5657 22.2264 75.6007 22.1158 75.6614 22.0194C75.722 21.923 75.8064 21.844 75.9063 21.7899C78.1467 20.5735 79.0667 18.8643 78.6664 16.6624C78.4868 15.6898 78.1403 14.9622 77.6271 14.4798C76.8828 13.7869 75.9358 13.7753 74.7861 14.4451C73.9059 14.9584 73.3092 14.8378 72.9961 14.0833C72.701 13.3698 72.5688 12.3189 72.5996 10.9305C72.615 10.1504 72.3468 9.54856 71.7951 9.12512C67.7788 6.04553 63.1671 4.36971 57.96 4.09768C55.7632 3.9822 54.004 4.59684 52.6823 5.94159C52.6721 5.95186 52.5284 6.12765 52.2512 6.46897C51.6943 7.16188 51.0553 7.14905 50.3342 6.43047C49.6258 5.7273 48.8367 5.32054 47.9667 5.21019C47.2122 5.11523 46.3948 5.28589 45.5146 5.72217C43.8901 6.528 42.7442 7.84965 42.077 9.68714C41.8973 10.1824 41.5586 10.3441 41.0607 10.1722C38.9307 9.43564 37.1047 9.79365 35.5829 11.2462C35.026 11.7774 34.6488 12.3446 34.4512 12.9477C34.233 13.6149 34.1894 14.3194 34.3203 15.061C34.4768 15.9413 34.1201 16.529 33.2501 16.8241C32.7959 16.9781 32.357 17.2668 31.9336 17.6902C31.5101 18.1085 31.2856 18.5538 31.2599 19.026C31.2137 19.8934 31.6847 20.6428 32.6727 21.2741C33.0782 21.5333 33.286 21.9157 33.2963 22.4213L33.6158 36.6721" stroke="#786273" stroke-width="0.769898"/>
<path d="M33.6157 36.6721C31.673 36.3102 30.282 36.7824 29.4428 38.0887C28.968 38.8278 28.7243 39.8376 28.7114 41.1182C28.7012 42.2525 28.8513 43.3073 29.1618 44.2825" stroke="#E1B7B7" stroke-width="0.769898"/>
<path d="M29.162 44.2825C24.9173 46.913 21.6529 50.4609 19.3689 54.9263" stroke="#C2AEBD" stroke-width="0.769898"/>
<path d="M19.3689 54.9264C18.4373 54.8827 17.8599 55.2946 17.6366 56.162C16.1558 61.9311 16.7166 67.5245 19.3188 72.942C20.2992 74.9848 21.404 76.9544 22.6332 78.8509C23.1568 79.6568 23.8253 80.3125 24.6388 80.818C24.8518 80.9489 25.2137 80.9104 25.7244 80.7025" stroke="#9D91AC" stroke-width="0.769898"/>
<path d="M25.7245 80.7026C26.0735 80.7668 26.3096 81.2018 26.4328 82.0076C26.5149 82.5414 26.6291 83.0688 26.7754 83.5898C26.8934 84.0029 27.1283 84.23 27.4799 84.2711C27.5389 84.2762 27.8109 84.1993 28.2959 84.0402C28.6578 83.9221 28.9234 84.0568 29.0928 84.4443C29.1008 84.4632 29.1133 84.4797 29.1292 84.4927C29.145 84.5056 29.1637 84.5146 29.1838 84.5187C29.2038 84.5229 29.2245 84.5221 29.2442 84.5166C29.2639 84.511 29.2819 84.5007 29.2968 84.4867C29.6818 84.13 29.9653 84.2108 30.1475 84.7292" stroke="#C2AEBD" stroke-width="0.769898"/>
<path d="M30.1474 84.7291C29.3493 85.1192 28.555 85.5208 27.7646 85.934C27.5926 86.0238 27.1538 86.1637 26.448 86.3536C25.8167 86.5256 25.2431 86.9297 24.7273 87.5662C24.3475 88.0307 23.8586 88.227 23.2607 88.1552C23.0502 88.1295 22.7307 88.2335 22.3021 88.467C20.1336 89.6398 17.9484 90.9281 15.7465 92.3319" stroke="#D6868A" stroke-width="0.769898"/>
<path d="M74.8093 36.599C73.8059 36.9557 73.2823 37.6602 73.2387 38.7124C73.2053 39.5002 73.1874 39.9057 73.1848 39.9288C72.8974 41.9459 72.3507 43.8925 71.5449 45.7685" stroke="#936163" stroke-width="0.769898"/>
<path d="M71.5449 45.7684C71.0829 45.4451 70.6954 45.3129 70.3823 45.3719" stroke="#211221" stroke-width="0.769898"/>
<path d="M70.3824 45.3718C71.4911 42.2717 71.9106 39.1844 71.6412 36.11C71.6027 35.6788 71.3743 35.4016 70.956 35.2785C67.5633 34.293 64.0975 33.808 60.5585 33.8234C60.1967 33.8234 59.9131 33.9555 59.7078 34.2199" stroke="#936264" stroke-width="0.769898"/>
<path d="M59.7076 34.22C59.6999 34.0712 59.6306 33.9698 59.4998 33.9159" stroke="#211221" stroke-width="0.769898"/>
<path d="M59.4998 33.9157L59.5537 33.8272C59.56 33.8169 59.5636 33.8052 59.5645 33.793C59.5653 33.7807 59.5633 33.7681 59.5586 33.7561C59.5539 33.7441 59.5465 33.7329 59.537 33.7232C59.5275 33.7136 59.5162 33.7057 59.5037 33.7002C58.9519 33.4512 58.667 33.0586 58.6491 32.5222C58.6362 32.0577 58.7145 31.6561 58.8839 31.3173C59.0995 30.8836 59.5319 30.6989 60.1812 30.763C60.9459 30.8374 61.7133 30.9042 62.4832 30.9632" stroke="#92686B" stroke-width="0.769898"/>
<path d="M62.483 30.9633C64.7876 31.2635 67.0652 31.7024 69.3159 32.2798" stroke="#8F5659" stroke-width="0.769898"/>
<path d="M69.3159 32.2798L72.7651 33.4616C72.7858 33.4682 72.8077 33.4699 72.8292 33.4665C72.8507 33.4631 72.871 33.4547 72.8886 33.4419C72.9062 33.4292 72.9206 33.4125 72.9306 33.3932C72.9405 33.3738 72.9458 33.3525 72.946 33.3307L72.8998 23.0333C72.8999 22.9808 72.8802 22.9301 72.8445 22.8915C72.8088 22.853 72.7597 22.8294 72.7073 22.8255C60.6841 21.822 48.6904 21.0354 36.7261 20.4657C36.6205 20.4604 36.5171 20.4967 36.4385 20.5667C36.3599 20.6366 36.3125 20.7346 36.3065 20.8391L35.5289 33.2191" stroke="#92686B" stroke-width="0.769898"/>
<path d="M35.5289 33.2191C35.6983 33.5912 36.0615 33.6259 36.6183 33.3231C36.6532 33.3046 36.6921 33.2957 36.7317 33.2971C36.7713 33.2984 36.8104 33.31 36.8457 33.3309C36.8809 33.3517 36.9112 33.3811 36.934 33.4167C36.9567 33.4522 36.9713 33.4927 36.9763 33.5348L37.1881 35.2786" stroke="#211221" stroke-width="0.769898"/>
<path d="M37.1882 35.2786C36.6415 35.6661 36.3477 36.0831 36.3066 36.5296C36.1475 38.2799 36.3451 40.3009 36.8995 42.5926" stroke="#915F61" stroke-width="0.769898"/>
<path d="M36.8994 42.5927C37.02 43.8502 37.5923 44.8074 38.6163 45.4644" stroke="#92676E" stroke-width="0.769898"/>
<path d="M38.6163 45.4644C38.3468 45.5131 38.2532 45.653 38.3353 45.8839C38.35 45.9204 38.3802 45.9636 38.424 46.0107C38.4678 46.0578 38.5241 46.1077 38.5893 46.1573C38.8665 46.3651 38.9076 46.6526 38.7125 47.0195" stroke="#211221" stroke-width="0.769898"/>
<path d="M38.7127 47.0196C38.1275 46.9426 37.6194 46.7385 37.1883 46.4075C36.8444 46.1432 36.5621 45.7043 36.3414 45.091C35.4483 42.5888 34.8208 39.9801 34.459 37.2649C34.4527 37.2135 34.4342 37.1643 34.4049 37.1214C34.3756 37.0786 34.3365 37.0433 34.2906 37.0185C34.2447 36.9937 34.1935 36.98 34.1411 36.9787C34.0887 36.9774 34.0367 36.9884 33.9893 37.0109C33.7301 37.1315 33.6057 37.0186 33.6159 36.6721" stroke="#92686B" stroke-width="0.769898"/>
<path d="M78.7049 41.5416C78.6561 44.2799 77.4191 46.1379 74.994 47.1157C74.6372 47.2594 74.4499 47.4763 74.4319 47.7663C74.4268 47.8176 74.4666 47.9331 74.5513 48.1127C74.6231 48.2667 74.5513 48.3835 74.3357 48.463" stroke="#DDADAD" stroke-width="0.769898"/>
<path d="M74.3357 48.463L73.5658 47.5391C73.3605 47.2928 73.2271 47.3415 73.1655 47.6854C72.7497 50.0413 72.0491 52.3048 71.0636 54.4759C70.4144 55.9002 69.4969 57.1333 68.3113 58.1753C67.6646 58.7424 67.277 58.6 67.1487 57.748C67.0717 57.2398 67.0704 56.6162 67.1449 55.8771C67.3373 53.9216 66.6419 52.4203 65.0584 51.3732C63.6136 50.4186 61.9211 50.058 59.981 50.2915C59.2367 50.3813 58.2654 50.9703 57.0669 52.0584" stroke="#916061" stroke-width="0.769898"/>
<path d="M57.0671 52.0585C56.9131 49.9105 56.8271 47.7638 56.8092 45.6183C56.8066 45.2667 56.7309 44.7368 56.582 44.0285C56.4691 43.487 56.4409 42.9417 56.4973 42.3925" stroke="#C77568" stroke-width="0.769898"/>
<path d="M89.9108 52.5859C89.2205 52.7835 88.6995 53.2622 88.3479 54.0218C87.9219 54.938 87.6576 55.7066 87.5549 56.3276C87.3368 57.657 87.1276 58.9889 86.9275 60.3234C86.7016 61.8478 86.4309 63.1643 86.1152 64.273C85.5737 66.19 84.9476 68.0788 84.2367 69.9394C83.6336 71.5152 83.2486 72.629 83.0818 73.2808C82.8098 74.3433 82.584 75.502 82.4043 76.7569C82.2529 77.8168 82.4544 78.8934 83.0087 79.9866" stroke="#988EAA" stroke-width="0.769898"/>
<path d="M79.7057 84.1324L74.5513 82.4155" stroke="#D18388" stroke-width="0.769898"/>
<path d="M74.5512 82.4155C73.4246 82.2949 72.4597 82.0024 71.6564 81.5379C70.8429 81.0682 70.3514 80.4369 70.1821 79.6439C69.8228 77.9732 69.5341 76.8081 69.3159 76.1486" stroke="#DDB5B5" stroke-width="0.769898"/>
<path d="M69.3159 76.1486C76.1013 71.021 78.6997 64.1664 77.1111 55.5846C76.7672 53.7317 75.8421 51.3578 74.3356 48.463" stroke="#715E70" stroke-width="0.769898"/>
<path d="M32.9269 51.4464C32.3032 54.2309 31.9542 55.899 31.8798 56.4507C30.825 64.2447 33.3259 70.6502 39.3825 75.6674" stroke="#715E70" stroke-width="0.769898"/>
<path d="M39.3823 75.6674C39.0872 76.912 38.7895 78.1451 38.4892 79.3667C38.0504 81.1401 36.8686 82.241 34.9438 82.6696" stroke="#DDB5B5" stroke-width="0.769898"/>
<path d="M34.9439 82.6697L30.1475 84.7292" stroke="#D18388" stroke-width="0.769898"/>
<path d="M25.7244 80.7027C26.5071 77.5384 26.0965 74.3549 24.4926 71.1521C22.7988 67.762 21.7261 63.874 21.2744 59.4882C21.2102 58.8671 21.1127 58.3269 20.9818 57.8675C20.8279 57.3389 20.6598 56.8128 20.4776 56.2892C20.2697 55.699 19.9001 55.2447 19.3689 54.9265" stroke="#988EAA" stroke-width="0.769898"/>
<path d="M82.3081 85.5298C82.2927 85.9455 82.1683 86.3279 81.9347 86.6769C81.6858 87.0542 81.7589 87.4751 82.1541 87.9396C82.1945 87.9876 82.2463 88.0248 82.3047 88.0478C82.3632 88.0707 82.4264 88.0788 82.4887 88.0711C82.551 88.0635 82.6105 88.0404 82.6616 88.004C82.7127 87.9676 82.754 87.919 82.7816 87.8626C83.1588 87.1004 83.776 86.6705 84.6332 86.573" stroke="#DA4E4A" stroke-width="0.769898"/>
<path d="M86.1574 87.2621C85.8007 87.8087 85.6082 88.4131 85.58 89.0752C85.5389 90.0273 85.8199 90.2442 86.423 89.7258C87.0518 89.1817 87.5779 88.5478 88.0013 87.8241" stroke="#DA4E4A" stroke-width="0.769898"/>
<path d="M38.7125 47.0195C38.7253 47.1478 38.7009 47.2568 38.6393 47.3467C38.6027 47.3961 38.5505 47.4317 38.4911 47.4478C38.4317 47.4639 38.3687 47.4594 38.3121 47.4352L36.3142 46.5845C36.2627 46.5621 36.2063 46.5516 36.1504 46.5537C36.0944 46.5559 36.0407 46.5708 35.9943 46.5969C35.9478 46.623 35.91 46.6595 35.8846 46.7031C35.8591 46.7467 35.8466 46.796 35.8484 46.8462C35.8921 48.2988 36.1513 49.7064 36.626 51.0691C36.6453 51.1248 36.6802 51.1734 36.7262 51.2084C36.7723 51.2434 36.8272 51.2633 36.884 51.2654L40.9991 51.4194C41.1176 51.4244 41.2378 51.3787 41.334 51.2924C42.6967 50.0939 44.2852 49.4344 46.0996 49.3138C46.1617 49.3093 46.2197 49.2859 46.2614 49.2485C46.3032 49.2111 46.3252 49.1627 46.3229 49.1136L46.269 47.8779C46.2666 47.8311 46.2407 47.7868 46.1964 47.754C46.1521 47.7211 46.0927 47.7021 46.0303 47.7008C45.5761 47.6854 45.3182 47.4634 45.2566 47.0349" stroke="#FCB1A1" stroke-width="0.769898"/>
<path d="M56.0623 41.2336C55.8416 45.0831 55.8788 48.9326 56.1739 52.7821" stroke="#C67D70" stroke-width="0.769898"/>
<path d="M56.174 52.7822C55.2039 53.8164 53.9682 54.1834 52.4669 53.8831C50.75 53.5418 49.6285 52.5653 49.1024 50.9537C48.9382 50.4532 48.5956 50.1735 48.0746 50.1145C46.7581 49.9605 45.516 50.0901 44.3483 50.5033C43.273 50.8857 42.4724 51.5195 41.9463 52.4049C41.5382 53.0978 41.3278 54.0358 41.3149 55.2189C41.2995 56.5662 41.4843 57.8853 41.8693 59.1762C41.995 59.5971 41.8821 59.6766 41.5305 59.4148C39.0335 57.544 37.3243 55.1124 36.403 52.1201C35.9718 50.7214 35.5869 49.3086 35.2481 47.8818C35.1301 47.3865 34.9607 47.3608 34.74 47.8048L32.9269 51.4464" stroke="#906769" stroke-width="0.769898"/>
<path d="M32.9268 51.4464C32.9062 50.4994 33.1436 49.6076 33.6389 48.771C33.911 48.3116 33.7852 48.0319 33.2617 47.9318C31.4319 47.5853 30.0653 46.3689 29.162 44.2825" stroke="#DCB4B5" stroke-width="0.769898"/>
<path d="M59.4998 33.9159C58.5862 34.2187 57.7714 34.6781 57.0554 35.294C56.6242 35.6687 56.2688 35.8856 55.9891 35.9446C55.6375 36.019 55.2038 36.0537 54.6879 36.0485C53.1481 36.0306 51.9933 35.9022 51.2234 35.6636C50.7743 35.525 49.8376 34.8988 48.4133 33.785C48.3209 33.7132 48.3363 33.6798 48.4595 33.6849C49.3397 33.7388 49.7478 33.2435 49.6836 32.199C49.6271 31.2752 49.2101 30.8209 48.4325 30.8363" stroke="#8A6764" stroke-width="0.769898"/>
<path d="M62.4833 30.9632C62.5551 30.5013 62.3947 30.2716 62.0021 30.2742C59.9618 30.287 58.5888 30.2678 57.8831 30.2164C54.8882 29.9983 51.8984 30.0484 48.9138 30.3666C48.5879 30.4025 48.4275 30.5591 48.4326 30.8362" stroke="#F8AB9D" stroke-width="0.769898"/>
<path d="M48.4326 30.8363L47.016 30.8247" stroke="#875553" stroke-width="0.769898"/>
<path d="M50.1494 40.6677C49.9646 40.755 49.8145 40.8833 49.699 41.0527" stroke="#F9B3A7" stroke-width="0.769898"/>
<path d="M49.6991 41.0528C49.9224 40.1494 49.8968 39.2563 49.6222 38.3735C49.6041 38.3157 49.5734 38.2626 49.5321 38.218C49.4908 38.1734 49.44 38.1384 49.3835 38.1156C48.978 37.9539 48.5623 37.8333 48.1362 37.7538C47.6101 37.6562 47.1379 37.5266 46.7196 37.365C43.9326 36.2743 41.56 36.9659 39.6019 39.4398C38.8243 40.4227 38.2944 41.3107 38.0121 42.1037" stroke="#EC8B79" stroke-width="0.769898"/>
<path d="M38.0119 42.1036C37.858 42.1678 37.7386 42.2936 37.6539 42.4809" stroke="#D37568" stroke-width="0.769898"/>
<path d="M37.6539 42.4808C37.3588 42.409 37.1073 42.4462 36.8994 42.5925" stroke="#F9B3A7" stroke-width="0.769898"/>
<path d="M59.7076 34.2201C58.5168 35.2595 57.838 36.703 57.6712 38.5508C57.5301 40.1188 57.6725 41.6586 58.0985 43.1702C58.4373 44.3686 59.1854 45.0821 60.3428 45.3105C63.5943 45.9521 66.9408 45.9726 70.3822 45.3721" stroke="#8B615E" stroke-width="0.769898"/>
<path d="M71.5448 45.7685C71.0444 46.6128 70.3335 47.0619 69.4122 47.1158C66.3737 47.2903 63.1696 47.1068 59.8001 46.5653C58.8095 46.4036 58.1076 46.0341 57.6944 45.4567C57.3017 44.9049 56.9027 43.8835 56.4972 42.3925" stroke="#8A605C" stroke-width="0.769898"/>
<path d="M56.4973 42.3923C56.5819 42.0048 56.4369 41.6186 56.0623 41.2336" stroke="#552726" stroke-width="0.769898"/>
<path d="M56.0622 41.2337L55.8852 38.4313C55.8807 38.3649 55.8522 38.3024 55.8048 38.255C55.7575 38.2077 55.6944 38.1787 55.6272 38.1733L52.5823 37.9616C52.1024 37.9283 51.8458 38.1618 51.8124 38.6622C51.643 41.1593 51.1965 43.392 50.4728 45.3603C50.2315 46.0225 49.8068 46.3959 49.1986 46.4805L45.2567 47.0349" stroke="#8A6764" stroke-width="0.769898"/>
<path d="M45.2568 47.0349C43.0728 47.271 40.8915 47.2659 38.7126 47.0195" stroke="#8B5B57" stroke-width="0.769898"/>
<path d="M38.6163 45.4642C40.7079 45.8004 43.3063 45.8055 46.4116 45.4796C47.5818 45.3564 48.4646 45.1395 49.06 44.829C49.1673 44.7718 49.254 44.6769 49.3064 44.5596C49.8633 43.3303 50.1443 42.033 50.1494 40.6677" stroke="#896667" stroke-width="0.769898"/>
<path d="M50.1494 40.6679C50.3778 38.969 50.2867 37.6216 49.876 36.6259C49.5373 35.8047 48.7956 34.9693 47.651 34.1199C47.5507 34.0446 47.4302 34.0004 47.3046 33.9929C43.8503 33.7799 40.4781 34.2084 37.1881 35.2786" stroke="#885E5A" stroke-width="0.769898"/>
<path d="M37.6539 42.4809C37.8053 42.7222 37.994 42.7555 38.2198 42.581C39.29 41.7598 40.2254 40.8038 41.0261 39.7132C41.1672 39.5181 41.3533 39.4193 41.5843 39.4167" stroke="#D47E75" stroke-width="0.769898"/>
<path d="M69.316 32.2798C69.2467 32.1643 69.2095 32.0412 69.2044 31.9103C69.2023 31.8509 69.1854 31.7944 69.156 31.7478C69.1266 31.7013 69.0858 31.6667 69.0389 31.6485C64.109 29.752 58.9404 28.9731 53.5331 29.3119C50.5023 29.5018 47.7461 29.7943 45.2644 30.1896C45.2105 30.1973 45.1605 30.2139 45.1143 30.2396C44.7499 30.4372 44.8243 30.4847 45.3376 30.382C46.0125 30.2434 46.572 30.391 47.0159 30.8247" stroke="#F8AB9D" stroke-width="0.769898"/>
<path d="M47.0158 30.8247C43.115 31.1224 39.286 31.9205 35.5289 33.2191" stroke="#8A6764" stroke-width="0.769898"/>
<path d="M69.3159 76.1486L68.2573 76.9646" stroke="#91686A" stroke-width="0.769898"/>
<path d="M68.2575 76.9647C63.2429 80.3164 57.7574 81.6265 51.8009 80.8951C47.5152 80.369 43.5746 78.7971 39.9791 76.1794" stroke="#8B4B50" stroke-width="0.769898"/>
<path d="M39.9791 76.1793L39.3824 75.6674" stroke="#91686A" stroke-width="0.769898"/>
<path d="M57.0669 52.0585C56.9668 52.3382 56.6691 52.5794 56.1738 52.7822" stroke="#5B272B" stroke-width="0.769898"/>
<path d="M39.979 76.1794L39.8943 76.5682C39.8825 76.6231 39.8866 76.6814 39.9061 76.7375C39.9257 76.7935 39.9601 76.8453 40.0059 76.8877C40.7117 77.5576 41.7485 78.484 43.1163 79.6671C46.8452 82.9007 51.0155 84.3147 55.6272 83.9092C57.8342 83.7142 60.0284 83.0829 62.2098 82.0153C64.2962 80.9964 66.2069 79.6825 67.9417 78.0734C67.9674 78.0503 68.0726 77.9695 68.2574 77.8309C68.5679 77.605 68.5679 77.3163 68.2574 76.9647" stroke="#F7A295" stroke-width="0.769898"/>
<path d="M74.5512 82.4155C73.612 87.3814 71.3626 91.567 67.8031 94.9726C65.7449 96.9435 63.4236 98.3729 60.8394 99.2609C58.4398 100.085 55.9082 100.359 53.2443 100.085C48.4581 99.5945 44.3276 97.4888 40.8528 93.7677C37.8605 90.5623 35.8908 86.863 34.9438 82.6696" stroke="#F18D82" stroke-width="0.769898"/>
<path d="M49.699 41.0529C49.5476 41.4609 49.2614 41.5815 48.8406 41.4147C48.1451 41.1401 47.6472 40.7 47.3469 40.0943C46.9235 39.2398 46.2537 38.6931 45.3375 38.4545" stroke="#ED9386" stroke-width="0.769898"/>
<path d="M45.3375 38.4544C43.9209 37.9437 42.6429 38.1734 41.5034 39.1434" stroke="#A34F41" stroke-width="0.769898"/>
<path d="M41.5036 39.1434C41.0776 39.1896 40.7427 39.3962 40.4989 39.7632C39.8573 40.7256 39.0284 41.5057 38.0121 42.1037" stroke="#C75646" stroke-width="0.769898"/>
<path d="M45.3375 38.4545C45.6531 39.3681 45.5633 40.1149 45.068 40.6949C44.6189 41.221 44.0184 41.4686 43.2665 41.4378C42.2322 41.3968 41.6715 40.7231 41.5842 39.4168" stroke="#B1776F" stroke-width="0.769898"/>
<path d="M41.5843 39.4167C41.6074 39.3115 41.5804 39.2204 41.5034 39.1434" stroke="#8B3A30" stroke-width="0.769898"/>
<path d="M88.8183 36.3337C89.0901 36.3846 89.3763 36.3435 89.6606 36.2129C89.945 36.0823 90.2219 35.8647 90.4755 35.5725C90.7291 35.2803 90.9545 34.9192 91.1387 34.5099C91.323 34.1006 91.4625 33.6511 91.5494 33.1869C91.6362 32.7228 91.6687 32.2533 91.6449 31.805C91.6212 31.3568 91.5416 30.9387 91.4108 30.5745C91.2801 30.2104 91.1006 29.9074 90.8827 29.6828C90.6649 29.4582 90.4128 29.3164 90.141 29.2656C89.8692 29.2147 89.583 29.2557 89.2986 29.3863C89.0142 29.5169 88.7374 29.7346 88.4838 30.0268C88.2301 30.319 88.0048 30.68 87.8205 31.0893C87.6363 31.4986 87.4967 31.9482 87.4099 32.4123C87.323 32.8764 87.2905 33.346 87.3143 33.7942C87.3381 34.2424 87.4176 34.6606 87.5484 35.0247C87.6792 35.3888 87.8587 35.6918 88.0765 35.9164C88.2944 36.141 88.5465 36.2828 88.8183 36.3337Z" stroke="#B5A6BA" stroke-width="0.769898"/>
<path d="M97.4223 73.7879C97.3771 73.3779 97.1527 73.0047 96.7985 72.7504C96.4443 72.4961 95.9893 72.3815 95.5337 72.4318C95.3081 72.4567 95.0891 72.5213 94.8892 72.622C94.6894 72.7227 94.5126 72.8575 94.3689 73.0186C94.2252 73.1798 94.1175 73.3642 94.0518 73.5612C93.9862 73.7583 93.964 73.9642 93.9864 74.1672C94.0316 74.5772 94.256 74.9504 94.6102 75.2047C94.9644 75.459 95.4194 75.5737 95.875 75.5234C96.1006 75.4985 96.3196 75.4338 96.5195 75.3331C96.7193 75.2324 96.8961 75.0977 97.0398 74.9365C97.1835 74.7753 97.2912 74.591 97.3569 74.3939C97.4225 74.1968 97.4447 73.9909 97.4223 73.7879Z" stroke="#A99CB3" stroke-width="0.769898"/>
<path d="M64.2076 11.8275C63.4095 13.316 62.6396 14.8173 61.8979 16.3314C61.7876 16.5547 61.8145 16.6945 61.9788 16.751C62.0278 16.7678 62.0835 16.7635 62.1367 16.739C62.1899 16.7146 62.2374 16.6712 62.2714 16.6163C63.5648 14.5966 64.3411 13.0863 64.6003 12.0854C64.7722 11.4233 64.7068 11.2437 64.404 11.5465C64.3347 11.6183 64.2692 11.712 64.2076 11.8275Z" stroke="#210F22" stroke-width="0.769898"/>
<path d="M59.7098 15.9089C59.7479 15.931 59.8165 15.8993 59.9119 15.8158C60.0073 15.7322 60.1276 15.5984 60.2658 15.4219C60.4041 15.2455 60.5576 15.0299 60.7176 14.7874C60.8776 14.5449 61.041 14.2803 61.1985 14.0087C61.5164 13.4602 61.7908 12.9164 61.9613 12.4971C62.1318 12.0777 62.1844 11.8171 62.1076 11.7726C62.0695 11.7505 62.0009 11.7821 61.9055 11.8657C61.8101 11.9493 61.6898 12.0831 61.5516 12.2595C61.4133 12.436 61.2598 12.6516 61.0998 12.8941C60.9398 13.1366 60.7764 13.4012 60.6189 13.6728C60.301 14.2213 60.0266 14.765 59.8561 15.1844C59.6856 15.6038 59.633 15.8644 59.7098 15.9089Z" stroke="#210F22" stroke-width="0.769898"/>
<path d="M64.3586 16.9081C64.3983 16.9281 64.4656 16.8921 64.5565 16.8024C64.6473 16.7127 64.7601 16.571 64.8883 16.3853C65.0164 16.1996 65.1575 15.9736 65.3034 15.7202C65.4494 15.4669 65.5973 15.191 65.7387 14.9085C65.8802 14.626 66.0125 14.3423 66.128 14.0737C66.2434 13.8051 66.3399 13.5567 66.4118 13.3429C66.4837 13.129 66.5297 12.9538 66.547 12.8273C66.5644 12.7008 66.5529 12.6255 66.5131 12.6056C66.4733 12.5856 66.4061 12.6216 66.3152 12.7113C66.2243 12.801 66.1116 12.9427 65.9834 13.1284C65.8552 13.3141 65.7142 13.5401 65.5682 13.7935C65.4223 14.0468 65.2744 14.3227 65.1329 14.6052C64.9914 14.8877 64.8592 15.1714 64.7437 15.44C64.6282 15.7086 64.5318 15.957 64.4599 16.1708C64.388 16.3847 64.342 16.5599 64.3246 16.6864C64.3072 16.8129 64.3188 16.8882 64.3586 16.9081Z" stroke="#210F22" stroke-width="0.769898"/>
<path d="M62.0983 39.2089C62.3729 40.2046 62.9259 40.8115 63.7574 41.0297C65.174 41.3992 66.2172 40.9103 66.887 39.563C66.9871 39.3552 67.0936 39.3526 67.2065 39.5553C67.6993 40.4433 68.3434 41.1849 69.139 41.7803C69.2442 41.8599 69.2699 41.8381 69.216 41.7149C68.5718 40.2572 67.707 39.1062 66.6214 38.2619C65.5256 37.4073 64.2424 37.1879 62.7719 37.6036" stroke="#C06B65" stroke-width="0.769898"/>
<path d="M62.7719 37.6035C61.2911 37.2494 60.0374 37.5111 59.0109 38.3888C58.5515 38.7815 58.2885 39.3076 58.2218 39.9671C58.0986 41.1784 58.268 42.3461 58.7299 43.4702C58.9147 43.9193 59.0661 43.909 59.1841 43.4394C59.2842 43.0493 59.451 42.6951 59.6846 42.3769C60.4647 41.3016 61.2693 40.2456 62.0982 39.2088" stroke="#FA9886" stroke-width="0.769898"/>
<path d="M62.7718 37.6036C62.3048 38.0348 62.0802 38.5699 62.0982 39.2089" stroke="#BD524A" stroke-width="0.769898"/>
<path d="M30.3169 39.2936C29.6343 41.0669 29.9294 42.6477 31.2023 44.0361C31.7258 44.6084 32.3289 44.8651 33.0116 44.806C33.3683 44.7752 33.7122 44.6071 34.0432 44.3017C34.3358 44.0323 34.6027 43.7384 34.8439 43.4202C34.9211 43.3205 34.9619 43.1982 34.9594 43.0738C34.944 42.2602 34.8093 41.4724 34.5552 40.7102C34.3191 39.9993 33.9662 39.4668 33.4966 39.1126C32.9474 38.6969 32.3058 38.4787 31.5719 38.4582C30.9559 38.4402 30.5376 38.7187 30.3169 39.2936Z" stroke="#F8A295" stroke-width="0.769898"/>
<path d="M74.0432 38.8202C73.4863 40.3471 73.1912 42.0165 73.1578 43.8283C73.1565 43.9049 73.1708 43.9811 73.1999 44.0526C73.229 44.124 73.2723 44.1891 73.3272 44.2441C74.1664 45.0884 74.9517 45.1859 75.6831 44.5366C76.1809 44.0952 76.5364 43.487 76.7494 42.712C77.278 40.8026 76.6685 39.3912 74.9209 38.4775C74.8418 38.436 74.7547 38.4119 74.6655 38.4069C74.5763 38.4019 74.4871 38.4161 74.4039 38.4486C74.3206 38.4811 74.2454 38.5311 74.1831 38.5952C74.1209 38.6593 74.0732 38.736 74.0432 38.8202Z" stroke="#FB9E8E" stroke-width="0.769898"/>
<path d="M45.7416 55.296C45.929 57.1566 46.8285 58.7015 48.4401 59.9308C49.0176 60.3696 49.5026 60.2836 49.8952 59.6729C50.2135 59.1801 50.6523 58.7785 51.2117 58.468C51.6352 58.2319 52.1947 58.0971 52.8901 58.0638C54.0835 58.0022 55.1909 57.9765 56.2123 57.9868C56.7538 57.9919 57.1913 58.2062 57.5249 58.6297C58.5822 59.9693 59.6383 60.3683 60.693 59.8268C61.3552 59.4855 61.9506 58.7721 62.4792 57.6865C62.9899 56.6318 63.3659 55.4833 63.6071 54.2412C63.6764 53.8794 63.5481 53.7844 63.2222 53.9564C62.134 54.5235 61.0151 55.0907 59.8654 55.6578C57.8021 56.6715 56.6742 57.2092 56.4817 57.2708C55.1164 57.7173 53.6857 57.7276 52.1895 57.3016C50.4162 56.7934 48.6429 55.8439 46.8695 54.453C46.3871 54.0757 46.0445 54.0911 45.8417 54.4991C45.7416 54.6968 45.7083 54.9624 45.7416 55.296Z" stroke="#88494D" stroke-width="0.769898"/>
<path d="M76.4919 57.2489C76.5178 57.2098 76.5272 57.162 76.518 57.1159C76.5087 57.0699 76.4815 57.0294 76.4423 57.0034L74.3967 55.6443C74.3576 55.6183 74.3098 55.609 74.2637 55.6182C74.2177 55.6275 74.1772 55.6547 74.1513 55.6938L74.1428 55.7067C74.1168 55.7458 74.1074 55.7936 74.1167 55.8396C74.1259 55.8857 74.1531 55.9261 74.1923 55.9521L76.2379 57.3112C76.277 57.3372 76.3248 57.3466 76.3709 57.3373C76.4169 57.328 76.4574 57.3009 76.4833 57.2617L76.4919 57.2489Z" stroke="#3B2C42" stroke-width="0.769898"/>
<path d="M75.017 59.026C74.6988 58.872 74.1317 58.4139 73.3156 57.6517C72.8074 57.177 72.7497 57.2334 73.1423 57.8211C73.3682 58.1599 74.0919 58.727 75.3135 59.5226C75.4546 59.6124 75.5008 59.5842 75.452 59.4379C75.3956 59.2736 75.2506 59.1364 75.017 59.026Z" stroke="#3B2C42" stroke-width="0.769898"/>
<path d="M52.1279 98.0252C52.1737 98.0561 52.2263 98.0752 52.2812 98.0809C52.3361 98.0865 52.3915 98.0785 52.4426 98.0575C52.4936 98.0366 52.5387 98.0033 52.5738 97.9608C52.6089 97.9182 52.6329 97.8676 52.6438 97.8135C52.7901 97.0565 52.8581 96.293 52.8478 95.5231C52.8247 93.5983 52.8683 91.5234 52.9787 89.2984C52.9962 88.9278 52.8831 88.5627 52.6592 88.2668C52.4487 87.9845 52.2062 87.9806 51.9316 88.2552C51.8476 88.337 51.7979 88.4586 51.793 88.594C51.6519 91.5376 51.6635 94.4811 51.8277 97.4247C51.8431 97.6993 51.9432 97.8995 52.1279 98.0252Z" stroke="#FCAB9A" stroke-width="0.769898"/>
<path d="M76.5415 91.4889C74.5885 94.222 72.8434 96.8718 71.3062 99.4381C71.1034 99.7768 70.9854 100.14 70.952 100.527C70.9109 101.002 71.0957 101.059 71.5063 100.697C72.1094 100.161 72.6265 99.5548 73.0577 98.8799C73.6479 97.9535 73.9521 97.4787 73.97 97.4556C75.2275 95.6438 76.3118 93.7318 77.2228 91.7198C77.4692 91.1784 77.3691 91 76.9226 91.1848C76.7716 91.2476 76.6396 91.3529 76.5415 91.4889Z" stroke="#DA4E4A" stroke-width="0.769898"/>
<path d="M35.225 98.0483C35.3969 98.2536 35.5214 98.2318 35.5984 97.9829C35.6266 97.8931 35.6215 97.7943 35.583 97.6865C35.3443 97.0064 35.0158 96.3738 34.5975 95.7887C33.7429 94.5979 32.8614 93.4264 31.9529 92.2741C31.5988 91.8224 31.1548 91.4927 30.621 91.2848C30.3515 91.1796 30.2938 91.2501 30.4478 91.4965C31.8823 93.7882 33.4747 95.9722 35.225 98.0483Z" stroke="#DA524D" stroke-width="0.769898"/>
<path d="M31.7203 99.698C31.7845 99.6492 31.6443 99.3365 31.3305 98.8288C31.0167 98.3211 30.5551 97.6599 30.0471 96.9906C29.7956 96.6592 29.5402 96.3358 29.2956 96.0389C29.051 95.7419 28.822 95.4773 28.6217 95.26C28.4213 95.0427 28.2535 94.8771 28.1278 94.7727C28.0022 94.6682 27.9212 94.6268 27.8894 94.651C27.8252 94.6998 27.9654 95.0125 28.2792 95.5202C28.593 96.0279 29.0546 96.6891 29.5626 97.3583C29.8142 97.6898 30.0695 98.0132 30.3141 98.3101C30.5587 98.6071 30.7877 98.8717 30.9881 99.089C31.1884 99.3062 31.3562 99.4718 31.4819 99.5763C31.6075 99.6808 31.6885 99.7222 31.7203 99.698Z" stroke="#DA524D" stroke-width="0.769898"/>
<path d="M80.6008 95.2917C80.6545 95.2048 80.6714 95.1002 80.6479 95.0009C80.6244 94.9015 80.5624 94.8156 80.4756 94.7619L80.4625 94.7538C80.3756 94.7002 80.271 94.6833 80.1716 94.7067C80.0723 94.7302 79.9864 94.7922 79.9327 94.8791L76.7245 100.074C76.6709 100.16 76.654 100.265 76.6774 100.364C76.7009 100.464 76.7629 100.55 76.8498 100.603L76.8629 100.611C76.9498 100.665 77.0544 100.682 77.1537 100.659C77.2531 100.635 77.339 100.573 77.3926 100.486L80.6008 95.2917Z" stroke="#DA524D" stroke-width="0.769898"/>
<path d="M66.448 104.754C67.1461 104.787 67.3642 104.373 67.1025 103.511C66.9126 102.89 66.5199 102.85 65.9245 103.391C65.5062 103.771 65.4267 104.114 65.6859 104.419C65.8604 104.625 66.1144 104.736 66.448 104.754Z" stroke="#D55548" stroke-width="0.769898"/>
<path d="M42.9296 105.021C42.9804 105.07 43.0423 105.107 43.1116 105.129C43.1809 105.152 43.2563 105.159 43.3336 105.151C43.4108 105.144 43.4883 105.121 43.5617 105.084C43.6351 105.047 43.703 104.997 43.7614 104.937C43.8198 104.876 43.8676 104.807 43.9021 104.733C43.9366 104.658 43.9571 104.58 43.9625 104.502C43.9678 104.425 43.9579 104.35 43.9333 104.281C43.9087 104.213 43.8698 104.152 43.819 104.103C43.7682 104.054 43.7064 104.017 43.6371 103.994C43.5678 103.972 43.4923 103.964 43.4151 103.972C43.3379 103.98 43.2603 104.003 43.1869 104.04C43.1135 104.076 43.0457 104.126 42.9873 104.187C42.9289 104.247 42.8811 104.316 42.8466 104.391C42.8121 104.465 42.7916 104.544 42.7862 104.621C42.7808 104.698 42.7908 104.774 42.8154 104.842C42.84 104.911 42.8788 104.971 42.9296 105.021Z" stroke="#CF4745" stroke-width="0.769898"/>
<path d="M94.3915 91.5503L88.0013 87.824C87.4726 87.3647 86.858 87.1773 86.1574 87.262C85.4722 87.3647 84.964 87.135 84.633 86.573C84.0607 85.8056 83.2857 85.4579 82.3079 85.5297C81.2506 85.2423 80.3832 84.7765 79.7056 84.1324C80.3139 82.3488 81.4148 80.9668 83.0085 79.9865C83.2421 80.2021 83.5462 80.2085 83.9208 80.0057C84.5316 79.6721 85.0693 79.1691 85.5338 78.4967C85.5851 78.4249 85.9559 77.7974 86.6463 76.6143C88.068 74.184 89.2203 71.7293 90.1031 69.2502C91.2759 65.9551 91.8405 62.5226 91.7969 58.9529C91.7789 57.5311 91.7237 56.5046 91.6314 55.8733C91.4722 54.8108 91.1476 53.8241 90.6575 52.913C90.5137 52.6487 90.2648 52.5396 89.9106 52.5858C88.3041 49.8783 86.3268 47.4968 83.9786 45.4411C82.5389 44.1836 81.7125 43.4689 81.4995 43.297C80.6552 42.6169 79.7236 42.0318 78.7048 41.5416C78.7869 38.7443 77.4883 37.0967 74.8091 36.5989L75.5597 22.3404C75.5656 22.2263 75.6006 22.1158 75.6612 22.0194C75.7219 21.923 75.8063 21.8439 75.9062 21.7899C78.1466 20.5734 79.0666 18.8643 78.6663 16.6624C78.4866 15.6897 78.1402 14.9622 77.6269 14.4797C76.8827 13.7868 75.9357 13.7752 74.786 14.445C73.9058 14.9583 73.3091 14.8377 72.996 14.0832C72.7009 13.3698 72.5687 12.3188 72.5995 10.9305C72.6149 10.1503 72.3467 9.5485 71.7949 9.12505C67.7786 6.04546 63.167 4.36965 57.9599 4.09762C55.7631 3.98214 54.0039 4.59677 52.6822 5.94153C52.672 5.95179 52.5282 6.12759 52.2511 6.46891C51.6942 7.16182 51.0552 7.14898 50.334 6.43041C49.6257 5.72724 48.8366 5.32047 47.9666 5.21012C47.2121 5.11517 46.3947 5.28583 45.5145 5.72211C43.89 6.52793 42.7441 7.84959 42.0769 9.68708C41.8972 10.1824 41.5585 10.3441 41.0606 10.1721C38.9306 9.43558 37.1046 9.79358 35.5828 11.2461C35.0259 11.7774 34.6486 12.3445 34.451 12.9476C34.2329 13.6148 34.1893 14.3193 34.3202 15.061C34.4767 15.9412 34.12 16.5289 33.25 16.824C32.7958 16.978 32.3569 17.2667 31.9335 17.6902C31.51 18.1085 31.2855 18.5537 31.2598 19.0259C31.2136 19.8934 31.6845 20.6427 32.6726 21.274C33.0781 21.5332 33.2859 21.9156 33.2962 22.4212L33.6157 36.672C31.673 36.3102 30.282 36.7824 29.4428 38.0886C28.9681 38.8277 28.7243 39.8376 28.7115 41.1182C28.7012 42.2525 28.8513 43.3072 29.1618 44.2825C24.9171 46.9129 21.6528 50.4609 19.3687 54.9263C18.4372 54.8827 17.8597 55.2946 17.6365 56.162C16.1557 61.9311 16.7164 67.5244 19.3187 72.9419C20.299 74.9847 21.4038 76.9544 22.6331 78.8509C23.1566 79.6567 23.8252 80.3124 24.6387 80.818C24.8517 80.9488 25.2136 80.9104 25.7242 80.7025C26.0733 80.7666 26.3094 81.2016 26.4325 82.0075C26.5147 82.5413 26.6289 83.0686 26.7752 83.5896C26.8932 84.0028 27.128 84.2299 27.4796 84.271C27.5386 84.2761 27.8107 84.1991 28.2957 84.04C28.6576 83.9219 28.9232 84.0567 29.0926 84.4442C29.1006 84.463 29.1131 84.4796 29.1289 84.4925C29.1448 84.5055 29.1635 84.5144 29.1835 84.5186C29.2036 84.5227 29.2243 84.522 29.244 84.5164C29.2637 84.5108 29.2817 84.5006 29.2966 84.4865C29.6815 84.1298 29.9651 84.2106 30.1473 84.729C29.3492 85.1191 28.5549 85.5208 27.7645 85.9339C27.5925 86.0238 27.1537 86.1636 26.448 86.3535C25.8166 86.5255 25.2431 86.9297 24.7272 87.5661C24.3474 88.0306 23.8585 88.2269 23.2606 88.1551C23.0501 88.1294 22.7306 88.2334 22.302 88.4669C20.1335 89.6397 17.9483 90.928 15.7464 92.3318C8.50163 84.7509 3.93484 75.9022 2.04603 65.7857C1.14525 60.9636 0.868094 55.9939 1.21455 50.8766C1.38906 48.3 1.73678 45.7607 2.25775 43.2585C5.18592 29.1591 12.5654 18.0379 24.3962 9.89495C30.7273 5.5399 37.8527 2.71565 45.7724 1.42222C48.2592 1.01418 50.8127 0.789624 53.4329 0.748563C68.3997 0.512461 81.1659 5.52706 91.7315 15.7924C93.5612 17.5708 95.2524 19.4956 96.8051 21.5666C105.708 33.4513 109.301 46.8898 107.584 61.8823C107.278 64.559 106.825 67.0804 106.225 69.4466C104.213 77.3611 100.519 84.4622 95.1421 90.7497C94.8983 91.0345 94.6481 91.3014 94.3915 91.5503ZM88.8181 36.3335C89.0899 36.3844 89.3762 36.3433 89.6605 36.2127C89.9449 36.0821 90.2218 35.8645 90.4754 35.5723C90.729 35.2801 90.9544 34.919 91.1386 34.5097C91.3229 34.1004 91.4624 33.6509 91.5493 33.1868C91.6361 32.7227 91.6686 32.2531 91.6448 31.8048C91.621 31.3566 91.5415 30.9385 91.4107 30.5743C91.2799 30.2102 91.1005 29.9072 90.8826 29.6826C90.6647 29.458 90.4127 29.3162 90.1409 29.2654C89.8691 29.2145 89.5828 29.2555 89.2985 29.3861C89.0141 29.5167 88.7372 29.7344 88.4836 30.0266C88.23 30.3188 88.0047 30.6798 87.8204 31.0891C87.6361 31.4984 87.4966 31.948 87.4097 32.4121C87.3229 32.8762 87.2904 33.3458 87.3142 33.794C87.338 34.2422 87.4175 34.6604 87.5483 35.0245C87.6791 35.3886 87.8585 35.6917 88.0764 35.9162C88.2943 36.1408 88.5463 36.2826 88.8181 36.3335ZM97.4221 73.7878C97.3769 73.3778 97.1525 73.0046 96.7983 72.7503C96.4441 72.4959 95.9891 72.3813 95.5335 72.4316C95.3079 72.4565 95.0889 72.5212 94.889 72.6219C94.6892 72.7226 94.5124 72.8573 94.3687 73.0185C94.225 73.1796 94.1172 73.364 94.0516 73.5611C93.986 73.7582 93.9637 73.9641 93.9861 74.1671C94.0314 74.5771 94.2558 74.9503 94.61 75.2046C94.9642 75.4589 95.4191 75.5735 95.8748 75.5232C96.1004 75.4983 96.3194 75.4337 96.5192 75.333C96.7191 75.2323 96.8959 75.0975 97.0396 74.9364C97.1833 74.7752 97.291 74.5908 97.3567 74.3938C97.4223 74.1967 97.4445 73.9908 97.4221 73.7878Z" fill="#C6B1BF"/>
<path d="M74.8092 36.5989C73.8058 36.9557 73.2823 37.6601 73.2386 38.7123C73.2053 39.5002 73.1873 39.9057 73.1847 39.9287C72.8973 41.9459 72.3507 43.8924 71.5448 45.7684C71.0829 45.4451 70.6954 45.3129 70.3823 45.3719C71.491 42.2718 71.9105 39.1845 71.6411 36.1101C71.6026 35.6789 71.3742 35.4017 70.9559 35.2786C67.5632 34.2931 64.0974 33.8081 60.5584 33.8235C60.1966 33.8235 59.913 33.9556 59.7077 34.22C59.7 34.0711 59.6307 33.9697 59.4998 33.9158L59.5537 33.8273C59.56 33.817 59.5636 33.8053 59.5645 33.7931C59.5653 33.7808 59.5633 33.7682 59.5586 33.7562C59.5538 33.7442 59.5465 33.733 59.537 33.7233C59.5275 33.7137 59.5162 33.7058 59.5036 33.7003C58.9519 33.4513 58.667 33.0587 58.649 32.5223C58.6362 32.0578 58.7145 31.6562 58.8839 31.3174C59.0995 30.8837 59.5319 30.699 60.1812 30.7631C60.9459 30.8375 61.7133 30.9043 62.4831 30.9633C64.7877 31.2635 67.0653 31.7024 69.316 32.2798L72.7651 33.4616C72.7858 33.4682 72.8078 33.4699 72.8293 33.4665C72.8507 33.4631 72.8711 33.4547 72.8887 33.4419C72.9063 33.4292 72.9207 33.4125 72.9306 33.3932C72.9406 33.3738 72.9459 33.3525 72.9461 33.3307L72.8999 23.0333C72.9 22.9808 72.8803 22.9301 72.8445 22.8915C72.8088 22.853 72.7598 22.8294 72.7074 22.8255C60.6842 21.822 48.6904 21.0354 36.7262 20.4657C36.6206 20.4604 36.5172 20.4967 36.4386 20.5667C36.36 20.6366 36.3125 20.7346 36.3066 20.8391L35.529 33.2191C35.6984 33.5912 36.0615 33.6258 36.6184 33.323C36.6533 33.3046 36.6922 33.2957 36.7318 33.297C36.7714 33.2984 36.8105 33.31 36.8457 33.3308C36.881 33.3517 36.9113 33.3811 36.934 33.4166C36.9568 33.4522 36.9713 33.4927 36.9764 33.5347L37.1881 35.2786C36.6415 35.6661 36.3477 36.0831 36.3066 36.5296C36.1475 38.2799 36.3451 40.3009 36.8994 42.5926C37.02 43.8501 37.5923 44.8073 38.6163 45.4643C38.3468 45.5131 38.2532 45.6529 38.3353 45.8839C38.35 45.9204 38.3802 45.9635 38.424 46.0106C38.4678 46.0577 38.5241 46.1077 38.5894 46.1572C38.8665 46.3651 38.9076 46.6525 38.7125 47.0195C38.1274 46.9425 37.6193 46.7385 37.1881 46.4074C36.8442 46.1431 36.562 45.7043 36.3413 45.0909C35.4482 42.5887 34.8207 39.9801 34.4589 37.2649C34.4526 37.2134 34.4341 37.1642 34.4048 37.1214C34.3755 37.0785 34.3363 37.0432 34.2905 37.0184C34.2446 36.9936 34.1934 36.98 34.141 36.9787C34.0886 36.9774 34.0366 36.9884 33.9892 37.0108C33.73 37.1314 33.6056 37.0185 33.6158 36.6721L33.2963 22.4213C33.286 21.9157 33.0782 21.5333 32.6727 21.2741C31.6847 20.6428 31.2137 19.8934 31.2599 19.026C31.2856 18.5538 31.5101 18.1085 31.9336 17.6902C32.357 17.2668 32.7959 16.9781 33.2501 16.8241C34.1201 16.529 34.4768 15.9413 34.3203 15.061C34.1894 14.3194 34.233 13.6149 34.4512 12.9477C34.6488 12.3446 35.026 11.7774 35.5829 11.2462C37.1047 9.79365 38.9307 9.43564 41.0607 10.1722C41.5586 10.3441 41.8973 10.1824 42.077 9.68714C42.7442 7.84965 43.8901 6.528 45.5146 5.72217C46.3948 5.28589 47.2122 5.11523 47.9667 5.21019C48.8367 5.32054 49.6258 5.7273 50.3342 6.43047C51.0553 7.14905 51.6943 7.16188 52.2512 6.46897C52.5284 6.12765 52.6721 5.95186 52.6823 5.94159C54.004 4.59684 55.7632 3.9822 57.96 4.09768C63.1671 4.36971 67.7788 6.04553 71.7951 9.12512C72.3468 9.54856 72.615 10.1504 72.5996 10.9305C72.5688 12.3189 72.701 13.3698 72.9961 14.0833C73.3092 14.8378 73.9059 14.9584 74.7861 14.4451C75.9358 13.7753 76.8828 13.7869 77.6271 14.4798C78.1403 14.9622 78.4868 15.6898 78.6664 16.6624C79.0667 18.8643 78.1467 20.5735 75.9063 21.7899C75.8064 21.844 75.722 21.923 75.6614 22.0194C75.6007 22.1158 75.5657 22.2264 75.5599 22.3404L74.8092 36.5989ZM64.2077 11.8275C63.4096 13.3159 62.6397 14.8172 61.898 16.3314C61.7877 16.5546 61.8146 16.6945 61.9789 16.751C62.0279 16.7677 62.0836 16.7635 62.1368 16.739C62.19 16.7145 62.2375 16.6712 62.2714 16.6162C63.5649 14.5965 64.3412 13.0862 64.6004 12.0854C64.7723 11.4233 64.7069 11.2436 64.404 11.5464C64.3348 11.6183 64.2693 11.712 64.2077 11.8275ZM59.7098 15.9089C59.7479 15.931 59.8165 15.8993 59.9119 15.8158C60.0074 15.7322 60.1276 15.5984 60.2658 15.4219C60.4041 15.2455 60.5576 15.0299 60.7176 14.7874C60.8776 14.5449 61.041 14.2803 61.1985 14.0087C61.5164 13.4602 61.7908 12.9164 61.9613 12.4971C62.1318 12.0777 62.1844 11.8171 62.1076 11.7726C62.0696 11.7505 62.0009 11.7822 61.9055 11.8657C61.8101 11.9493 61.6898 12.0831 61.5516 12.2595C61.4133 12.436 61.2598 12.6516 61.0998 12.8941C60.9398 13.1366 60.7764 13.4012 60.619 13.6728C60.301 14.2213 60.0266 14.765 59.8561 15.1844C59.6856 15.6038 59.633 15.8644 59.7098 15.9089ZM64.3584 16.9082C64.3982 16.9281 64.4655 16.8922 64.5563 16.8025C64.6472 16.7128 64.76 16.5711 64.8881 16.3854C65.0163 16.1997 65.1574 15.9737 65.3033 15.7203C65.4492 15.4669 65.5972 15.1911 65.7386 14.9086C65.8801 14.6261 66.0123 14.3424 66.1278 14.0738C66.2433 13.8051 66.3398 13.5568 66.4117 13.343C66.4836 13.1291 66.5295 12.9539 66.5469 12.8274C66.5643 12.7009 66.5528 12.6255 66.513 12.6056C66.4732 12.5857 66.406 12.6216 66.3151 12.7113C66.2242 12.801 66.1115 12.9428 65.9833 13.1285C65.8551 13.3142 65.714 13.5401 65.5681 13.7935C65.4222 14.0469 65.2743 14.3227 65.1328 14.6053C64.9913 14.8878 64.8591 15.1714 64.7436 15.4401C64.6281 15.7087 64.5317 15.957 64.4597 16.1709C64.3878 16.3847 64.3419 16.5599 64.3245 16.6864C64.3071 16.8129 64.3187 16.8883 64.3584 16.9082Z" fill="#291327"/>
<path d="M64.404 11.5465C64.7068 11.2437 64.7722 11.4233 64.6003 12.0854C64.3411 13.0863 63.5648 14.5966 62.2714 16.6163C62.2374 16.6712 62.1899 16.7146 62.1367 16.739C62.0835 16.7635 62.0278 16.7678 61.9788 16.751C61.8145 16.6945 61.7876 16.5547 61.8979 16.3314C62.6396 14.8173 63.4095 13.316 64.2076 11.8275C64.2692 11.712 64.3347 11.6183 64.404 11.5465Z" fill="#180B1D"/>
<path d="M60.6191 13.6728C59.957 14.815 59.5499 15.8162 59.71 15.9089C59.87 16.0017 60.5365 15.1509 61.1986 14.0087C61.8607 12.8665 62.2677 11.8654 62.1077 11.7726C61.9477 11.6798 61.2812 12.5306 60.6191 13.6728Z" fill="#180B1D"/>
<path d="M65.1328 14.6052C64.5379 15.7934 64.1912 16.8244 64.3585 16.9082C64.5257 16.992 65.1437 16.0967 65.7386 14.9086C66.3336 13.7205 66.6803 12.6894 66.513 12.6056C66.3457 12.5219 65.7278 13.4171 65.1328 14.6052Z" fill="#180B1D"/>
<path d="M69.3159 32.2798C69.2466 32.1643 69.2094 32.0411 69.2043 31.9103C69.2022 31.8509 69.1853 31.7944 69.1559 31.7478C69.1265 31.7013 69.0857 31.6667 69.0388 31.6485C64.1089 29.752 58.9403 28.9731 53.533 29.3119C50.5022 29.5018 47.7459 29.7943 45.2643 30.1895C45.2104 30.1972 45.1604 30.2139 45.1142 30.2396C44.7498 30.4372 44.8242 30.4847 45.3374 30.382C46.0124 30.2434 46.5718 30.391 47.0158 30.8247C43.115 31.1224 39.286 31.9205 35.5289 33.2191L36.3065 20.8391C36.3125 20.7346 36.3599 20.6366 36.4385 20.5667C36.5171 20.4967 36.6205 20.4604 36.7261 20.4657C48.6904 21.0354 60.6841 21.822 72.7073 22.8255C72.7597 22.8294 72.8088 22.853 72.8445 22.8915C72.8802 22.9301 72.8999 22.9808 72.8998 23.0333L72.946 33.3307C72.9458 33.3525 72.9405 33.3738 72.9306 33.3932C72.9206 33.4125 72.9062 33.4292 72.8886 33.4419C72.871 33.4547 72.8507 33.4631 72.8292 33.4665C72.8077 33.4699 72.7858 33.4682 72.7651 33.4616L69.3159 32.2798Z" fill="#FBBDAE"/>
<path d="M69.316 32.2798C67.0654 31.7024 64.7878 31.2636 62.4832 30.9633C62.555 30.5014 62.3947 30.2717 62.002 30.2742C59.9618 30.2871 58.5888 30.2678 57.883 30.2165C54.8881 29.9984 51.8984 30.0484 48.9137 30.3666C48.5878 30.4026 48.4274 30.5591 48.4325 30.8363L47.0159 30.8247C46.572 30.391 46.0125 30.2434 45.3376 30.382C44.8243 30.4847 44.7499 30.4372 45.1143 30.2396C45.1605 30.2139 45.2105 30.1973 45.2644 30.1896C47.7461 29.7943 50.5023 29.5018 53.5331 29.3119C58.9404 28.9731 64.109 29.752 69.0389 31.6485C69.0858 31.6667 69.1266 31.7013 69.156 31.7478C69.1854 31.7944 69.2023 31.8509 69.2044 31.9103C69.2095 32.0412 69.2467 32.1643 69.316 32.2798Z" fill="#F5988B"/>
<path d="M87.4098 32.4122C87.0446 34.364 87.6751 36.1197 88.8182 36.3336C89.9613 36.5476 91.184 35.1387 91.5493 33.1869C91.9146 31.2351 91.284 29.4794 90.141 29.2655C88.9979 29.0516 87.7751 30.4604 87.4098 32.4122Z" fill="#A49AB5"/>
<path d="M62.4832 30.9632C61.7133 30.9042 60.9459 30.8375 60.1812 30.7631C59.5319 30.6989 59.0995 30.8837 58.8839 31.3174C58.7145 31.6562 58.6362 32.0578 58.6491 32.5223C58.667 33.0587 58.9519 33.4513 59.5037 33.7002C59.5162 33.7058 59.5275 33.7136 59.537 33.7233C59.5465 33.7329 59.5539 33.7442 59.5586 33.7562C59.5633 33.7682 59.5653 33.7808 59.5645 33.793C59.5636 33.8053 59.56 33.817 59.5537 33.8273L59.4998 33.9158C58.5862 34.2186 57.7714 34.678 57.0554 35.2939C56.6242 35.6686 56.2688 35.8855 55.9891 35.9445C55.6375 36.0189 55.2038 36.0536 54.6879 36.0484C53.1481 36.0305 51.9933 35.9021 51.2234 35.6635C50.7743 35.5249 49.8376 34.8987 48.4133 33.7849C48.3209 33.7131 48.3363 33.6797 48.4595 33.6848C49.3397 33.7387 49.7478 33.2434 49.6836 32.1989C49.6271 31.2751 49.2101 30.8208 48.4325 30.8362C48.4274 30.5591 48.5878 30.4025 48.9137 30.3666C51.8983 30.0484 54.8881 29.9983 57.883 30.2164C58.5888 30.2678 59.9617 30.287 62.002 30.2742C62.3946 30.2716 62.555 30.5013 62.4832 30.9632Z" fill="#FBBDAE"/>
<path d="M47.0158 30.8247L48.4324 30.8363C49.21 30.8209 49.6271 31.2751 49.6835 32.199C49.7477 33.2435 49.3396 33.7388 48.4594 33.6849C48.3362 33.6797 48.3208 33.7131 48.4132 33.785C49.8375 34.8988 50.7742 35.5249 51.2233 35.6635C51.9932 35.9022 53.1481 36.0305 54.6879 36.0485C55.2037 36.0536 55.6374 36.019 55.989 35.9445C56.2687 35.8855 56.6242 35.6686 57.0553 35.294C57.7713 34.678 58.5861 34.2187 59.4997 33.9159C59.6306 33.9697 59.6999 34.0711 59.7076 34.22C58.5168 35.2593 57.838 36.7029 57.6712 38.5506C57.5301 40.1187 57.6725 41.6585 58.0985 43.17C58.4373 44.3685 59.1853 45.0819 60.3428 45.3103C63.5943 45.9519 66.9408 45.9725 70.3822 45.3719C70.6953 45.3129 71.0828 45.4451 71.5448 45.7684C71.0443 46.6128 70.3335 47.0619 69.4122 47.1158C66.3736 47.2903 63.1696 47.1068 59.8 46.5653C58.8094 46.4036 58.1075 46.034 57.6943 45.4566C57.3017 44.9049 56.9026 43.8835 56.4971 42.3924C56.5818 42.0049 56.4368 41.6187 56.0621 41.2337L55.885 38.4313C55.8806 38.365 55.8521 38.3024 55.8047 38.2551C55.7574 38.2077 55.6943 38.1787 55.6271 38.1734L52.5822 37.9617C52.1023 37.9283 51.8457 38.1618 51.8123 38.6623C51.6429 41.1593 51.1964 43.392 50.4727 45.3604C50.2314 46.0225 49.8067 46.3959 49.1985 46.4806L45.2566 47.0349C43.0727 47.271 40.8913 47.2659 38.7125 47.0195C38.9075 46.6525 38.8664 46.3651 38.5893 46.1572C38.524 46.1077 38.4677 46.0577 38.4239 46.0106C38.3802 45.9635 38.3499 45.9204 38.3352 45.8839C38.2531 45.6529 38.3468 45.5131 38.6162 45.4643C40.7078 45.8005 43.3062 45.8056 46.4114 45.4797C47.5817 45.3565 48.4645 45.1397 49.0599 44.8292C49.1672 44.7719 49.2539 44.6771 49.3063 44.5597C49.8632 43.3304 50.1442 42.0331 50.1493 40.6679C50.3777 38.9689 50.2866 37.6216 49.876 36.6259C49.5372 35.8047 48.7956 34.9693 47.651 34.1199C47.5506 34.0446 47.4302 34.0004 47.3045 33.9928C43.8503 33.7798 40.4781 34.2084 37.1881 35.2786L36.9763 33.5348C36.9713 33.4927 36.9567 33.4522 36.934 33.4166C36.9112 33.3811 36.8809 33.3517 36.8457 33.3308C36.8104 33.31 36.7713 33.2984 36.7317 33.297C36.6921 33.2957 36.6532 33.3046 36.6183 33.323C36.0615 33.6259 35.6983 33.5912 35.5289 33.2191C39.286 31.9205 43.115 31.1224 47.0158 30.8247Z" fill="#18111A"/>
<path d="M70.3822 45.3718C66.9408 45.9723 63.5943 45.9518 60.3428 45.3102C59.1854 45.0818 58.4373 44.3684 58.0985 43.1699C57.6725 41.6584 57.5301 40.1186 57.6712 38.5505C57.838 36.7028 58.5168 35.2592 59.7076 34.2199C59.9129 33.9555 60.1965 33.8234 60.5583 33.8234C64.0973 33.808 67.5631 34.293 70.9558 35.2785C71.3741 35.4016 71.6025 35.6788 71.641 36.11C71.9105 39.1844 71.4909 42.2717 70.3822 45.3718ZM62.0981 39.2088C62.3727 40.2045 62.9258 40.8115 63.7573 41.0296C65.1739 41.3992 66.2171 40.9103 66.8869 39.5629C66.987 39.3551 67.0935 39.3525 67.2064 39.5552C67.6992 40.4432 68.3433 41.1849 69.1388 41.7803C69.2441 41.8598 69.2697 41.838 69.2158 41.7148C68.5717 40.2571 67.7068 39.1061 66.6213 38.2618C65.5255 37.4072 64.2423 37.1878 62.7718 37.6036C61.291 37.2494 60.0374 37.5112 59.0108 38.3888C58.5515 38.7815 58.2884 39.3076 58.2217 39.9671C58.0985 41.1784 58.2679 42.3461 58.7298 43.4702C58.9146 43.9193 59.066 43.909 59.1841 43.4394C59.2842 43.0493 59.451 42.6951 59.6845 42.3769C60.4647 41.3016 61.2692 40.2456 62.0981 39.2088Z" fill="#FDB1A1"/>
<path d="M50.1494 40.6679C49.9646 40.7551 49.8145 40.8834 49.699 41.0528C49.9223 40.1495 49.8966 39.2564 49.622 38.3736C49.604 38.3158 49.5733 38.2626 49.532 38.218C49.4907 38.1734 49.4399 38.1385 49.3834 38.1157C48.9779 37.954 48.5621 37.8334 48.1361 37.7538C47.61 37.6563 47.1378 37.5267 46.7195 37.365C43.9325 36.2743 41.5599 36.9659 39.6018 39.4399C38.8242 40.4228 38.2943 41.3107 38.012 42.1037C37.858 42.1679 37.7387 42.2936 37.654 42.481C37.3588 42.4091 37.1073 42.4463 36.8995 42.5926C36.3451 40.3009 36.1475 38.2799 36.3066 36.5297C36.3477 36.0831 36.6415 35.6661 37.1882 35.2786C40.4782 34.2084 43.8504 33.7799 47.3046 33.9929C47.4303 34.0004 47.5508 34.0446 47.6511 34.1199C48.7957 34.9693 49.5373 35.8047 49.8761 36.6259C50.2867 37.6216 50.3778 38.969 50.1494 40.6679Z" fill="#F8AA9A"/>
<path d="M33.6157 36.6721C33.6054 37.0185 33.7299 37.1314 33.9891 37.0108C34.0364 36.9884 34.0885 36.9773 34.1408 36.9787C34.1932 36.98 34.2445 36.9936 34.2903 37.0184C34.3362 37.0432 34.3754 37.0785 34.4047 37.1214C34.4339 37.1642 34.4525 37.2134 34.4587 37.2649C34.8206 39.9801 35.448 42.5887 36.3411 45.0909C36.5618 45.7043 36.8441 46.1431 37.188 46.4074C37.6191 46.7385 38.1273 46.9425 38.7124 47.0195C38.7252 47.1478 38.7009 47.2569 38.6393 47.3467C38.6026 47.3961 38.5504 47.4318 38.491 47.4478C38.4317 47.4639 38.3686 47.4595 38.3121 47.4352L36.3142 46.5845C36.2626 46.5622 36.2063 46.5516 36.1503 46.5538C36.0944 46.5559 36.0407 46.5708 35.9942 46.5969C35.9477 46.623 35.91 46.6596 35.8845 46.7032C35.859 46.7468 35.8466 46.796 35.8484 46.8463C35.892 48.2988 36.1512 49.7064 36.626 51.0692C36.6452 51.1249 36.6801 51.1734 36.7262 51.2084C36.7722 51.2435 36.8272 51.2634 36.8839 51.2655L40.999 51.4195C41.1175 51.4244 41.2378 51.3788 41.3339 51.2924C42.6966 50.094 44.2852 49.4344 46.0996 49.3138C46.1616 49.3093 46.2197 49.2859 46.2614 49.2485C46.3031 49.2111 46.3252 49.1627 46.3229 49.1136L46.269 47.8779C46.2666 47.8312 46.2406 47.7869 46.1963 47.754C46.152 47.7211 46.0927 47.7021 46.0303 47.7009C45.576 47.6855 45.3181 47.4635 45.2565 47.0349L49.1984 46.4806C49.8066 46.3959 50.2314 46.0225 50.4726 45.3604C51.1963 43.392 51.6429 41.1593 51.8122 38.6622C51.8456 38.1618 52.1022 37.9283 52.5821 37.9616L55.6271 38.1734C55.6943 38.1787 55.7573 38.2077 55.8046 38.255C55.852 38.3024 55.8805 38.3649 55.885 38.4313L56.0621 41.2337C55.8414 45.0832 55.8786 48.9327 56.1737 52.7822C55.2036 53.8164 53.9679 54.1834 52.4666 53.8831C50.7498 53.5418 49.6283 52.5653 49.1022 50.9537C48.9379 50.4532 48.5953 50.1735 48.0744 50.1145C46.7578 49.9605 45.5157 50.0901 44.3481 50.5033C43.2728 50.8857 42.4721 51.5196 41.946 52.4049C41.5379 53.0978 41.3275 54.0358 41.3147 55.2189C41.2993 56.5662 41.484 57.8853 41.869 59.1762C41.9947 59.5971 41.8818 59.6766 41.5302 59.4149C39.0332 57.544 37.324 55.1124 36.4027 52.1201C35.9716 50.7214 35.5866 49.3087 35.2479 47.8818C35.1298 47.3865 34.9604 47.3608 34.7397 47.8048L32.9266 51.4464C32.9061 50.4994 33.1435 49.6076 33.6388 48.771C33.9108 48.3116 33.7851 48.0319 33.2615 47.9318C31.4317 47.5854 30.0652 46.3689 29.1618 44.2825C28.8513 43.3073 28.7012 42.2525 28.7114 41.1182C28.7243 39.8376 28.968 38.8278 29.4428 38.0887C30.282 36.7824 31.673 36.3102 33.6157 36.6721ZM30.3167 39.2936C29.634 41.0669 29.9291 42.6478 31.202 44.0361C31.7256 44.6084 32.3287 44.8651 33.0113 44.806C33.368 44.7752 33.7119 44.6071 34.043 44.3018C34.3355 44.0323 34.6024 43.7384 34.8437 43.4202C34.9209 43.3205 34.9616 43.1982 34.9591 43.0738C34.9437 42.2602 34.809 41.4724 34.555 40.7102C34.3189 39.9993 33.966 39.4668 33.4963 39.1126C32.9472 38.6969 32.3056 38.4788 31.5716 38.4582C30.9557 38.4403 30.5374 38.7187 30.3167 39.2936Z" fill="#FBBDAE"/>
<path d="M74.8094 36.599C77.4886 37.0969 78.7872 38.7445 78.7051 41.5417C78.6563 44.28 77.4193 46.138 74.9941 47.1158C74.6374 47.2595 74.4501 47.4764 74.4321 47.7664C74.427 47.8177 74.4668 47.9332 74.5514 48.1128C74.6233 48.2668 74.5514 48.3836 74.3359 48.4631L73.566 47.5393C73.3607 47.2929 73.2272 47.3416 73.1656 47.6855C72.7499 50.0414 72.0493 52.3049 71.0638 54.476C70.4145 55.9003 69.4971 57.1335 68.3114 58.1754C67.6647 58.7426 67.2772 58.6001 67.1489 57.7481C67.0719 57.24 67.0706 56.6164 67.145 55.8772C67.3375 53.9217 66.642 52.4204 65.0586 51.3733C63.6138 50.4187 61.9213 50.0581 59.9811 50.2916C59.2369 50.3815 58.2655 50.9704 57.0671 52.0586C56.9131 49.9105 56.8271 47.7638 56.8092 45.6184C56.8066 45.2668 56.7309 44.7368 56.582 44.0285C56.4691 43.487 56.4409 42.9417 56.4973 42.3925C56.9028 43.8835 57.3019 44.9049 57.6945 45.4567C58.1077 46.0341 58.8096 46.4037 59.8002 46.5653C63.1698 47.1068 66.3739 47.2903 69.4124 47.1158C70.3337 47.0619 71.0446 46.6128 71.545 45.7685C72.3508 43.8925 72.8975 41.9459 73.1849 39.9288C73.1874 39.9057 73.2054 39.5002 73.2388 38.7124C73.2824 37.6602 73.8059 36.9557 74.8094 36.599ZM74.0433 38.8202C73.4864 40.3471 73.1913 42.0165 73.1579 43.8283C73.1566 43.9049 73.171 43.9811 73.2001 44.0526C73.2292 44.124 73.2724 44.1891 73.3273 44.2441C74.1665 45.0884 74.9518 45.1859 75.6832 44.5367C76.1811 44.0952 76.5365 43.487 76.7495 42.712C77.2782 40.8026 76.6687 39.3912 74.921 38.4776C74.8419 38.436 74.7549 38.4119 74.6657 38.4069C74.5765 38.4019 74.4872 38.4161 74.404 38.4486C74.3208 38.4811 74.2455 38.5311 74.1833 38.5952C74.121 38.6593 74.0733 38.736 74.0433 38.8202Z" fill="#FCAE9E"/>
<path d="M49.6991 41.0528C49.5477 41.4608 49.2616 41.5814 48.8407 41.4146C48.1452 41.14 47.6474 40.6999 47.3471 40.0943C46.9237 39.2397 46.2539 38.693 45.3377 38.4544C43.9211 37.9437 42.643 38.1734 41.5036 39.1434C41.0776 39.1896 40.7427 39.3962 40.4989 39.7632C39.8573 40.7256 39.0284 41.5057 38.0121 42.1037C38.2944 41.3107 38.8243 40.4227 39.6019 39.4398C41.56 36.9659 43.9326 36.2743 46.7196 37.365C47.1379 37.5266 47.6101 37.6562 48.1362 37.7538C48.5623 37.8333 48.978 37.9539 49.3835 38.1156C49.44 38.1384 49.4908 38.1734 49.5321 38.218C49.5734 38.2626 49.6041 38.3157 49.6222 38.3735C49.8968 39.2563 49.9224 40.1494 49.6991 41.0528Z" fill="#DF6B57"/>
<path d="M62.7719 37.6035C62.3048 38.0347 62.0802 38.5698 62.0982 39.2088C61.2693 40.2456 60.4647 41.3016 59.6846 42.3769C59.451 42.6951 59.2842 43.0493 59.1841 43.4394C59.0661 43.909 58.9147 43.9193 58.7299 43.4702C58.268 42.3461 58.0986 41.1784 58.2218 39.9671C58.2885 39.3076 58.5515 38.7815 59.0109 38.3888C60.0374 37.5111 61.2911 37.2494 62.7719 37.6035Z" fill="#F77E6B"/>
<path d="M62.0982 39.2089C62.0802 38.5699 62.3048 38.0348 62.7718 37.6036C64.2423 37.1879 65.5255 37.4073 66.6213 38.2619C67.7069 39.1062 68.5717 40.2572 69.2159 41.7149C69.2698 41.8381 69.2441 41.8599 69.1389 41.7803C68.3433 41.1849 67.6992 40.4433 67.2064 39.5553C67.0935 39.3526 66.987 39.3552 66.8869 39.563C66.2171 40.9103 65.1739 41.3992 63.7573 41.0297C62.9258 40.8115 62.3728 40.2046 62.0982 39.2089Z" fill="#822528"/>
<path d="M45.3375 38.4544C45.6532 39.368 45.5634 40.1148 45.0681 40.6948C44.6189 41.2209 44.0184 41.4685 43.2665 41.4377C42.2323 41.3967 41.6715 40.723 41.5843 39.4168C41.6074 39.3115 41.5804 39.2204 41.5034 39.1434C42.6429 38.1734 43.9209 37.9437 45.3375 38.4544Z" fill="#67332A"/>
<path d="M49.699 41.0529C49.8145 40.8835 49.9646 40.7552 50.1494 40.6679C50.1442 42.0332 49.8632 43.3305 49.3063 44.5598C49.254 44.6771 49.1673 44.772 49.06 44.8292C48.4646 45.1397 47.5818 45.3566 46.4115 45.4798C43.3063 45.8057 40.7079 45.8006 38.6163 45.4644C37.5923 44.8074 37.02 43.8502 36.8994 42.5927C37.1073 42.4464 37.3588 42.4092 37.6539 42.481C37.8053 42.7223 37.9939 42.7556 38.2198 42.5811C39.2899 41.7599 40.2254 40.8039 41.0261 39.7133C41.1672 39.5182 41.3533 39.4194 41.5843 39.4168C41.6715 40.7231 42.2323 41.3968 43.2665 41.4378C44.0184 41.4686 44.6189 41.221 45.068 40.6949C45.5633 40.1149 45.6532 39.3681 45.3375 38.4545C46.2537 38.6931 46.9235 39.2398 47.3469 40.0943C47.6472 40.7 48.1451 41.1401 48.8405 41.4147C49.2614 41.5815 49.5476 41.4609 49.699 41.0529Z" fill="#FABBB4"/>
<path d="M74.0432 38.8202C74.0732 38.736 74.1209 38.6593 74.1831 38.5952C74.2454 38.5311 74.3206 38.4811 74.4039 38.4486C74.4871 38.4161 74.5763 38.4019 74.6655 38.4069C74.7547 38.4119 74.8418 38.436 74.9209 38.4775C76.6685 39.3912 77.278 40.8026 76.7494 42.712C76.5364 43.487 76.1809 44.0952 75.6831 44.5366C74.9517 45.1859 74.1664 45.0884 73.3272 44.2441C73.2723 44.1891 73.229 44.124 73.1999 44.0526C73.1708 43.9811 73.1565 43.9049 73.1578 43.8283C73.1912 42.0165 73.4863 40.3471 74.0432 38.8202Z" fill="#F98D7D"/>
<path d="M30.3169 39.2936C30.5376 38.7187 30.9559 38.4402 31.5719 38.4582C32.3058 38.4787 32.9474 38.6969 33.4966 39.1126C33.9662 39.4668 34.3191 39.9993 34.5552 40.7102C34.8093 41.4724 34.944 42.2602 34.9594 43.0738C34.9619 43.1982 34.9211 43.3205 34.8439 43.4202C34.6027 43.7384 34.3358 44.0323 34.0432 44.3017C33.7122 44.6071 33.3683 44.7752 33.0116 44.806C32.3289 44.8651 31.7258 44.6084 31.2023 44.0361C29.9294 42.6477 29.6343 41.0669 30.3169 39.2936Z" fill="#F4867C"/>
<path d="M41.5034 39.1434C41.5804 39.2204 41.6074 39.3115 41.5843 39.4167C41.3533 39.4193 41.1672 39.5181 41.0261 39.7132C40.2254 40.8039 39.29 41.7598 38.2198 42.581C37.994 42.7555 37.8053 42.7222 37.6539 42.4809C37.7386 42.2936 37.858 42.1679 38.0119 42.1037C39.0282 41.5057 39.8571 40.7256 40.4987 39.7632C40.7425 39.3962 41.0774 39.1896 41.5034 39.1434Z" fill="#AE4035"/>
<path d="M56.0623 41.2336C56.437 41.6186 56.582 42.0048 56.4973 42.3923C56.4408 42.9415 56.4691 43.4869 56.582 44.0284C56.7308 44.7367 56.8065 45.2666 56.8091 45.6182C56.8271 47.7637 56.913 49.9104 57.067 52.0584C56.9669 52.3381 56.6692 52.5794 56.1739 52.7821C55.8788 48.9326 55.8416 45.0831 56.0623 41.2336Z" fill="#913C32"/>
<path d="M78.7048 41.5416C79.7237 42.0318 80.6552 42.6169 81.4996 43.297C81.7126 43.4689 82.5389 44.1837 83.9786 45.4412C86.3268 47.4968 88.3042 49.8783 89.9107 52.5858C89.2204 52.7834 88.6994 53.262 88.3478 54.0217C87.9218 54.9379 87.6575 55.7065 87.5548 56.3275C87.3367 57.6569 87.1275 58.9888 86.9273 60.3233C86.7015 61.8477 86.4308 63.1642 86.1151 64.2729C85.5736 66.1899 84.9474 68.0787 84.2365 69.9393C83.6335 71.515 83.2485 72.6288 83.0817 73.2807C82.8097 74.3431 82.5838 75.5018 82.4042 76.7568C82.2528 77.8167 82.4542 78.8932 83.0086 79.9865C81.4149 80.9668 80.3139 82.3488 79.7057 84.1324L74.5512 82.4155C73.4246 82.2949 72.4597 82.0023 71.6564 81.5378C70.8429 81.0682 70.3514 80.4369 70.1821 79.6439C69.8228 77.9732 69.5341 76.8081 69.3159 76.1485C76.1013 71.021 78.6997 64.1664 77.1111 55.5846C76.7672 53.7317 75.8421 51.3578 74.3356 48.463C74.5512 48.3835 74.6231 48.2667 74.5512 48.1127C74.4665 47.9331 74.4267 47.8176 74.4319 47.7663C74.4498 47.4763 74.6372 47.2594 74.9939 47.1157C77.4191 46.1379 78.6561 44.2799 78.7048 41.5416Z" fill="#BDABBB"/>
<path d="M29.162 44.2825C30.0653 46.3689 31.4319 47.5853 33.2617 47.9318C33.7852 48.0319 33.911 48.3116 33.639 48.771C33.1437 49.6076 32.9063 50.4994 32.9268 51.4464C32.3032 54.2308 31.9542 55.899 31.8797 56.4507C30.825 64.2446 33.3259 70.6502 39.3824 75.6674C39.0873 76.912 38.7896 78.1452 38.4893 79.3667C38.0505 81.1401 36.8687 82.241 34.9439 82.6696L30.1475 84.7291C29.9653 84.2107 29.6817 84.1298 29.2967 84.4865C29.2819 84.5006 29.2638 84.5109 29.2441 84.5164C29.2245 84.522 29.2037 84.5228 29.1837 84.5186C29.1637 84.5144 29.1449 84.5055 29.1291 84.4926C29.1132 84.4796 29.1008 84.463 29.0927 84.4442C28.9233 84.0567 28.6577 83.922 28.2959 84.04C27.8108 84.1991 27.5388 84.2761 27.4798 84.271C27.1282 84.2299 26.8934 84.0028 26.7753 83.5896C26.629 83.0687 26.5148 82.5413 26.4327 82.0075C26.3095 81.2017 26.0734 80.7667 25.7244 80.7025C26.5071 77.5382 26.0965 74.3547 24.4926 71.1519C22.7988 67.7618 21.7261 63.8738 21.2744 59.488C21.2102 58.8669 21.1127 58.3267 20.9818 57.8673C20.8279 57.3387 20.6598 56.8126 20.4776 56.289C20.2697 55.6988 19.9001 55.2445 19.3689 54.9263C21.6529 50.4609 24.9173 46.913 29.162 44.2825Z" fill="#BDABBB"/>
<path d="M38.7125 47.0195C40.8913 47.2658 43.0727 47.271 45.2566 47.0349C45.3182 47.4634 45.5761 47.6854 46.0303 47.7008C46.0927 47.7021 46.1521 47.7211 46.1964 47.754C46.2407 47.7868 46.2666 47.8311 46.269 47.8779L46.3229 49.1136C46.3252 49.1627 46.3032 49.2111 46.2614 49.2485C46.2197 49.2859 46.1617 49.3093 46.0996 49.3138C44.2852 49.4344 42.6967 50.0939 41.334 51.2924C41.2378 51.3787 41.1176 51.4244 40.9991 51.4194L36.884 51.2654C36.8272 51.2633 36.7723 51.2434 36.7262 51.2084C36.6802 51.1734 36.6453 51.1248 36.626 51.0691C36.1513 49.7064 35.8921 48.2988 35.8484 46.8462C35.8466 46.796 35.8591 46.7467 35.8846 46.7031C35.91 46.6595 35.9478 46.623 35.9943 46.5969C36.0407 46.5708 36.0944 46.5559 36.1504 46.5537C36.2063 46.5516 36.2627 46.5621 36.3142 46.5845L38.3121 47.4352C38.3687 47.4594 38.4317 47.4639 38.4911 47.4478C38.5505 47.4317 38.6027 47.3961 38.6393 47.3467C38.7009 47.2568 38.7253 47.1478 38.7125 47.0195Z" fill="#FDA493"/>
<path d="M74.3358 48.463C75.8423 51.3578 76.7674 53.7317 77.1113 55.5846C78.6999 64.1664 76.1015 71.021 69.3161 76.1485L68.2575 76.9646C63.2429 80.3163 57.7574 81.6264 51.8009 80.895C47.5152 80.3689 43.5746 78.797 39.9791 76.1793L39.3825 75.6674C33.3259 70.6502 30.825 64.2446 31.8798 56.4507C31.9542 55.8989 32.3032 54.2308 32.9269 51.4464L34.74 47.8047C34.9607 47.3608 35.1301 47.3864 35.2481 47.8817C35.5869 49.3086 35.9718 50.7214 36.403 52.12C37.3243 55.1124 39.0334 57.544 41.5305 59.4148C41.8821 59.6766 41.995 59.597 41.8692 59.1761C41.4843 57.8853 41.2995 56.5662 41.3149 55.2189C41.3277 54.0358 41.5382 53.0978 41.9462 52.4049C42.4723 51.5195 43.273 50.8856 44.3483 50.5032C45.516 50.0901 46.7581 49.9605 48.0746 50.1144C48.5956 50.1735 48.9382 50.4532 49.1024 50.9536C49.6285 52.5653 50.75 53.5418 52.4669 53.8831C53.9682 54.1834 55.2039 53.8164 56.1739 52.7821C56.6692 52.5794 56.9669 52.3382 57.067 52.0584C58.2655 50.9703 59.2369 50.3813 59.9811 50.2915C61.9212 50.058 63.6137 50.4186 65.0586 51.3732C66.642 52.4203 67.3375 53.9216 67.145 55.8771C67.0706 56.6162 67.0718 57.2398 67.1488 57.748C67.2772 58.6 67.6647 58.7424 68.3114 58.1753C69.497 57.1333 70.4145 55.9002 71.0638 54.4759C72.0492 52.3048 72.7498 50.0413 73.1656 47.6854C73.2272 47.3415 73.3606 47.2928 73.5659 47.5391L74.3358 48.463ZM45.7418 55.2959C45.9292 57.1564 46.8287 58.7014 48.4403 59.9306C49.0177 60.3695 49.5028 60.2835 49.8954 59.6727C50.2136 59.18 50.6525 58.7784 51.2119 58.4678C51.6354 58.2317 52.1949 58.097 52.8903 58.0636C54.0837 58.0021 55.191 57.9764 56.2124 57.9867C56.7539 57.9918 57.1915 58.2061 57.5251 58.6295C58.5824 59.9691 59.6385 60.3682 60.6932 59.8267C61.3553 59.4854 61.9507 58.772 62.4794 57.6864C62.9901 56.6316 63.3661 55.4832 63.6073 54.2411C63.6766 53.8792 63.5483 53.7843 63.2224 53.9562C62.1342 54.5234 61.0153 55.0906 59.8656 55.6577C57.8023 56.6714 56.6744 57.2091 56.4819 57.2706C55.1166 57.7172 53.6859 57.7275 52.1897 57.3014C50.4164 56.7933 48.6431 55.8438 46.8697 54.4528C46.3873 54.0756 46.0447 54.091 45.8419 54.499C45.7418 54.6966 45.7085 54.9622 45.7418 55.2959ZM76.492 57.2488C76.518 57.2097 76.5274 57.1618 76.5181 57.1158C76.5088 57.0698 76.4816 57.0293 76.4425 57.0033L74.3969 55.6442C74.3578 55.6182 74.3099 55.6088 74.2639 55.6181C74.2179 55.6274 74.1774 55.6546 74.1514 55.6937L74.1429 55.7065C74.1169 55.7456 74.1075 55.7935 74.1168 55.8395C74.1261 55.8856 74.1533 55.926 74.1924 55.952L76.238 57.3111C76.2771 57.3371 76.325 57.3465 76.371 57.3372C76.4171 57.3279 76.4575 57.3007 76.4835 57.2616L76.492 57.2488ZM75.0172 59.026C74.699 58.872 74.1318 58.4139 73.3157 57.6517C72.8076 57.177 72.7499 57.2334 73.1425 57.8211C73.3683 58.1599 74.092 58.727 75.3136 59.5226C75.4548 59.6124 75.501 59.5842 75.4522 59.4379C75.3957 59.2737 75.2507 59.1364 75.0172 59.026Z" fill="#251124"/>
<path d="M89.9108 52.5859C90.265 52.5397 90.5139 52.6487 90.6576 52.9131C91.1478 53.8241 91.4724 54.8109 91.6315 55.8733C91.7239 56.5046 91.7791 57.5312 91.7971 58.9529C91.8407 62.5227 91.2761 65.9551 90.1033 69.2503C89.2205 71.7294 88.0682 74.1841 86.6465 76.6144C85.9561 77.7975 85.5853 78.4249 85.534 78.4968C85.0695 79.1692 84.5318 79.6722 83.921 80.0058C83.5463 80.2085 83.2422 80.2021 83.0087 79.9865C82.4544 78.8933 82.2529 77.8167 82.4043 76.7568C82.584 75.5019 82.8098 74.3432 83.0818 73.2807C83.2486 72.6289 83.6336 71.5151 84.2367 69.9394C84.9476 68.0788 85.5737 66.19 86.1152 64.2729C86.4309 63.1643 86.7016 61.8477 86.9275 60.3233C87.1276 58.9889 87.3368 57.6569 87.5549 56.3276C87.6576 55.7065 87.9219 54.9379 88.3479 54.0217C88.6995 53.2621 89.2205 52.7835 89.9108 52.5859Z" fill="#737198"/>
<path d="M45.8417 54.4991C46.0445 54.0911 46.3871 54.0757 46.8695 54.453C48.6429 55.8439 50.4162 56.7934 52.1895 57.3016C53.6857 57.7276 55.1164 57.7173 56.4817 57.2708C56.6742 57.2092 57.8021 56.6715 59.8654 55.6578C61.0151 55.0907 62.134 54.5235 63.2222 53.9564C63.5481 53.7844 63.6764 53.8794 63.6071 54.2412C63.3659 55.4833 62.9899 56.6318 62.4792 57.6865C61.9506 58.7721 61.3552 59.4855 60.693 59.8268C59.6383 60.3683 58.5822 59.9693 57.5249 58.6297C57.1913 58.2062 56.7538 57.9919 56.2123 57.9868C55.1909 57.9765 54.0835 58.0022 52.8901 58.0638C52.1947 58.0971 51.6352 58.2319 51.2117 58.468C50.6523 58.7785 50.2135 59.1801 49.8952 59.6729C49.5026 60.2836 49.0176 60.3696 48.4401 59.9308C46.8285 58.7015 45.929 57.1566 45.7416 55.296C45.7083 54.9624 45.7416 54.6968 45.8417 54.4991Z" fill="#EB8075"/>
<path d="M19.3689 54.9264C19.9001 55.2446 20.2696 55.6988 20.4775 56.2891C20.6597 56.8126 20.8278 57.3387 20.9818 57.8674C21.1127 58.3267 21.2102 58.8669 21.2744 59.488C21.726 63.8739 22.7988 67.7618 24.4925 71.152C26.0965 74.3547 26.5071 77.5383 25.7244 80.7025C25.2137 80.9104 24.8518 80.9489 24.6388 80.818C23.8253 80.3125 23.1568 79.6568 22.6332 78.8509C21.404 76.9544 20.2992 74.9848 19.3188 72.942C16.7166 67.5245 16.1558 61.9311 17.6366 56.162C17.8599 55.2946 18.4373 54.8827 19.3689 54.9264Z" fill="#737198"/>
<path d="M76.4423 57.0034L74.3966 55.6443C74.3152 55.5901 74.2053 55.6123 74.1512 55.6938L74.1426 55.7066C74.0885 55.788 74.1107 55.8979 74.1921 55.9521L76.2378 57.3112C76.3192 57.3653 76.4291 57.3431 76.4832 57.2617L76.4918 57.2489C76.5459 57.1674 76.5237 57.0575 76.4423 57.0034Z" fill="#51475F"/>
<path d="M75.017 59.026C75.2506 59.1364 75.3956 59.2736 75.452 59.4379C75.5008 59.5842 75.4546 59.6124 75.3135 59.5226C74.0919 58.727 73.3682 58.1599 73.1423 57.8211C72.7497 57.2334 72.8074 57.177 73.3156 57.6517C74.1317 58.4139 74.6988 58.872 75.017 59.026Z" fill="#51475F"/>
<path d="M95.875 75.5233C96.8238 75.4185 97.5166 74.6415 97.4223 73.7878C97.328 72.9341 96.4825 72.3269 95.5337 72.4317C94.5848 72.5364 93.8921 73.3134 93.9863 74.1671C94.0806 75.0209 94.9262 75.628 95.875 75.5233Z" fill="#8C87A7"/>
<path d="M39.3823 75.6674L39.979 76.1793L39.8943 76.5681C39.8825 76.623 39.8865 76.6813 39.9061 76.7374C39.9257 76.7934 39.9601 76.8452 40.0059 76.8876C40.7117 77.5575 41.7485 78.4839 43.1163 79.667C46.8452 82.9006 51.0155 84.3146 55.6272 83.9091C57.8342 83.7141 60.0284 83.0828 62.2098 82.0152C64.2962 80.9963 66.2068 79.6824 67.9417 78.0733C67.9673 78.0502 68.0726 77.9694 68.2573 77.8308C68.5679 77.6049 68.5679 77.3162 68.2573 76.9646L69.3159 76.1485C69.5341 76.8081 69.8228 77.9732 70.1821 79.6439C70.3515 80.4369 70.8429 81.0682 71.6564 81.5378C72.4597 82.0023 73.4246 82.2949 74.5512 82.4155C73.612 87.3814 71.3626 91.567 67.8031 94.9726C65.7449 96.9435 63.4236 98.3729 60.8394 99.2609C58.4398 100.085 55.9082 100.359 53.2443 100.085C48.4581 99.5945 44.3276 97.4888 40.8528 93.7677C37.8605 90.5623 35.8908 86.863 34.9438 82.6696C36.8686 82.241 38.0504 81.1401 38.4892 79.3667C38.7895 78.1451 39.0872 76.912 39.3823 75.6674ZM52.128 98.0252C52.1737 98.0561 52.2263 98.0752 52.2812 98.0808C52.3361 98.0865 52.3915 98.0784 52.4426 98.0575C52.4936 98.0365 52.5387 98.0033 52.5738 97.9607C52.6089 97.9182 52.633 97.8676 52.6438 97.8135C52.7901 97.0564 52.8581 96.2929 52.8478 95.523C52.8247 93.5983 52.8683 91.5234 52.9787 89.2984C52.9962 88.9277 52.8831 88.5627 52.6592 88.2667C52.4487 87.9844 52.2062 87.9806 51.9317 88.2552C51.8477 88.3369 51.7979 88.4586 51.7931 88.5939C51.6519 91.5375 51.6635 94.4811 51.8277 97.4247C51.8431 97.6993 51.9432 97.8995 52.128 98.0252Z" fill="#FCBFAF"/>
<path d="M39.979 76.1794C43.5744 78.7971 47.515 80.369 51.8008 80.8951C57.7572 81.6265 63.2428 80.3164 68.2574 76.9647C68.5679 77.3163 68.5679 77.605 68.2574 77.8309C68.0726 77.9695 67.9674 78.0503 67.9417 78.0734C66.2069 79.6825 64.2962 80.9964 62.2098 82.0153C60.0284 83.0829 57.8342 83.7142 55.6272 83.9092C51.0155 84.3147 46.8452 82.9007 43.1163 79.6671C41.7485 78.484 40.7117 77.5576 40.0059 76.8877C39.9601 76.8453 39.9257 76.7935 39.9061 76.7375C39.8866 76.6814 39.8825 76.6231 39.8943 76.5682L39.979 76.1794Z" fill="#F1847B"/>
<path d="M79.7057 84.1324C80.3832 84.7765 81.2507 85.2423 82.308 85.5298C82.2926 85.9455 82.1681 86.3279 81.9346 86.6769C81.6857 87.0542 81.7588 87.475 82.154 87.9395C82.1944 87.9876 82.2462 88.0248 82.3046 88.0477C82.3631 88.0707 82.4263 88.0787 82.4886 88.0711C82.5509 88.0634 82.6103 88.0404 82.6615 88.0039C82.7126 87.9675 82.7539 87.9189 82.7815 87.8626C83.1587 87.1004 83.7759 86.6705 84.6331 86.573C84.9641 87.135 85.4723 87.3647 86.1575 87.262C85.8008 87.8087 85.6083 88.413 85.5801 89.0751C85.539 90.0272 85.82 90.2441 86.4231 89.7257C87.0519 89.1816 87.5779 88.5478 88.0014 87.8241L94.3916 91.5504C85.3709 101.459 74.3113 107.222 61.2128 108.838C58.6362 109.157 56.0763 109.281 53.5331 109.212C45.503 108.991 37.9247 107.098 30.798 103.534C25.247 100.757 20.2298 97.0231 15.7465 92.3318C17.9484 90.928 20.1336 89.6397 22.3021 88.4669C22.7307 88.2334 23.0502 88.1294 23.2607 88.1551C23.8586 88.227 24.3475 88.0306 24.7273 87.5661C25.2431 86.9297 25.8167 86.5255 26.448 86.3535C27.1538 86.1636 27.5926 86.0238 27.7646 85.934C28.555 85.5208 29.3493 85.1191 30.1474 84.7291L34.9439 82.6696C35.8908 86.863 37.8605 90.5623 40.8528 93.7677C44.3276 97.4888 48.4581 99.5945 53.2443 100.085C55.9082 100.359 58.4399 100.085 60.8394 99.2609C63.4237 98.3729 65.7449 96.9435 67.8031 94.9726C71.3626 91.567 73.612 87.3814 74.5513 82.4155L79.7057 84.1324ZM76.5415 91.4888C74.5885 94.2219 72.8434 96.8716 71.3061 99.438C71.1034 99.7767 70.9854 100.14 70.952 100.527C70.9109 101.002 71.0957 101.059 71.5063 100.697C72.1094 100.16 72.6265 99.5547 73.0577 98.8798C73.6479 97.9534 73.952 97.4786 73.97 97.4555C75.2275 95.6437 76.3118 93.7317 77.2228 91.7197C77.4692 91.1782 77.3691 90.9999 76.9226 91.1847C76.7715 91.2475 76.6396 91.3528 76.5415 91.4888ZM35.2249 98.0483C35.3968 98.2536 35.5213 98.2318 35.5983 97.9829C35.6265 97.893 35.6214 97.7942 35.5829 97.6864C35.3442 97.0064 35.0157 96.3738 34.5974 95.7887C33.7428 94.5979 32.8613 93.4263 31.9528 92.2741C31.5987 91.8224 31.1547 91.4926 30.6209 91.2847C30.3514 91.1795 30.2937 91.2501 30.4477 91.4965C31.8822 93.7882 33.4746 95.9721 35.2249 98.0483ZM31.7202 99.698C31.7845 99.6492 31.6442 99.3365 31.3305 98.8288C31.0167 98.3211 30.555 97.6599 30.047 96.9906C29.7955 96.6592 29.5401 96.3358 29.2955 96.0388C29.051 95.7419 28.8219 95.4772 28.6216 95.26C28.4212 95.0427 28.2534 94.8771 28.1278 94.7726C28.0021 94.6681 27.9211 94.6268 27.8893 94.651C27.8251 94.6998 27.9653 95.0124 28.2791 95.5201C28.5929 96.0279 29.0546 96.6891 29.5625 97.3583C29.8141 97.6897 30.0695 98.0131 30.314 98.3101C30.5586 98.607 30.7876 98.8717 30.988 99.089C31.1884 99.3062 31.3562 99.4718 31.4818 99.5763C31.6074 99.6808 31.6885 99.7221 31.7202 99.698ZM80.6007 95.2917C80.6543 95.2048 80.6712 95.1002 80.6478 95.0009C80.6243 94.9015 80.5623 94.8156 80.4754 94.7619L80.4623 94.7538C80.3754 94.7002 80.2708 94.6832 80.1715 94.7067C80.0721 94.7302 79.9862 94.7922 79.9326 94.8791L76.7244 100.074C76.6707 100.16 76.6538 100.265 76.6773 100.364C76.7008 100.464 76.7628 100.55 76.8496 100.603L76.8627 100.611C76.9496 100.665 77.0542 100.682 77.1536 100.658C77.2529 100.635 77.3389 100.573 77.3925 100.486L80.6007 95.2917ZM66.4481 104.754C67.1461 104.787 67.3643 104.373 67.1025 103.511C66.9126 102.89 66.52 102.85 65.9246 103.391C65.5063 103.771 65.4267 104.114 65.6859 104.419C65.8604 104.625 66.1145 104.736 66.4481 104.754ZM42.9295 105.021C42.9804 105.07 43.0422 105.107 43.1115 105.129C43.1808 105.152 43.2562 105.159 43.3335 105.151C43.4107 105.144 43.4882 105.121 43.5616 105.084C43.635 105.047 43.7029 104.997 43.7613 104.937C43.8197 104.876 43.8675 104.807 43.902 104.733C43.9365 104.658 43.957 104.58 43.9624 104.502C43.9677 104.425 43.9578 104.35 43.9332 104.281C43.9086 104.213 43.8698 104.152 43.8189 104.103C43.7681 104.053 43.7063 104.017 43.637 103.994C43.5677 103.972 43.4923 103.964 43.415 103.972C43.3378 103.98 43.2603 104.003 43.1869 104.04C43.1135 104.076 43.0456 104.126 42.9872 104.187C42.9288 104.247 42.881 104.316 42.8465 104.391C42.812 104.465 42.7915 104.543 42.7861 104.621C42.7808 104.698 42.7907 104.774 42.8153 104.842C42.8399 104.911 42.8787 104.971 42.9295 105.021Z" fill="#E55B55"/>
<path d="M82.3081 85.5297C83.2859 85.4579 84.0609 85.8056 84.6332 86.5729C83.776 86.6705 83.1588 87.1003 82.7816 87.8625C82.754 87.9189 82.7127 87.9675 82.6616 88.0039C82.6105 88.0403 82.551 88.0634 82.4887 88.0711C82.4264 88.0787 82.3632 88.0707 82.3047 88.0477C82.2463 88.0247 82.1945 87.9875 82.1541 87.9395C81.7589 87.475 81.6858 87.0541 81.9347 86.6769C82.1683 86.3279 82.2927 85.9455 82.3081 85.5297Z" fill="#CE413E"/>
<path d="M86.1574 87.2621C86.858 87.1774 87.4726 87.3647 88.0013 87.8241C87.5779 88.5478 87.0518 89.1817 86.423 89.7258C85.8199 90.2442 85.5389 90.0273 85.58 89.0752C85.6082 88.4131 85.8007 87.8087 86.1574 87.2621Z" fill="#CE413E"/>
<path d="M52.1279 98.0252C51.9432 97.8995 51.8431 97.6993 51.8277 97.4247C51.6635 94.4811 51.6519 91.5376 51.793 88.594C51.7979 88.4586 51.8476 88.337 51.9316 88.2552C52.2062 87.9806 52.4487 87.9845 52.6592 88.2668C52.8831 88.5627 52.9962 88.9278 52.9787 89.2984C52.8683 91.5234 52.8247 93.5983 52.8478 95.5231C52.8581 96.293 52.7901 97.0565 52.6438 97.8135C52.6329 97.8676 52.6089 97.9182 52.5738 97.9608C52.5387 98.0033 52.4936 98.0366 52.4426 98.0575C52.3915 98.0785 52.3361 98.0865 52.2812 98.0809C52.2263 98.0752 52.1737 98.0561 52.1279 98.0252Z" fill="#FB9684"/>
<path d="M76.5415 91.4889C76.6396 91.3529 76.7716 91.2476 76.9226 91.1848C77.3691 91 77.4692 91.1784 77.2228 91.7198C76.3118 93.7318 75.2275 95.6438 73.97 97.4556C73.9521 97.4787 73.6479 97.9535 73.0577 98.8799C72.6265 99.5548 72.1094 100.161 71.5063 100.697C71.0957 101.059 70.9109 101.002 70.952 100.527C70.9854 100.14 71.1034 99.7768 71.3062 99.4381C72.8434 96.8718 74.5885 94.222 76.5415 91.4889Z" fill="#CE413E"/>
<path d="M35.225 98.0483C33.4747 95.9722 31.8823 93.7882 30.4478 91.4965C30.2938 91.2501 30.3515 91.1796 30.621 91.2848C31.1548 91.4927 31.5988 91.8224 31.9529 92.2741C32.8614 93.4264 33.7429 94.5979 34.5975 95.7887C35.0158 96.3738 35.3443 97.0064 35.583 97.6865C35.6215 97.7943 35.6266 97.8931 35.5984 97.9829C35.5214 98.2318 35.3969 98.2536 35.225 98.0483Z" fill="#CF4945"/>
<path d="M29.5627 97.3583C30.6206 98.752 31.5866 99.7995 31.7204 99.6979C31.8542 99.5964 31.105 98.3842 30.0472 96.9906C28.9893 95.5969 28.0233 94.5494 27.8895 94.6509C27.7557 94.7525 28.5048 95.9646 29.5627 97.3583Z" fill="#CF4945"/>
<path d="M80.4754 94.762L80.4623 94.7539C80.2814 94.6422 80.0442 94.6983 79.9325 94.8792L76.7243 100.074C76.6126 100.254 76.6687 100.492 76.8496 100.603L76.8627 100.611C77.0436 100.723 77.2808 100.667 77.3925 100.486L80.6006 95.2918C80.7123 95.1109 80.6563 94.8737 80.4754 94.762Z" fill="#CF4945"/>
<path d="M65.6859 104.419C65.4267 104.114 65.5062 103.771 65.9245 103.391C66.5199 102.85 66.9126 102.89 67.1025 103.511C67.3642 104.373 67.1461 104.787 66.448 104.754C66.1144 104.736 65.8604 104.625 65.6859 104.419Z" fill="#C54E3A"/>
<path d="M42.9872 104.187C42.7416 104.44 42.7158 104.814 42.9295 105.021C43.1433 105.228 43.5156 105.19 43.7612 104.937C44.0068 104.683 44.0327 104.31 43.8189 104.103C43.6052 103.896 43.2328 103.933 42.9872 104.187Z" fill="#B93334"/>
</svg>
