<svg width="109" height="110" viewBox="0 0 109 110" fill="none" xmlns="http://www.w3.org/2000/svg">
<path d="M15.7693 91.9357C19.9242 96.5295 24.8939 100.29 30.6784 103.219C38.0001 106.927 45.6426 108.863 53.6059 109.027C56.1081 109.079 58.6667 108.929 61.2818 108.577C73.7927 106.896 84.475 101.438 93.3288 92.2014C93.4674 92.0602 93.5072 91.9126 93.4482 91.7587" stroke="#ACCDCB" stroke-width="0.769898"/>
<path d="M93.4484 91.7587C93.6332 91.7458 93.8179 91.6368 94.0027 91.4314C101.117 83.445 105.475 74.205 107.079 63.7113C107.901 58.3528 108.008 53.2933 107.403 48.5327C105.848 36.2888 100.864 25.7322 92.4514 16.863C90.6626 14.9767 88.7674 13.2509 86.7657 11.6854C76.5312 3.68872 64.8313 0.0740442 51.666 0.841376C49.0715 0.992789 46.5282 1.31486 44.0363 1.8076C33.4631 3.90429 24.4232 8.75721 16.9167 16.3664C10.2955 23.0722 5.70053 31.0393 3.13163 40.2679C2.43102 42.7829 1.92161 45.2979 1.60339 47.8129C0.954106 52.9096 1.00543 58.0243 1.75736 63.1569C3.38442 74.2666 8.05513 83.8595 15.7695 91.9357" stroke="#FEF3F0" stroke-width="0.769898"/>
<path d="M93.4483 91.7588C89.1086 89.5081 86.4461 88.0594 85.4606 87.4127C84.4649 86.7583 83.5294 86.3259 82.6543 86.1154C82.4028 86.0538 82.1885 85.964 82.0115 85.846C81.8164 85.7125 81.6239 85.5778 81.434 85.4418C81.1363 85.2262 80.8297 85.0568 80.514 84.9336C78.8382 84.2741 77.1624 83.585 75.4866 82.8665" stroke="#ABC2BC" stroke-width="0.769898"/>
<path d="M75.4865 82.8665C72.951 82.8357 70.9056 81.9824 69.3505 80.3066C68.7807 79.6907 68.3983 78.9452 68.2033 78.0701C68.016 77.2257 67.9223 76.3686 67.9223 75.4986C67.9197 74.4721 67.9184 73.9447 67.9184 73.9165C67.8671 72.4485 67.8171 70.9793 67.7683 69.5088" stroke="#FABD9E" stroke-width="0.769898"/>
<path d="M67.7683 69.5088C72.96 63.5036 74.9707 56.4795 73.8005 48.4366" stroke="#A7847D" stroke-width="0.769898"/>
<path d="M73.8005 48.4366C73.8416 48.1595 73.9532 48.0607 74.1354 48.1402C74.1801 48.1601 74.2205 48.1979 74.2529 48.2498C74.2853 48.3018 74.3085 48.3661 74.3202 48.4366C74.3921 48.8421 74.5897 49.1052 74.913 49.2258C75.144 49.3105 75.4327 49.2861 75.7792 49.1526C78.2762 48.1954 79.5183 46.2886 79.5055 43.4323C79.4901 39.6931 77.6539 37.8146 73.9969 37.7966" stroke="#FACEC3" stroke-width="0.769898"/>
<path d="M73.9968 37.7966C74.1816 34.2756 74.1751 30.8534 73.9775 27.53" stroke="#F4BAA1" stroke-width="0.769898"/>
<path d="M73.9777 27.53L73.4773 24.6351" stroke="#E7A494" stroke-width="0.769898"/>
<path d="M73.4773 24.6351C76.3568 22.7823 78.0056 20.2249 78.4239 16.9631C78.5985 15.6081 78.6318 14.4558 78.524 13.5063C78.3906 12.3258 77.9864 11.2184 77.3114 10.1841C76.8546 9.49124 76.2913 9.00107 75.6215 8.71364C73.8123 7.94375 71.8952 7.77565 69.8704 8.20936C68.8721 8.42237 68.1702 8.15162 67.7647 7.39712C67.6998 7.2749 67.6117 7.18267 67.5145 7.13535C66.819 6.80943 66.1672 6.89155 65.5589 7.38172C65.0149 7.82056 64.5683 7.73716 64.2193 7.1315C63.9986 6.75169 63.7317 6.41678 63.4186 6.12679C63.1543 5.88298 62.7924 5.66485 62.3331 5.47237C60.783 4.82566 59.2535 4.45482 57.7445 4.35987C53.3945 4.09041 49.2281 4.98862 45.2452 7.05451C43.9364 7.73202 43.0818 8.78037 42.6814 10.1995C42.4966 10.8591 42.2169 11.4737 41.8422 12.0435C41.1955 13.0212 40.3011 13.2791 39.1591 12.8172C37.6758 12.2192 36.2476 12.3014 34.8746 13.0636C32.9063 14.1568 31.5782 15.7787 30.8904 17.9293C30.3515 19.6205 30.4734 21.2963 31.2561 22.9568C32.0158 24.5684 33.2745 25.2716 35.0325 25.0663" stroke="#FDBD95" stroke-width="0.769898"/>
<path d="M35.0324 25.0663L34.9285 26.4598" stroke="#E7A494" stroke-width="0.769898"/>
<path d="M34.9282 26.4597L34.8743 37.9043" stroke="#F4BAA1" stroke-width="0.769898"/>
<path d="M34.8744 37.9042C34.5357 37.8349 34.2072 37.7618 33.889 37.6848C33.5066 37.5924 33.173 37.5565 32.8881 37.577C31.2559 37.6925 30.0857 38.4329 29.3774 39.7982C28.51 41.474 28.3958 43.3615 29.0348 45.4608C29.5018 46.998 30.4398 48.1477 31.8487 48.9099C32.4878 49.2564 33.1319 49.3872 33.7812 49.3026C34.238 49.2435 34.741 49.0716 35.2902 48.7867" stroke="#FABFAB" stroke-width="0.769898"/>
<path d="M35.2905 48.7869C35.1006 51.4866 35.2648 54.1364 35.7832 56.7361C36.7071 61.3734 38.7974 65.391 42.054 68.7888" stroke="#A7847D" stroke-width="0.769898"/>
<path d="M42.0538 68.7888C41.8357 71.3577 41.7754 73.8766 41.8729 76.3454C41.9396 77.9699 41.6407 79.2453 40.976 80.1718C40.4063 80.9622 39.7082 81.4832 38.8819 81.7347C36.9982 82.3069 35.6188 82.7612 34.7437 83.0974" stroke="#FABD9E" stroke-width="0.769898"/>
<path d="M34.7434 83.0974C32.7648 83.9597 30.7682 84.7809 28.7536 85.5611C28.3661 85.7125 28.1736 85.9743 28.1762 86.3464C28.1762 86.3605 28.1734 86.3746 28.168 86.3876C28.1626 86.4007 28.1546 86.4126 28.1446 86.4226C28.1244 86.4428 28.097 86.4542 28.0684 86.4542C27.0855 86.449 26.3272 86.6146 25.7934 86.9507C25.2236 87.3126 24.9247 87.4999 24.8964 87.5128C21.8168 88.9089 18.7745 90.3832 15.7693 91.9358" stroke="#ABC2BC" stroke-width="0.769898"/>
<path d="M44.0786 53.9067C44.6535 53.8502 45.0628 54.0491 45.3066 54.5034C45.3143 54.5188 45.3528 54.7177 45.4221 55.1C45.4708 55.3618 45.6646 55.5196 46.0034 55.5735" stroke="#3D1B1A" stroke-width="0.769898"/>
<path d="M46.0034 55.5736C46.1548 58.0552 46.9568 60.2982 48.4093 62.3025C49.4384 63.7242 50.6575 64.6519 52.0664 65.0857C54.9484 65.9736 57.3992 65.4719 59.4189 63.5805C60.1323 62.9107 60.7585 62.0266 61.2974 60.9282C61.803 59.8991 62.1828 58.8713 62.4369 57.8448C62.7166 56.7104 62.9861 55.8199 63.2453 55.1732" stroke="#A36252" stroke-width="0.769898"/>
<path d="M63.2454 55.1731C63.7355 55.1141 64.1551 54.8651 64.5041 54.4263C64.6376 54.2569 64.7941 54.1928 64.9738 54.2338C65.0269 54.2463 65.0747 54.2792 65.1095 54.3272C65.1443 54.3753 65.1643 54.4358 65.1663 54.4994L65.2471 56.7129C65.2492 56.7828 65.2664 56.8486 65.2962 56.9006C65.326 56.9526 65.3668 56.988 65.4126 57.0016C65.523 57.035 65.6295 56.9978 65.7321 56.89" stroke="#391B1A" stroke-width="0.769898"/>
<path d="M65.7322 56.89C65.9375 56.8926 66.1248 56.8284 66.2942 56.6976C68.0547 55.3246 69.4457 53.6436 70.4671 51.6547C71.1189 50.3844 71.781 49.1192 72.4534 47.8591" stroke="#A36A4F" stroke-width="0.769898"/>
<path d="M67.7687 69.5088C67.1707 69.8604 66.7152 70.3031 66.4021 70.8369" stroke="#A3593A" stroke-width="0.769898"/>
<path d="M66.4017 70.8368C63.0321 73.2568 59.4085 74.4835 55.5307 74.5169C51.825 74.5477 48.3142 73.5058 44.9985 71.3911" stroke="#984638" stroke-width="0.769898"/>
<path d="M44.9988 71.3911L42.054 68.7888" stroke="#A3593A" stroke-width="0.769898"/>
<path d="M44.9985 71.3911C45.5503 72.3201 46.2445 73.1157 47.0811 73.7778C47.6714 74.2423 48.5311 74.83 49.6603 75.5409C52.5936 77.3835 55.7373 77.78 59.0915 76.7304C62.1583 75.768 64.595 73.8035 66.4017 70.8368" stroke="#EB7E59" stroke-width="0.769898"/>
<path d="M75.4867 82.8665C76.1771 84.8246 76.2618 86.8853 75.7408 89.0487C75.0402 91.9615 73.8841 94.515 72.2724 96.7092C70.8045 98.7084 68.9695 100.487 66.7676 102.045C63.629 104.262 60.1144 105.457 56.2239 105.628C53.6011 105.747 51.081 105.364 48.6635 104.481C45.0706 103.167 42.0257 100.951 39.5286 97.8333C36.0923 93.5398 34.4973 88.6279 34.7437 83.0974" stroke="#A89679" stroke-width="0.769898"/>
<path d="M73.8003 48.4364L73.3191 46.6079" stroke="#A46A5E" stroke-width="0.769898"/>
<path d="M73.3889 44.8411C73.992 45.9087 74.7683 46.1371 75.7178 45.5263C76.8111 44.818 77.3154 43.8454 77.2307 42.6084C77.1665 41.6614 76.8432 40.939 76.2606 40.4411C75.483 39.7765 74.5142 39.9163 73.3542 40.8607" stroke="#F19A8D" stroke-width="0.769898"/>
<path d="M73.9777 27.53C71.5859 28.1511 68.9657 28.1588 66.117 27.5531C64.3411 27.1759 61.6196 26.7832 57.9523 26.3752C56.0609 26.1647 54.3774 26.039 52.9017 25.9979C50.841 25.9363 49.1511 25.9735 47.832 26.1095C45.3349 26.3687 42.834 26.5689 40.3293 26.7101C39.4696 26.7614 38.5701 26.7486 37.6308 26.6716C36.7403 26.5971 35.8395 26.5266 34.9285 26.4599" stroke="#DE7654" stroke-width="0.769898"/>
<path d="M73.9971 37.7966L73.3542 40.8608" stroke="#F19F82" stroke-width="0.769898"/>
<path d="M73.3542 40.8607C73.575 42.0874 73.5865 43.4142 73.3889 44.8411" stroke="#EB866B" stroke-width="0.769898"/>
<path d="M73.3886 44.8412C72.96 45.3468 72.9369 45.9357 73.3193 46.6081" stroke="#F19F82" stroke-width="0.769898"/>
<path d="M73.3193 46.6079C72.942 46.9595 72.6533 47.3765 72.4531 47.859" stroke="#9E563C" stroke-width="0.769898"/>
<path d="M72.4531 47.8591C72.1913 47.7847 72.0117 47.8565 71.9142 48.0747C71.1853 49.7633 70.3436 51.3916 69.3889 52.9597C68.7781 53.9631 67.8658 54.9794 66.6519 56.0085C66.6131 56.0422 66.563 56.0607 66.5102 56.0607C66.4575 56.0607 66.4054 56.0422 66.3632 56.0085C66.2066 55.8801 66.0334 55.7942 65.8435 55.7505" stroke="#F0A073" stroke-width="0.769898"/>
<path d="M65.8437 55.7505C65.8591 55.4041 65.8476 55.0602 65.8091 54.7188C65.7706 54.3827 65.6307 54.0837 65.3895 53.8219C63.8908 52.2205 62.016 51.3185 59.7654 51.1157" stroke="#87503E" stroke-width="0.769898"/>
<path d="M59.7655 51.1158C59.7578 50.8874 59.8052 50.6923 59.9079 50.5306" stroke="#CA6D4D" stroke-width="0.769898"/>
<path d="M59.9078 50.5306C61.1166 50.0558 61.7402 49.3001 61.7787 48.2633C61.7941 47.8116 61.5798 47.2226 61.1358 46.4963C60.389 45.2773 59.9322 44.1276 59.7654 43.0472C59.6217 42.1233 59.895 41.1648 60.5854 40.1716" stroke="#DA7651" stroke-width="0.769898"/>
<path d="M60.585 40.1717C61.3651 39.0425 62.4058 38.3163 63.7069 37.9929" stroke="#CA6D4D" stroke-width="0.769898"/>
<path d="M63.7073 37.9929C63.1966 39.3171 63.3826 40.1114 64.2654 40.3758C66.144 40.9378 66.9203 40.2449 66.5944 38.297C66.5533 38.0532 66.6367 37.9993 66.8446 38.1354C67.7531 38.723 68.6397 39.3608 69.5046 40.0486C69.6432 40.1563 69.7587 40.1794 69.851 40.1178C69.8875 40.0933 69.91 40.0474 69.9142 39.9887C69.9185 39.9299 69.9042 39.8623 69.8741 39.7983L69.4699 38.9091" stroke="#8F5641" stroke-width="0.769898"/>
<path d="M69.47 38.9092C69.8216 37.8108 69.5778 36.9369 68.7386 36.2877C67.8276 35.5819 67.1398 34.9211 66.6753 34.3052" stroke="#DA7651" stroke-width="0.769898"/>
<path d="M66.675 34.305C67.8556 34.7284 68.9629 35.2622 69.9972 35.9064C70.1896 36.027 70.2718 35.9744 70.2435 35.7486C70.1511 34.971 69.8791 34.2768 69.4274 33.666C69.0656 33.1707 68.5164 32.7087 67.7799 32.2802C65.9603 31.2177 63.9624 30.7211 61.7862 30.7904C60.8213 30.8212 60.2438 31.2498 60.0539 32.0761C59.9564 32.4996 60.1514 32.9179 60.639 33.3311" stroke="#824E3D" stroke-width="0.769898"/>
<path d="M60.6393 33.3311C60.262 33.4774 59.863 33.4158 59.4421 33.1464C59.3929 33.1155 59.3366 33.099 59.2799 33.099C59.2231 33.099 59.1685 33.1155 59.1226 33.1464C57.8831 34.0087 57.0118 35.1597 56.5088 36.5994" stroke="#DA7651" stroke-width="0.769898"/>
<path d="M56.5083 36.5994C56.0053 37.9647 55.7141 39.3761 55.6345 40.8338C55.4857 43.6568 55.5267 46.6324 55.7577 49.7608C55.7708 49.9433 55.7222 50.1251 55.6197 50.2771C55.5172 50.4292 55.3665 50.5428 55.1918 50.6C54.5143 50.8232 53.9163 51.2762 53.3979 51.9588" stroke="#CA6D4D" stroke-width="0.769898"/>
<path d="M53.3982 51.9588C49.7233 50.3009 46.6167 50.9502 44.0786 53.9066" stroke="#8B503E" stroke-width="0.769898"/>
<path d="M44.0785 53.9066C43.5037 54.5431 43.2714 55.295 43.3818 56.1624C43.4408 56.6372 43.2714 56.7437 42.8736 56.4819C40.9771 55.2373 39.4835 53.5897 38.3928 51.5392C38.1105 51.0079 37.6961 50.1816 37.1494 49.0601C36.7491 48.2414 36.3962 47.3843 36.0908 46.4886" stroke="#9E563C" stroke-width="0.769898"/>
<path d="M36.0909 46.4887C36.4835 45.9087 36.2641 45.5314 35.4326 45.3569" stroke="#F1916A" stroke-width="0.769898"/>
<path d="M35.4328 45.357C35.7921 43.5324 35.6907 41.7411 35.1287 39.9832" stroke="#EA7D60" stroke-width="0.769898"/>
<path d="M35.1283 39.983C35.231 39.2285 35.1463 38.5356 34.8743 37.9043" stroke="#F1916A" stroke-width="0.769898"/>
<path d="M73.4771 24.6351C71.8244 25.0534 70.1729 25.2818 68.5228 25.3203C66.0822 25.3819 63.6455 25.31 61.2126 25.1047C54.9046 24.5709 48.585 24.3246 42.2539 24.3656C41.3711 24.3708 40.5344 24.3438 39.744 24.2848C38.9125 24.2206 38.0797 24.1552 37.2457 24.0885C36.4116 24.0217 35.6738 24.3477 35.0322 25.0662" stroke="#E77948" stroke-width="0.769898"/>
<path d="M35.1287 39.9832C33.8276 39.1183 32.7767 39.2492 31.976 40.3758C30.9392 41.8386 30.9803 43.3566 32.0992 44.9298C32.6458 45.6971 33.3349 46.0962 34.1664 46.127C34.6925 46.1449 35.1146 45.8883 35.4328 45.3571" stroke="#EF826A" stroke-width="0.769898"/>
<path d="M36.091 46.4886C35.5597 47.1225 35.2928 47.8886 35.2903 48.7868" stroke="#A35B46" stroke-width="0.769898"/>
<path d="M60.5737 54.6342C60.5943 55.168 60.9266 55.3835 61.5707 55.2809C61.6434 55.2695 61.7097 55.2437 61.7602 55.2071C61.8107 55.1704 61.8427 55.1248 61.8518 55.0768C61.8697 54.9896 61.8479 54.8985 61.7863 54.8035" stroke="#F4B6A4" stroke-width="0.769898"/>
<path d="M46.6769 55.1886C46.659 55.4555 46.7873 55.5479 47.0619 55.4657C48.8532 54.9165 50.6779 54.538 52.5359 54.3301C52.7155 54.3096 52.8348 54.257 52.8939 54.1723C52.9709 54.0568 52.9786 53.9093 52.917 53.7296" stroke="#F8B0A0" stroke-width="0.769898"/>
<path d="M53.7023 52.8481C53.5663 53.2588 53.3045 53.5526 52.917 53.7297" stroke="#905D54" stroke-width="0.769898"/>
<path d="M52.9173 53.7296C50.8052 54.0889 48.7252 54.5752 46.6772 55.1886" stroke="#926868" stroke-width="0.769898"/>
<path d="M46.6771 55.1886C46.4076 55.2322 46.1831 55.3605 46.0034 55.5735" stroke="#905D54" stroke-width="0.769898"/>
<path d="M65.7318 56.8901C65.6881 56.4974 65.7254 56.1176 65.8434 55.7506" stroke="#8C6551" stroke-width="0.769898"/>
<path d="M63.2453 55.173L61.7864 54.8035" stroke="#8C5D54" stroke-width="0.769898"/>
<path d="M61.7863 54.8035L60.5737 54.6342" stroke="#8A6E6C" stroke-width="0.769898"/>
<path d="M60.5738 54.6342C58.6593 54.47 56.8385 53.9336 55.1113 53.0251" stroke="#8C5D54" stroke-width="0.769898"/>
<path d="M66.6752 34.3051C65.4613 33.7302 64.1525 33.4672 62.7487 33.516C62.0096 33.5391 61.3064 33.4775 60.6392 33.3312" stroke="#71392E" stroke-width="0.769898"/>
<path d="M69.47 38.909L68.4114 38.0428" stroke="#7E4032" stroke-width="0.769898"/>
<path d="M68.4113 38.043C68.1855 37.2731 67.6786 36.8163 66.8908 36.6725C66.3364 36.5725 65.7795 36.4993 65.2201 36.4531C64.309 36.3787 63.7509 36.3479 63.5456 36.3607C62.5549 36.4172 61.7671 36.9048 61.182 37.8235C60.7277 38.5421 60.5288 39.3248 60.5853 40.1717" stroke="#B9573E" stroke-width="0.769898"/>
<path d="M59.9078 50.5307C60.013 49.9276 59.7692 49.7325 59.1764 49.9455C58.5554 50.1662 58.0267 50.3343 57.5904 50.4498C57.0669 50.5884 56.7974 50.3869 56.782 49.8455C56.7538 48.724 56.6743 47.6166 56.5434 46.5233C56.3458 44.904 56.2393 43.8018 56.2239 43.2166C56.1802 41.5742 56.2341 39.9561 56.3855 38.3624C56.4112 38.093 56.4664 37.8312 56.5511 37.5771C56.7872 36.8739 56.7731 36.548 56.5087 36.5994" stroke="#B9573E" stroke-width="0.769898"/>
<path d="M59.7654 51.1158C57.8817 50.9721 56.3303 51.6085 55.1113 53.0251" stroke="#66322B" stroke-width="0.769898"/>
<path d="M55.1111 53.0252C54.8365 53.2613 54.3668 53.2023 53.7021 52.8481" stroke="#CF7963" stroke-width="0.769898"/>
<path d="M53.7021 52.8481C53.815 52.3939 53.7136 52.0974 53.3979 51.9589" stroke="#6A322B" stroke-width="0.769898"/>
<path d="M68.4114 38.0429C66.8177 37.1446 65.2496 37.128 63.7073 37.9928" stroke="#6E372E" stroke-width="0.769898"/>
<path d="M21.6401 26.1518C21.2526 26.0979 20.8728 26.2775 20.5007 26.6907C17.9369 29.5111 16.6743 32.8037 16.7128 36.5685C16.7205 37.2896 16.8257 37.8696 17.0284 38.3085C17.4236 39.1682 18.0216 39.4556 18.8223 39.1708C19.3971 38.9655 19.9412 38.5163 20.4545 37.8234C21.1397 36.9021 21.6363 35.8204 21.9442 34.5783C22.5576 32.1069 22.7128 29.5586 22.41 26.9332C22.3561 26.4739 22.0995 26.2134 21.6401 26.1518Z" stroke="#F8D5CC" stroke-width="0.769898"/>
<path d="M88.721 81.1496C89.7706 81.8887 90.9319 82.4366 92.2048 82.7933C92.9875 83.014 93.5149 82.7407 93.7869 81.9734C94.0538 81.224 93.9409 80.4708 93.4482 79.7137C92.8451 78.7847 92.4037 78.1675 92.124 77.8621C89.9041 75.4344 88.3643 72.9322 87.5046 70.3556C85.5028 64.3402 86.369 58.6775 90.103 53.3678C90.5444 52.7416 91.9507 51.0491 94.322 48.2903C94.8789 47.6462 95.2639 47.1201 95.4769 46.7121C95.7874 46.1167 96.0055 45.4943 96.1313 44.845C96.293 44.0059 95.9465 43.567 95.0919 43.5285C94.1706 43.4875 93.307 43.6838 92.5012 44.1175C90.6868 45.0978 89.0918 46.3566 87.7163 47.8938C82.2834 53.9735 80.1957 61.1143 81.4532 69.3163C82.0075 72.9373 83.4883 76.0349 85.8955 78.6089C86.8989 79.6817 87.8408 80.5285 88.721 81.1496Z" stroke="#FCBF99" stroke-width="0.769898"/>
<path d="M22.9756 44.2906C22.5753 43.939 22.166 43.9313 21.7476 44.2675C20.5055 45.2709 19.4546 46.4104 18.5949 47.6858C15.4127 52.4182 13.3455 57.6008 12.3934 63.2339C12.0136 65.4718 11.9327 67.5146 12.1509 69.3623C12.2048 69.8089 12.3433 70.1271 12.5666 70.317C12.9541 70.6481 13.3776 70.5326 13.8369 69.9705C14.0987 69.6472 14.3502 69.021 14.5914 68.092C14.6941 67.6993 14.8224 67.0398 14.9764 66.1134C15.7206 61.6351 16.9922 57.7073 18.7912 54.3301C20.2309 51.6277 21.6578 48.9164 23.0719 46.1961C23.5056 45.362 23.4735 44.7269 22.9756 44.2906Z" stroke="#FCBF9A" stroke-width="0.769898"/>
<path d="M27.1641 58.5184C26.4789 58.5415 25.8861 58.8303 25.3857 59.3846C23.9306 60.9962 22.7193 62.7298 21.7518 64.5852C20.91 66.1969 20.117 68.1409 19.3728 70.4172C18.0973 74.3103 17.5045 78.3343 17.5943 82.4892C17.6046 83.0461 17.6572 83.5004 17.7521 83.8519C17.8702 84.2959 18.0409 84.7232 18.2641 85.1338C18.6234 85.7882 19.1431 85.9628 19.8232 85.6574C21.0832 85.0928 22.1277 84.1573 22.9567 82.8511C27.3374 75.9502 29.1492 68.3924 28.3921 60.1776C28.3382 59.6027 28.0431 59.0895 27.5068 58.6378C27.4102 58.5561 27.2879 58.5135 27.1641 58.5184Z" stroke="#FCBF99" stroke-width="0.769898"/>
<path d="M54.3706 10.0936C54.4014 10.0491 54.4133 9.99418 54.4036 9.94095C54.3939 9.88772 54.3635 9.84051 54.319 9.8097L54.3064 9.80093C54.2619 9.77013 54.207 9.75826 54.1538 9.76794C54.1005 9.77761 54.0533 9.80803 54.0225 9.85251L49.8544 15.872C49.8236 15.9165 49.8117 15.9714 49.8214 16.0246C49.8311 16.0779 49.8615 16.1251 49.906 16.1559L49.9186 16.1647C49.9631 16.1955 50.018 16.2073 50.0713 16.1977C50.1245 16.188 50.1717 16.1576 50.2025 16.1131L54.3706 10.0936Z" stroke="#EF8140" stroke-width="0.769898"/>
<path d="M52.3481 17.2765C52.3867 17.3024 52.4818 17.2429 52.6278 17.1014C52.7737 16.96 52.9678 16.7394 53.1989 16.4522C53.4299 16.165 53.6934 15.8169 53.9744 15.4277C54.2553 15.0386 54.5482 14.6159 54.8363 14.184C55.1243 13.752 55.4019 13.3193 55.6533 12.9103C55.9046 12.5014 56.1247 12.1243 56.301 11.8007C56.4774 11.477 56.6065 11.2131 56.681 11.0239C56.7555 10.8348 56.7739 10.7242 56.7352 10.6984C56.6965 10.6726 56.6015 10.7321 56.4555 10.8735C56.3095 11.0149 56.1154 11.2355 55.8844 11.5227C55.6533 11.8099 55.3898 12.158 55.1089 12.5472C54.8279 12.9364 54.5351 13.359 54.247 13.7909C53.9589 14.2229 53.6813 14.6557 53.43 15.0646C53.1786 15.4735 52.9585 15.8506 52.7822 16.1742C52.6059 16.4979 52.4768 16.7619 52.4023 16.951C52.3278 17.1401 52.3094 17.2507 52.3481 17.2765Z" stroke="#EF8140" stroke-width="0.769898"/>
<path d="M73.1279 12.2143C73.1373 12.2024 73.1442 12.1887 73.1483 12.1741C73.1523 12.1595 73.1535 12.1442 73.1517 12.1292C73.1499 12.1141 73.1451 12.0996 73.1376 12.0863C73.1302 12.0731 73.1202 12.0615 73.1083 12.0522L73.0235 11.9857C73.0115 11.9763 72.9979 11.9694 72.9833 11.9653C72.9687 11.9612 72.9534 11.9601 72.9383 11.9619C72.9233 11.9637 72.9087 11.9685 72.8955 11.9759C72.8823 11.9834 72.8707 11.9933 72.8613 12.0053L68.3293 17.7852C68.3199 17.7971 68.313 17.8108 68.3089 17.8254C68.3049 17.84 68.3037 17.8553 68.3055 17.8703C68.3073 17.8854 68.3121 17.8999 68.3196 17.9132C68.327 17.9264 68.337 17.938 68.3489 17.9473L68.4337 18.0138C68.4457 18.0232 68.4593 18.0301 68.4739 18.0342C68.4885 18.0383 68.5038 18.0394 68.5189 18.0376C68.5339 18.0358 68.5485 18.031 68.5617 18.0236C68.5749 18.0161 68.5865 18.0062 68.5959 17.9942L73.1279 12.2143Z" stroke="#EF8140" stroke-width="0.769898"/>
<path d="M74.0231 14.2519C74.0381 14.23 74.0438 14.203 74.0389 14.1769C74.0341 14.1508 74.019 14.1278 73.9971 14.1128L73.9336 14.0693C73.9117 14.0543 73.8847 14.0486 73.8586 14.0535C73.8326 14.0583 73.8095 14.0734 73.7945 14.0953L71.7458 17.0873C71.7308 17.1092 71.7251 17.1362 71.73 17.1623C71.7349 17.1884 71.7499 17.2115 71.7718 17.2265L71.8353 17.27C71.8572 17.285 71.8842 17.2906 71.9103 17.2858C71.9364 17.2809 71.9594 17.2658 71.9744 17.2439L74.0231 14.2519Z" stroke="#EF8140" stroke-width="0.769898"/>
<path d="M41.2582 17.3953C41.3094 17.4376 41.4877 17.3218 41.7539 17.0736C42.0202 16.8254 42.3525 16.465 42.6779 16.0717C43.0033 15.6784 43.295 15.2844 43.4889 14.9763C43.6829 14.6683 43.7631 14.4715 43.712 14.4292C43.6608 14.3869 43.4825 14.5026 43.2163 14.7509C42.95 14.9991 42.6177 15.3595 42.2923 15.7528C41.9669 16.1461 41.6752 16.5401 41.4812 16.8481C41.2873 17.1562 41.2071 17.353 41.2582 17.3953Z" stroke="#EF8140" stroke-width="0.769898"/>
<path d="M49.4948 30.7636C46.8541 30.2606 44.4481 30.6956 42.277 32.0686C41.5892 32.5023 41.0657 32.9693 40.7064 33.4698C40.2881 34.0549 40.0007 34.7157 39.8441 35.4523C39.7338 35.9707 39.9121 36.1041 40.3792 35.8526C40.9027 35.5677 41.443 35.22 41.9999 34.8094C42.7133 34.2807 43.2509 33.9394 43.6128 33.7854C44.5752 33.3748 45.5966 33.19 46.677 33.2311C46.9131 33.2388 47.443 33.217 48.2668 33.1657C48.9649 33.1195 49.4576 32.9706 49.745 32.7191C50.2352 32.2905 50.2506 31.7054 49.7912 30.9638C49.7596 30.9128 49.717 30.8687 49.666 30.8342C49.615 30.7998 49.5567 30.7757 49.4948 30.7636Z" stroke="#854E3F" stroke-width="0.769898"/>
<path d="M41.303 39.1016C40.9309 39.5763 40.9399 39.9164 41.33 40.1217" stroke="#875242" stroke-width="0.769898"/>
<path d="M41.3301 40.1217C42.2463 40.6991 43.1753 40.7402 44.1171 40.2449" stroke="#E6A88D" stroke-width="0.769898"/>
<path d="M44.1172 40.2449C44.6305 40.4913 45.1527 40.5529 45.6839 40.4297C46.1895 40.3117 46.5475 40.0024 46.7579 39.502C46.9992 38.9348 47.0633 38.3202 46.9504 37.6581" stroke="#875242" stroke-width="0.769898"/>
<path d="M46.9502 37.658C48.0255 37.5784 49.043 37.9929 50.0028 38.9014C50.262 39.1452 50.3416 39.0964 50.2415 38.7551C49.8796 37.5207 49.1726 36.738 48.1204 36.4069C47.271 36.14 46.2098 36.0912 44.9369 36.2606C43.1405 36.5019 41.9292 37.4488 41.303 39.1016" stroke="#B86146" stroke-width="0.769898"/>
<path d="M46.9502 37.658C45.7466 36.9137 44.6739 36.9959 43.732 37.9043C43.6396 37.9942 43.5318 38.057 43.4087 38.093C42.9467 38.2316 42.5849 38.4317 42.3231 38.6935C42.0074 39.0066 41.6674 39.1426 41.303 39.1015" stroke="#532728" stroke-width="0.769898"/>
<path d="M44.1171 40.2447C43.8887 39.7648 43.7719 39.3259 43.7668 38.9282C43.7565 38.4688 43.5641 38.3854 43.1894 38.6779L41.3301 40.1215" stroke="#816E6F" stroke-width="0.769898"/>
<path d="M70.8557 42.543C69.6829 41.4651 68.4074 40.9018 67.0293 40.8531C65.9823 40.8197 64.9788 40.9608 64.019 41.2765C63.0156 41.605 62.1674 42.2235 61.4745 43.1319C60.8278 43.984 60.8676 44.854 61.5938 45.7419C63.3595 47.9053 65.5049 48.4199 68.0302 47.2855C69.1645 46.7774 70.1513 46.0858 70.9905 45.2107C71.4139 44.7718 71.6153 44.3458 71.5948 43.9326C71.5717 43.4348 71.3254 42.9716 70.8557 42.543Z" stroke="#E57B5C" stroke-width="0.769898"/>
<path d="M47.2121 42.212C46.2702 41.5217 45.0974 41.2227 43.6936 41.3151C41.8177 41.4382 40.2689 42.0067 39.0473 43.0204C38.1491 43.7621 37.9733 44.6295 38.5199 45.6226C39.2128 46.8776 40.2317 47.8733 41.5764 48.6098C42.2616 48.9871 42.9982 49.1128 43.786 48.9871C45.295 48.7484 46.532 48.1056 47.4969 47.0585C48.1796 46.3168 48.5312 45.538 48.5517 44.7219C48.5799 43.721 48.1334 42.8844 47.2121 42.212Z" stroke="#EA7D60" stroke-width="0.769898"/>
<path d="M50.3916 57.1017C50.2582 58.952 50.3108 60.162 50.5494 60.7318C51.6478 63.352 53.3557 64.3657 55.6731 63.7729C57.0846 63.4136 58.1304 62.7284 58.8105 61.7172C59.5675 60.5906 59.7279 59.2163 59.2916 57.5944" stroke="#8D5B58" stroke-width="0.769898"/>
<path d="M59.2917 57.5946C59.8358 57.1326 60.2477 56.6168 60.5274 56.0471C60.5372 56.0264 60.5422 56.0036 60.5418 55.9807C60.5415 55.9578 60.5359 55.9352 60.5255 55.9148C60.5151 55.8943 60.5002 55.8765 60.4818 55.8628C60.4635 55.849 60.4422 55.8396 60.4196 55.8354C56.8371 55.1681 53.2455 55.1027 49.6449 55.639C49.627 55.6416 49.4627 55.6621 49.1522 55.7006C48.5491 55.7751 48.4554 55.9444 48.8712 56.2088C48.9559 56.2601 49.1021 56.323 49.31 56.3974C49.7258 56.5437 50.0863 56.7785 50.3917 57.1018" stroke="#F8CFC3" stroke-width="0.769898"/>
<path d="M59.2916 57.5945C56.4404 56.8374 53.4738 56.6732 50.3916 57.1018" stroke="#90858F" stroke-width="0.769898"/>
<path d="M93.4484 91.7587C89.1087 89.508 86.4462 88.0593 85.4607 87.4126C84.465 86.7582 83.5295 86.3257 82.6544 86.1153C82.4029 86.0537 82.1886 85.9639 82.0116 85.8458C81.8165 85.7124 81.624 85.5777 81.4341 85.4416C81.1364 85.2261 80.8298 85.0567 80.5141 84.9335C78.8383 84.274 77.1625 83.5849 75.4867 82.8663C72.9511 82.8355 70.9058 81.9822 69.3506 80.3064C68.7808 79.6905 68.3985 78.945 68.2034 78.0699C68.0161 77.2255 67.9224 76.3684 67.9224 75.4984C67.9199 74.4719 67.9186 73.9445 67.9186 73.9163C67.8672 72.4483 67.8172 70.9791 67.7684 69.5086C72.9601 63.5034 74.9708 56.4794 73.8006 48.4365C73.8416 48.1593 73.9533 48.0605 74.1355 48.1401C74.1801 48.16 74.2206 48.1977 74.253 48.2497C74.2853 48.3016 74.3085 48.366 74.3203 48.4365C74.3921 48.842 74.5897 49.105 74.9131 49.2256C75.1441 49.3103 75.4328 49.2859 75.7792 49.1525C78.2763 48.1952 79.5184 46.2885 79.5055 43.4321C79.4901 39.693 77.6539 37.8145 73.9969 37.7965C74.1817 34.2755 74.1753 30.8533 73.9777 27.5299L73.4772 24.6351C76.3566 22.7822 78.0055 20.2248 78.4238 16.963C78.5983 15.608 78.6317 14.4557 78.5239 13.5062C78.3905 12.3257 77.9863 11.2183 77.3113 10.1841C76.8545 9.49118 76.2912 9.00101 75.6214 8.71358C73.8121 7.94369 71.8951 7.77559 69.8703 8.2093C68.872 8.42231 68.1701 8.15156 67.7646 7.39706C67.6997 7.27484 67.6116 7.18261 67.5144 7.13529C66.8189 6.80937 66.167 6.89149 65.5588 7.38166C65.0148 7.8205 64.5682 7.7371 64.2192 7.13144C63.9985 6.75163 63.7316 6.41672 63.4185 6.12673C63.1542 5.88292 62.7923 5.66479 62.333 5.47231C60.7829 4.8256 59.2534 4.45476 57.7444 4.35981C53.3944 4.09035 49.228 4.98856 45.2451 7.05445C43.9362 7.73196 43.0816 8.78031 42.6813 10.1995C42.4965 10.859 42.2168 11.4737 41.8421 12.0434C41.1954 13.0212 40.301 13.2791 39.159 12.8171C37.6757 12.2192 36.2475 12.3013 34.8745 13.0635C32.9062 14.1568 31.5781 15.7787 30.8903 17.9293C30.3514 19.6205 30.4733 21.2963 31.256 22.9567C32.0156 24.5684 33.2744 25.2715 35.0324 25.0662L34.9284 26.4597L34.8745 37.9043C34.5358 37.835 34.2073 37.7618 33.8891 37.6849C33.5067 37.5925 33.1731 37.5565 32.8882 37.5771C31.256 37.6925 30.0858 38.4329 29.3775 39.7982C28.51 41.474 28.3958 43.3616 29.0349 45.4608C29.5019 46.9981 30.4399 48.1478 31.8488 48.91C32.4878 49.2564 33.132 49.3873 33.7813 49.3026C34.2381 49.2436 34.7411 49.0716 35.2903 48.7868C35.1004 51.4866 35.2646 54.1363 35.783 56.736C36.7069 61.3733 38.7972 65.3909 42.0538 68.7887C41.8357 71.3576 41.7754 73.8765 41.8729 76.3453C41.9396 77.9698 41.6407 79.2452 40.976 80.1717C40.4063 80.9621 39.7082 81.4831 38.8819 81.7346C36.9982 82.3069 35.6188 82.7611 34.7437 83.0973C32.765 83.9596 30.7684 84.7808 28.7538 85.561C28.3663 85.7124 28.1739 85.9742 28.1764 86.3463C28.1764 86.3604 28.1736 86.3744 28.1682 86.3875C28.1628 86.4006 28.1549 86.4125 28.1448 86.4225C28.1246 86.4427 28.0972 86.4541 28.0686 86.4541C27.0857 86.4489 26.3274 86.6144 25.7936 86.9506C25.2239 87.3125 24.9249 87.4998 24.8967 87.5127C21.8171 88.9088 18.7747 90.3831 15.7695 91.9357C8.05513 83.8595 3.38442 74.2666 1.75736 63.1569C1.00543 58.0243 0.954106 52.9096 1.60339 47.8129C1.92161 45.2979 2.43102 42.7829 3.13163 40.2679C5.70053 31.0393 10.2955 23.0722 16.9167 16.3664C24.4232 8.75721 33.4631 3.90429 44.0363 1.8076C46.5282 1.31486 49.0715 0.992789 51.666 0.841376C64.8313 0.0740442 76.5312 3.68872 86.7657 11.6854C88.7674 13.2509 90.6626 14.9767 92.4514 16.863C100.864 25.7322 105.848 36.2888 107.403 48.5327C108.008 53.2933 107.901 58.3528 107.079 63.7113C105.475 74.205 101.117 83.445 94.0027 91.4314C93.8179 91.6368 93.6332 91.7458 93.4484 91.7587ZM21.64 26.1518C21.2525 26.0979 20.8727 26.2775 20.5005 26.6907C17.9368 29.5111 16.6741 32.8037 16.7126 36.5685C16.7203 37.2896 16.8256 37.8696 17.0283 38.3085C17.4235 39.1682 18.0215 39.4556 18.8222 39.1708C19.397 38.9654 19.9411 38.5163 20.4543 37.8234C21.1396 36.9021 21.6361 35.8204 21.9441 34.5783C22.5574 32.1069 22.7127 29.5586 22.4099 26.9332C22.356 26.4739 22.0994 26.2134 21.64 26.1518ZM88.7212 81.1495C89.7708 81.8886 90.9321 82.4365 92.205 82.7932C92.9877 83.0139 93.5151 82.7406 93.7871 81.9732C94.054 81.2239 93.9411 80.4707 93.4484 79.7136C92.8453 78.7846 92.4039 78.1674 92.1242 77.862C89.9043 75.4342 88.3645 72.9321 87.5048 70.3555C85.503 64.34 86.3692 58.6774 90.1032 53.3677C90.5446 52.7415 91.9509 51.049 94.3222 48.2902C94.8791 47.646 95.2641 47.12 95.4771 46.7119C95.7876 46.1165 96.0057 45.4942 96.1315 44.8449C96.2932 44.0057 95.9467 43.5669 95.0921 43.5284C94.1708 43.4873 93.3072 43.6836 92.5014 44.1174C90.687 45.0977 89.092 46.3565 87.7165 47.8937C82.2836 53.9733 80.1959 61.1141 81.4534 69.3161C82.0077 72.9372 83.4885 76.0348 85.8957 78.6088C86.8991 79.6815 87.841 80.5284 88.7212 81.1495ZM22.9758 44.2906C22.5754 43.939 22.1661 43.9313 21.7478 44.2675C20.5057 45.2709 19.4548 46.4104 18.595 47.6858C15.4128 52.4181 13.3456 57.6008 12.3935 63.2339C12.0137 65.4718 11.9329 67.5146 12.151 69.3623C12.2049 69.8089 12.3435 70.1271 12.5667 70.317C12.9543 70.648 13.3777 70.5326 13.8371 69.9705C14.0988 69.6472 14.3503 69.021 14.5916 68.092C14.6942 67.6993 14.8225 67.0398 14.9765 66.1133C15.7208 61.6351 16.9924 57.7073 18.7914 54.3301C20.2311 51.6277 21.6579 48.9164 23.072 46.1961C23.5057 45.362 23.4736 44.7269 22.9758 44.2906ZM27.164 58.5183C26.4788 58.5414 25.886 58.8301 25.3855 59.3844C23.9304 60.9961 22.7191 62.7296 21.7516 64.5851C20.9099 66.1967 20.1169 68.1407 19.3726 70.4171C18.0972 74.3102 17.5043 78.3342 17.5942 82.4891C17.6044 83.046 17.657 83.5002 17.752 83.8518C17.8701 84.2958 18.0407 84.7231 18.264 85.1337C18.6233 85.7881 19.1429 85.9626 19.823 85.6572C21.0831 85.0926 22.1276 84.1572 22.9565 82.8509C27.3372 75.9501 29.1491 68.3922 28.392 60.1774C28.3381 59.6026 28.043 59.0893 27.5066 58.6376C27.41 58.556 27.2878 58.5134 27.164 58.5183Z" fill="#FDE8E1"/>
<path d="M73.4773 24.6351C71.8246 25.0535 70.1732 25.2819 68.523 25.3203C66.0825 25.3819 63.6457 25.3101 61.2129 25.1048C54.9048 24.571 48.5853 24.3246 42.2541 24.3657C41.3713 24.3708 40.5347 24.3439 39.7443 24.2848C38.9128 24.2207 38.08 24.1552 37.2459 24.0885C36.4119 24.0218 35.6741 24.3477 35.0325 25.0663C33.2745 25.2716 32.0158 24.5684 31.2561 22.9568C30.4734 21.2963 30.3515 19.6205 30.8904 17.9293C31.5782 15.7787 32.9063 14.1568 34.8746 13.0636C36.2476 12.3014 37.6758 12.2192 39.1591 12.8172C40.3011 13.2791 41.1955 13.0212 41.8422 12.0435C42.2169 11.4737 42.4966 10.8591 42.6814 10.1995C43.0818 8.78037 43.9364 7.73202 45.2452 7.05451C49.2281 4.98862 53.3945 4.09041 57.7445 4.35987C59.2535 4.45482 60.783 4.82566 62.3331 5.47237C62.7924 5.66485 63.1543 5.88298 63.4186 6.12679C63.7317 6.41678 63.9986 6.75169 64.2193 7.1315C64.5683 7.73716 65.0149 7.82056 65.5589 7.38172C66.1672 6.89155 66.819 6.80943 67.5145 7.13535C67.6117 7.18267 67.6998 7.2749 67.7647 7.39712C68.1702 8.15162 68.8721 8.42237 69.8704 8.20936C71.8952 7.77565 73.8123 7.94375 75.6215 8.71364C76.2913 9.00107 76.8546 9.49124 77.3114 10.1841C77.9864 11.2184 78.3906 12.3258 78.524 13.5063C78.6318 14.4558 78.5985 15.6081 78.4239 16.9631C78.0056 20.2249 76.3568 22.7823 73.4773 24.6351ZM54.3708 10.0935C54.4016 10.049 54.4134 9.99411 54.4038 9.94088C54.3941 9.88765 54.3637 9.84044 54.3192 9.80963L54.3065 9.80086C54.2621 9.77006 54.2072 9.75819 54.1539 9.76787C54.1007 9.77754 54.0535 9.80796 54.0227 9.85244L49.8546 15.872C49.8238 15.9165 49.8119 15.9713 49.8216 16.0246C49.8312 16.0778 49.8617 16.125 49.9061 16.1558L49.9188 16.1646C49.9633 16.1954 50.0182 16.2073 50.0714 16.1976C50.1247 16.1879 50.1719 16.1575 50.2027 16.113L54.3708 10.0935ZM52.3481 17.2765C52.3868 17.3024 52.4819 17.2429 52.6278 17.1014C52.7738 16.96 52.9679 16.7394 53.1989 16.4522C53.43 16.165 53.6935 15.8169 53.9745 15.4277C54.2554 15.0385 54.5483 14.6159 54.8363 14.184C55.1244 13.752 55.402 13.3193 55.6533 12.9103C55.9047 12.5014 56.1248 12.1243 56.3011 11.8007C56.4775 11.477 56.6065 11.2131 56.681 11.0239C56.7555 10.8348 56.7739 10.7242 56.7353 10.6984C56.6966 10.6725 56.6015 10.732 56.4556 10.8735C56.3096 11.0149 56.1155 11.2355 55.8845 11.5227C55.6534 11.8099 55.3899 12.158 55.1089 12.5472C54.828 12.9364 54.5351 13.359 54.2471 13.7909C53.959 14.2229 53.6814 14.6556 53.4301 15.0646C53.1787 15.4735 52.9586 15.8506 52.7823 16.1742C52.6059 16.4979 52.4768 16.7618 52.4024 16.951C52.3279 17.1401 52.3095 17.2507 52.3481 17.2765ZM73.1281 12.2144C73.1375 12.2025 73.1444 12.1888 73.1485 12.1742C73.1525 12.1596 73.1537 12.1443 73.1519 12.1293C73.1501 12.1142 73.1453 12.0997 73.1378 12.0865C73.1304 12.0732 73.1204 12.0616 73.1085 12.0523L73.0237 11.9858C73.0117 11.9764 72.9981 11.9695 72.9835 11.9654C72.9689 11.9614 72.9536 11.9602 72.9386 11.962C72.9235 11.9638 72.9089 11.9686 72.8957 11.976C72.8825 11.9835 72.8709 11.9935 72.8615 12.0054L68.3295 17.7853C68.3201 17.7973 68.3132 17.8109 68.3091 17.8255C68.3051 17.8401 68.3039 17.8554 68.3057 17.8705C68.3076 17.8855 68.3123 17.9001 68.3198 17.9133C68.3272 17.9265 68.3372 17.9381 68.3491 17.9475L68.4339 18.0139C68.4459 18.0233 68.4595 18.0302 68.4741 18.0343C68.4887 18.0384 68.504 18.0395 68.5191 18.0377C68.5341 18.0359 68.5487 18.0311 68.5619 18.0237C68.5751 18.0163 68.5867 18.0063 68.5961 17.9943L73.1281 12.2144ZM74.0232 14.2519C74.0382 14.23 74.0439 14.2031 74.039 14.177C74.0341 14.1509 74.0191 14.1278 73.9972 14.1128L73.9337 14.0693C73.9118 14.0543 73.8848 14.0486 73.8587 14.0535C73.8326 14.0584 73.8095 14.0735 73.7945 14.0953L71.7458 17.0874C71.7308 17.1093 71.7252 17.1363 71.73 17.1624C71.7349 17.1884 71.75 17.2115 71.7719 17.2265L71.8354 17.27C71.8573 17.285 71.8842 17.2907 71.9103 17.2858C71.9364 17.2809 71.9595 17.2659 71.9745 17.244L74.0232 14.2519ZM41.2582 17.3952C41.3094 17.4375 41.4877 17.3218 41.7539 17.0736C42.0202 16.8254 42.3525 16.465 42.6779 16.0717C43.0033 15.6784 43.295 15.2843 43.4889 14.9763C43.6829 14.6683 43.7631 14.4714 43.712 14.4291C43.6608 14.3869 43.4825 14.5026 43.2163 14.7508C42.95 14.999 42.6177 15.3594 42.2923 15.7527C41.9669 16.146 41.6752 16.5401 41.4812 16.8481C41.2873 17.1561 41.2071 17.3529 41.2582 17.3952Z" fill="#FC9149"/>
<path d="M54.3191 9.8096L54.3064 9.80084C54.2138 9.73669 54.0867 9.75979 54.0225 9.85243L49.8544 15.8719C49.7903 15.9646 49.8134 16.0917 49.906 16.1558L49.9187 16.1646C50.0113 16.2287 50.1384 16.2056 50.2025 16.113L54.3707 10.0935C54.4348 10.0008 54.4117 9.87375 54.3191 9.8096Z" fill="#E27136"/>
<path d="M54.247 13.791C53.0355 15.6075 52.1853 17.168 52.3481 17.2765C52.5108 17.3851 53.6248 16.0005 54.8362 14.184C56.0477 12.3675 56.8979 10.8069 56.7351 10.6984C56.5724 10.5899 55.4584 11.9745 54.247 13.791Z" fill="#E27136"/>
<path d="M73.1083 12.0523L73.0235 11.9858C72.9733 11.9465 72.9007 11.9552 72.8614 12.0054L68.3293 17.7853C68.29 17.8355 68.2988 17.9081 68.349 17.9475L68.4338 18.014C68.484 18.0533 68.5566 18.0445 68.5959 17.9944L73.1279 12.2145C73.1673 12.1643 73.1585 12.0917 73.1083 12.0523Z" fill="#E27136"/>
<path d="M73.9969 14.1129L73.9334 14.0694C73.8878 14.0381 73.8255 14.0498 73.7943 14.0954L71.7456 17.0874C71.7144 17.1331 71.726 17.1953 71.7716 17.2266L71.8352 17.2701C71.8808 17.3013 71.9431 17.2896 71.9743 17.244L74.023 14.252C74.0542 14.2064 74.0425 14.1441 73.9969 14.1129Z" fill="#E27136"/>
<path d="M42.2921 15.7527C41.6145 16.5717 41.1515 17.3071 41.258 17.3952C41.3645 17.4833 42.0001 16.8907 42.6777 16.0717C43.3552 15.2526 43.8182 14.5172 43.7117 14.4291C43.6053 14.341 42.9697 14.9336 42.2921 15.7527Z" fill="#E27136"/>
<path d="M73.4773 24.6351L73.9777 27.5299C71.5859 28.151 68.9657 28.1587 66.117 27.553C64.3411 27.1758 61.6196 26.7831 57.9523 26.3751C56.0609 26.1646 54.3774 26.0389 52.9017 25.9978C50.841 25.9362 49.1511 25.9734 47.832 26.1094C45.3349 26.3686 42.834 26.5688 40.3293 26.71C39.4696 26.7613 38.5701 26.7485 37.6308 26.6715C36.7403 26.597 35.8395 26.5265 34.9285 26.4597L35.0324 25.0662C35.674 24.3477 36.4118 24.0217 37.2459 24.0885C38.0799 24.1552 38.9127 24.2206 39.7442 24.2848C40.5346 24.3438 41.3712 24.3708 42.254 24.3656C48.5852 24.3246 54.9048 24.5709 61.2128 25.1047C63.6457 25.31 66.0824 25.3819 68.523 25.3203C70.1731 25.2818 71.8246 25.0534 73.4773 24.6351Z" fill="#D16047"/>
<path d="M73.9774 27.53C74.175 30.8534 74.1814 34.2756 73.9966 37.7966L73.3538 40.8608C73.5745 42.0875 73.586 43.4143 73.3884 44.8412C72.9598 45.3467 72.9368 45.9357 73.3191 46.6081C72.9419 46.9597 72.6532 47.3767 72.453 47.8592C72.1912 47.7847 72.0116 47.8566 71.9141 48.0747C71.1852 49.7634 70.3435 51.3917 69.3888 52.9597C68.778 53.9632 67.8657 54.9794 66.6518 56.0085C66.613 56.0423 66.5629 56.0608 66.5101 56.0608C66.4574 56.0608 66.4053 56.0423 66.3631 56.0085C66.2066 55.8802 66.0333 55.7943 65.8434 55.7506C65.8588 55.4042 65.8473 55.0603 65.8088 54.719C65.7703 54.3828 65.6304 54.0838 65.3892 53.822C63.8904 52.2206 62.0157 51.3186 59.7651 51.1158C59.7574 50.8874 59.8049 50.6924 59.9075 50.5307C61.1162 50.0559 61.7399 49.3002 61.7784 48.2634C61.7938 47.8117 61.5795 47.2227 61.1355 46.4965C60.3887 45.2774 59.9319 44.1277 59.7651 43.0473C59.6214 42.1234 59.8947 41.1649 60.585 40.1717C61.3652 39.0426 62.4058 38.3163 63.707 37.9929C63.1963 39.3171 63.3823 40.1114 64.2651 40.3758C66.1437 40.9378 66.92 40.2449 66.5941 38.297C66.553 38.0532 66.6364 37.9993 66.8443 38.1354C67.7528 38.723 68.6394 39.3608 69.5043 40.0486C69.6429 40.1563 69.7584 40.1794 69.8507 40.1178C69.8872 40.0933 69.9097 40.0474 69.9139 39.9887C69.9182 39.9299 69.9039 39.8623 69.8738 39.7983L69.4696 38.9091C69.8212 37.8107 69.5774 36.9369 68.7382 36.2876C67.8272 35.5819 67.1394 34.921 66.6749 34.3051C67.8554 34.7286 68.9628 35.2624 69.997 35.9065C70.1895 36.0271 70.2716 35.9745 70.2434 35.7487C70.151 34.9711 69.879 34.2769 69.4273 33.6661C69.0654 33.1708 68.5163 32.7089 67.7797 32.2803C65.9602 31.2178 63.9623 30.7212 61.7861 30.7905C60.8211 30.8213 60.2437 31.2499 60.0538 32.0763C59.9563 32.4997 60.1513 32.918 60.6389 33.3312C60.2617 33.4775 59.8626 33.4159 59.4417 33.1464C59.3926 33.1155 59.3362 33.099 59.2795 33.099C59.2227 33.099 59.1681 33.1155 59.1222 33.1464C57.8827 34.0087 57.0114 35.1597 56.5084 36.5994C56.0054 37.9647 55.7141 39.3762 55.6346 40.8339C55.4857 43.6568 55.5268 46.6325 55.7578 49.7608C55.7709 49.9433 55.7223 50.1251 55.6198 50.2772C55.5172 50.4293 55.3666 50.5429 55.1919 50.6C54.5144 50.8233 53.9164 51.2762 53.398 51.9589C49.723 50.301 46.6165 50.9503 44.0784 53.9067C43.5035 54.5432 43.2713 55.2951 43.3816 56.1625C43.4407 56.6373 43.2713 56.7438 42.8735 56.482C40.977 55.2374 39.4834 53.5898 38.3927 51.5393C38.1104 51.0081 37.6959 50.1817 37.1493 49.0602C36.749 48.2416 36.3961 47.3844 36.0907 46.4888C36.4834 45.9088 36.2639 45.5315 35.4324 45.357C35.7917 43.5323 35.6904 41.741 35.1283 39.9831C35.231 39.2286 35.1463 38.5357 34.8743 37.9044L34.9282 26.4599C35.8392 26.5266 36.74 26.5971 37.6305 26.6716C38.5698 26.7486 39.4693 26.7614 40.329 26.7101C42.8337 26.5689 45.3346 26.3687 47.8317 26.1095C49.1507 25.9735 50.8407 25.9363 52.9014 25.9979C54.3771 26.039 56.0606 26.1647 57.952 26.3752C61.6192 26.7832 64.3408 27.1759 66.1167 27.5531C68.9654 28.1588 71.5856 28.1511 73.9774 27.53ZM49.4946 30.7636C46.8539 30.2606 44.448 30.6956 42.2768 32.0686C41.5891 32.5023 41.0655 32.9693 40.7062 33.4698C40.2879 34.0549 40.0005 34.7157 39.844 35.4523C39.7336 35.9707 39.912 36.1041 40.379 35.8526C40.9026 35.5677 41.4428 35.22 41.9997 34.8094C42.7131 34.2807 43.2508 33.9394 43.6126 33.7854C44.575 33.3748 45.5964 33.19 46.6768 33.2311C46.9129 33.2388 47.4429 33.217 48.2666 33.1657C48.9647 33.1195 49.4574 32.9706 49.7449 32.7191C50.235 32.2905 50.2504 31.7054 49.791 30.9638C49.7595 30.9128 49.7168 30.8687 49.6658 30.8342C49.6148 30.7998 49.5565 30.7757 49.4946 30.7636ZM41.3029 39.1016C40.9308 39.5764 40.9398 39.9164 41.3299 40.1217C42.246 40.6991 43.1751 40.7402 44.1169 40.2449C44.6302 40.4912 45.1524 40.5528 45.6836 40.4297C46.1892 40.3116 46.5472 40.0024 46.7576 39.5019C46.9989 38.9348 47.063 38.3201 46.9501 37.658C48.0254 37.5785 49.043 37.9929 50.0028 38.9014C50.262 39.1452 50.3415 39.0964 50.2414 38.7551C49.8796 37.5207 49.1726 36.738 48.1204 36.4069C47.2709 36.14 46.2097 36.0913 44.9368 36.2607C43.1404 36.5019 41.9291 37.4489 41.3029 39.1016ZM70.8555 42.543C69.6826 41.4652 68.4072 40.9019 67.0291 40.8531C65.982 40.8197 64.9786 40.9609 64.0188 41.2765C63.0153 41.605 62.1672 42.2235 61.4743 43.132C60.8275 43.984 60.8673 44.854 61.5936 45.742C63.3592 47.9054 65.5047 48.4199 68.0299 47.2856C69.1643 46.7775 70.151 46.0858 70.9902 45.2107C71.4136 44.7719 71.6151 44.3459 71.5946 43.9327C71.5715 43.4348 71.3251 42.9716 70.8555 42.543ZM47.2119 42.212C46.27 41.5216 45.0972 41.2226 43.6935 41.315C41.8175 41.4382 40.2687 42.0067 39.0471 43.0204C38.1489 43.762 37.9731 44.6294 38.5197 45.6226C39.2126 46.8776 40.2315 47.8733 41.5762 48.6098C42.2614 48.9871 42.998 49.1128 43.7858 48.9871C45.2948 48.7484 46.5318 48.1055 47.4968 47.0585C48.1794 46.3168 48.531 45.5379 48.5515 44.7218C48.5797 43.721 48.1332 42.8843 47.2119 42.212Z" fill="#EB8B60"/>
<path d="M21.6401 26.1518C22.0995 26.2134 22.3561 26.4739 22.41 26.9332C22.7128 29.5586 22.5576 32.1069 21.9442 34.5783C21.6363 35.8204 21.1397 36.9021 20.4545 37.8234C19.9412 38.5163 19.3971 38.9655 18.8223 39.1708C18.0216 39.4556 17.4236 39.1682 17.0284 38.3085C16.8257 37.8696 16.7205 37.2896 16.7128 36.5685C16.6743 32.8037 17.9369 29.5111 20.5007 26.6907C20.8728 26.2775 21.2526 26.0979 21.6401 26.1518Z" fill="#F2C2B6"/>
<path d="M49.7912 30.9638C50.2506 31.7054 50.2352 32.2905 49.745 32.7191C49.4576 32.9706 48.9649 33.1195 48.2668 33.1657C47.443 33.217 46.9131 33.2388 46.677 33.2311C45.5966 33.19 44.5752 33.3748 43.6128 33.7854C43.2509 33.9394 42.7133 34.2807 41.9999 34.8094C41.443 35.22 40.9027 35.5677 40.3792 35.8526C39.9121 36.1041 39.7338 35.9707 39.8441 35.4523C40.0007 34.7157 40.2881 34.0549 40.7064 33.4698C41.0657 32.9693 41.5892 32.5023 42.277 32.0686C44.4481 30.6956 46.8541 30.2606 49.4948 30.7636C49.5567 30.7757 49.615 30.7998 49.666 30.8342C49.717 30.8687 49.7596 30.9128 49.7912 30.9638Z" fill="#1E111E"/>
<path d="M66.675 34.305C65.4612 33.7301 64.1523 33.4671 62.7486 33.5159C62.0095 33.539 61.3063 33.4774 60.639 33.3311C60.1514 32.9179 59.9564 32.4996 60.0539 32.0761C60.2438 31.2498 60.8213 30.8212 61.7862 30.7904C63.9624 30.7211 65.9603 31.2177 67.7799 32.2802C68.5164 32.7087 69.0656 33.1707 69.4274 33.666C69.8791 34.2768 70.1511 34.971 70.2435 35.7486C70.2718 35.9744 70.1896 36.027 69.9972 35.9064C68.9629 35.2622 67.8556 34.7284 66.675 34.305Z" fill="#18111A"/>
<path d="M60.6392 33.3311C61.3065 33.4774 62.0096 33.539 62.7488 33.5159C64.1525 33.4672 65.4614 33.7302 66.6752 34.3051C67.1397 34.921 67.8275 35.5818 68.7386 36.2876C69.5777 36.9368 69.8216 37.8107 69.47 38.9091L68.4114 38.0429C68.1855 37.273 67.6787 36.8162 66.8908 36.6725C66.3365 36.5724 65.7796 36.4993 65.2201 36.4531C64.3091 36.3787 63.7509 36.3479 63.5456 36.3607C62.555 36.4172 61.7671 36.9047 61.182 37.8235C60.7278 38.5421 60.5289 39.3248 60.5853 40.1717C59.895 41.1649 59.6217 42.1234 59.7654 43.0473C59.9322 44.1277 60.389 45.2774 61.1358 46.4964C61.5798 47.2227 61.7941 47.8116 61.7787 48.2633C61.7402 49.3001 61.1166 50.0559 59.9078 50.5307C60.013 49.9276 59.7692 49.7325 59.1764 49.9455C58.5554 50.1662 58.0267 50.3343 57.5904 50.4498C57.0669 50.5884 56.7974 50.387 56.782 49.8455C56.7538 48.724 56.6743 47.6166 56.5434 46.5233C56.3458 44.904 56.2393 43.8018 56.2239 43.2166C56.1802 41.5742 56.2341 39.9561 56.3855 38.3624C56.4112 38.093 56.4664 37.8312 56.5511 37.5771C56.7872 36.874 56.7731 36.548 56.5087 36.5994C57.0117 35.1597 57.883 34.0087 59.1225 33.1464C59.1684 33.1155 59.2231 33.099 59.2798 33.099C59.3365 33.099 59.3929 33.1155 59.442 33.1464C59.8629 33.4158 60.262 33.4774 60.6392 33.3311Z" fill="#C96042"/>
<path d="M46.9502 37.658C45.7466 36.9138 44.6739 36.9959 43.732 37.9044C43.6396 37.9942 43.5318 38.0571 43.4087 38.093C42.9467 38.2316 42.5849 38.4317 42.3231 38.6935C42.0074 39.0066 41.6674 39.1426 41.303 39.1016C41.9292 37.4488 43.1405 36.5019 44.9369 36.2606C46.2098 36.0912 47.271 36.14 48.1204 36.4069C49.1726 36.738 49.8796 37.5207 50.2415 38.7551C50.3416 39.0964 50.262 39.1452 50.0028 38.9014C49.043 37.9929 48.0255 37.5784 46.9502 37.658Z" fill="#84362C"/>
<path d="M68.4113 38.043C66.8176 37.1448 65.2496 37.1281 63.7072 37.9929C62.4061 38.3163 61.3655 39.0426 60.5853 40.1717C60.5288 39.3248 60.7277 38.5421 61.182 37.8235C61.7671 36.9048 62.5549 36.4172 63.5456 36.3607C63.7509 36.3479 64.309 36.3787 65.2201 36.4531C65.7795 36.4993 66.3364 36.5725 66.8908 36.6725C67.6786 36.8163 68.1855 37.2731 68.4113 38.043Z" fill="#A94E39"/>
<path d="M56.5083 36.5994C56.7727 36.548 56.7868 36.8739 56.5507 37.5771C56.466 37.8312 56.4108 38.093 56.3852 38.3624C56.2337 39.9561 56.1798 41.5742 56.2235 43.2166C56.2389 43.8018 56.3454 44.904 56.543 46.5233C56.6739 47.6166 56.7534 48.724 56.7816 49.8455C56.797 50.3869 57.0665 50.5884 57.59 50.4498C58.0263 50.3343 58.555 50.1662 59.176 49.9455C59.7689 49.7325 60.0127 49.9276 59.9074 50.5307C59.8048 50.6923 59.7573 50.8874 59.765 51.1158C57.8813 50.9721 56.33 51.6085 55.111 53.0251C54.8364 53.2612 54.3667 53.2022 53.7021 52.8481C53.815 52.3938 53.7136 52.0974 53.3979 51.9588C53.9163 51.2762 54.5143 50.8232 55.1918 50.6C55.3665 50.5428 55.5172 50.4292 55.6197 50.2771C55.7222 50.1251 55.7708 49.9433 55.7577 49.7608C55.5267 46.6324 55.4857 43.6568 55.6345 40.8338C55.7141 39.3761 56.0053 37.9646 56.5083 36.5994Z" fill="#A94E39"/>
<path d="M46.9502 37.658C47.0632 38.3201 46.999 38.9347 46.7578 39.5019C46.5473 40.0023 46.1893 40.3116 45.6837 40.4296C45.1525 40.5528 44.6303 40.4912 44.117 40.2448C43.8886 39.7649 43.7718 39.3261 43.7667 38.9283C43.7564 38.4689 43.564 38.3855 43.1893 38.6781L41.33 40.1217C40.9399 39.9163 40.9309 39.5763 41.303 39.1015C41.6674 39.1426 42.0075 39.0066 42.3231 38.6935C42.5849 38.4317 42.9468 38.2316 43.4087 38.093C43.5319 38.057 43.6397 37.9942 43.7321 37.9043C44.6739 36.9959 45.7466 36.9137 46.9502 37.658Z" fill="#221824"/>
<path d="M68.4113 38.0429L69.4699 38.909L69.8741 39.7982C69.9042 39.8622 69.9185 39.9298 69.9142 39.9886C69.91 40.0473 69.8875 40.0932 69.851 40.1177C69.7587 40.1793 69.6432 40.1562 69.5046 40.0484C68.6397 39.3607 67.7531 38.7229 66.8446 38.1352C66.6367 37.9992 66.5533 38.0531 66.5944 38.2969C66.9203 40.2448 66.144 40.9377 64.2654 40.3756C63.3826 40.1113 63.1966 39.317 63.7073 37.9928C65.2496 37.128 66.8176 37.1446 68.4113 38.0429Z" fill="#332022"/>
<path d="M34.8744 37.9042C35.1465 38.5355 35.2312 39.2284 35.1285 39.9829C33.8274 39.1181 32.7765 39.249 31.9758 40.3756C30.939 41.8384 30.98 43.3564 32.099 44.9295C32.6456 45.6969 33.3347 46.0959 34.1661 46.1267C34.6922 46.1447 35.1144 45.8881 35.4326 45.3568C36.2641 45.5313 36.4835 45.9086 36.0909 46.4886C35.5597 47.1225 35.2928 47.8885 35.2902 48.7867C34.741 49.0716 34.238 49.2435 33.7812 49.3026C33.1319 49.3872 32.4878 49.2564 31.8487 48.9099C30.4398 48.1477 29.5018 46.998 29.0348 45.4608C28.3958 43.3615 28.51 41.474 29.3774 39.7982C30.0857 38.4329 31.2559 37.6925 32.8881 37.577C33.173 37.5565 33.5066 37.5924 33.889 37.6848C34.2072 37.7618 34.5357 37.8349 34.8744 37.9042Z" fill="#F69674"/>
<path d="M73.9968 37.7966C77.6538 37.8146 79.49 39.6931 79.5054 43.4323C79.5182 46.2886 78.2761 48.1954 75.7791 49.1526C75.4327 49.2861 75.1439 49.3105 74.913 49.2258C74.5896 49.1052 74.392 48.8421 74.3201 48.4366C74.3084 48.3661 74.2852 48.3018 74.2528 48.2498C74.2205 48.1979 74.18 48.1601 74.1354 48.1402C73.9532 48.0607 73.8415 48.1595 73.8005 48.4366L73.3193 46.6081C72.9369 45.9357 72.96 45.3468 73.3886 44.8412C73.9917 45.9088 74.768 46.1372 75.7175 45.5264C76.8108 44.8181 77.315 43.8455 77.2304 42.6085C77.1662 41.6615 76.8428 40.9391 76.2603 40.4412C75.4827 39.7766 74.5139 39.9164 73.3539 40.8608L73.9968 37.7966Z" fill="#F7B3A4"/>
<path d="M44.1171 40.2447C43.1753 40.74 42.2463 40.6989 41.3301 40.1215L43.1894 38.6779C43.5641 38.3854 43.7565 38.4688 43.7668 38.9282C43.7719 39.3259 43.8887 39.7648 44.1171 40.2447Z" fill="#E0C4B9"/>
<path d="M35.1287 39.9832C35.6908 41.7411 35.7921 43.5324 35.4328 45.3571C35.1146 45.8883 34.6925 46.1449 34.1664 46.127C33.3349 46.0962 32.6458 45.6971 32.0992 44.9298C30.9803 43.3566 30.9392 41.8386 31.976 40.3758C32.7767 39.2492 33.8276 39.1183 35.1287 39.9832Z" fill="#E86E5F"/>
<path d="M73.3889 44.8411C73.5865 43.4142 73.575 42.0874 73.3542 40.8607C74.5142 39.9163 75.483 39.7765 76.2606 40.4411C76.8432 40.939 77.1665 41.6614 77.2307 42.6084C77.3154 43.8454 76.8111 44.818 75.7178 45.5263C74.7683 46.1371 73.992 45.9087 73.3889 44.8411Z" fill="#EB8075"/>
<path d="M70.8557 42.543C71.3254 42.9716 71.5717 43.4348 71.5948 43.9326C71.6153 44.3458 71.4139 44.7718 70.9905 45.2107C70.1513 46.0858 69.1645 46.7774 68.0302 47.2855C65.5049 48.4199 63.3595 47.9053 61.5938 45.7419C60.8676 44.854 60.8278 43.984 61.4745 43.1319C62.1674 42.2235 63.0156 41.605 64.019 41.2765C64.9788 40.9608 65.9823 40.8197 67.0293 40.8531C68.4074 40.9018 69.6829 41.4651 70.8557 42.543Z" fill="#DF6B57"/>
<path d="M47.2121 42.212C48.1334 42.8844 48.5799 43.721 48.5517 44.7219C48.5312 45.538 48.1796 46.3168 47.4969 47.0585C46.532 48.1056 45.295 48.7484 43.786 48.9871C42.9982 49.1128 42.2616 48.9871 41.5764 48.6098C40.2317 47.8733 39.2128 46.8776 38.5199 45.6226C37.9733 44.6295 38.1491 43.7621 39.0473 43.0204C40.2689 42.0067 41.8177 41.4382 43.6936 41.3151C45.0974 41.2227 46.2702 41.5217 47.2121 42.212Z" fill="#E86E5F"/>
<path d="M85.8955 78.6089C83.4883 76.0349 82.0075 72.9373 81.4532 69.3163C80.1957 61.1143 82.2834 53.9735 87.7163 47.8938C89.0918 46.3566 90.6868 45.0978 92.5012 44.1175C93.307 43.6838 94.1706 43.4875 95.0919 43.5285C95.9465 43.567 96.293 44.0059 96.1313 44.845C96.0055 45.4943 95.7874 46.1167 95.4769 46.7121C95.2639 47.1201 94.8789 47.6462 94.322 48.2903C91.9507 51.0491 90.5444 52.7416 90.103 53.3678C86.369 58.6775 85.5028 64.3402 87.5046 70.3556C88.3643 72.9322 89.9041 75.4344 92.124 77.8621C92.4037 78.1675 92.8451 78.7847 93.4482 79.7137C93.9409 80.4708 94.0538 81.224 93.7869 81.9734C93.5149 82.7407 92.9875 83.014 92.2048 82.7933C90.9319 82.4366 89.7706 81.8887 88.721 81.1496C87.8408 80.5285 86.8989 79.6817 85.8955 78.6089Z" fill="#FB9550"/>
<path d="M22.9756 44.2906C23.4735 44.7269 23.5056 45.362 23.0719 46.1961C21.6578 48.9164 20.2309 51.6277 18.7912 54.3301C16.9922 57.7073 15.7206 61.6351 14.9764 66.1134C14.8224 67.0398 14.6941 67.6993 14.5914 68.092C14.3502 69.021 14.0987 69.6472 13.8369 69.9705C13.3776 70.5326 12.9541 70.6481 12.5666 70.317C12.3433 70.1271 12.2048 69.8089 12.1509 69.3623C11.9327 67.5146 12.0136 65.4718 12.3934 63.2339C13.3455 57.6008 15.4127 52.4182 18.5949 47.6858C19.4546 46.4104 20.5055 45.2709 21.7476 44.2675C22.166 43.9313 22.5753 43.939 22.9756 44.2906Z" fill="#FB9652"/>
<path d="M36.0912 46.4886C36.3966 47.3843 36.7494 48.2414 37.1498 49.0601C37.6964 50.1816 38.1109 51.0079 38.3932 51.5392C39.4839 53.5897 40.9775 55.2373 42.874 56.4819C43.2718 56.7437 43.4411 56.6372 43.3821 56.1624C43.2718 55.295 43.504 54.5431 44.0789 53.9066C44.6537 53.8502 45.0631 54.049 45.3069 54.5033C45.3146 54.5187 45.3531 54.7176 45.4223 55.1C45.4711 55.3617 45.6649 55.5195 46.0036 55.5734C46.155 58.0551 46.957 60.2981 48.4096 62.3024C49.4386 63.7241 50.6577 64.6518 52.0666 65.0855C54.9486 65.9735 57.3994 65.4718 59.4191 63.5804C60.1325 62.9106 60.7587 62.0265 61.2976 60.9281C61.8032 59.899 62.183 58.8712 62.4371 57.8446C62.7168 56.7103 62.9863 55.8198 63.2455 55.1731C63.7357 55.1141 64.1552 54.8651 64.5043 54.4263C64.6377 54.2569 64.7943 54.1928 64.9739 54.2338C65.0271 54.2463 65.0748 54.2792 65.1096 54.3272C65.1444 54.3753 65.1644 54.4358 65.1664 54.4994L65.2472 56.7129C65.2493 56.7828 65.2665 56.8486 65.2963 56.9006C65.3261 56.9526 65.3669 56.988 65.4127 57.0016C65.5231 57.035 65.6296 56.9978 65.7323 56.89C65.9376 56.8925 66.1249 56.8284 66.2943 56.6975C68.0548 55.3245 69.4457 53.6436 70.4671 51.6547C71.119 50.3843 71.7811 49.1191 72.4535 47.8591C72.6536 47.3766 72.9424 46.9596 73.3196 46.608L73.8008 48.4365C74.971 56.4794 72.9603 63.5034 67.7686 69.5086C67.1707 69.8602 66.7152 70.3029 66.4021 70.8367C63.0325 73.2567 59.4088 74.4834 55.5311 74.5168C51.8253 74.5476 48.3146 73.5057 44.9989 71.391L42.054 68.7887C38.7974 65.3909 36.7071 61.3733 35.7832 56.736C35.2648 54.1363 35.1006 51.4866 35.2905 48.7868C35.2931 47.8886 35.56 47.1225 36.0912 46.4886Z" fill="#502018"/>
<path d="M72.453 47.8591C71.7806 49.1192 71.1185 50.3844 70.4666 51.6547C69.4452 53.6436 68.0543 55.3245 66.2938 56.6975C66.1244 56.8284 65.9371 56.8926 65.7318 56.89C65.6881 56.4973 65.7254 56.1175 65.8434 55.7505C66.0333 55.7942 66.2065 55.8801 66.3631 56.0085C66.4053 56.0422 66.4574 56.0607 66.5101 56.0607C66.5629 56.0607 66.613 56.0422 66.6518 56.0085C67.8657 54.9794 68.778 53.9631 69.3888 52.9597C70.3435 51.3916 71.1852 49.7633 71.9141 48.0747C72.0116 47.8565 72.1912 47.7847 72.453 47.8591Z" fill="#F5B486"/>
<path d="M53.3982 51.9588C53.7139 52.0974 53.8153 52.3938 53.7023 52.848C53.5663 53.2586 53.3046 53.5525 52.917 53.7295C50.805 54.0888 48.7249 54.5751 46.677 55.1885C46.4076 55.2321 46.183 55.3604 46.0034 55.5734C45.6646 55.5196 45.4708 55.3617 45.4221 55.1C45.3528 54.7176 45.3143 54.5187 45.3066 54.5033C45.0628 54.049 44.6535 53.8502 44.0786 53.9066C46.6167 50.9502 49.7233 50.3009 53.3982 51.9588Z" fill="#2A151C"/>
<path d="M59.7654 51.1158C62.016 51.3185 63.8907 52.2206 65.3895 53.822C65.6307 54.0838 65.7706 54.3827 65.8091 54.7189C65.8476 55.0602 65.8591 55.4041 65.8437 55.7506C65.7257 56.1176 65.6884 56.4974 65.7321 56.89C65.6294 56.9978 65.5229 57.035 65.4126 57.0017C65.3668 56.9881 65.3259 56.9526 65.2961 56.9006C65.2663 56.8486 65.2491 56.7828 65.247 56.713L65.1662 54.4995C65.1642 54.4359 65.1442 54.3753 65.1094 54.3273C65.0746 54.2792 65.0269 54.2464 64.9737 54.2339C64.7941 54.1928 64.6375 54.257 64.5041 54.4264C64.1551 54.8652 63.7355 55.1141 63.2453 55.1732L61.7863 54.8036L60.5738 54.6342C58.6593 54.47 56.8385 53.9336 55.1113 53.0251C56.3303 51.6085 57.8817 50.9721 59.7654 51.1158Z" fill="#22151C"/>
<path d="M53.7024 52.8481C54.3671 53.2023 54.8367 53.2613 55.1113 53.0252C56.8385 53.9337 58.6593 54.4701 60.5737 54.6343C60.5943 55.1681 60.9266 55.3837 61.5708 55.281C61.6434 55.2697 61.7097 55.2439 61.7602 55.2072C61.8107 55.1705 61.8428 55.125 61.8518 55.077C61.8697 54.9897 61.8479 54.8986 61.7863 54.8037L63.2453 55.1732C62.9861 55.8199 62.7166 56.7105 62.4369 57.8448C62.1828 58.8713 61.803 59.8991 61.2974 60.9282C60.7585 62.0266 60.1323 62.9107 59.4189 63.5805C57.3992 65.4719 54.9484 65.9736 52.0664 65.0857C50.6575 64.652 49.4384 63.7242 48.4093 62.3025C46.9568 60.2982 46.1548 58.0552 46.0034 55.5736C46.1831 55.3606 46.4076 55.2323 46.6771 55.1886C46.6591 55.4555 46.7874 55.5479 47.062 55.4658C48.8533 54.9166 50.678 54.5381 52.536 54.3302C52.7156 54.3097 52.835 54.2571 52.894 54.1724C52.971 54.0569 52.9787 53.9093 52.9171 53.7297C53.3046 53.5526 53.5664 53.2588 53.7024 52.8481ZM50.3918 57.1018C50.2584 58.9521 50.311 60.1622 50.5497 60.7319C51.6481 63.3521 53.3559 64.3658 55.6733 63.773C57.0848 63.4137 58.1306 62.7285 58.8107 61.7174C59.5677 60.5908 59.7281 59.2165 59.2919 57.5946C59.8359 57.1326 60.2478 56.6168 60.5275 56.0471C60.5374 56.0263 60.5423 56.0036 60.542 55.9807C60.5416 55.9577 60.536 55.9352 60.5256 55.9147C60.5152 55.8943 60.5003 55.8765 60.4819 55.8628C60.4636 55.849 60.4423 55.8396 60.4198 55.8353C56.8372 55.1681 53.2456 55.1027 49.645 55.639C49.6271 55.6416 49.4628 55.6621 49.1523 55.7006C48.5492 55.775 48.4555 55.9444 48.8713 56.2087C48.956 56.2601 49.1023 56.3229 49.3101 56.3974C49.7259 56.5437 50.0864 56.7785 50.3918 57.1018Z" fill="#F5A48C"/>
<path d="M52.917 53.7296C52.9786 53.9093 52.9709 54.0568 52.8939 54.1723C52.8348 54.257 52.7155 54.3096 52.5359 54.3301C50.6779 54.538 48.8532 54.9165 47.0619 55.4657C46.7873 55.5479 46.659 55.4555 46.6769 55.1886C48.7249 54.5752 50.8049 54.0889 52.917 53.7296Z" fill="#FABBB4"/>
<path d="M60.5737 54.6342L61.7863 54.8035C61.8479 54.8985 61.8697 54.9896 61.8518 55.0768C61.8427 55.1248 61.8107 55.1704 61.7602 55.2071C61.7097 55.2437 61.6434 55.2695 61.5707 55.2809C60.9266 55.3835 60.5943 55.168 60.5737 54.6342Z" fill="#F2C7BB"/>
<path d="M59.2917 57.5946C56.4406 56.8375 53.4739 56.6733 50.3917 57.1018C50.0863 56.7785 49.7258 56.5437 49.31 56.3974C49.1021 56.323 48.9559 56.2601 48.8712 56.2088C48.4554 55.9444 48.5491 55.7751 49.1522 55.7006C49.4627 55.6621 49.627 55.6416 49.6449 55.639C53.2455 55.1027 56.8371 55.1681 60.4196 55.8354C60.4422 55.8396 60.4635 55.849 60.4818 55.8628C60.5002 55.8765 60.5151 55.8943 60.5255 55.9148C60.5359 55.9352 60.5415 55.9578 60.5418 55.9807C60.5422 56.0036 60.5372 56.0264 60.5274 56.0471C60.2477 56.6168 59.8358 57.1326 59.2917 57.5946Z" fill="#FAF9F9"/>
<path d="M59.2916 57.5945C59.7279 59.2164 59.5675 60.5907 58.8105 61.7173C58.1304 62.7284 57.0846 63.4136 55.6731 63.7729C53.3557 64.3658 51.6478 63.3521 50.5494 60.7318C50.3108 60.1621 50.2582 58.9521 50.3916 57.1018C53.4738 56.6732 56.4404 56.8374 59.2916 57.5945Z" fill="#251124"/>
<path d="M27.5068 58.6378C28.0431 59.0895 28.3382 59.6027 28.3921 60.1776C29.1492 68.3924 27.3374 75.9502 22.9567 82.8511C22.1277 84.1573 21.0832 85.0928 19.8232 85.6574C19.1431 85.9628 18.6234 85.7882 18.2641 85.1338C18.0409 84.7232 17.8702 84.2959 17.7521 83.8519C17.6572 83.5004 17.6046 83.0461 17.5943 82.4892C17.5045 78.3343 18.0973 74.3103 19.3728 70.4172C20.117 68.1409 20.91 66.1969 21.7518 64.5852C22.7193 62.7298 23.9306 60.9962 25.3857 59.3846C25.8861 58.8303 26.4789 58.5415 27.1641 58.5184C27.2879 58.5135 27.4102 58.5561 27.5068 58.6378Z" fill="#FB9550"/>
<path d="M42.0539 68.7888L44.9988 71.3911C45.5505 72.3201 46.2447 73.1156 47.0813 73.7778C47.6716 74.2423 48.5313 74.83 49.6605 75.5408C52.5938 77.3835 55.7376 77.7799 59.0917 76.7303C62.1585 75.7679 64.5952 73.8034 66.4019 70.8368C66.715 70.303 67.1705 69.8603 67.7685 69.5087C67.8173 70.9792 67.8673 72.4484 67.9186 73.9163C67.9186 73.9446 67.9199 74.472 67.9225 75.4985C67.9225 76.3685 68.0161 77.2256 68.2035 78.0699C68.3985 78.9451 68.7809 79.6906 69.3506 80.3065C70.9058 81.9823 72.9512 82.8356 75.4867 82.8664C76.1771 84.8245 76.2618 86.8853 75.7408 89.0487C75.0402 91.9615 73.8841 94.515 72.2724 96.7092C70.8045 98.7083 68.9695 100.487 66.7676 102.045C63.629 104.262 60.1144 105.457 56.2239 105.628C53.6011 105.747 51.081 105.364 48.6635 104.481C45.0706 103.167 42.0257 100.951 39.5286 97.8332C36.0923 93.5398 34.4973 88.6278 34.7437 83.0974C35.6188 82.7612 36.9982 82.3069 38.8819 81.7347C39.7083 81.4832 40.4063 80.9622 40.976 80.1718C41.6407 79.2453 41.9397 77.9699 41.873 76.3454C41.7755 73.8766 41.8358 71.3577 42.0539 68.7888Z" fill="#F6915B"/>
<path d="M66.4017 70.8368C64.595 73.8035 62.1583 75.768 59.0915 76.7304C55.7373 77.78 52.5936 77.3835 49.6603 75.5409C48.5311 74.83 47.6714 74.2423 47.0811 73.7778C46.2445 73.1157 45.5503 72.3201 44.9985 71.3911C48.3142 73.5058 51.825 74.5477 55.5307 74.5169C59.4085 74.4835 63.0321 73.2568 66.4017 70.8368Z" fill="#DF6B57"/>
<path d="M75.4864 82.8665C77.1623 83.585 78.8381 84.2741 80.5139 84.9336C80.8295 85.0568 81.1362 85.2262 81.4339 85.4418C81.6238 85.5778 81.8163 85.7125 82.0113 85.846C82.1884 85.964 82.4027 86.0538 82.6542 86.1154C83.5293 86.3259 84.4647 86.7583 85.4605 87.4127C86.4459 88.0594 89.1085 89.5081 93.4482 91.7588C93.5072 91.9128 93.4674 92.0603 93.3288 92.2015C84.475 101.438 73.7927 106.896 61.2818 108.577C58.6667 108.929 56.1081 109.079 53.6059 109.028C45.6426 108.863 38.0001 106.927 30.6784 103.219C24.8939 100.291 19.9242 96.5296 15.7693 91.9359C18.7745 90.3832 21.8168 88.9089 24.8964 87.5128C24.9247 87.5 25.2236 87.3126 25.7934 86.9508C26.3272 86.6146 27.0855 86.4491 28.0684 86.4542C28.097 86.4542 28.1244 86.4428 28.1446 86.4226C28.1648 86.4024 28.1762 86.375 28.1762 86.3464C28.1736 85.9743 28.3661 85.7125 28.7536 85.5611C30.7682 84.7809 32.7648 83.9597 34.7434 83.0974C34.4971 88.6279 36.092 93.5398 39.5283 97.8333C42.0254 100.951 45.0703 103.167 48.6632 104.481C51.0807 105.364 53.6008 105.747 56.2236 105.628C60.1141 105.457 63.6287 104.262 66.7674 102.045C68.9693 100.487 70.8042 98.7084 72.2721 96.7092C73.8838 94.515 75.0399 91.9615 75.7405 89.0487C76.2615 86.8853 76.1768 84.8246 75.4864 82.8665Z" fill="#599B97"/>
</svg>
