<svg width="107" height="111" viewBox="0 0 107 111" fill="none" xmlns="http://www.w3.org/2000/svg">
<path d="M10.0984 87.5634C15.7161 95.6294 22.9852 101.715 31.9058 105.822C36.9794 108.157 41.926 109.532 46.7455 109.948C50.4719 110.269 53.9685 110.333 57.2354 110.141C64.4057 109.715 71.2553 107.831 77.784 104.49C86.897 99.8215 94.0019 93.0489 99.0986 84.172" stroke="#9E919B" stroke-width="0.769898"/>
<path d="M99.0988 84.1719C103.793 76.1522 106.231 67.1649 106.413 57.2101C106.654 43.9525 103.01 32.2436 95.4802 22.0835" stroke="#B9B8CB" stroke-width="0.769898"/>
<path d="M95.4805 22.0835C91.3666 16.4325 86.2135 11.8208 80.0209 8.24844C79.7592 8.09703 79.4871 8.03543 79.2048 8.06366" stroke="#E1D7DE" stroke-width="0.769898"/>
<path d="M79.2048 8.06363C79.0636 7.807 78.7736 7.56449 78.3348 7.33608C71.4416 3.75092 64.2149 1.78255 56.6545 1.43096C54.0394 1.31035 51.4743 1.33473 48.9593 1.50411C44.0217 1.8403 39.2188 2.90403 34.5507 4.69533C22.9945 9.13507 14.1189 16.7032 7.92375 27.3996C3.19658 35.5657 0.707241 44.5401 0.45574 54.323C0.140082 66.6131 3.3544 77.6932 10.0987 87.5633" stroke="#B9B8CB" stroke-width="0.769898"/>
<path d="M79.2048 8.06372C80.1107 9.92944 80.615 11.6194 80.7177 13.1335C80.8434 15.0121 81.068 16.3915 81.3913 17.2717C82.618 20.6156 84.9919 22.1554 88.5129 21.8911C91.1716 21.6909 93.4941 21.7551 95.4805 22.0836" stroke="#9C91AA" stroke-width="0.769898"/>
<path d="M99.0988 84.172C98.8037 84.1694 98.411 84.0757 97.9209 83.891C95.5162 82.9876 89.9742 80.9641 81.2949 77.8203" stroke="#584A68" stroke-width="0.769898"/>
<path d="M81.295 77.8202C87.4439 76.8398 91.8118 73.537 94.3987 67.9116C96.0257 64.3726 96.2836 60.722 95.1724 56.9598C94.2691 53.9059 92.4547 51.5641 89.7292 49.9345C88.6283 49.2749 87.3888 48.9092 86.0106 48.8374C84.4785 48.7578 83.2287 49.1479 82.2612 50.0076C81.2912 50.8725 80.8215 51.9644 80.8523 53.2835C80.8882 54.7181 81.5966 55.8794 82.9772 56.7673C83.6214 57.1805 84.2681 57.5886 84.9174 57.9915C86.3289 58.8717 87.3362 60.0189 87.9392 61.4329C88.4833 62.7161 88.6565 64.1609 88.4589 65.7674C88.1843 67.9668 87.2322 69.8222 85.6026 71.3338C83.1235 73.6255 80.0285 74.7894 76.3176 74.8253" stroke="#9D91AB" stroke-width="0.769898"/>
<path d="M76.3175 74.8253C75.2474 74.4558 73.7948 73.8771 71.9599 73.0892C71.8059 73.0225 71.6725 73.0546 71.5596 73.1855" stroke="#9088A8" stroke-width="0.769898"/>
<path d="M71.5597 73.1854L68.7996 72.4155" stroke="#504864" stroke-width="0.769898"/>
<path d="M68.7996 72.4156L68.8381 61.7063" stroke="#B897A1" stroke-width="0.769898"/>
<path d="M68.8379 61.7062C70.3392 60.0432 71.2836 58.4162 71.6711 56.8251C72.4102 53.7891 72.5231 50.2989 72.0099 46.3545C72.0037 46.3075 72.0109 46.2553 72.0309 46.2014C72.0508 46.1476 72.0831 46.0934 72.1253 46.0427C72.1895 45.9657 72.2306 45.8758 72.2485 45.7732" stroke="#614858" stroke-width="0.769898"/>
<path d="M72.2485 45.7732L73.4303 45.8271" stroke="#B77A85" stroke-width="0.769898"/>
<path d="M73.4307 45.8271C77.7934 44.9853 79.8375 42.3318 79.5629 37.8663C79.373 34.7662 77.737 33.0391 74.6548 32.6849" stroke="#B5929E" stroke-width="0.769898"/>
<path d="M74.6545 32.6849L73.2263 32.5732" stroke="#B6A4B2" stroke-width="0.769898"/>
<path d="M73.2264 32.5733C73.4189 31.5827 73.3496 30.6152 73.0186 29.6708" stroke="#B895A0" stroke-width="0.769898"/>
<path d="M73.0187 29.6708C74.6765 28.1208 75.866 26.2717 76.5872 24.1237C77.3263 21.9295 76.8682 20.0882 75.2129 18.5997C74.7741 18.2071 74.6521 17.7336 74.8472 17.1792C75.1551 16.2939 75.3143 15.3944 75.3245 14.4808C75.3348 13.4491 75.1128 12.5932 74.6586 11.9131C73.9682 10.8815 72.9122 10.3567 71.4904 10.3387C71.4699 10.3387 71.271 10.3541 70.8938 10.3849C70.0571 10.4542 69.5464 10.023 69.3617 9.09147C69.0896 7.71591 68.2068 6.68425 66.7132 5.99647C64.4163 4.93914 62.2298 5.08543 60.1537 6.43532C60.0241 6.51887 59.8688 6.55315 59.7156 6.53198C59.5624 6.51081 59.4215 6.43556 59.3183 6.31983C57.8068 4.60295 55.9244 4.23982 53.6711 5.23043C53.1733 5.45113 52.6638 5.47936 52.1429 5.31512C51.1266 4.99433 50.0347 4.83649 48.867 4.84162C47.6326 4.84932 46.5688 5.06362 45.6757 5.48449C44.041 6.25439 42.9246 7.57733 42.3267 9.45332C42.1522 10.0025 41.7788 10.2412 41.2065 10.1693C40.28 10.0487 39.3716 9.99097 38.481 9.9961C37.4442 10.0038 36.5653 10.1745 35.8441 10.5081C34.3582 11.201 33.4151 12.3238 33.0148 13.8764C32.7094 15.0518 32.6311 16.2939 32.78 17.6027C32.9391 18.9988 33.496 20.1639 34.4506 21.098C35.7877 22.4043 36.0764 23.9916 35.3168 25.8598C34.9523 26.7555 34.978 27.7102 35.3938 28.7239" stroke="#614858" stroke-width="0.769898"/>
<path d="M35.3936 28.7239L35.2126 32.8621" stroke="#B895A0" stroke-width="0.769898"/>
<path d="M35.2127 32.8621L34.6199 33.0699" stroke="#B6A4B2" stroke-width="0.769898"/>
<path d="M34.6197 33.0701C31.4426 32.8904 29.6462 34.2968 29.2304 37.2891C29.0739 38.4157 29.1534 39.5898 29.4691 40.8114C29.8027 42.1074 30.3365 43.1224 31.0705 43.8563C32.446 45.2319 34.2694 45.5591 36.5406 44.838" stroke="#B796A0" stroke-width="0.769898"/>
<path d="M36.5408 44.8379L37.122 46.5124" stroke="#B6A4B2" stroke-width="0.769898"/>
<path d="M37.1221 46.5122C36.8578 49.4814 36.8257 52.0529 37.0259 54.2266C37.2671 56.8417 38.3309 59.1437 40.2171 61.1326" stroke="#614858" stroke-width="0.769898"/>
<path d="M40.2168 61.1328L40.2014 72.4311" stroke="#B897A1" stroke-width="0.769898"/>
<path d="M40.2017 72.4309L37.1221 73.5858" stroke="#4B455E" stroke-width="0.769898"/>
<path d="M37.1219 73.5858C34.9816 74.6329 32.8964 75.7967 30.8665 77.0773" stroke="#7B789C" stroke-width="0.769898"/>
<path d="M30.8664 77.0773C25.3334 79.505 19.4629 82.3459 13.255 85.6C12.0385 86.2365 10.9863 86.8909 10.0984 87.5633" stroke="#584A68" stroke-width="0.769898"/>
<path d="M73.4307 45.8273C74.2545 45.45 74.5637 44.8084 74.3584 43.9025C74.3407 43.821 74.3442 43.7362 74.3685 43.6561C74.3927 43.5759 74.4369 43.5031 74.497 43.4444C76.4474 41.553 77.302 39.5013 77.0607 37.2891C76.8965 35.7801 76.0406 34.8921 74.4931 34.6252" stroke="#F99B8B" stroke-width="0.769898"/>
<path d="M40.2825 80.4033C38.6991 78.381 37.6456 76.1085 37.1221 73.5858" stroke="#534B63" stroke-width="0.769898"/>
<path d="M72.2487 45.7734L71.96 45.7426" stroke="#A45145" stroke-width="0.769898"/>
<path d="M34.7818 34.7252C33.8271 34.7714 33.0072 35.0704 32.322 35.6222C31.6855 36.138 31.3134 36.8566 31.2056 37.7779C30.9515 39.9413 31.9922 41.4272 34.3275 42.2356" stroke="#F8A090" stroke-width="0.769898"/>
<path d="M44.4361 85.6809L41.5952 92.4021" stroke="#524661" stroke-width="0.769898"/>
<path d="M41.595 92.4021C36.0594 88.6707 32.4832 83.5624 30.8665 77.0773" stroke="#60516D" stroke-width="0.769898"/>
<path d="M71.5597 73.1854C71.0926 75.7261 70.1623 78.0807 68.7688 80.2492" stroke="#6C5F74" stroke-width="0.769898"/>
<path d="M68.8378 61.7063L67.8062 62.6956" stroke="#A66E62" stroke-width="0.769898"/>
<path d="M67.8064 62.6956C65.5814 64.8411 63.3974 66.6298 61.2545 68.0618C56.0783 71.5135 51.1535 71.1927 46.4802 67.0995C44.25 65.1439 42.4831 63.4514 41.1794 62.022" stroke="#A0524A" stroke-width="0.769898"/>
<path d="M41.1794 62.022L40.217 61.1328" stroke="#A66E62" stroke-width="0.769898"/>
<path d="M49.9909 51.4551C48.3895 51.9324 47.7069 52.9872 47.943 54.6194C48.0174 55.1326 48.2201 56.036 48.5512 57.3294C49.0208 59.1797 50.1924 60.2871 52.0658 60.6515C52.1184 60.6614 52.1725 60.6588 52.2242 60.644C52.2758 60.6293 52.3237 60.6026 52.3643 60.566C52.405 60.5295 52.4372 60.484 52.4589 60.4328C52.4805 60.3816 52.4908 60.3262 52.4892 60.2704L52.3275 56.0475C52.3258 55.9823 52.3535 55.919 52.4048 55.8714C52.456 55.8237 52.5265 55.7957 52.6009 55.7935L56.485 55.6895C56.5347 55.688 56.5843 55.6958 56.6306 55.7124C56.6769 55.7291 56.719 55.7542 56.7543 55.7863C56.7896 55.8184 56.8174 55.8567 56.836 55.899C56.8545 55.9413 56.8635 55.9866 56.8623 56.0321L56.7814 59.5929C56.7809 59.6164 56.7857 59.6397 56.7954 59.6611C56.805 59.6825 56.8193 59.7013 56.8372 59.7162C56.855 59.7311 56.8759 59.7416 56.8983 59.7469C56.9206 59.7522 56.9439 59.7522 56.9662 59.7469C57.9978 59.5159 58.7536 59.0476 59.2335 58.3418C60.1523 56.9894 60.5963 55.329 60.5655 53.3606C60.5603 53.0167 60.4718 52.7434 60.2998 52.5406C60.2708 52.5057 60.2296 52.4833 60.1849 52.4782C60.1403 52.4732 60.0958 52.4859 60.0612 52.5137C58.9192 53.3888 57.677 53.8661 56.3349 53.9457C56.0654 53.9611 55.8062 54.0188 55.5573 54.1189C55.1005 54.3063 54.89 54.2511 54.9259 53.9534" stroke="#A56B60" stroke-width="0.769898"/>
<path d="M54.926 53.9535C55.9243 53.6019 56.9432 53.3312 57.9825 53.1413C58.2853 53.0874 58.5356 52.986 58.7332 52.8372C58.9539 52.6755 59.163 52.4946 59.3606 52.2944C59.3802 52.2745 59.3952 52.2505 59.4046 52.2241C59.414 52.1978 59.4176 52.1697 59.415 52.1419C59.4124 52.114 59.4038 52.0871 59.3898 52.0629C59.3757 52.0387 59.3566 52.0179 59.3337 52.0018C58.5689 51.4526 57.7734 51.1947 56.947 51.2281" stroke="#A47B77" stroke-width="0.769898"/>
<path d="M73.0185 29.6708C70.9808 28.5288 69.6296 26.8351 68.9649 24.5895C68.7776 23.9531 68.6031 23.4963 68.4414 23.2191C68.1206 22.675 67.7241 22.6109 67.2519 23.0266C64.6394 25.3261 61.769 25.9651 58.6406 24.9437C55.715 23.989 53.1692 22.4184 51.0032 20.2319C49.6662 18.882 48.7846 18.1275 48.3586 17.9684C46.9112 17.4295 45.8039 17.7823 45.0365 19.027C44.3308 20.1741 43.7457 21.61 43.2812 23.3346C42.8859 24.7974 41.8838 26.0728 40.2747 27.161C39.0968 27.9565 37.4697 28.4775 35.3936 28.7239" stroke="#A66C60" stroke-width="0.769898"/>
<path d="M73.2264 32.5734C72.0228 33.2637 70.927 33.1624 69.939 32.2693" stroke="#FBC8BA" stroke-width="0.769898"/>
<path d="M69.9389 32.2693C70.3366 31.5379 70.3058 30.8924 69.8465 30.333C69.7741 30.2431 69.6644 30.1768 69.5347 30.1444C66.4191 29.3693 63.251 28.9818 60.0303 28.9818" stroke="#906966" stroke-width="0.769898"/>
<path d="M60.0305 28.9817C57.3923 28.5814 54.7426 28.5159 52.0813 28.7854C51.9324 28.8008 51.7105 28.8034 51.4153 28.7931C50.7866 28.77 50.6352 28.9856 50.9611 29.4398C50.9946 29.4875 51.0403 29.5266 51.0945 29.554C51.1486 29.5814 51.2098 29.5964 51.2729 29.5976L59.0912 29.6862" stroke="#F9A99A" stroke-width="0.769898"/>
<path d="M59.0908 29.6862C58.5545 30.9822 58.8983 31.6597 60.1225 31.7187C62.3116 31.8213 64.4929 32.0048 66.6666 32.2692" stroke="#906966" stroke-width="0.769898"/>
<path d="M66.6668 32.2693L66.2472 32.3001C66.2165 32.3029 66.1725 32.3233 66.1197 32.3591C66.067 32.3949 66.0074 32.445 65.947 32.5041C65.775 32.6786 65.5338 32.7659 65.2233 32.7659C62.5492 32.7684 59.6877 33.0777 56.6389 33.6936" stroke="#FBC8BA" stroke-width="0.769898"/>
<path d="M56.6389 33.6935C55.7843 34.1965 54.7963 34.3684 53.6748 34.2093C53.4926 34.1836 53.3322 34.2747 53.1936 34.4826" stroke="#FC9E8D" stroke-width="0.769898"/>
<path d="M53.1936 34.4828C52.6341 34.3339 52.126 34.4353 51.6692 34.7869" stroke="#FBC8BA" stroke-width="0.769898"/>
<path d="M51.6691 34.7867C51.569 34.6687 51.4407 34.6045 51.2842 34.5942" stroke="#FC9E8D" stroke-width="0.769898"/>
<path d="M51.2842 34.5944C51.1713 34.4199 50.853 34.2197 50.3295 33.9939C48.2995 33.1188 46.4312 32.6992 44.7246 32.7351C43.9624 32.7505 43.2567 32.5734 42.6074 32.2039" stroke="#FBC8BA" stroke-width="0.769898"/>
<path d="M42.6076 32.2038L49.6406 31.5148C50.2052 31.4583 50.4926 31.1401 50.5029 30.5601C50.5234 29.3667 49.8805 28.797 48.5743 28.8509C46.7291 28.9253 44.8929 29.0998 43.0657 29.3744C41.2102 29.6516 39.7936 29.9801 38.8158 30.3599C38.758 30.3829 38.7062 30.4176 38.6642 30.4616C38.6223 30.5055 38.5912 30.5576 38.5733 30.614C38.3192 31.4172 38.5733 32.0113 39.3355 32.3963" stroke="#916667" stroke-width="0.769898"/>
<path d="M39.3354 32.3962C38.0112 32.9814 36.637 33.1366 35.2126 32.862" stroke="#FBC8BA" stroke-width="0.769898"/>
<path d="M41.1795 62.022C41.0948 62.1965 41.0499 62.3672 41.0448 62.534C41.0396 62.6751 41.0948 62.8342 41.2103 63.0113C42.8476 65.4904 44.8096 67.6487 47.0962 69.4861C48.5821 70.6821 49.9987 71.493 51.346 71.919C52.9885 72.44 54.6566 72.5734 56.3503 72.3194C58.1442 72.0525 59.947 71.2518 61.7589 69.9173C63.3834 68.7188 64.8218 67.3099 66.0742 65.6905C66.3128 65.3826 66.6156 65.0246 66.9826 64.6165C67.247 64.3214 67.5511 63.9621 67.895 63.5387C68.1542 63.2179 68.1247 62.9369 67.8064 62.6956" stroke="#F7A093" stroke-width="0.769898"/>
<path d="M68.7995 72.4155C68.6275 74.9921 68.6173 77.6033 68.7687 80.2492" stroke="#956D6E" stroke-width="0.769898"/>
<path d="M68.7685 80.2493C67.3263 82.6334 65.4657 84.6364 63.1868 86.2583" stroke="#D5AEB2" stroke-width="0.769898"/>
<path d="M63.1868 86.2583C62.7557 86.5201 62.1269 86.8216 61.3005 87.1629C60.5486 87.476 60.0302 88.0675 59.7454 88.9375" stroke="#8E6765" stroke-width="0.769898"/>
<path d="M59.7453 88.9376C58.5879 91.3525 57.7038 93.856 57.093 96.448" stroke="#FBCABC" stroke-width="0.769898"/>
<path d="M57.0931 96.448C56.2205 99.0144 55.1465 101.613 53.8711 104.243C53.789 104.415 53.7081 104.415 53.6286 104.243C51.8296 100.448 50.1768 96.57 48.6704 92.6101" stroke="#9D7072" stroke-width="0.769898"/>
<path d="M48.6702 92.61L47.4615 87.8982C47.4189 87.7302 47.3356 87.5676 47.2165 87.4201C47.0975 87.2726 46.9451 87.1432 46.7686 87.0398L44.4358 85.6809" stroke="#8F6566" stroke-width="0.769898"/>
<path d="M44.4361 85.6809C43.8433 84.9674 43.2158 84.2848 42.5537 83.6329C41.599 82.6911 40.8419 81.6145 40.2825 80.4032" stroke="#C09DA6" stroke-width="0.769898"/>
<path d="M40.2823 80.4032L40.2014 72.4309" stroke="#906A68" stroke-width="0.769898"/>
<path d="M41.5952 92.4021C42.4395 93.0026 43.3365 93.5197 44.286 93.9534C44.3065 93.9611 44.5106 94.0702 44.8981 94.2806C45.4704 94.5937 45.8758 94.4487 46.1145 93.8456C46.23 93.5531 46.2903 93.4004 46.2954 93.3875C46.6881 92.5381 47.041 91.6707 47.3541 90.7853C47.4002 90.6595 47.4606 90.6506 47.535 90.7583C47.7659 91.0868 47.9058 91.4615 47.9546 91.8824C48.0085 92.352 48.2471 92.5946 48.6706 92.6099" stroke="#2F192D" stroke-width="0.769898"/>
<path d="M57.093 96.4479L58.0053 94.7272" stroke="#9B7D82" stroke-width="0.769898"/>
<path d="M58.0056 94.7272C58.2084 94.7709 58.379 94.74 58.5176 94.6348C58.6074 94.5655 58.6767 94.427 58.7255 94.2191C58.9308 93.3568 59.4043 92.737 60.1459 92.3598C61.8808 91.4821 63.3218 90.3516 64.4689 88.9684" stroke="#2E1A2B" stroke-width="0.769898"/>
<path d="M77.5455 76.7271C77.158 78.7852 76.4804 80.7113 75.5129 82.5051C73.4086 86.4162 70.474 89.678 66.7092 92.2905C66.6557 92.3278 66.5948 92.3531 66.5307 92.3648C66.4665 92.3765 66.4006 92.3742 66.3375 92.3581C66.2743 92.342 66.2153 92.3126 66.1645 92.2717C66.1138 92.2308 66.0724 92.1795 66.0432 92.1212L64.4688 88.9684" stroke="#756178" stroke-width="0.769898"/>
<path d="M64.4686 88.9683L63.1868 86.2583" stroke="#65586B" stroke-width="0.769898"/>
<path d="M81.2951 77.8203L77.5457 76.7271" stroke="#826A7C" stroke-width="0.769898"/>
<path d="M77.5456 76.7271L76.3176 74.8254" stroke="#B9A8BC" stroke-width="0.769898"/>
<path d="M74.6545 32.6849L74.643 33.8975C74.6418 33.9433 74.6261 33.994 74.5968 34.0459C74.5675 34.0978 74.5255 34.1497 74.4736 34.1978C74.335 34.3235 74.3414 34.466 74.4928 34.6251" stroke="#F8C5B8" stroke-width="0.769898"/>
<path d="M74.4929 34.6252L74.1426 42.1241C74.14 42.1767 74.1264 42.2283 74.1026 42.2753C74.0788 42.3224 74.0455 42.3638 74.0048 42.3969C73.964 42.43 73.9168 42.454 73.8663 42.4674C73.8157 42.4807 73.763 42.4831 73.7115 42.4744C73.519 42.441 73.3304 42.459 73.1456 42.5282C72.9916 42.5847 72.8582 42.7028 72.7453 42.8824C72.1961 43.7498 71.9343 44.7032 71.96 45.7426" stroke="#FAAD9F" stroke-width="0.769898"/>
<path d="M71.9597 45.7426C71.5799 46.4072 71.195 46.7652 70.8049 46.8166C69.804 46.9449 68.8096 47.1104 67.8215 47.3132" stroke="#A47B72" stroke-width="0.769898"/>
<path d="M67.8217 47.313C66.6514 47.0512 65.494 47.091 64.3494 47.4323C64.2298 47.4671 64.1022 47.4603 63.9876 47.4131C63.4794 47.2001 62.952 47.0474 62.4054 46.955C61.1941 46.7471 60.1817 46.1877 59.3682 45.2766" stroke="#FBBEB0" stroke-width="0.769898"/>
<path d="M59.3681 45.2766C58.1593 43.6111 57.4215 41.7492 57.1546 39.691C57.0212 38.6439 56.8633 37.6007 56.6811 36.5614C56.6632 36.451 56.6247 36.3676 56.5657 36.3111C56.4656 36.2085 56.3655 36.1828 56.2654 36.2342" stroke="#DF9383" stroke-width="0.769898"/>
<path d="M56.2654 36.2343L53.8672 36.1497" stroke="#FAC7BA" stroke-width="0.769898"/>
<path d="M53.8672 36.1495C52.7868 36.1854 52.0541 35.7312 51.6692 34.7867" stroke="#FAAD9F" stroke-width="0.769898"/>
<path d="M53.1936 34.4826C54.2201 35.0985 55.2839 35.1922 56.3848 34.7636C56.4507 34.7375 56.5078 34.6987 56.5488 34.6522C56.5899 34.6056 56.6132 34.5534 56.6158 34.5019L56.6389 33.6935" stroke="#FAAD9F" stroke-width="0.769898"/>
<path d="M51.2843 34.5942C51.3561 37.1195 51.0661 39.5947 50.4143 42.0199C50.037 43.4263 49.756 44.3065 49.5712 44.6607C49.1144 45.5332 48.3881 46.1761 47.3924 46.5893C46.6148 46.91 45.8218 47.1834 45.0134 47.4092" stroke="#FAAD9F" stroke-width="0.769898"/>
<path d="M45.0135 47.4093C44.5361 47.4452 44.1666 47.3529 43.9048 47.1322C43.4865 46.7754 43.176 46.8524 42.9733 47.3631C42.5934 48.3101 42.6383 49.2802 43.108 50.2733" stroke="#FAC7BA" stroke-width="0.769898"/>
<path d="M43.108 50.2732C42.3818 49.4391 41.8711 48.5178 41.5759 47.5092C41.5611 47.4571 41.5306 47.4097 41.4878 47.3723C41.445 47.335 41.3916 47.3091 41.3334 47.2975L37.1221 46.5122" stroke="#A47B72" stroke-width="0.769898"/>
<path d="M36.5408 44.8378C36.4331 43.4187 35.6952 42.5513 34.3274 42.2356" stroke="#FAC9BA" stroke-width="0.769898"/>
<path d="M34.3274 42.2356C34.7637 41.5555 34.9818 41.1179 34.9818 40.9229C34.9869 38.9058 34.9202 36.8399 34.7816 34.7252" stroke="#F7AEA2" stroke-width="0.769898"/>
<path d="M34.7816 34.7252C35.1537 34.1504 35.0998 33.5986 34.6199 33.0699" stroke="#FAC9BA" stroke-width="0.769898"/>
<path d="M54.926 53.9535L53.9675 54.2076" stroke="#FAC6BE" stroke-width="0.769898"/>
<path d="M53.9673 54.2076L50.2256 52.3136" stroke="#EB817B" stroke-width="0.769898"/>
<path d="M50.2256 52.3136L50.4989 51.74" stroke="#FAC6BE" stroke-width="0.769898"/>
<path d="M50.2258 52.3135C49.9075 51.8797 49.6086 51.8579 49.3288 52.248C49.3061 52.2797 49.2899 52.3156 49.2812 52.3535C49.2725 52.3915 49.2716 52.4307 49.2784 52.4688C49.2853 52.507 49.2997 52.5432 49.321 52.5754C49.3422 52.6076 49.3698 52.635 49.402 52.6561C50.8391 53.5902 52.3609 54.1073 53.9675 54.2074" stroke="#EC7164" stroke-width="0.769898"/>
<path d="M59.3682 45.2766C59.2835 45.659 59.313 46.0183 59.4568 46.3545C59.4818 46.4108 59.4945 46.4707 59.4939 46.5294C59.4932 46.5882 59.4792 46.6442 59.4529 46.6932C59.168 47.2321 59.0192 47.7711 59.0063 48.31" stroke="#E17967" stroke-width="0.769898"/>
<path d="M59.0063 48.3101C58.1697 48.4255 57.2971 48.781 56.3886 49.3764C56.3569 49.397 56.3215 49.4111 56.2845 49.4177C56.2474 49.4243 56.2095 49.4233 56.1731 49.4149C55.8343 49.3353 55.7535 49.4213 55.9305 49.6728C56.2873 50.1783 56.626 50.6967 56.9468 51.228" stroke="#8A3729" stroke-width="0.769898"/>
<path d="M56.9469 51.228C55.479 51.4205 54.0033 51.4821 52.52 51.4128C51.822 51.3794 51.1483 51.4885 50.499 51.74" stroke="#DF9288" stroke-width="0.769898"/>
<path d="M50.4991 51.7399L49.991 51.4551" stroke="#E08271" stroke-width="0.769898"/>
<path d="M49.991 51.4551C51.0355 50.6698 52.2314 50.3066 53.5787 50.3657C53.6365 50.3681 53.6929 50.3527 53.739 50.322C53.7851 50.2913 53.8181 50.247 53.8328 50.1963C53.9431 49.8113 53.9226 49.4277 53.7712 49.0453" stroke="#8A3729" stroke-width="0.769898"/>
<path d="M56.2655 36.2343C56.2321 39.65 56.7505 43.062 57.8207 46.47C57.8736 46.6387 57.8826 46.818 57.8469 46.9912C57.8112 47.1643 57.732 47.3254 57.6166 47.4594C56.6414 48.5809 55.3596 49.1095 53.771 49.0454" stroke="#E08271" stroke-width="0.769898"/>
<path d="M53.771 49.0452C53.0524 48.8578 52.3505 48.6205 51.6653 48.333C50.7235 47.9378 49.8009 47.9609 48.8975 48.4023C47.2371 49.2107 45.9719 50.422 45.102 52.0362C45.0764 52.0838 45.035 52.1205 44.9858 52.139C44.9366 52.1576 44.8833 52.1566 44.8363 52.1363C43.9664 51.7616 43.3902 51.1406 43.1079 50.2732" stroke="#A56B60" stroke-width="0.769898"/>
<path d="M67.8217 47.3131C67.4393 47.9701 67.0903 48.645 66.7746 49.3379C66.1382 50.7289 65.1399 51.7375 63.7797 52.3636C63.7366 52.3834 63.6897 52.3938 63.6423 52.3943C63.5948 52.3948 63.5477 52.3853 63.5042 52.3664C63.4606 52.3475 63.4216 52.3197 63.3894 52.2847C63.3573 52.2498 63.3329 52.2085 63.3178 52.1635C62.6249 50.0796 61.1877 48.7952 59.0063 48.3101" stroke="#A66256" stroke-width="0.769898"/>
<path d="M53.8672 36.1497C53.4668 39.9735 52.1529 43.4111 49.9253 46.4624C49.4249 47.1425 48.8513 47.6173 48.2046 47.8868C47.2422 48.2845 46.2991 48.4167 45.3752 48.2832C44.6207 48.1755 44.5001 47.8842 45.0134 47.4094" stroke="#FB9D8D" stroke-width="0.769898"/>
<path d="M60.0303 28.9818L59.0911 29.6863" stroke="#8C5858" stroke-width="0.769898"/>
<path d="M42.6075 32.2039L39.3354 32.3963" stroke="#8F7579" stroke-width="0.769898"/>
<path d="M69.9388 32.2693H66.6667" stroke="#8E7878" stroke-width="0.769898"/>
<path d="M58.0056 94.7273C58.7601 92.8667 59.3401 90.9368 59.7456 88.9376" stroke="#8C7475" stroke-width="0.769898"/>
<path d="M97.7618 34.7801C97.6991 34.5496 97.5349 34.3567 97.3053 34.2441C97.0758 34.1314 96.7995 34.1081 96.5375 34.1793C96.2754 34.2505 96.049 34.4104 95.9079 34.6237C95.7669 34.8371 95.7229 35.0865 95.7855 35.317C95.8482 35.5476 96.0123 35.7404 96.2419 35.853C96.4715 35.9657 96.7477 35.989 97.0098 35.9178C97.2719 35.8466 97.4983 35.6867 97.6393 35.4734C97.7804 35.26 97.8244 35.0106 97.7618 34.7801Z" stroke="#9088A8" stroke-width="0.769898"/>
<path d="M97.6284 42.228C97.6284 41.694 97.4163 41.182 97.0387 40.8044C96.6612 40.4268 96.1491 40.2147 95.6151 40.2147C95.0812 40.2147 94.5691 40.4268 94.1915 40.8044C93.8139 41.182 93.6018 41.694 93.6018 42.228C93.6018 42.762 93.8139 43.274 94.1915 43.6516C94.5691 44.0292 95.0812 44.2413 95.6151 44.2413C96.1491 44.2413 96.6612 44.0292 97.0387 43.6516C97.4163 43.274 97.6284 42.762 97.6284 42.228Z" stroke="#948DAA" stroke-width="0.769898"/>
<path d="M100.72 48.1754C100.72 48.053 100.696 47.9319 100.649 47.8189C100.602 47.7058 100.533 47.6031 100.447 47.5166C100.36 47.4301 100.258 47.3615 100.145 47.3147C100.031 47.2679 99.9104 47.2438 99.788 47.2438C99.5409 47.2438 99.304 47.3419 99.1293 47.5166C98.9546 47.6913 98.8564 47.9283 98.8564 48.1754C98.8564 48.4224 98.9546 48.6594 99.1293 48.8341C99.304 49.0088 99.5409 49.1069 99.788 49.1069C99.9104 49.1069 100.031 49.0828 100.145 49.036C100.258 48.9892 100.36 48.9206 100.447 48.8341C100.533 48.7476 100.602 48.6449 100.649 48.5319C100.696 48.4188 100.72 48.2977 100.72 48.1754Z" stroke="#948DAA" stroke-width="0.769898"/>
<path d="M20.7308 62.7556C21.2422 62.8357 21.7817 62.5992 22.2307 62.098C22.6796 61.5969 23.0012 60.8723 23.1248 60.0835C23.1859 59.693 23.1966 59.2984 23.1562 58.9224C23.1158 58.5464 23.0251 58.1963 22.8893 57.8921C22.7535 57.5879 22.5752 57.3355 22.3647 57.1494C22.1542 56.9634 21.9155 56.8472 21.6623 56.8075C21.1509 56.7275 20.6114 56.964 20.1624 57.4651C19.7135 57.9662 19.3919 58.6909 19.2683 59.4796C19.2072 59.8702 19.1965 60.2647 19.2369 60.6407C19.2773 61.0167 19.368 61.3668 19.5038 61.671C19.6396 61.9752 19.8179 62.2276 20.0284 62.4137C20.2389 62.5998 20.4776 62.716 20.7308 62.7556Z" stroke="#948BA5" stroke-width="0.769898"/>
<path d="M77.6378 66.3411C76.8756 66.3308 76.5856 66.8223 76.7678 67.8155C76.9013 68.5494 77.2272 68.8831 77.7456 68.8163C78.1152 68.7701 78.418 68.5648 78.6541 68.2004C78.9569 67.7333 78.9582 67.2868 78.6579 66.8608C78.4193 66.5169 78.0792 66.3437 77.6378 66.3411Z" stroke="#9088A8" stroke-width="0.769898"/>
<path d="M82.2573 67.9078C82.2573 67.6352 82.149 67.3738 81.9563 67.1811C81.7635 66.9883 81.5021 66.88 81.2295 66.88C80.9569 66.88 80.6955 66.9883 80.5027 67.1811C80.31 67.3738 80.2017 67.6352 80.2017 67.9078C80.2017 68.0428 80.2282 68.1764 80.2799 68.3011C80.3316 68.4258 80.4073 68.5392 80.5027 68.6346C80.5981 68.73 80.7115 68.8058 80.8362 68.8574C80.9609 68.9091 81.0945 68.9356 81.2295 68.9356C81.5021 68.9356 81.7635 68.8273 81.9563 68.6346C82.149 68.4418 82.2573 68.1804 82.2573 67.9078Z" stroke="#9088A8" stroke-width="0.769898"/>
<path d="M41.2604 34.2249L38.7852 34.3095" stroke="#F7BEAC" stroke-width="0.769898"/>
<path d="M38.7852 34.3095L36.7372 34.4981C36.6343 34.5072 36.5381 34.561 36.4671 34.649C36.3961 34.7371 36.3552 34.8533 36.3523 34.9754C36.2804 38.2398 36.65 41.4503 37.4609 44.6069C37.7201 45.618 38.4733 46.1621 39.7206 46.239C42.4229 46.4033 44.698 46.2326 46.5457 45.7271C47.6621 45.4217 48.3948 44.6543 48.7438 43.4251C49.4418 40.9563 49.7767 38.5927 49.7485 36.3343C49.7408 35.7492 49.6523 35.3129 49.4829 35.0255C49.2263 34.5969 48.8272 34.3249 48.2857 34.2094C46.0196 33.7295 43.6779 33.7346 41.2604 34.2248" stroke="#F8AB9C" stroke-width="0.769898"/>
<path d="M38.785 34.3095C39.0647 36.2907 39.0634 38.0936 38.7811 39.7181C38.7503 39.9003 38.7721 40.0247 38.8465 40.0915C38.863 40.1058 38.8832 40.1139 38.9054 40.1152C38.9276 40.1164 38.9511 40.1107 38.9739 40.0985C38.9967 40.0863 39.0181 40.0681 39.0362 40.0454C39.0542 40.0227 39.0684 39.9962 39.0775 39.9683C39.7653 37.7946 41.1036 36.1535 43.0925 35.0448C43.1525 35.0115 43.203 34.969 43.2383 34.9221C43.2737 34.8752 43.2925 34.8257 43.2927 34.7792C43.2953 34.7022 43.2734 34.638 43.2273 34.5867C43.1657 34.5225 43.0656 34.5007 42.927 34.5213C42.5549 34.5803 42.1879 34.6483 41.826 34.7253C41.4103 34.8125 41.2217 34.6457 41.2602 34.2249" stroke="#F6917C" stroke-width="0.769898"/>
<path d="M67.9563 34.0477C67.1043 33.827 66.1932 33.7577 65.2231 33.8398" stroke="#F9C1B3" stroke-width="0.769898"/>
<path d="M65.2233 33.8398C63.3884 33.6858 61.3944 33.7692 59.2412 34.09C58.7793 34.1593 58.5278 34.4262 58.4867 34.8907C58.3892 35.9506 58.3238 37.1029 58.2904 38.3476C58.2185 40.8908 59.0038 43.0426 60.6463 44.8031C61.0518 45.2369 61.5638 45.5333 62.1822 45.6924C64.9231 46.3878 67.601 46.4417 70.2161 45.8541C70.7345 45.7386 71.0771 45.4293 71.244 44.9263C71.9446 42.8065 72.341 40.6778 72.4334 38.54C72.4899 37.2569 72.5579 35.948 72.6375 34.6135C72.6406 34.5621 72.6229 34.5115 72.5884 34.4726C72.5538 34.4337 72.5051 34.4097 72.4527 34.4057L67.9565 34.0477" stroke="#FAAD9F" stroke-width="0.769898"/>
<path d="M65.2232 33.8398C64.9717 34.0477 64.8241 34.2928 64.7805 34.5751C64.7726 34.6253 64.784 34.6784 64.8131 34.7268C64.8421 34.7752 64.8873 34.8165 64.9422 34.8446C65.5735 35.1653 66.0406 35.6876 66.3434 36.4113" stroke="#F99786" stroke-width="0.769898"/>
<path d="M66.3434 36.4113C65.1552 35.5413 63.8836 35.2834 62.5286 35.6376" stroke="#E06956" stroke-width="0.769898"/>
<path d="M62.5285 35.6375C61.9717 35.8864 61.6457 36.3085 61.5508 36.9039" stroke="#B15B4E" stroke-width="0.769898"/>
<path d="M61.5509 36.9041C61.4277 37.0093 61.3366 37.1427 61.2776 37.3044" stroke="#C56E5D" stroke-width="0.769898"/>
<path d="M61.2774 37.3043C61.0516 37.2658 60.9194 37.5751 60.8809 38.2321C60.8629 38.5118 60.8013 38.7813 60.6961 39.0405C60.2444 40.1594 60.2214 41.2488 60.6268 42.3087C60.6628 42.4011 60.7064 42.3985 60.7577 42.301L61.6393 40.6149C61.6732 40.5518 61.6947 40.4871 61.7009 40.4294C61.707 40.3716 61.6977 40.3236 61.6739 40.2915L61.4891 40.0413C61.3788 39.8899 61.3185 39.7834 61.3082 39.7218C61.2723 39.4344 61.3903 39.3433 61.6623 39.4485C61.7316 39.4742 61.8343 39.5396 61.9703 39.6448C62.3989 39.9836 62.8737 40.0272 63.3946 39.7757" stroke="#FC9483" stroke-width="0.769898"/>
<path d="M63.3948 39.7757C64.2956 39.8886 65.1424 39.7308 65.9354 39.3022C65.9662 39.2842 66.1574 39.1995 66.509 39.0481C66.9633 38.8505 67.1493 38.4566 67.0672 37.8663" stroke="#F6A597" stroke-width="0.769898"/>
<path d="M67.0671 37.8663C67.2647 38.2538 67.7203 38.4296 68.4337 38.3937" stroke="#E06956" stroke-width="0.769898"/>
<path d="M68.4339 38.3938C68.9728 36.913 68.8137 35.4643 67.9565 34.0477" stroke="#F99786" stroke-width="0.769898"/>
<path d="M68.4338 38.3937L66.3435 36.4113" stroke="#DF7C6A" stroke-width="0.769898"/>
<path d="M63.6836 36.0225C63.9171 36.1277 64.0826 36.2932 64.1802 36.519" stroke="#AD7D73" stroke-width="0.769898"/>
<path d="M64.18 36.519C64.1774 36.8373 64.1209 36.9887 64.0106 36.9733C63.8992 36.9566 63.7854 36.9788 63.6881 37.0362C63.5907 37.0936 63.5157 37.1828 63.4755 37.2889C63.1522 38.1487 62.7877 38.3206 62.3823 37.8048C62.1308 37.4865 61.8536 37.1863 61.5508 36.904" stroke="#7C4639" stroke-width="0.769898"/>
<path d="M63.3948 39.5872C62.1347 39.3357 61.429 38.5748 61.2776 37.3044" stroke="#C77F6D" stroke-width="0.769898"/>
<path d="M63.3948 39.7758V39.5872" stroke="#F8B6A7" stroke-width="0.769898"/>
<path d="M63.3948 39.5871C64.3674 38.7197 64.6292 37.697 64.1801 36.519" stroke="#C19081" stroke-width="0.769898"/>
<path d="M67.0672 37.8664C66.092 36.9477 65.0604 36.274 63.9722 35.8454C63.7567 35.7607 63.6604 35.8197 63.6835 36.0225" stroke="#DC8B7B" stroke-width="0.769898"/>
<path d="M63.6834 36.0224L62.5286 35.6375" stroke="#964132" stroke-width="0.769898"/>
<path d="M44.1474 35.7646C43.5777 35.7364 43.2941 35.9558 43.2966 36.4229" stroke="#DE6653" stroke-width="0.769898"/>
<path d="M43.2966 36.4229L41.6567 38.3784C41.6419 38.3949 41.6321 38.415 41.628 38.4368C41.624 38.4586 41.6259 38.4812 41.6337 38.5026C41.6415 38.524 41.6548 38.5433 41.6723 38.5586C41.6899 38.574 41.711 38.5848 41.7337 38.5901C42.6602 38.8314 43.6007 38.9404 44.5554 38.9173" stroke="#EF9889" stroke-width="0.769898"/>
<path d="M44.5555 38.9173C45.3305 39.2278 45.9144 39.1354 46.307 38.6401C46.5919 38.2809 46.7074 37.7997 46.6535 37.1966C46.5406 35.8672 45.7052 35.3899 44.1475 35.7646" stroke="#A95F55" stroke-width="0.769898"/>
<path d="M44.5553 38.9172C44.0395 38.155 43.8765 37.3877 44.0664 36.6152" stroke="#A17973" stroke-width="0.769898"/>
<path d="M44.0664 36.6153C44.1716 36.3535 44.1986 36.0699 44.1472 35.7645" stroke="#90473C" stroke-width="0.769898"/>
<path d="M44.0665 36.6153C43.9305 36.2586 43.6739 36.1944 43.2966 36.4228" stroke="#D68071" stroke-width="0.769898"/>
<path d="M46.8302 41.9701C47.2793 42.2806 47.5796 42.1741 47.731 41.6505C47.8619 41.1989 47.9209 40.7998 47.9081 40.4534C47.8875 39.9119 47.6797 39.8259 47.2844 40.1954C46.4273 40.9936 46.2759 41.5851 46.8302 41.9701Z" stroke="#F7B9AE" stroke-width="0.769898"/>
<path d="M52.9241 81.4196C52.9241 81.3317 52.8892 81.2475 52.8271 81.1854C52.765 81.1234 52.6808 81.0885 52.593 81.0885H52.5776C52.4898 81.0885 52.4056 81.1234 52.3435 81.1854C52.2815 81.2475 52.2466 81.3317 52.2466 81.4196V86.1621C52.2466 86.2499 52.2815 86.3341 52.3435 86.3962C52.4056 86.4583 52.4898 86.4932 52.5776 86.4932H52.593C52.6808 86.4932 52.765 86.4583 52.8271 86.3962C52.8892 86.3341 52.9241 86.2499 52.9241 86.1621V81.4196Z" stroke="#FCA294" stroke-width="0.769898"/>
<path d="M79.2048 8.06363C80.1107 9.92935 80.615 11.6193 80.7176 13.1334C80.8434 15.012 81.0679 16.3914 81.3913 17.2716C82.618 20.6155 84.9918 22.1553 88.5128 21.891C91.1716 21.6908 93.4941 21.755 95.4804 22.0835C103.01 32.2436 106.654 43.9524 106.413 57.2101C106.231 67.1649 103.793 76.1521 99.0989 84.1719C98.8038 84.1693 98.4112 84.0757 97.921 83.8909C95.5164 82.9876 89.9744 80.964 81.295 77.8202C87.444 76.8399 91.8118 73.537 94.3987 67.9117C96.0258 64.3727 96.2837 60.7221 95.1725 56.9599C94.2691 53.9059 92.4547 51.5642 89.7293 49.9345C88.6283 49.275 87.3888 48.9093 86.0107 48.8374C84.4786 48.7579 83.2288 49.148 82.2613 50.0077C81.2912 50.8725 80.8216 51.9645 80.8523 53.2836C80.8883 54.7182 81.5966 55.8794 82.9773 56.7674C83.6214 57.1806 84.2681 57.5886 84.9174 57.9915C86.3289 58.8718 87.3362 60.0189 87.9393 61.433C88.4833 62.7161 88.6566 64.161 88.4589 65.7675C88.1843 67.9668 87.2322 69.8223 85.6026 71.3339C83.1236 73.6256 80.0286 74.7894 76.3177 74.8254C75.2475 74.4558 73.795 73.8771 71.96 73.0892C71.8061 73.0225 71.6726 73.0546 71.5597 73.1855L68.7996 72.4156L68.8381 61.7063C70.3394 60.0433 71.2838 58.4163 71.6713 56.8251C72.4104 53.7892 72.5233 50.299 72.0101 46.3545C72.004 46.3076 72.0111 46.2554 72.0311 46.2015C72.051 46.1476 72.0833 46.0934 72.1256 46.0427C72.1897 45.9657 72.2308 45.8759 72.2487 45.7732L73.4305 45.8271C77.7933 44.9854 79.8374 42.3318 79.5628 37.8664C79.3729 34.7663 77.7368 33.0391 74.6547 32.685L73.2265 32.5733C73.419 31.5827 73.3497 30.6152 73.0186 29.6708C74.6765 28.1208 75.866 26.2717 76.5871 24.1237C77.3262 21.9295 76.8681 20.0882 75.2129 18.5997C74.774 18.207 74.6521 17.7336 74.8472 17.1792C75.1551 16.2938 75.3142 15.3943 75.3245 14.4807C75.3347 13.4491 75.1128 12.5932 74.6585 11.9131C73.9682 10.8815 72.9122 10.3566 71.4904 10.3387C71.4699 10.3387 71.271 10.3541 70.8937 10.3849C70.0571 10.4542 69.5464 10.023 69.3616 9.09145C69.0896 7.7159 68.2068 6.68423 66.7132 5.99646C64.4163 4.93913 62.2298 5.08541 60.1537 6.4353C60.0241 6.51886 59.8687 6.55314 59.7156 6.53196C59.5624 6.51079 59.4215 6.43554 59.3183 6.31981C57.8067 4.60294 55.9243 4.23981 53.6711 5.23041C53.1732 5.45111 52.6638 5.47934 52.1428 5.3151C51.1266 4.99431 50.0346 4.83648 48.8669 4.84161C47.6325 4.84931 46.5688 5.0636 45.6757 5.48448C44.041 6.25438 42.9246 7.57732 42.3266 9.4533C42.1521 10.0025 41.7787 10.2412 41.2064 10.1693C40.28 10.0487 39.3715 9.99095 38.481 9.99608C37.4442 10.0038 36.5652 10.1744 35.8441 10.5081C34.3582 11.201 33.4151 12.3237 33.0147 13.8764C32.7093 15.0517 32.6311 16.2938 32.7799 17.6027C32.939 18.9987 33.4959 20.1639 34.4506 21.098C35.7876 22.4043 36.0764 23.9915 35.3167 25.8598C34.9523 26.7555 34.978 27.7102 35.3937 28.7239L35.2128 32.8621L34.62 33.0699C31.4429 32.8903 29.6464 34.2966 29.2307 37.289C29.0741 38.4156 29.1537 39.5897 29.4694 40.8112C29.803 42.1072 30.3368 43.1222 31.0707 43.8562C32.4463 45.2317 34.2697 45.559 36.5409 44.8378L37.1221 46.5123C36.8578 49.4816 36.8257 52.053 37.0259 54.2267C37.2671 56.8418 38.3309 59.1438 40.2171 61.1327L40.2017 72.431L37.1221 73.5858C34.9818 74.6329 32.8967 75.7967 30.8667 77.0773C25.3337 79.505 19.4632 82.346 13.2553 85.6001C12.0389 86.2365 10.9867 86.8909 10.0987 87.5633C3.3544 77.6932 0.140082 66.6131 0.45574 54.323C0.707241 44.5401 3.19658 35.5657 7.92375 27.3996C14.1189 16.7032 22.9945 9.13507 34.5507 4.69533C39.2188 2.90403 44.0217 1.8403 48.9593 1.50411C51.4743 1.33473 54.0394 1.31035 56.6545 1.43096C64.2149 1.78255 71.4416 3.75092 78.3348 7.33608C78.7736 7.56449 79.0636 7.807 79.2048 8.06363ZM97.762 34.7801C97.6993 34.5496 97.5352 34.3567 97.3056 34.2441C97.076 34.1314 96.7998 34.1081 96.5377 34.1793C96.2756 34.2505 96.0492 34.4104 95.9081 34.6237C95.7671 34.8371 95.7231 35.0865 95.7857 35.317C95.8484 35.5476 96.0125 35.7404 96.2421 35.853C96.4717 35.9657 96.7479 35.989 97.01 35.9178C97.2721 35.8466 97.4985 35.6867 97.6395 35.4734C97.7806 35.26 97.8246 35.0106 97.762 34.7801ZM97.6284 42.2279C97.6284 41.6939 97.4163 41.1818 97.0388 40.8043C96.6612 40.4267 96.1491 40.2146 95.6152 40.2146C95.0812 40.2146 94.5691 40.4267 94.1915 40.8043C93.814 41.1818 93.6019 41.6939 93.6019 42.2279C93.6019 42.7618 93.814 43.2739 94.1915 43.6515C94.5691 44.029 95.0812 44.2411 95.6152 44.2411C96.1491 44.2411 96.6612 44.029 97.0388 43.6515C97.4163 43.2739 97.6284 42.7618 97.6284 42.2279ZM100.72 48.1753C100.72 48.053 100.695 47.9319 100.649 47.8188C100.602 47.7058 100.533 47.6031 100.447 47.5166C100.36 47.4301 100.258 47.3615 100.144 47.3147C100.031 47.2679 99.9103 47.2437 99.788 47.2437C99.5409 47.2437 99.304 47.3419 99.1293 47.5166C98.9546 47.6913 98.8564 47.9283 98.8564 48.1753C98.8564 48.4224 98.9546 48.6594 99.1293 48.8341C99.304 49.0088 99.5409 49.1069 99.788 49.1069C99.9103 49.1069 100.031 49.0828 100.144 49.036C100.258 48.9892 100.36 48.9206 100.447 48.8341C100.533 48.7476 100.602 48.6448 100.649 48.5318C100.695 48.4188 100.72 48.2977 100.72 48.1753ZM20.7311 62.7556C21.2425 62.8357 21.782 62.5991 22.2309 62.098C22.6799 61.5969 23.0015 60.8723 23.125 60.0835C23.1862 59.6929 23.1968 59.2984 23.1564 58.9224C23.116 58.5464 23.0254 58.1963 22.8896 57.8921C22.7538 57.5879 22.5755 57.3355 22.365 57.1494C22.1544 56.9633 21.9157 56.8472 21.6625 56.8075C21.1511 56.7274 20.6116 56.9639 20.1627 57.4651C19.7137 57.9662 19.3921 58.6908 19.2686 59.4796C19.2074 59.8702 19.1967 60.2647 19.2371 60.6407C19.2775 61.0167 19.3682 61.3668 19.504 61.671C19.6398 61.9752 19.8181 62.2276 20.0286 62.4137C20.2392 62.5997 20.4779 62.7159 20.7311 62.7556ZM77.638 66.3411C76.8758 66.3308 76.5858 66.8223 76.768 67.8154C76.9015 68.5494 77.2274 68.883 77.7458 68.8163C78.1154 68.7701 78.4182 68.5648 78.6543 68.2004C78.9571 67.7333 78.9584 67.2868 78.6582 66.8608C78.4195 66.5169 78.0794 66.3436 77.638 66.3411ZM82.2574 67.9078C82.2574 67.6352 82.1491 67.3738 81.9564 67.181C81.7636 66.9883 81.5022 66.88 81.2296 66.88C80.957 66.88 80.6956 66.9883 80.5028 67.181C80.3101 67.3738 80.2018 67.6352 80.2018 67.9078C80.2018 68.0428 80.2284 68.1764 80.28 68.3011C80.3317 68.4258 80.4074 68.5391 80.5028 68.6346C80.5983 68.73 80.7116 68.8057 80.8363 68.8574C80.961 68.909 81.0946 68.9356 81.2296 68.9356C81.5022 68.9356 81.7636 68.8273 81.9564 68.6346C82.1491 68.4418 82.2574 68.1804 82.2574 67.9078Z" fill="#737197"/>
<path d="M73.0187 29.6708C70.981 28.5288 69.6298 26.8351 68.9652 24.5895C68.7778 23.9531 68.6033 23.4963 68.4416 23.2191C68.1208 22.675 67.7244 22.6109 67.2521 23.0266C64.6396 25.3261 61.7692 25.9651 58.6408 24.9437C55.7152 23.989 53.1694 22.4184 51.0034 20.2319C49.6664 18.882 48.7849 18.1275 48.3588 17.9684C46.9114 17.4295 45.8041 17.7823 45.0367 19.027C44.331 20.1741 43.7459 21.61 43.2814 23.3346C42.8861 24.7974 41.884 26.0729 40.2749 27.161C39.097 27.9565 37.4699 28.4775 35.3938 28.7239C34.978 27.7102 34.9523 26.7555 35.3168 25.8598C36.0764 23.9916 35.7877 22.4043 34.4506 21.098C33.496 20.1639 32.9391 18.9988 32.78 17.6027C32.6311 16.2939 32.7094 15.0518 33.0148 13.8764C33.4151 12.3238 34.3582 11.201 35.8441 10.5081C36.5653 10.1745 37.4442 10.0038 38.481 9.9961C39.3716 9.99097 40.28 10.0487 41.2065 10.1693C41.7788 10.2412 42.1522 10.0025 42.3267 9.45332C42.9246 7.57733 44.041 6.25439 45.6757 5.48449C46.5688 5.06362 47.6326 4.84932 48.867 4.84162C50.0347 4.83649 51.1266 4.99433 52.1429 5.31512C52.6638 5.47936 53.1733 5.45113 53.6711 5.23043C55.9244 4.23982 57.8068 4.60295 59.3183 6.31983C59.4215 6.43556 59.5624 6.51081 59.7156 6.53198C59.8688 6.55315 60.0241 6.51887 60.1537 6.43532C62.2298 5.08543 64.4163 4.93914 66.7132 5.99647C68.2068 6.68425 69.0896 7.71591 69.3617 9.09147C69.5464 10.023 70.0571 10.4542 70.8938 10.3849C71.271 10.3541 71.4699 10.3387 71.4904 10.3387C72.9122 10.3567 73.9682 10.8815 74.6586 11.9131C75.1128 12.5932 75.3348 13.4491 75.3245 14.4808C75.3143 15.3944 75.1551 16.2939 74.8472 17.1792C74.6521 17.7336 74.7741 18.2071 75.2129 18.5997C76.8682 20.0882 77.3263 21.9295 76.5872 24.1237C75.866 26.2717 74.6765 28.1208 73.0187 29.6708Z" fill="#4E1F18"/>
<path d="M79.2048 8.06366C79.4871 8.03543 79.7592 8.09703 80.0209 8.24844C86.2135 11.8208 91.3666 16.4325 95.4805 22.0835C93.4941 21.755 91.1716 21.6909 88.5129 21.891C84.9919 22.1554 82.618 20.6156 81.3913 17.2716C81.068 16.3914 80.8434 15.012 80.7177 13.1334C80.615 11.6193 80.1107 9.92938 79.2048 8.06366Z" fill="#C4B0BD"/>
<path d="M73.0185 29.6708C73.3495 30.6152 73.4188 31.5828 73.2264 32.5734C72.0227 33.2637 70.9269 33.1623 69.9389 32.2692C70.3367 31.5378 70.3059 30.8924 69.8465 30.3329C69.7742 30.2431 69.6644 30.1767 69.5347 30.1443C66.4192 29.3693 63.2511 28.9818 60.0303 28.9818C57.3921 28.5814 54.7424 28.516 52.0811 28.7855C51.9323 28.8009 51.7103 28.8034 51.4152 28.7932C50.7864 28.7701 50.635 28.9856 50.9609 29.4399C50.9944 29.4875 51.0401 29.5266 51.0943 29.5541C51.1485 29.5815 51.2096 29.5964 51.2727 29.5977L59.091 29.6862C58.5547 30.9822 58.8986 31.6597 60.1227 31.7188C62.3118 31.8214 64.4932 32.0049 66.6668 32.2692L66.2472 32.3C66.2165 32.3029 66.1725 32.3232 66.1197 32.3591C66.067 32.3949 66.0074 32.4449 65.947 32.5041C65.775 32.6786 65.5338 32.7658 65.2233 32.7658C62.5492 32.7684 59.6877 33.0776 56.6389 33.6936C55.7843 34.1966 54.7963 34.3685 53.6748 34.2094C53.4926 34.1837 53.3322 34.2748 53.1936 34.4827C52.6342 34.3339 52.126 34.4352 51.6692 34.7868C51.5691 34.6688 51.4408 34.6046 51.2843 34.5943C51.1714 34.4198 50.8531 34.2197 50.3296 33.9938C48.2996 33.1187 46.4313 32.6991 44.7247 32.735C43.9625 32.7504 43.2568 32.5734 42.6075 32.2038L49.6405 31.5147C50.2051 31.4583 50.4926 31.1401 50.5028 30.5601C50.5234 29.3667 49.8805 28.797 48.5742 28.8509C46.729 28.9253 44.8928 29.0998 43.0656 29.3744C41.2102 29.6516 39.7935 29.9801 38.8158 30.3599C38.7579 30.3829 38.7061 30.4176 38.6642 30.4616C38.6222 30.5055 38.5912 30.5576 38.5732 30.614C38.3192 31.4172 38.5732 32.0113 39.3354 32.3963C38.0112 32.9814 36.637 33.1367 35.2126 32.8621L35.3936 28.7239C37.4697 28.4775 39.0968 27.9565 40.2747 27.161C41.8838 26.0728 42.886 24.7974 43.2812 23.3346C43.7457 21.61 44.3308 20.1741 45.0365 19.027C45.8039 17.7823 46.9112 17.4295 48.3587 17.9684C48.7847 18.1275 49.6662 18.882 51.0033 20.2319C53.1692 22.4184 55.715 23.989 58.6407 24.9437C61.769 25.9651 64.6394 25.326 67.252 23.0266C67.7242 22.6109 68.1207 22.675 68.4414 23.2191C68.6031 23.4963 68.7776 23.9531 68.965 24.5895C69.6296 26.835 70.9808 28.5288 73.0185 29.6708Z" fill="#FDB9A8"/>
<path d="M60.0305 28.9817L59.0912 29.6862L51.2729 29.5976C51.2098 29.5964 51.1486 29.5814 51.0945 29.554C51.0403 29.5266 50.9946 29.4875 50.9611 29.4398C50.6352 28.9856 50.7866 28.77 51.4153 28.7931C51.7105 28.8034 51.9324 28.8008 52.0813 28.7854C54.7426 28.5159 57.3923 28.5814 60.0305 28.9817Z" fill="#F5988B"/>
<path d="M42.6076 32.2038L39.3355 32.3963C38.5733 32.0113 38.3192 31.4172 38.5733 30.614C38.5912 30.5576 38.6223 30.5055 38.6642 30.4616C38.7062 30.4176 38.758 30.3829 38.8158 30.3599C39.7936 29.9801 41.2102 29.6516 43.0657 29.3744C44.8929 29.0998 46.7291 28.9253 48.5743 28.8509C49.8805 28.797 50.5234 29.3667 50.5029 30.5601C50.4926 31.1401 50.2052 31.4583 49.6406 31.5148L42.6076 32.2038Z" fill="#241225"/>
<path d="M60.0301 28.9818C63.2508 28.9818 66.419 29.3693 69.5345 30.1444C69.6642 30.1768 69.774 30.2431 69.8463 30.333C70.3057 30.8924 70.3365 31.5379 69.9387 32.2693H66.6666C64.4929 32.0049 62.3116 31.8214 60.1225 31.7188C58.8983 31.6598 58.5545 30.9823 59.0908 29.6863L60.0301 28.9818Z" fill="#221824"/>
<path d="M42.6077 32.2039C43.2569 32.5734 43.9627 32.7505 44.7249 32.7351C46.4315 32.6992 48.2998 33.1188 50.3297 33.9939C50.8533 34.2197 51.1715 34.4199 51.2844 34.5944C51.3563 37.1197 51.0663 39.5949 50.4144 42.0201C50.0372 43.4264 49.7562 44.3067 49.5714 44.6608C49.1146 45.5334 48.3883 46.1762 47.3926 46.5894C46.615 46.9102 45.822 47.1835 45.0136 47.4093C44.5362 47.4453 44.1667 47.3529 43.9049 47.1322C43.4866 46.7755 43.1761 46.8525 42.9734 47.3632C42.5935 48.3101 42.6384 49.2802 43.1081 50.2734C42.3818 49.4393 41.8711 48.518 41.576 47.5094C41.5611 47.4573 41.5306 47.4099 41.4878 47.3725C41.445 47.3352 41.3916 47.3093 41.3335 47.2977L37.1221 46.5124L36.5408 44.8379C36.4331 43.4187 35.6952 42.5513 34.3274 42.2356C34.7637 41.5556 34.9818 41.118 34.9818 40.923C34.9869 38.9058 34.9202 36.8399 34.7816 34.7253C35.1538 34.1504 35.0999 33.5987 34.62 33.07L35.2128 32.8621C36.6371 33.1367 38.0114 32.9815 39.3356 32.3963L42.6077 32.2039ZM41.2603 34.2248L38.7851 34.3095L36.7372 34.4982C36.6343 34.5073 36.5381 34.561 36.4671 34.6491C36.396 34.7371 36.3551 34.8534 36.3522 34.9755C36.2804 38.2399 36.6499 41.4503 37.4609 44.6069C37.7201 45.6181 38.4733 46.1621 39.7205 46.2391C42.4229 46.4033 44.6979 46.2327 46.5457 45.7271C47.662 45.4217 48.3947 44.6544 48.7437 43.4251C49.4418 40.9563 49.7767 38.5927 49.7485 36.3344C49.7408 35.7492 49.6522 35.313 49.4828 35.0255C49.2262 34.597 48.8271 34.3249 48.2857 34.2094C46.0196 33.7295 43.6778 33.7347 41.2603 34.2248Z" fill="#F9D7CC"/>
<path d="M66.6668 32.2693H69.9389C70.9269 33.1624 72.0227 33.2637 73.2263 32.5734L74.6545 32.685L74.6429 33.8976C74.6418 33.9434 74.6261 33.9941 74.5968 34.046C74.5675 34.0979 74.5254 34.1498 74.4736 34.1979C74.335 34.3236 74.3414 34.4661 74.4928 34.6252L74.1425 42.124C74.1399 42.1767 74.1263 42.2282 74.1025 42.2753C74.0787 42.3223 74.0454 42.3637 74.0046 42.3968C73.9639 42.4299 73.9167 42.4539 73.8662 42.4673C73.8156 42.4806 73.7628 42.483 73.7114 42.4743C73.5189 42.4409 73.3303 42.4589 73.1455 42.5282C72.9915 42.5846 72.8581 42.7027 72.7451 42.8823C72.1959 43.7498 71.9342 44.7031 71.9599 45.7425C71.58 46.4072 71.1951 46.7652 70.805 46.8165C69.8041 46.9448 68.8097 47.1104 67.8217 47.3131C66.6514 47.0513 65.494 47.0911 64.3494 47.4324C64.2298 47.4672 64.1022 47.4604 63.9875 47.4132C63.4794 47.2002 62.952 47.0475 62.4054 46.9551C61.1941 46.7472 60.1817 46.1878 59.3682 45.2767C58.1594 43.6112 57.4216 41.7493 57.1547 39.6911C57.0213 38.644 56.8634 37.6008 56.6812 36.5615C56.6633 36.4511 56.6248 36.3677 56.5657 36.3113C56.4657 36.2086 56.3656 36.1829 56.2655 36.2343L53.8672 36.1496C52.7868 36.1855 52.0541 35.7313 51.6692 34.7869C52.126 34.4353 52.6341 34.3339 53.1936 34.4827C54.2201 35.0987 55.2838 35.1923 56.3848 34.7638C56.4507 34.7376 56.5078 34.6988 56.5488 34.6523C56.5899 34.6058 56.6132 34.5535 56.6158 34.502L56.6389 33.6936C59.6877 33.0777 62.5491 32.7684 65.2232 32.7659C65.5338 32.7659 65.775 32.6786 65.947 32.5041C66.0073 32.445 66.0669 32.3949 66.1197 32.3591C66.1724 32.3233 66.2164 32.3029 66.2472 32.3001L66.6668 32.2693ZM67.9564 34.0478C67.1044 33.827 66.1933 33.7578 65.2232 33.8399C63.3883 33.6859 61.3943 33.7693 59.2411 34.0901C58.7792 34.1594 58.5277 34.4263 58.4866 34.8908C58.3891 35.9507 58.3237 37.103 58.2903 38.3476C58.2185 40.8909 59.0037 43.0427 60.6462 44.8032C61.0517 45.2369 61.5637 45.5333 62.1821 45.6925C64.923 46.3879 67.6009 46.4418 70.216 45.8541C70.7344 45.7387 71.077 45.4294 71.2439 44.9264C71.9445 42.8066 72.3409 40.6779 72.4333 38.5401C72.4898 37.2569 72.5578 35.9481 72.6374 34.6136C72.6405 34.5622 72.6228 34.5116 72.5883 34.4727C72.5537 34.4338 72.505 34.4098 72.4526 34.4058L67.9564 34.0478Z" fill="#F9D7CC"/>
<path d="M74.6548 32.6849C77.737 33.0391 79.373 34.7662 79.5629 37.8663C79.8375 42.3318 77.7934 44.9853 73.4307 45.8271C74.2545 45.4498 74.5637 44.8083 74.3584 43.9023C74.3407 43.8208 74.3442 43.736 74.3685 43.6559C74.3927 43.5758 74.4369 43.503 74.497 43.4443C76.4474 41.5529 77.302 39.5011 77.0607 37.2889C76.8965 35.7799 76.0406 34.892 74.4931 34.6251C74.3417 34.466 74.3353 34.3235 74.4739 34.1978C74.5257 34.1497 74.5678 34.0978 74.5971 34.0459C74.6264 33.994 74.6421 33.9433 74.6432 33.8975L74.6548 32.6849Z" fill="#F7B3A4"/>
<path d="M34.6197 33.0701C35.0996 33.5987 35.1535 34.1505 34.7814 34.7253C33.8267 34.7715 33.0068 35.0705 32.3216 35.6223C31.6851 36.1381 31.313 36.8567 31.2052 37.778C30.9512 39.9414 31.9918 41.4273 34.3272 42.2357C35.695 42.5514 36.4328 43.4188 36.5406 44.838C34.2694 45.5591 32.446 45.2319 31.0705 43.8563C30.3365 43.1224 29.8027 42.1074 29.4691 40.8114C29.1534 39.5898 29.0739 38.4157 29.2304 37.2891C29.6462 34.2968 31.4426 32.8904 34.6197 33.0701Z" fill="#FBBBA8"/>
<path d="M56.6389 33.6935L56.6158 34.5019C56.6132 34.5534 56.5899 34.6056 56.5488 34.6522C56.5078 34.6987 56.4507 34.7375 56.3848 34.7636C55.2839 35.1922 54.2201 35.0985 53.1936 34.4826C53.3322 34.2747 53.4926 34.1836 53.6748 34.2093C54.7963 34.3684 55.7843 34.1965 56.6389 33.6935Z" fill="#FA8372"/>
<path d="M65.2233 33.8398C64.9718 34.0477 64.8243 34.2928 64.7806 34.5751C64.7727 34.6252 64.7841 34.6784 64.8132 34.7268C64.8422 34.7752 64.8875 34.8164 64.9423 34.8445C65.5737 35.1653 66.0407 35.6876 66.3435 36.4113C65.1553 35.5413 63.8837 35.2834 62.5287 35.6375C61.9718 35.8864 61.6459 36.3086 61.5509 36.904C61.4278 37.0092 61.3366 37.1427 61.2776 37.3043C61.0518 37.2658 60.9196 37.5751 60.8811 38.2321C60.8631 38.5118 60.8016 38.7813 60.6963 39.0405C60.2447 40.1594 60.2216 41.2488 60.6271 42.3087C60.663 42.4011 60.7066 42.3985 60.7579 42.301L61.6395 40.6149C61.6734 40.5518 61.6949 40.4871 61.7011 40.4294C61.7073 40.3716 61.6979 40.3236 61.6741 40.2915L61.4893 40.0413C61.379 39.8899 61.3187 39.7834 61.3084 39.7218C61.2725 39.4344 61.3905 39.3433 61.6626 39.4485C61.7319 39.4742 61.8345 39.5396 61.9705 39.6448C62.3991 39.9836 62.8739 40.0272 63.3948 39.7757C64.2956 39.8886 65.1425 39.7308 65.9355 39.3022C65.9663 39.2843 66.1575 39.1996 66.5091 39.0482C66.9633 38.8506 67.1494 38.4566 67.0672 37.8664C67.2648 38.2539 67.7204 38.4297 68.4338 38.3937C68.9728 36.913 68.8136 35.4643 67.9565 34.0477L72.4527 34.4057C72.5051 34.4097 72.5538 34.4337 72.5884 34.4726C72.6229 34.5115 72.6406 34.5621 72.6375 34.6135C72.5579 35.948 72.4899 37.2569 72.4334 38.54C72.341 40.6778 71.9446 42.8065 71.244 44.9263C71.0771 45.4293 70.7345 45.7386 70.2161 45.8541C67.601 46.4417 64.9231 46.3878 62.1822 45.6924C61.5638 45.5333 61.0518 45.2369 60.6463 44.8031C59.0038 43.0426 58.2185 40.8908 58.2904 38.3476C58.3238 37.1029 58.3892 35.9506 58.4867 34.8907C58.5278 34.4262 58.7793 34.1593 59.2412 34.09C61.3944 33.7692 63.3884 33.6858 65.2233 33.8398Z" fill="#FA8372"/>
<path d="M38.7852 34.3095C39.0649 36.2907 39.0636 38.0935 38.7813 39.718C38.7505 39.9002 38.7723 40.0247 38.8468 40.0914C38.8632 40.1057 38.8834 40.1139 38.9056 40.1151C38.9278 40.1163 38.9513 40.1106 38.9741 40.0984C38.9969 40.0863 39.0183 40.068 39.0364 40.0453C39.0544 40.0226 39.0686 39.9961 39.0777 39.9682C39.7655 37.7945 41.1038 36.1534 43.0927 35.0447C43.1527 35.0114 43.2032 34.9689 43.2385 34.922C43.2739 34.8751 43.2927 34.8257 43.2929 34.7791C43.2955 34.7021 43.2737 34.638 43.2275 34.5866C43.1659 34.5225 43.0658 34.5007 42.9272 34.5212C42.5551 34.5802 42.1881 34.6482 41.8263 34.7252C41.4105 34.8125 41.2219 34.6457 41.2604 34.2248C43.6779 33.7346 46.0196 33.7295 48.2857 34.2094C48.8272 34.3249 49.2263 34.5969 49.4829 35.0255C49.6523 35.3129 49.7408 35.7492 49.7485 36.3343C49.7767 38.5927 49.4418 40.9563 48.7438 43.4251C48.3948 44.6543 47.6621 45.4217 46.5457 45.7271C44.698 46.2326 42.4229 46.4033 39.7206 46.239C38.4733 46.1621 37.7201 45.618 37.4609 44.6069C36.65 41.4503 36.2804 38.2398 36.3523 34.9754C36.3552 34.8533 36.3961 34.7371 36.4671 34.649C36.5381 34.561 36.6343 34.5072 36.7372 34.4981L38.7852 34.3095ZM44.1475 35.7646C43.5778 35.7364 43.2942 35.9558 43.2968 36.4228L41.6569 38.3784C41.6421 38.3949 41.6322 38.415 41.6282 38.4368C41.6241 38.4585 41.6261 38.4812 41.6339 38.5026C41.6416 38.524 41.6549 38.5433 41.6725 38.5586C41.69 38.5739 41.7112 38.5848 41.7339 38.5901C42.6603 38.8313 43.6009 38.9404 44.5555 38.9173C45.3306 39.2278 45.9144 39.1355 46.3071 38.6402C46.5919 38.2809 46.7074 37.7997 46.6535 37.1966C46.5406 35.8672 45.7053 35.3899 44.1475 35.7646ZM46.8306 41.97C47.2797 42.2805 47.58 42.174 47.7314 41.6504C47.8623 41.1988 47.9213 40.7997 47.9084 40.4533C47.8879 39.9118 47.68 39.8258 47.2848 40.1953C46.4277 40.9935 46.2763 41.585 46.8306 41.97Z" fill="#F77E6B"/>
<path d="M65.2232 33.8398C66.1933 33.7577 67.1043 33.827 67.9564 34.0477C68.8135 35.4643 68.9726 36.913 68.4337 38.3937L66.3434 36.4113C66.0406 35.6876 65.5735 35.1653 64.9422 34.8445C64.8873 34.8164 64.8421 34.7752 64.8131 34.7268C64.784 34.6784 64.7726 34.6252 64.7805 34.5751C64.8241 34.2928 64.9717 34.0477 65.2232 33.8398Z" fill="#F8AA9A"/>
<path d="M97.0099 35.9178C97.5557 35.7695 97.8923 35.2602 97.7619 34.7801C97.6315 34.3 97.0833 34.031 96.5376 34.1793C95.9918 34.3276 95.6552 34.8369 95.7856 35.317C95.916 35.7971 96.4642 36.0661 97.0099 35.9178Z" fill="#AC9FB8"/>
<path d="M41.2602 34.2249C41.2217 34.6457 41.4103 34.8125 41.826 34.7253C42.1879 34.6483 42.5549 34.5803 42.927 34.5213C43.0656 34.5007 43.1657 34.5225 43.2273 34.5867C43.2734 34.638 43.2953 34.7022 43.2927 34.7792C43.2925 34.8257 43.2737 34.8752 43.2383 34.9221C43.203 34.969 43.1525 35.0115 43.0925 35.0448C41.1036 36.1535 39.7653 37.7946 39.0775 39.9683C39.0684 39.9962 39.0542 40.0227 39.0362 40.0454C39.0181 40.0681 38.9967 40.0863 38.9739 40.0985C38.9511 40.1107 38.9276 40.1164 38.9054 40.1152C38.8832 40.1139 38.863 40.1058 38.8465 40.0915C38.7721 40.0247 38.7503 39.9003 38.7811 39.7181C39.0634 38.0936 39.0647 36.2907 38.785 34.3095L41.2602 34.2249Z" fill="#F5A48C"/>
<path d="M73.4305 45.8273L72.2487 45.7734L71.96 45.7426C71.9343 44.7032 72.1961 43.7498 72.7453 42.8824C72.8582 42.7028 72.9916 42.5847 73.1456 42.5282C73.3304 42.459 73.519 42.441 73.7115 42.4744C73.763 42.4831 73.8157 42.4807 73.8663 42.4674C73.9168 42.454 73.964 42.43 74.0048 42.3969C74.0455 42.3638 74.0788 42.3224 74.1026 42.2753C74.1264 42.2283 74.14 42.1767 74.1426 42.1241L74.4929 34.6252C76.0404 34.8921 76.8963 35.7801 77.0605 37.2891C77.3018 39.5013 76.4472 41.553 74.4968 43.4444C74.4367 43.5031 74.3925 43.5759 74.3683 43.6561C74.344 43.7362 74.3406 43.821 74.3582 43.9025C74.5635 44.8084 74.2543 45.45 73.4305 45.8273Z" fill="#FA8372"/>
<path d="M34.7818 34.7252C34.9204 36.8399 34.9871 38.9058 34.982 40.9229C34.982 41.1179 34.7638 41.5555 34.3275 42.2356C31.9922 41.4272 30.9515 39.9413 31.2056 37.7779C31.3134 36.8566 31.6855 36.138 32.322 35.6222C33.0072 35.0704 33.8271 34.7714 34.7818 34.7252Z" fill="#F58477"/>
<path d="M51.2842 34.5942C51.4407 34.6045 51.569 34.6687 51.6691 34.7867C52.0541 35.7311 52.7868 36.1854 53.8672 36.1494C53.4668 39.9733 52.1529 43.4109 49.9253 46.4622C49.4249 47.1423 48.8513 47.6171 48.2046 47.8865C47.2422 48.2843 46.2991 48.4165 45.3752 48.283C44.6207 48.1752 44.5001 47.884 45.0134 47.4092C45.8218 47.1834 46.6147 46.91 47.3923 46.5893C48.3881 46.1761 49.1143 45.5332 49.5712 44.6607C49.7559 44.3065 50.0369 43.4263 50.4142 42.0199C51.066 39.5947 51.356 37.1195 51.2842 34.5942Z" fill="#FA8372"/>
<path d="M66.3434 36.4113L68.4337 38.3938C67.7203 38.4297 67.2647 38.2539 67.0671 37.8664C66.0919 36.9477 65.0602 36.274 63.9721 35.8455C63.7566 35.7608 63.6603 35.8198 63.6834 36.0225L62.5286 35.6376C63.8836 35.2834 65.1552 35.5413 66.3434 36.4113Z" fill="#C54E3A"/>
<path d="M44.5553 38.9173C44.0395 38.1551 43.8765 37.3878 44.0664 36.6153C44.1716 36.3535 44.1986 36.07 44.1472 35.7646C45.705 35.3899 46.5403 35.8672 46.6533 37.1966C46.7072 37.7997 46.5917 38.2809 46.3068 38.6401C45.9141 39.1354 45.3303 39.2278 44.5553 38.9173Z" fill="#5A403E"/>
<path d="M62.5285 35.6375L63.6834 36.0224C63.9169 36.1276 64.0824 36.2932 64.18 36.519C64.1774 36.8372 64.1209 36.9886 64.0106 36.9732C63.8992 36.9565 63.7854 36.9787 63.6881 37.0361C63.5907 37.0936 63.5157 37.1828 63.4755 37.2889C63.1522 38.1486 62.7877 38.3205 62.3823 37.8047C62.1308 37.4865 61.8536 37.1862 61.5508 36.9039C61.6457 36.3085 61.9717 35.8864 62.5285 35.6375Z" fill="#67332A"/>
<path d="M44.1474 35.7646C44.1987 36.07 44.1718 36.3536 44.0665 36.6154C43.9305 36.2586 43.6739 36.1945 43.2966 36.4229C43.2941 35.9558 43.5777 35.7364 44.1474 35.7646Z" fill="#C54E3A"/>
<path d="M67.0672 37.8664C67.1493 38.4567 66.9633 38.8506 66.509 39.0482C66.1574 39.1996 65.9662 39.2843 65.9354 39.3023C65.1424 39.7308 64.2956 39.8887 63.3948 39.7757V39.5871C64.3674 38.7197 64.6292 37.697 64.1801 36.5191C64.0825 36.2932 63.917 36.1277 63.6835 36.0225C63.6604 35.8197 63.7566 35.7607 63.9722 35.8454C65.0603 36.274 66.092 36.9477 67.0672 37.8664Z" fill="#F2C7BB"/>
<path d="M53.8673 36.1497L56.2655 36.2343C56.2322 39.6501 56.7506 43.0621 57.8207 46.4701C57.8737 46.6388 57.8827 46.8181 57.847 46.9912C57.8113 47.1644 57.732 47.3255 57.6167 47.4595C56.6415 48.581 55.3596 49.1096 53.7711 49.0455C53.0525 48.8581 52.3506 48.6207 51.6654 48.3333C50.7236 47.9381 49.801 47.9612 48.8976 48.4026C47.2372 49.211 45.972 50.4223 45.102 52.0365C45.0765 52.0841 45.035 52.1208 44.9858 52.1393C44.9366 52.1578 44.8833 52.1569 44.8364 52.1366C43.9664 51.7619 43.3903 51.1409 43.108 50.2734C42.6383 49.2803 42.5934 48.3102 42.9733 47.3632C43.176 46.8525 43.4865 46.7755 43.9048 47.1323C44.1666 47.353 44.5361 47.4453 45.0135 47.4094C44.5002 47.8842 44.6208 48.1755 45.3753 48.2833C46.2992 48.4167 47.2423 48.2845 48.2047 47.8868C48.8514 47.6173 49.425 47.1425 49.9254 46.4624C52.153 43.4111 53.467 39.9735 53.8673 36.1497Z" fill="#FBB6A7"/>
<path d="M56.2656 36.2342C56.3657 36.1828 56.4658 36.2085 56.5659 36.3111C56.6249 36.3676 56.6634 36.451 56.6814 36.5614C56.8636 37.6007 57.0214 38.6439 57.1549 39.691C57.4218 41.7492 58.1596 43.6111 59.3683 45.2766C59.2836 45.659 59.3132 46.0183 59.4569 46.3545C59.482 46.4108 59.4946 46.4707 59.494 46.5294C59.4933 46.5882 59.4793 46.6442 59.453 46.6932C59.1682 47.2322 59.0193 47.7711 59.0065 48.31C58.1698 48.4255 57.2973 48.7809 56.3888 49.3763C56.3571 49.397 56.3217 49.411 56.2847 49.4176C56.2476 49.4243 56.2097 49.4233 56.1732 49.4148C55.8345 49.3353 55.7537 49.4212 55.9307 49.6727C56.2874 50.1783 56.6262 50.6967 56.947 51.2279C55.4791 51.4204 54.0034 51.482 52.5201 51.4127C51.822 51.3793 51.1484 51.4884 50.4991 51.7399L49.991 51.455C51.0355 50.6697 52.2314 50.3066 53.5787 50.3656C53.6365 50.3681 53.6929 50.3527 53.739 50.322C53.7851 50.2913 53.8181 50.247 53.8328 50.1963C53.9431 49.8113 53.9226 49.4276 53.7712 49.0453C55.3597 49.1094 56.6416 48.5808 57.6168 47.4593C57.7321 47.3253 57.8114 47.1642 57.8471 46.9911C57.8828 46.818 57.8738 46.6386 57.8208 46.47C56.7507 43.0619 56.2323 39.6499 56.2656 36.2342Z" fill="#C54E3A"/>
<path d="M44.0665 36.6153C43.8766 37.3877 44.0396 38.1551 44.5554 38.9173C43.6007 38.9404 42.6602 38.8313 41.7337 38.5901C41.711 38.5848 41.6899 38.5739 41.6723 38.5586C41.6548 38.5432 41.6415 38.5239 41.6337 38.5026C41.6259 38.4812 41.624 38.4585 41.628 38.4367C41.6321 38.4149 41.6419 38.3948 41.6567 38.3783L43.2966 36.4228C43.6739 36.1944 43.9305 36.2586 44.0665 36.6153Z" fill="#E7B1A7"/>
<path d="M64.1801 36.519C64.6292 37.697 64.3674 38.7197 63.3948 39.5871C62.1347 39.3356 61.429 38.5747 61.2776 37.3043C61.3366 37.1427 61.4277 37.0092 61.5509 36.904C61.8537 37.1863 62.1309 37.4865 62.3824 37.8048C62.7879 38.3206 63.1523 38.1487 63.4757 37.2889C63.5158 37.1828 63.5908 37.0936 63.6882 37.0362C63.7855 36.9788 63.8994 36.9566 64.0107 36.9733C64.1211 36.9887 64.1775 36.8373 64.1801 36.519Z" fill="#905947"/>
<path d="M61.2774 37.3043C61.4288 38.5747 62.1346 39.3356 63.3946 39.5871V39.7757C62.8737 40.0272 62.3989 39.9836 61.9703 39.6448C61.8343 39.5396 61.7316 39.4742 61.6623 39.4485C61.3903 39.3433 61.2723 39.4344 61.3082 39.7218C61.3185 39.7834 61.3788 39.8899 61.4891 40.0413L61.6739 40.2915C61.6977 40.3236 61.707 40.3716 61.7009 40.4294C61.6947 40.4871 61.6732 40.5518 61.6393 40.6149L60.7577 42.301C60.7064 42.3985 60.6628 42.4011 60.6268 42.3087C60.2214 41.2488 60.2444 40.1594 60.6961 39.0405C60.8013 38.7813 60.8629 38.5118 60.8809 38.2321C60.9194 37.5751 61.0516 37.2658 61.2774 37.3043Z" fill="#FDA493"/>
<path d="M46.8302 41.9701C46.2759 41.5851 46.4273 40.9936 47.2844 40.1954C47.6797 39.8259 47.8875 39.9119 47.9081 40.4534C47.9209 40.7998 47.8619 41.1989 47.731 41.6505C47.5796 42.1741 47.2793 42.2806 46.8302 41.9701Z" fill="#F6F3F1"/>
<path d="M95.6151 44.2413C96.727 44.2413 97.6284 43.3399 97.6284 42.228C97.6284 41.1161 96.727 40.2147 95.6151 40.2147C94.5032 40.2147 93.6018 41.1161 93.6018 42.228C93.6018 43.3399 94.5032 44.2413 95.6151 44.2413Z" fill="#B5A9BC"/>
<path d="M59.3682 45.2766C60.1817 46.1877 61.1941 46.7471 62.4055 46.955C62.9521 47.0474 63.4795 47.2001 63.9876 47.4131C64.1023 47.4603 64.2298 47.4671 64.3494 47.4323C65.494 47.091 66.6514 47.0512 67.8217 47.313C67.4393 47.97 67.0903 48.6449 66.7746 49.3378C66.1382 50.7288 65.1399 51.7373 63.7797 52.3635C63.7366 52.3833 63.6897 52.3937 63.6423 52.3942C63.5948 52.3946 63.5477 52.3851 63.5042 52.3663C63.4606 52.3474 63.4216 52.3196 63.3894 52.2846C63.3573 52.2497 63.3329 52.2084 63.3178 52.1634C62.6249 50.0795 61.1877 48.795 59.0063 48.31C59.0192 47.7711 59.168 47.2321 59.4529 46.6932C59.4792 46.6442 59.4932 46.5882 59.4939 46.5294C59.4945 46.4707 59.4818 46.4108 59.4568 46.3545C59.313 46.0183 59.2835 45.659 59.3682 45.2766Z" fill="#FDA493"/>
<path d="M71.96 45.7426L72.2487 45.7734C72.2308 45.876 72.1897 45.9658 72.1255 46.0428C72.0832 46.0935 72.051 46.1477 72.0311 46.2016C72.0111 46.2555 72.0039 46.3077 72.0101 46.3546C72.5233 50.2991 72.4104 53.7893 71.6713 56.8252C71.2838 58.4164 70.3394 60.0434 68.8381 61.7064L67.8064 62.6957C65.5814 64.8412 63.3975 66.6299 61.2546 68.0619C56.0783 71.5136 51.1535 71.1928 46.4802 67.0995C44.2501 65.144 42.4832 63.4515 41.1795 62.0221L40.2171 61.1328C38.3309 59.1439 37.2671 56.8419 37.0259 54.2268C36.8257 52.0532 36.8578 49.4817 37.1221 46.5125L41.3335 47.2978C41.3916 47.3093 41.445 47.3352 41.4878 47.3726C41.5306 47.4099 41.5611 47.4573 41.576 47.5095C41.8711 48.518 42.3818 49.4394 43.1081 50.2734C43.3904 51.1408 43.9665 51.7619 44.8365 52.1366C44.8834 52.1568 44.9367 52.1578 44.9859 52.1393C45.0351 52.1207 45.0766 52.0841 45.1021 52.0365C45.9721 50.4223 47.2373 49.2109 48.8977 48.4026C49.8011 47.9611 50.7236 47.9381 51.6655 48.3333C52.3507 48.6207 53.0526 48.8581 53.7712 49.0454C53.9226 49.4278 53.9431 49.8115 53.8327 50.1964C53.8181 50.2471 53.7851 50.2914 53.739 50.3221C53.6929 50.3529 53.6365 50.3682 53.5787 50.3658C52.2314 50.3068 51.0355 50.6699 49.991 51.4552C48.3896 51.9325 47.7069 52.9873 47.943 54.6195C48.0175 55.1328 48.2202 56.0361 48.5513 57.3295C49.0209 59.1798 50.1924 60.2872 52.0658 60.6516C52.1184 60.6615 52.1725 60.659 52.2242 60.6442C52.2759 60.6294 52.3238 60.6027 52.3644 60.5662C52.405 60.5296 52.4373 60.4841 52.4589 60.4329C52.4805 60.3818 52.4909 60.3263 52.4893 60.2705L52.3276 56.0476C52.3258 55.9825 52.3536 55.9191 52.4048 55.8715C52.4561 55.8239 52.5266 55.7959 52.6009 55.7936L56.485 55.6896C56.5348 55.6881 56.5843 55.6959 56.6307 55.7126C56.677 55.7292 56.7191 55.7543 56.7544 55.7864C56.7897 55.8185 56.8175 55.8568 56.836 55.8991C56.8546 55.9414 56.8635 55.9867 56.8623 56.0322L56.7815 59.593C56.781 59.6165 56.7858 59.6399 56.7954 59.6612C56.8051 59.6826 56.8194 59.7014 56.8372 59.7163C56.8551 59.7312 56.876 59.7417 56.8983 59.747C56.9207 59.7523 56.9439 59.7523 56.9662 59.747C57.9979 59.516 58.7537 59.0477 59.2336 58.3419C60.1523 56.9895 60.5963 55.3291 60.5655 53.3607C60.5604 53.0168 60.4719 52.7435 60.2999 52.5408C60.2709 52.5058 60.2296 52.4834 60.185 52.4783C60.1403 52.4733 60.0959 52.486 60.0612 52.5138C58.9192 53.3889 57.6771 53.8663 56.3349 53.9458C56.0654 53.9612 55.8063 54.019 55.5573 54.119C55.1005 54.3064 54.8901 54.2512 54.926 53.9535C55.9243 53.6019 56.9431 53.3312 57.9825 53.1413C58.2853 53.0874 58.5356 52.986 58.7332 52.8372C58.9539 52.6755 59.163 52.4946 59.3606 52.2944C59.3802 52.2744 59.3952 52.2505 59.4046 52.2241C59.414 52.1978 59.4175 52.1697 59.415 52.1419C59.4124 52.114 59.4038 52.0871 59.3898 52.0629C59.3757 52.0387 59.3566 52.0179 59.3337 52.0018C58.5689 51.4526 57.7734 51.1947 56.947 51.2281C56.6262 50.6968 56.2874 50.1785 55.9307 49.6729C55.7536 49.4214 55.8345 49.3354 56.1732 49.415C56.2097 49.4235 56.2476 49.4244 56.2847 49.4178C56.3217 49.4112 56.3571 49.3971 56.3888 49.3765C57.2973 48.7811 58.1698 48.4257 59.0065 48.3102C61.1878 48.7952 62.625 50.0797 63.3179 52.1635C63.333 52.2085 63.3574 52.2498 63.3896 52.2848C63.4217 52.3197 63.4608 52.3475 63.5043 52.3664C63.5479 52.3853 63.5949 52.3948 63.6424 52.3943C63.6898 52.3939 63.7367 52.3834 63.7798 52.3637C65.14 51.7375 66.1383 50.7289 66.7748 49.338C67.0904 48.6451 67.4394 47.9701 67.8218 47.3132C68.8098 47.1104 69.8043 46.9449 70.8052 46.8166C71.1952 46.7652 71.5802 46.4072 71.96 45.7426Z" fill="#4E1F18"/>
<path d="M99.788 49.1069C100.303 49.1069 100.72 48.6899 100.72 48.1754C100.72 47.6609 100.303 47.2438 99.788 47.2438C99.2735 47.2438 98.8564 47.6609 98.8564 48.1754C98.8564 48.6899 99.2735 49.1069 99.788 49.1069Z" fill="#B5A9BC"/>
<path d="M81.295 77.8202L77.5456 76.7269L76.3176 74.8253C80.0285 74.7894 83.1235 73.6255 85.6026 71.3338C87.2322 69.8222 88.1843 67.9668 88.4589 65.7674C88.6565 64.1609 88.4833 62.7161 87.9392 61.4329C87.3362 60.0189 86.3289 58.8717 84.9174 57.9915C84.2681 57.5886 83.6214 57.1805 82.9772 56.7673C81.5966 55.8794 80.8882 54.7181 80.8523 53.2835C80.8215 51.9644 81.2912 50.8725 82.2612 50.0076C83.2287 49.1479 84.4785 48.7578 86.0106 48.8374C87.3888 48.9092 88.6283 49.2749 89.7292 49.9345C92.4547 51.5641 94.2691 53.9059 95.1724 56.9598C96.2836 60.722 96.0257 64.3726 94.3987 67.9116C91.8118 73.537 87.4439 76.8398 81.295 77.8202Z" fill="#C6B1BF"/>
<path d="M56.9468 51.2281C57.7732 51.1947 58.5687 51.4526 59.3335 52.0018C59.3564 52.0179 59.3755 52.0387 59.3896 52.0629C59.4036 52.0871 59.4122 52.114 59.4148 52.1419C59.4173 52.1697 59.4138 52.1978 59.4044 52.2241C59.395 52.2505 59.38 52.2745 59.3604 52.2944C59.1628 52.4946 58.9537 52.6755 58.733 52.8372C58.5354 52.986 58.2851 53.0874 57.9823 53.1413C56.9429 53.3312 55.9241 53.6019 54.9258 53.9535L53.9673 54.2076L50.2256 52.3136L50.4989 51.7401C51.1482 51.4886 51.8218 51.3795 52.5199 51.4129C54.0032 51.4822 55.4789 51.4206 56.9468 51.2281Z" fill="#F9D6D5"/>
<path d="M49.9909 51.4551L50.499 51.7399L50.2257 52.3135C49.9075 51.8798 49.6085 51.858 49.3288 52.2481C49.306 52.2797 49.2898 52.3156 49.2812 52.3536C49.2725 52.3915 49.2716 52.4308 49.2784 52.4689C49.2852 52.507 49.2997 52.5433 49.3209 52.5755C49.3422 52.6076 49.3697 52.6351 49.4019 52.6561C50.8391 53.5903 52.3609 54.1074 53.9674 54.2075L54.9259 53.9534C54.89 54.2511 55.1005 54.3063 55.5573 54.1189C55.8062 54.0188 56.0654 53.9611 56.3349 53.9457C57.677 53.8661 58.9192 53.3888 60.0612 52.5137C60.0958 52.4859 60.1403 52.4732 60.1849 52.4782C60.2296 52.4833 60.2708 52.5057 60.2998 52.5406C60.4718 52.7434 60.5603 53.0167 60.5655 53.3606C60.5963 55.329 60.1523 56.9894 59.2335 58.3418C58.7536 59.0476 57.9978 59.5159 56.9662 59.7469C56.9439 59.7522 56.9206 59.7522 56.8983 59.7469C56.8759 59.7416 56.855 59.7311 56.8372 59.7162C56.8193 59.7013 56.805 59.6825 56.7954 59.6611C56.7857 59.6397 56.7809 59.6164 56.7814 59.5929L56.8623 56.0321C56.8635 55.9866 56.8545 55.9413 56.836 55.899C56.8174 55.8567 56.7896 55.8184 56.7543 55.7863C56.719 55.7542 56.6769 55.7291 56.6306 55.7124C56.5843 55.6958 56.5347 55.688 56.485 55.6895L52.6009 55.7935C52.5265 55.7957 52.456 55.8237 52.4048 55.8714C52.3535 55.919 52.3258 55.9823 52.3275 56.0475L52.4892 60.2704C52.4908 60.3262 52.4805 60.3816 52.4589 60.4328C52.4372 60.484 52.405 60.5295 52.3643 60.566C52.3237 60.6026 52.2758 60.6293 52.2242 60.644C52.1725 60.6588 52.1184 60.6614 52.0658 60.6515C50.1924 60.2871 49.0208 59.1797 48.5512 57.3294C48.2201 56.036 48.0174 55.1326 47.943 54.6194C47.7069 52.9872 48.3895 51.9324 49.9909 51.4551Z" fill="#FBB6A7"/>
<path d="M50.2258 52.3135L53.9675 54.2074C52.3609 54.1073 50.8391 53.5902 49.402 52.6561C49.3698 52.635 49.3422 52.6076 49.321 52.5754C49.2997 52.5432 49.2853 52.507 49.2784 52.4688C49.2716 52.4307 49.2725 52.3915 49.2812 52.3535C49.2899 52.3156 49.3061 52.2797 49.3288 52.248C49.6086 51.8579 49.9075 51.8797 50.2258 52.3135Z" fill="#DC2C21"/>
<path d="M19.2685 59.4795C19.0113 61.1221 19.666 62.5888 20.7309 62.7555C21.7958 62.9223 22.8676 61.726 23.1249 60.0834C23.3821 58.4409 22.7273 56.9742 21.6624 56.8074C20.5975 56.6407 19.5257 57.837 19.2685 59.4795Z" fill="#B4A4B3"/>
<path d="M40.2168 61.1328L41.1792 62.022C41.0945 62.1966 41.0496 62.3672 41.0445 62.534C41.0393 62.6752 41.0945 62.8343 41.21 63.0114C42.8473 65.4904 44.8093 67.6487 47.0959 69.4862C48.5818 70.6821 49.9984 71.4931 51.3457 71.9191C52.9881 72.4401 54.6563 72.5735 56.35 72.3194C58.1439 72.0525 59.9467 71.2518 61.7586 69.9174C63.3831 68.7189 64.8215 67.31 66.0739 65.6906C66.3125 65.3827 66.6153 65.0246 66.9823 64.6166C67.2467 64.3215 67.5508 63.9622 67.8947 63.5387C68.1539 63.218 68.1243 62.9369 67.8061 62.6957L68.8378 61.7064L68.7993 72.4157C68.6273 74.9923 68.6171 77.6035 68.7685 80.2494C67.3262 82.6335 65.4656 84.6365 63.1867 86.2584C62.7556 86.5202 62.1268 86.8217 61.3005 87.1631C60.5485 87.4762 60.0302 88.0677 59.7453 88.9377C58.5879 91.3526 57.7038 93.856 57.093 96.448C56.2204 99.0144 55.1464 101.613 53.871 104.243C53.7888 104.415 53.708 104.415 53.6284 104.243C51.8294 100.448 50.1767 96.5699 48.6703 92.6101L47.4616 87.8983C47.419 87.7304 47.3357 87.5677 47.2166 87.4202C47.0975 87.2727 46.9452 87.1433 46.7686 87.0399L44.4359 85.681C43.843 84.9676 43.2156 84.2849 42.5534 83.6331C41.5988 82.6912 40.8417 81.6147 40.2823 80.4034L40.2014 72.4311L40.2168 61.1328ZM52.924 81.4196C52.924 81.3318 52.8891 81.2476 52.827 81.1855C52.7649 81.1234 52.6807 81.0886 52.5929 81.0886H52.5775C52.4897 81.0886 52.4055 81.1234 52.3434 81.1855C52.2814 81.2476 52.2465 81.3318 52.2465 81.4196V86.1622C52.2465 86.25 52.2814 86.3342 52.3434 86.3963C52.4055 86.4584 52.4897 86.4933 52.5775 86.4933H52.5929C52.6807 86.4933 52.7649 86.4584 52.827 86.3963C52.8891 86.3342 52.924 86.25 52.924 86.1622V81.4196Z" fill="#FDBCAB"/>
<path d="M41.1795 62.022C42.4832 63.4514 44.2501 65.1439 46.4802 67.0995C51.1535 71.1927 56.0783 71.5135 61.2546 68.0618C63.3975 66.6298 65.5814 64.8411 67.8064 62.6956C68.1247 62.9369 68.1542 63.2179 67.895 63.5387C67.5511 63.9621 67.247 64.3214 66.9826 64.6165C66.6156 65.0246 66.3128 65.3826 66.0742 65.6905C64.8218 67.3099 63.3834 68.7188 61.7589 69.9173C59.947 71.2518 58.1442 72.0525 56.3503 72.3194C54.6566 72.5734 52.9885 72.44 51.346 71.919C49.9987 71.493 48.5821 70.6821 47.0962 69.4861C44.8096 67.6487 42.8476 65.4904 41.2103 63.0113C41.0948 62.8342 41.0396 62.6751 41.0448 62.534C41.0499 62.3672 41.0948 62.1965 41.1795 62.022Z" fill="#F1847B"/>
<path d="M78.6579 66.8608C78.9582 67.2868 78.9569 67.7333 78.6541 68.2004C78.418 68.5648 78.1152 68.7701 77.7456 68.8163C77.2272 68.8831 76.9013 68.5494 76.7678 67.8155C76.5856 66.8223 76.8756 66.3308 77.6378 66.3411C78.0792 66.3437 78.4193 66.5169 78.6579 66.8608Z" fill="#AC9FB8"/>
<path d="M81.2295 68.9356C81.7971 68.9356 82.2573 68.4755 82.2573 67.9078C82.2573 67.3402 81.7971 66.88 81.2295 66.88C80.6618 66.88 80.2017 67.3402 80.2017 67.9078C80.2017 68.4755 80.6618 68.9356 81.2295 68.9356Z" fill="#AC9FB8"/>
<path d="M40.2017 72.4309L40.2825 80.4032C38.6991 78.3809 37.6456 76.1085 37.1221 73.5858L40.2017 72.4309Z" fill="#221824"/>
<path d="M68.7995 72.4155L71.5596 73.1854C71.0925 75.7261 70.1622 78.0807 68.7687 80.2492C68.6173 77.6033 68.6275 74.9921 68.7995 72.4155Z" fill="#2C1E30"/>
<path d="M76.3174 74.8253L77.5454 76.727C77.1578 78.7852 76.4803 80.7112 75.5128 82.5051C73.4084 86.4162 70.4738 89.678 66.709 92.2905C66.6556 92.3278 66.5947 92.3531 66.5305 92.3647C66.4664 92.3764 66.4005 92.3741 66.3373 92.358C66.2742 92.342 66.2152 92.3125 66.1644 92.2716C66.1136 92.2307 66.0723 92.1794 66.0431 92.1211L64.4686 88.9684L63.1868 86.2583C65.4657 84.6364 67.3263 82.6334 68.7685 80.2493C70.162 78.0807 71.0923 75.7261 71.5594 73.1855C71.6723 73.0546 71.8058 73.0225 71.9597 73.0892C73.7947 73.8771 75.2472 74.4558 76.3174 74.8253Z" fill="#AC9FB8"/>
<path d="M37.1219 73.5858C37.6454 76.1085 38.6989 78.381 40.2823 80.4033C40.8418 81.6146 41.5988 82.6912 42.5535 83.633C43.2156 84.2848 43.8431 84.9675 44.4359 85.6809L41.595 92.4021C36.0594 88.6707 32.4832 83.5624 30.8665 77.0773C32.8964 75.7967 34.9816 74.6329 37.1219 73.5858Z" fill="#837EA1"/>
<path d="M81.2947 77.8203C89.974 80.964 95.516 82.9876 97.9207 83.8909C98.4108 84.0757 98.8035 84.1694 99.0986 84.172C94.0019 93.0489 86.897 99.8214 77.784 104.49C71.2553 107.831 64.4057 109.715 57.2354 110.141C53.9685 110.333 50.4719 110.269 46.7455 109.948C41.926 109.532 36.9794 108.157 31.9058 105.822C22.9852 101.715 15.7161 95.6293 10.0984 87.5634C10.9863 86.891 12.0385 86.2366 13.255 85.6001C19.4629 82.346 25.3334 79.5051 30.8664 77.0773C32.4832 83.5625 36.0594 88.6707 41.5949 92.4022C42.4392 93.0027 43.3362 93.5198 44.2857 93.9535C44.3062 93.9612 44.5103 94.0703 44.8978 94.2807C45.4701 94.5938 45.8756 94.4488 46.1142 93.8457C46.2297 93.5532 46.29 93.4005 46.2952 93.3876C46.6878 92.5382 47.0407 91.6708 47.3538 90.7854C47.4 90.6596 47.4603 90.6507 47.5347 90.7584C47.7657 91.0869 47.9055 91.4616 47.9543 91.8825C48.0082 92.3521 48.2468 92.5947 48.6703 92.6101C50.1767 96.5699 51.8294 100.448 53.6284 104.243C53.708 104.415 53.7888 104.415 53.871 104.243C55.1464 101.613 56.2204 99.0143 57.093 96.448L58.0053 94.7273C58.208 94.7709 58.3787 94.7401 58.5173 94.6349C58.6071 94.5656 58.6764 94.427 58.7252 94.2191C58.9305 93.3569 59.404 92.7371 60.1456 92.3598C61.8805 91.4821 63.3214 90.3517 64.4686 88.9684L66.043 92.1212C66.0722 92.1795 66.1136 92.2308 66.1644 92.2717C66.2152 92.3126 66.2741 92.342 66.3373 92.3581C66.4005 92.3742 66.4664 92.3765 66.5305 92.3648C66.5946 92.3531 66.6555 92.3278 66.709 92.2905C70.4738 89.678 73.4084 86.4162 75.5128 82.5051C76.4803 80.7113 77.1578 78.7852 77.5453 76.7271L81.2947 77.8203Z" fill="#3D2338"/>
<path d="M52.593 81.0885H52.5776C52.3948 81.0885 52.2466 81.2367 52.2466 81.4196V86.1621C52.2466 86.345 52.3948 86.4932 52.5776 86.4932H52.593C52.7759 86.4932 52.9241 86.345 52.9241 86.1621V81.4196C52.9241 81.2367 52.7759 81.0885 52.593 81.0885Z" fill="#FB887C"/>
<path d="M44.4361 85.6809L46.7689 87.0398C46.9454 87.1432 47.0978 87.2726 47.2169 87.4201C47.336 87.5676 47.4193 87.7302 47.4618 87.8982L48.6706 92.61C48.2471 92.5946 48.0085 92.3521 47.9546 91.8824C47.9058 91.4616 47.7659 91.0869 47.535 90.7584C47.4606 90.6506 47.4002 90.6596 47.3541 90.7853C47.041 91.6707 46.6881 92.5381 46.2954 93.3876C46.2903 93.4004 46.23 93.5531 46.1145 93.8457C45.8758 94.4488 45.4704 94.5937 44.8981 94.2807C44.5106 94.0702 44.3065 93.9612 44.286 93.9535C43.3365 93.5198 42.4395 93.0026 41.5952 92.4021L44.4361 85.6809Z" fill="#200E21"/>
<path d="M63.187 86.2583L64.4689 88.9683C63.3218 90.3516 61.8808 91.4821 60.1459 92.3597C59.4043 92.737 58.9308 93.3568 58.7255 94.219C58.6767 94.4269 58.6074 94.5655 58.5176 94.6348C58.379 94.74 58.2084 94.7708 58.0056 94.7272C58.7601 92.8666 59.3401 90.9367 59.7456 88.9375C60.0305 88.0675 60.5488 87.476 61.3008 87.1629C62.1271 86.8216 62.7559 86.5201 63.187 86.2583Z" fill="#1E111E"/>
<path d="M59.7453 88.9376C59.3398 90.9368 58.7598 92.8667 58.0053 94.7273L57.093 96.448C57.7038 93.856 58.5879 91.3525 59.7453 88.9376Z" fill="#F9D7CC"/>
</svg>
